<?xml version="1.0" encoding="UTF-8" standalone="no"?>
<!-- This is a Stata 15.0 generated SVG file (http://www.stata.com) -->

<svg version="1.1" width="600px" height="436px" viewBox="0 0 3960 2880" xmlns="http://www.w3.org/2000/svg" xmlns:xlink="http://www.w3.org/1999/xlink">
	<desc>Stata Graph - Graph</desc>
	<rect x="0" y="0" width="3960" height="2880" style="fill:#EAF2F3;stroke:none"/>
	<rect x="0.00" y="0.00" width="3959.88" height="2880.00" style="fill:#EAF2F3"/>
	<rect x="2.88" y="2.88" width="3954.12" height="2874.24" style="fill:none;stroke:#EAF2F3;stroke-width:5.76"/>
	<rect x="390.80" y="100.86" width="3468.22" height="2388.33" style="fill:#FFFFFF"/>
	<rect x="393.68" y="103.74" width="3462.46" height="2382.57" style="fill:none;stroke:#FFFFFF;stroke-width:5.76"/>
	<line x1="390.80" y1="2489.19" x2="3859.02" y2="2489.19" style="stroke:#EAF2F3;stroke-width:8.64"/>
	<line x1="390.80" y1="1714.24" x2="3859.02" y2="1714.24" style="stroke:#EAF2F3;stroke-width:8.64"/>
	<line x1="390.80" y1="939.17" x2="3859.02" y2="939.17" style="stroke:#EAF2F3;stroke-width:8.64"/>
	<line x1="390.80" y1="164.22" x2="3859.02" y2="164.22" style="stroke:#EAF2F3;stroke-width:8.64"/>
	<rect x="735.82" y="287.98" width="254.92" height="2201.21" style="fill:#CAC27E"/>
	<rect x="740.14" y="292.30" width="246.29" height="2192.57" style="fill:none;stroke:#D7D29E;stroke-width:8.64"/>
	<rect x="990.74" y="466.43" width="255.05" height="2022.76" style="fill:#CAC27E"/>
	<rect x="995.06" y="470.75" width="246.41" height="2014.12" style="fill:none;stroke:#D7D29E;stroke-width:8.64"/>
	<rect x="1245.79" y="1299.29" width="255.05" height="1189.89" style="fill:#CAC27E"/>
	<rect x="1250.11" y="1303.61" width="246.41" height="1181.25" style="fill:none;stroke:#D7D29E;stroke-width:8.64"/>
	<rect x="1500.84" y="1834.77" width="254.93" height="654.41" style="fill:#CAC27E"/>
	<rect x="1505.16" y="1839.09" width="246.29" height="645.77" style="fill:none;stroke:#D7D29E;stroke-width:8.64"/>
	<rect x="1755.77" y="1239.89" width="255.05" height="1249.30" style="fill:#CAC27E"/>
	<rect x="1760.08" y="1244.21" width="246.41" height="1240.66" style="fill:none;stroke:#D7D29E;stroke-width:8.64"/>
	<rect x="2010.81" y="1953.83" width="254.92" height="535.36" style="fill:#CAC27E"/>
	<rect x="2015.13" y="1958.15" width="246.29" height="526.72" style="fill:none;stroke:#D7D29E;stroke-width:8.64"/>
	<rect x="2265.74" y="1953.83" width="255.05" height="535.36" style="fill:#CAC27E"/>
	<rect x="2270.06" y="1958.15" width="246.41" height="526.72" style="fill:none;stroke:#D7D29E;stroke-width:8.64"/>
	<rect x="2520.79" y="2429.66" width="254.93" height="59.53" style="fill:#CAC27E"/>
	<rect x="2525.11" y="2433.98" width="246.29" height="50.89" style="fill:none;stroke:#D7D29E;stroke-width:8.64"/>
	<rect x="3030.76" y="2429.66" width="254.93" height="59.53" style="fill:#CAC27E"/>
	<rect x="3035.08" y="2433.98" width="246.29" height="50.89" style="fill:none;stroke:#D7D29E;stroke-width:8.64"/>
	<rect x="3285.69" y="2429.66" width="255.05" height="59.53" style="fill:#CAC27E"/>
	<rect x="3290.01" y="2433.98" width="246.41" height="50.89" style="fill:none;stroke:#D7D29E;stroke-width:8.64"/>
	<rect x="3540.74" y="2429.66" width="254.92" height="59.53" style="fill:#CAC27E"/>
	<rect x="3545.05" y="2433.98" width="246.29" height="50.89" style="fill:none;stroke:#D7D29E;stroke-width:8.64"/>
	<line x1="390.80" y1="2489.19" x2="390.80" y2="100.86" style="stroke:#000000;stroke-width:5.76"/>
	<line x1="390.80" y1="2489.19" x2="350.83" y2="2489.19" style="stroke:#000000;stroke-width:5.76"/>
	<text x="300.72" y="2489.19" style="font-family:'Helvetica';font-size:99.99px;fill:#000000" transform="rotate(-90 300.72,2489.19)" text-anchor="middle">0</text>
	<line x1="390.80" y1="1714.24" x2="350.83" y2="1714.24" style="stroke:#000000;stroke-width:5.76"/>
	<text x="300.72" y="1714.24" style="font-family:'Helvetica';font-size:99.99px;fill:#000000" transform="rotate(-90 300.72,1714.24)" text-anchor="middle">10</text>
	<line x1="390.80" y1="939.17" x2="350.83" y2="939.17" style="stroke:#000000;stroke-width:5.76"/>
	<text x="300.72" y="939.17" style="font-family:'Helvetica';font-size:99.99px;fill:#000000" transform="rotate(-90 300.72,939.17)" text-anchor="middle">20</text>
	<line x1="390.80" y1="164.22" x2="350.83" y2="164.22" style="stroke:#000000;stroke-width:5.76"/>
	<text x="300.72" y="164.22" style="font-family:'Helvetica';font-size:99.99px;fill:#000000" transform="rotate(-90 300.72,164.22)" text-anchor="middle">30</text>
	<text x="190.71" y="1294.96" style="font-family:'Helvetica';font-size:99.99px;fill:#000000" transform="rotate(-90 190.71,1294.96)" text-anchor="middle">Density</text>
	<line x1="390.80" y1="2489.19" x2="3859.02" y2="2489.19" style="stroke:#000000;stroke-width:5.76"/>
	<line x1="454.16" y1="2489.19" x2="454.16" y2="2529.16" style="stroke:#000000;stroke-width:5.76"/>
	<text x="454.16" y="2619.14" style="font-family:'Helvetica';font-size:99.99px;fill:#000000" text-anchor="middle">0</text>
	<line x1="1873.33" y1="2489.19" x2="1873.33" y2="2529.16" style="stroke:#000000;stroke-width:5.76"/>
	<text x="1873.33" y="2619.14" style="font-family:'Helvetica';font-size:99.99px;fill:#000000" text-anchor="middle">.05</text>
	<line x1="3292.37" y1="2489.19" x2="3292.37" y2="2529.16" style="stroke:#000000;stroke-width:5.76"/>
	<text x="3292.37" y="2619.14" style="font-family:'Helvetica';font-size:99.99px;fill:#000000" text-anchor="middle">.1</text>
	<text x="2124.91" y="2729.16" style="font-family:'Helvetica';font-size:99.99px;fill:#000000" text-anchor="middle">Leverage</text>
</svg>
