<?xml version="1.0" encoding="UTF-8" standalone="no"?>
<!-- This is a Stata 15.0 generated SVG file (http://www.stata.com) -->

<svg version="1.1" width="600px" height="436px" viewBox="0 0 3960 2880" xmlns="http://www.w3.org/2000/svg" xmlns:xlink="http://www.w3.org/1999/xlink">
	<desc>Stata Graph - Graph</desc>
	<rect x="0" y="0" width="3960" height="2880" style="fill:#EAF2F3;stroke:none"/>
	<rect x="0.00" y="0.00" width="3959.88" height="2880.00" style="fill:#EAF2F3"/>
	<rect x="2.88" y="2.88" width="3954.12" height="2874.24" style="fill:none;stroke:#EAF2F3;stroke-width:5.76"/>
	<rect x="290.81" y="100.86" width="3568.21" height="2132.77" style="fill:#FFFFFF"/>
	<rect x="293.69" y="103.74" width="3562.45" height="2127.01" style="fill:none;stroke:#FFFFFF;stroke-width:5.76"/>
	<line x1="290.81" y1="2170.27" x2="3859.02" y2="2170.27" style="stroke:#EAF2F3;stroke-width:8.64"/>
	<line x1="290.81" y1="1549.77" x2="3859.02" y2="1549.77" style="stroke:#EAF2F3;stroke-width:8.64"/>
	<line x1="290.81" y1="929.27" x2="3859.02" y2="929.27" style="stroke:#EAF2F3;stroke-width:8.64"/>
	<line x1="290.81" y1="308.77" x2="3859.02" y2="308.77" style="stroke:#EAF2F3;stroke-width:8.64"/>
	<line x1="354.05" y1="2147.50" x2="476.93" y2="2144.53" stroke-linecap="round" style="stroke:#1A476F;stroke-width:8.64"/>
	<line x1="476.93" y1="2144.53" x2="599.94" y2="2140.82" stroke-linecap="round" style="stroke:#1A476F;stroke-width:8.64"/>
	<line x1="599.94" y1="2140.82" x2="722.82" y2="2137.60" stroke-linecap="round" style="stroke:#1A476F;stroke-width:8.64"/>
	<line x1="722.82" y1="2137.60" x2="845.71" y2="2134.63" stroke-linecap="round" style="stroke:#1A476F;stroke-width:8.64"/>
	<line x1="845.71" y1="2134.63" x2="968.59" y2="2131.17" stroke-linecap="round" style="stroke:#1A476F;stroke-width:8.64"/>
	<line x1="968.59" y1="2131.17" x2="1091.60" y2="2125.60" stroke-linecap="round" style="stroke:#1A476F;stroke-width:8.64"/>
	<line x1="1091.60" y1="2125.60" x2="1214.48" y2="2115.08" stroke-linecap="round" style="stroke:#1A476F;stroke-width:8.64"/>
	<line x1="1214.48" y1="2115.08" x2="1337.37" y2="2108.77" stroke-linecap="round" style="stroke:#1A476F;stroke-width:8.64"/>
	<line x1="1337.37" y1="2108.77" x2="1460.25" y2="2100.23" stroke-linecap="round" style="stroke:#1A476F;stroke-width:8.64"/>
	<line x1="1460.25" y1="2100.23" x2="1583.26" y2="2081.79" stroke-linecap="round" style="stroke:#1A476F;stroke-width:8.64"/>
	<line x1="1583.26" y1="2081.79" x2="1706.14" y2="2072.63" stroke-linecap="round" style="stroke:#1A476F;stroke-width:8.64"/>
	<line x1="1706.14" y1="2072.63" x2="1829.03" y2="2067.06" stroke-linecap="round" style="stroke:#1A476F;stroke-width:8.64"/>
	<line x1="1829.03" y1="2067.06" x2="1951.91" y2="2054.69" stroke-linecap="round" style="stroke:#1A476F;stroke-width:8.64"/>
	<line x1="1951.91" y1="2054.69" x2="2074.92" y2="2031.91" stroke-linecap="round" style="stroke:#1A476F;stroke-width:8.64"/>
	<line x1="2074.92" y1="2031.91" x2="2197.80" y2="1997.51" stroke-linecap="round" style="stroke:#1A476F;stroke-width:8.64"/>
	<line x1="2197.80" y1="1997.51" x2="2320.68" y2="1942.94" stroke-linecap="round" style="stroke:#1A476F;stroke-width:8.64"/>
	<line x1="2320.68" y1="1942.94" x2="2443.57" y2="1878.09" stroke-linecap="round" style="stroke:#1A476F;stroke-width:8.64"/>
	<line x1="2443.57" y1="1878.09" x2="2566.57" y2="1824.26" stroke-linecap="round" style="stroke:#1A476F;stroke-width:8.64"/>
	<line x1="2566.57" y1="1824.26" x2="2689.46" y2="1797.77" stroke-linecap="round" style="stroke:#1A476F;stroke-width:8.64"/>
	<line x1="2689.46" y1="1797.77" x2="2812.34" y2="1778.34" stroke-linecap="round" style="stroke:#1A476F;stroke-width:8.64"/>
	<line x1="2812.34" y1="1778.34" x2="2935.23" y2="1755.08" stroke-linecap="round" style="stroke:#1A476F;stroke-width:8.64"/>
	<line x1="2935.23" y1="1755.08" x2="3058.23" y2="1719.68" stroke-linecap="round" style="stroke:#1A476F;stroke-width:8.64"/>
	<line x1="3058.23" y1="1719.68" x2="3181.12" y2="1690.23" stroke-linecap="round" style="stroke:#1A476F;stroke-width:8.64"/>
	<line x1="3181.12" y1="1690.23" x2="3304.00" y2="1660.78" stroke-linecap="round" style="stroke:#1A476F;stroke-width:8.64"/>
	<line x1="3304.00" y1="1660.78" x2="3426.89" y2="1622.91" stroke-linecap="round" style="stroke:#1A476F;stroke-width:8.64"/>
	<line x1="3426.89" y1="1622.91" x2="3549.89" y2="1559.17" stroke-linecap="round" style="stroke:#1A476F;stroke-width:8.64"/>
	<line x1="3549.89" y1="1559.17" x2="3672.78" y2="1492.35" stroke-linecap="round" style="stroke:#1A476F;stroke-width:8.64"/>
	<line x1="3672.78" y1="1492.35" x2="3795.66" y2="1408.69" stroke-linecap="round" style="stroke:#1A476F;stroke-width:8.64"/>
	<circle cx="354.05" cy="2147.50" r="26.35" style="fill:#1A476F"/>
	<circle cx="354.05" cy="2147.50" r="22.03" style="fill:none;stroke:#1A476F;stroke-width:8.64"/>
	<circle cx="476.93" cy="2144.53" r="26.35" style="fill:#1A476F"/>
	<circle cx="476.93" cy="2144.53" r="22.03" style="fill:none;stroke:#1A476F;stroke-width:8.64"/>
	<circle cx="599.94" cy="2140.82" r="26.35" style="fill:#1A476F"/>
	<circle cx="599.94" cy="2140.82" r="22.03" style="fill:none;stroke:#1A476F;stroke-width:8.64"/>
	<circle cx="722.82" cy="2137.60" r="26.35" style="fill:#1A476F"/>
	<circle cx="722.82" cy="2137.60" r="22.03" style="fill:none;stroke:#1A476F;stroke-width:8.64"/>
	<circle cx="845.71" cy="2134.63" r="26.35" style="fill:#1A476F"/>
	<circle cx="845.71" cy="2134.63" r="22.03" style="fill:none;stroke:#1A476F;stroke-width:8.64"/>
	<circle cx="968.59" cy="2131.17" r="26.35" style="fill:#1A476F"/>
	<circle cx="968.59" cy="2131.17" r="22.03" style="fill:none;stroke:#1A476F;stroke-width:8.64"/>
	<circle cx="1091.60" cy="2125.60" r="26.35" style="fill:#1A476F"/>
	<circle cx="1091.60" cy="2125.60" r="22.03" style="fill:none;stroke:#1A476F;stroke-width:8.64"/>
	<circle cx="1214.48" cy="2115.08" r="26.35" style="fill:#1A476F"/>
	<circle cx="1214.48" cy="2115.08" r="22.03" style="fill:none;stroke:#1A476F;stroke-width:8.64"/>
	<circle cx="1337.37" cy="2108.77" r="26.35" style="fill:#1A476F"/>
	<circle cx="1337.37" cy="2108.77" r="22.03" style="fill:none;stroke:#1A476F;stroke-width:8.64"/>
	<circle cx="1460.25" cy="2100.23" r="26.35" style="fill:#1A476F"/>
	<circle cx="1460.25" cy="2100.23" r="22.03" style="fill:none;stroke:#1A476F;stroke-width:8.64"/>
	<circle cx="1583.26" cy="2081.79" r="26.35" style="fill:#1A476F"/>
	<circle cx="1583.26" cy="2081.79" r="22.03" style="fill:none;stroke:#1A476F;stroke-width:8.64"/>
	<circle cx="1706.14" cy="2072.63" r="26.35" style="fill:#1A476F"/>
	<circle cx="1706.14" cy="2072.63" r="22.03" style="fill:none;stroke:#1A476F;stroke-width:8.64"/>
	<circle cx="1829.03" cy="2067.06" r="26.35" style="fill:#1A476F"/>
	<circle cx="1829.03" cy="2067.06" r="22.03" style="fill:none;stroke:#1A476F;stroke-width:8.64"/>
	<circle cx="1951.91" cy="2054.69" r="26.35" style="fill:#1A476F"/>
	<circle cx="1951.91" cy="2054.69" r="22.03" style="fill:none;stroke:#1A476F;stroke-width:8.64"/>
	<circle cx="2074.92" cy="2031.91" r="26.35" style="fill:#1A476F"/>
	<circle cx="2074.92" cy="2031.91" r="22.03" style="fill:none;stroke:#1A476F;stroke-width:8.64"/>
	<circle cx="2197.80" cy="1997.51" r="26.35" style="fill:#1A476F"/>
	<circle cx="2197.80" cy="1997.51" r="22.03" style="fill:none;stroke:#1A476F;stroke-width:8.64"/>
	<circle cx="2320.68" cy="1942.94" r="26.35" style="fill:#1A476F"/>
	<circle cx="2320.68" cy="1942.94" r="22.03" style="fill:none;stroke:#1A476F;stroke-width:8.64"/>
	<circle cx="2443.57" cy="1878.09" r="26.35" style="fill:#1A476F"/>
	<circle cx="2443.57" cy="1878.09" r="22.03" style="fill:none;stroke:#1A476F;stroke-width:8.64"/>
	<circle cx="2566.57" cy="1824.26" r="26.35" style="fill:#1A476F"/>
	<circle cx="2566.57" cy="1824.26" r="22.03" style="fill:none;stroke:#1A476F;stroke-width:8.64"/>
	<circle cx="2689.46" cy="1797.77" r="26.35" style="fill:#1A476F"/>
	<circle cx="2689.46" cy="1797.77" r="22.03" style="fill:none;stroke:#1A476F;stroke-width:8.64"/>
	<circle cx="2812.34" cy="1778.34" r="26.35" style="fill:#1A476F"/>
	<circle cx="2812.34" cy="1778.34" r="22.03" style="fill:none;stroke:#1A476F;stroke-width:8.64"/>
	<circle cx="2935.23" cy="1755.08" r="26.35" style="fill:#1A476F"/>
	<circle cx="2935.23" cy="1755.08" r="22.03" style="fill:none;stroke:#1A476F;stroke-width:8.64"/>
	<circle cx="3058.23" cy="1719.68" r="26.35" style="fill:#1A476F"/>
	<circle cx="3058.23" cy="1719.68" r="22.03" style="fill:none;stroke:#1A476F;stroke-width:8.64"/>
	<circle cx="3181.12" cy="1690.23" r="26.35" style="fill:#1A476F"/>
	<circle cx="3181.12" cy="1690.23" r="22.03" style="fill:none;stroke:#1A476F;stroke-width:8.64"/>
	<circle cx="3304.00" cy="1660.78" r="26.35" style="fill:#1A476F"/>
	<circle cx="3304.00" cy="1660.78" r="22.03" style="fill:none;stroke:#1A476F;stroke-width:8.64"/>
	<circle cx="3426.89" cy="1622.91" r="26.35" style="fill:#1A476F"/>
	<circle cx="3426.89" cy="1622.91" r="22.03" style="fill:none;stroke:#1A476F;stroke-width:8.64"/>
	<circle cx="3549.89" cy="1559.17" r="26.35" style="fill:#1A476F"/>
	<circle cx="3549.89" cy="1559.17" r="22.03" style="fill:none;stroke:#1A476F;stroke-width:8.64"/>
	<circle cx="3672.78" cy="1492.35" r="26.35" style="fill:#1A476F"/>
	<circle cx="3672.78" cy="1492.35" r="22.03" style="fill:none;stroke:#1A476F;stroke-width:8.64"/>
	<circle cx="3795.66" cy="1408.69" r="26.35" style="fill:#1A476F"/>
	<circle cx="3795.66" cy="1408.69" r="22.03" style="fill:none;stroke:#1A476F;stroke-width:8.64"/>
	<line x1="354.05" y1="2123.12" x2="476.93" y2="2118.42" stroke-linecap="round" style="stroke:#90353B;stroke-width:8.64"/>
	<line x1="476.93" y1="2118.42" x2="599.94" y2="2112.97" stroke-linecap="round" style="stroke:#90353B;stroke-width:8.64"/>
	<line x1="599.94" y1="2112.97" x2="722.82" y2="2109.38" stroke-linecap="round" style="stroke:#90353B;stroke-width:8.64"/>
	<line x1="722.82" y1="2109.38" x2="845.71" y2="2104.81" stroke-linecap="round" style="stroke:#90353B;stroke-width:8.64"/>
	<line x1="845.71" y1="2104.81" x2="968.59" y2="2098.00" stroke-linecap="round" style="stroke:#90353B;stroke-width:8.64"/>
	<line x1="968.59" y1="2098.00" x2="1091.60" y2="2084.14" stroke-linecap="round" style="stroke:#90353B;stroke-width:8.64"/>
	<line x1="1091.60" y1="2084.14" x2="1214.48" y2="2063.97" stroke-linecap="round" style="stroke:#90353B;stroke-width:8.64"/>
	<line x1="1214.48" y1="2063.97" x2="1337.37" y2="2050.85" stroke-linecap="round" style="stroke:#90353B;stroke-width:8.64"/>
	<line x1="1337.37" y1="2050.85" x2="1460.25" y2="2032.41" stroke-linecap="round" style="stroke:#90353B;stroke-width:8.64"/>
	<line x1="1460.25" y1="2032.41" x2="1583.26" y2="2000.85" stroke-linecap="round" style="stroke:#90353B;stroke-width:8.64"/>
	<line x1="1583.26" y1="2000.85" x2="1706.14" y2="1981.92" stroke-linecap="round" style="stroke:#90353B;stroke-width:8.64"/>
	<line x1="1706.14" y1="1981.92" x2="1829.03" y2="1966.33" stroke-linecap="round" style="stroke:#90353B;stroke-width:8.64"/>
	<line x1="1829.03" y1="1966.33" x2="1951.91" y2="1935.51" stroke-linecap="round" style="stroke:#90353B;stroke-width:8.64"/>
	<line x1="1951.91" y1="1935.51" x2="2074.92" y2="1883.53" stroke-linecap="round" style="stroke:#90353B;stroke-width:8.64"/>
	<line x1="2074.92" y1="1883.53" x2="2197.80" y2="1798.27" stroke-linecap="round" style="stroke:#90353B;stroke-width:8.64"/>
	<line x1="2197.80" y1="1798.27" x2="2320.68" y2="1668.45" stroke-linecap="round" style="stroke:#90353B;stroke-width:8.64"/>
	<line x1="2320.68" y1="1668.45" x2="2443.57" y2="1544.20" stroke-linecap="round" style="stroke:#90353B;stroke-width:8.64"/>
	<line x1="2443.57" y1="1544.20" x2="2566.57" y2="1444.83" stroke-linecap="round" style="stroke:#90353B;stroke-width:8.64"/>
	<line x1="2566.57" y1="1444.83" x2="2689.46" y2="1373.67" stroke-linecap="round" style="stroke:#90353B;stroke-width:8.64"/>
	<line x1="2689.46" y1="1373.67" x2="2812.34" y2="1327.01" stroke-linecap="round" style="stroke:#90353B;stroke-width:8.64"/>
	<line x1="2812.34" y1="1327.01" x2="2935.23" y2="1281.97" stroke-linecap="round" style="stroke:#90353B;stroke-width:8.64"/>
	<line x1="2935.23" y1="1281.97" x2="3058.23" y2="1195.21" stroke-linecap="round" style="stroke:#90353B;stroke-width:8.64"/>
	<line x1="3058.23" y1="1195.21" x2="3181.12" y2="1100.30" stroke-linecap="round" style="stroke:#90353B;stroke-width:8.64"/>
	<line x1="3181.12" y1="1100.30" x2="3304.00" y2="1004.02" stroke-linecap="round" style="stroke:#90353B;stroke-width:8.64"/>
	<line x1="3304.00" y1="1004.02" x2="3426.89" y2="862.07" stroke-linecap="round" style="stroke:#90353B;stroke-width:8.64"/>
	<line x1="3426.89" y1="862.07" x2="3549.89" y2="639.44" stroke-linecap="round" style="stroke:#90353B;stroke-width:8.64"/>
	<line x1="3549.89" y1="639.44" x2="3672.78" y2="426.33" stroke-linecap="round" style="stroke:#90353B;stroke-width:8.64"/>
	<line x1="3672.78" y1="426.33" x2="3795.66" y2="164.22" stroke-linecap="round" style="stroke:#90353B;stroke-width:8.64"/>
	<circle cx="354.05" cy="2123.12" r="26.35" style="fill:#90353B"/>
	<circle cx="354.05" cy="2123.12" r="22.03" style="fill:none;stroke:#90353B;stroke-width:8.64"/>
	<circle cx="476.93" cy="2118.42" r="26.35" style="fill:#90353B"/>
	<circle cx="476.93" cy="2118.42" r="22.03" style="fill:none;stroke:#90353B;stroke-width:8.64"/>
	<circle cx="599.94" cy="2112.97" r="26.35" style="fill:#90353B"/>
	<circle cx="599.94" cy="2112.97" r="22.03" style="fill:none;stroke:#90353B;stroke-width:8.64"/>
	<circle cx="722.82" cy="2109.38" r="26.35" style="fill:#90353B"/>
	<circle cx="722.82" cy="2109.38" r="22.03" style="fill:none;stroke:#90353B;stroke-width:8.64"/>
	<circle cx="845.71" cy="2104.81" r="26.35" style="fill:#90353B"/>
	<circle cx="845.71" cy="2104.81" r="22.03" style="fill:none;stroke:#90353B;stroke-width:8.64"/>
	<circle cx="968.59" cy="2098.00" r="26.35" style="fill:#90353B"/>
	<circle cx="968.59" cy="2098.00" r="22.03" style="fill:none;stroke:#90353B;stroke-width:8.64"/>
	<circle cx="1091.60" cy="2084.14" r="26.35" style="fill:#90353B"/>
	<circle cx="1091.60" cy="2084.14" r="22.03" style="fill:none;stroke:#90353B;stroke-width:8.64"/>
	<circle cx="1214.48" cy="2063.97" r="26.35" style="fill:#90353B"/>
	<circle cx="1214.48" cy="2063.97" r="22.03" style="fill:none;stroke:#90353B;stroke-width:8.64"/>
	<circle cx="1337.37" cy="2050.85" r="26.35" style="fill:#90353B"/>
	<circle cx="1337.37" cy="2050.85" r="22.03" style="fill:none;stroke:#90353B;stroke-width:8.64"/>
	<circle cx="1460.25" cy="2032.41" r="26.35" style="fill:#90353B"/>
	<circle cx="1460.25" cy="2032.41" r="22.03" style="fill:none;stroke:#90353B;stroke-width:8.64"/>
	<circle cx="1583.26" cy="2000.85" r="26.35" style="fill:#90353B"/>
	<circle cx="1583.26" cy="2000.85" r="22.03" style="fill:none;stroke:#90353B;stroke-width:8.64"/>
	<circle cx="1706.14" cy="1981.92" r="26.35" style="fill:#90353B"/>
	<circle cx="1706.14" cy="1981.92" r="22.03" style="fill:none;stroke:#90353B;stroke-width:8.64"/>
	<circle cx="1829.03" cy="1966.33" r="26.35" style="fill:#90353B"/>
	<circle cx="1829.03" cy="1966.33" r="22.03" style="fill:none;stroke:#90353B;stroke-width:8.64"/>
	<circle cx="1951.91" cy="1935.51" r="26.35" style="fill:#90353B"/>
	<circle cx="1951.91" cy="1935.51" r="22.03" style="fill:none;stroke:#90353B;stroke-width:8.64"/>
	<circle cx="2074.92" cy="1883.53" r="26.35" style="fill:#90353B"/>
	<circle cx="2074.92" cy="1883.53" r="22.03" style="fill:none;stroke:#90353B;stroke-width:8.64"/>
	<circle cx="2197.80" cy="1798.27" r="26.35" style="fill:#90353B"/>
	<circle cx="2197.80" cy="1798.27" r="22.03" style="fill:none;stroke:#90353B;stroke-width:8.64"/>
	<circle cx="2320.68" cy="1668.45" r="26.35" style="fill:#90353B"/>
	<circle cx="2320.68" cy="1668.45" r="22.03" style="fill:none;stroke:#90353B;stroke-width:8.64"/>
	<circle cx="2443.57" cy="1544.20" r="26.35" style="fill:#90353B"/>
	<circle cx="2443.57" cy="1544.20" r="22.03" style="fill:none;stroke:#90353B;stroke-width:8.64"/>
	<circle cx="2566.57" cy="1444.83" r="26.35" style="fill:#90353B"/>
	<circle cx="2566.57" cy="1444.83" r="22.03" style="fill:none;stroke:#90353B;stroke-width:8.64"/>
	<circle cx="2689.46" cy="1373.67" r="26.35" style="fill:#90353B"/>
	<circle cx="2689.46" cy="1373.67" r="22.03" style="fill:none;stroke:#90353B;stroke-width:8.64"/>
	<circle cx="2812.34" cy="1327.01" r="26.35" style="fill:#90353B"/>
	<circle cx="2812.34" cy="1327.01" r="22.03" style="fill:none;stroke:#90353B;stroke-width:8.64"/>
	<circle cx="2935.23" cy="1281.97" r="26.35" style="fill:#90353B"/>
	<circle cx="2935.23" cy="1281.97" r="22.03" style="fill:none;stroke:#90353B;stroke-width:8.64"/>
	<circle cx="3058.23" cy="1195.21" r="26.35" style="fill:#90353B"/>
	<circle cx="3058.23" cy="1195.21" r="22.03" style="fill:none;stroke:#90353B;stroke-width:8.64"/>
	<circle cx="3181.12" cy="1100.30" r="26.35" style="fill:#90353B"/>
	<circle cx="3181.12" cy="1100.30" r="22.03" style="fill:none;stroke:#90353B;stroke-width:8.64"/>
	<circle cx="3304.00" cy="1004.02" r="26.35" style="fill:#90353B"/>
	<circle cx="3304.00" cy="1004.02" r="22.03" style="fill:none;stroke:#90353B;stroke-width:8.64"/>
	<circle cx="3426.89" cy="862.07" r="26.35" style="fill:#90353B"/>
	<circle cx="3426.89" cy="862.07" r="22.03" style="fill:none;stroke:#90353B;stroke-width:8.64"/>
	<circle cx="3549.89" cy="639.44" r="26.35" style="fill:#90353B"/>
	<circle cx="3549.89" cy="639.44" r="22.03" style="fill:none;stroke:#90353B;stroke-width:8.64"/>
	<circle cx="3672.78" cy="426.33" r="26.35" style="fill:#90353B"/>
	<circle cx="3672.78" cy="426.33" r="22.03" style="fill:none;stroke:#90353B;stroke-width:8.64"/>
	<circle cx="3795.66" cy="164.22" r="26.35" style="fill:#90353B"/>
	<circle cx="3795.66" cy="164.22" r="22.03" style="fill:none;stroke:#90353B;stroke-width:8.64"/>
	<line x1="290.81" y1="2233.63" x2="290.81" y2="100.86" style="stroke:#000000;stroke-width:5.76"/>
	<line x1="290.81" y1="2170.27" x2="250.84" y2="2170.27" style="stroke:#000000;stroke-width:5.76"/>
	<text x="200.73" y="2170.27" style="font-family:'Helvetica';font-size:99.99px;fill:#000000" transform="rotate(-90 200.73,2170.27)" text-anchor="middle">0</text>
	<line x1="290.81" y1="1549.77" x2="250.84" y2="1549.77" style="stroke:#000000;stroke-width:5.76"/>
	<text x="200.73" y="1549.77" style="font-family:'Helvetica';font-size:99.99px;fill:#000000" transform="rotate(-90 200.73,1549.77)" text-anchor="middle">5000</text>
	<line x1="290.81" y1="929.27" x2="250.84" y2="929.27" style="stroke:#000000;stroke-width:5.76"/>
	<text x="200.73" y="929.27" style="font-family:'Helvetica';font-size:99.99px;fill:#000000" transform="rotate(-90 200.73,929.27)" text-anchor="middle">10000</text>
	<line x1="290.81" y1="308.77" x2="250.84" y2="308.77" style="stroke:#000000;stroke-width:5.76"/>
	<text x="200.73" y="308.77" style="font-family:'Helvetica';font-size:99.99px;fill:#000000" transform="rotate(-90 200.73,308.77)" text-anchor="middle">15000</text>
	<line x1="290.81" y1="2233.63" x2="3859.02" y2="2233.63" style="stroke:#000000;stroke-width:5.76"/>
	<line x1="599.94" y1="2233.63" x2="599.94" y2="2273.73" style="stroke:#000000;stroke-width:5.76"/>
	<text x="599.94" y="2363.59" style="font-family:'Helvetica';font-size:99.99px;fill:#000000" text-anchor="middle">1980</text>
	<line x1="1214.48" y1="2233.63" x2="1214.48" y2="2273.73" style="stroke:#000000;stroke-width:5.76"/>
	<text x="1214.48" y="2363.59" style="font-family:'Helvetica';font-size:99.99px;fill:#000000" text-anchor="middle">1985</text>
	<line x1="1829.15" y1="2233.63" x2="1829.15" y2="2273.73" style="stroke:#000000;stroke-width:5.76"/>
	<text x="1829.15" y="2363.59" style="font-family:'Helvetica';font-size:99.99px;fill:#000000" text-anchor="middle">1990</text>
	<line x1="2443.69" y1="2233.63" x2="2443.69" y2="2273.73" style="stroke:#000000;stroke-width:5.76"/>
	<text x="2443.69" y="2363.59" style="font-family:'Helvetica';font-size:99.99px;fill:#000000" text-anchor="middle">1995</text>
	<line x1="3058.23" y1="2233.63" x2="3058.23" y2="2273.73" style="stroke:#000000;stroke-width:5.76"/>
	<text x="3058.23" y="2363.59" style="font-family:'Helvetica';font-size:99.99px;fill:#000000" text-anchor="middle">2000</text>
	<line x1="3672.78" y1="2233.63" x2="3672.78" y2="2273.73" style="stroke:#000000;stroke-width:5.76"/>
	<text x="3672.78" y="2363.59" style="font-family:'Helvetica';font-size:99.99px;fill:#000000" text-anchor="middle">2005</text>
	<text x="2074.92" y="2473.60" style="font-family:'Helvetica';font-size:99.99px;fill:#000000" text-anchor="middle">Year</text>
	<rect x="621.72" y="2558.24" width="2906.39" height="186.37" style="fill:#FFFFFF"/>
	<rect x="624.60" y="2561.12" width="2900.63" height="180.61" style="fill:none;stroke:#000000;stroke-width:5.76"/>
	<line x1="664.91" y1="2651.43" x2="1039.38" y2="2651.43" style="stroke:#1A476F;stroke-width:8.64"/>
	<circle cx="852.14" cy="2651.43" r="26.35" style="fill:#1A476F"/>
	<circle cx="852.14" cy="2651.43" r="22.03" style="fill:none;stroke:#1A476F;stroke-width:8.64"/>
	<line x1="2335.91" y1="2651.43" x2="2710.37" y2="2651.43" style="stroke:#90353B;stroke-width:8.64"/>
	<circle cx="2523.14" cy="2651.43" r="26.35" style="fill:#90353B"/>
	<circle cx="2523.14" cy="2651.43" r="22.03" style="fill:none;stroke:#90353B;stroke-width:8.64"/>
	<text x="1099.40" y="2686.46" style="font-family:'Helvetica';font-size:99.99px;fill:#000000">Consumption per capita</text>
	<text x="2770.39" y="2686.46" style="font-family:'Helvetica';font-size:99.99px;fill:#000000">GDP per capita</text>
</svg>
