<?xml version="1.0" encoding="UTF-8" standalone="no"?>
<!-- This is a Stata 15.0 generated SVG file (http://www.stata.com) -->

<svg version="1.1" width="600px" height="436px" viewBox="0 0 3960 2880" xmlns="http://www.w3.org/2000/svg" xmlns:xlink="http://www.w3.org/1999/xlink">
	<desc>Stata Graph - Graph</desc>
	<rect x="0" y="0" width="3960" height="2880" style="fill:#EAF2F3;stroke:none"/>
	<rect x="0.00" y="0.00" width="3959.88" height="2880.00" style="fill:#EAF2F3"/>
	<rect x="2.88" y="2.88" width="3954.12" height="2874.24" style="fill:none;stroke:#EAF2F3;stroke-width:5.76"/>
	<rect x="390.80" y="100.86" width="3468.22" height="2388.33" style="fill:#FFFFFF"/>
	<rect x="393.68" y="103.74" width="3462.46" height="2382.57" style="fill:none;stroke:#FFFFFF;stroke-width:5.76"/>
	<line x1="390.80" y1="2425.82" x2="3859.02" y2="2425.82" style="stroke:#EAF2F3;stroke-width:8.64"/>
	<line x1="390.80" y1="1671.91" x2="3859.02" y2="1671.91" style="stroke:#EAF2F3;stroke-width:8.64"/>
	<line x1="390.80" y1="918.01" x2="3859.02" y2="918.01" style="stroke:#EAF2F3;stroke-width:8.64"/>
	<line x1="390.80" y1="164.22" x2="3859.02" y2="164.22" style="stroke:#EAF2F3;stroke-width:8.64"/>
	<circle cx="454.04" cy="1581.57" r="26.35" style="fill:#1A476F"/>
	<circle cx="454.04" cy="1581.57" r="22.03" style="fill:none;stroke:#1A476F;stroke-width:8.64"/>
	<circle cx="748.44" cy="452.94" r="26.35" style="fill:#1A476F"/>
	<circle cx="748.44" cy="452.94" r="22.03" style="fill:none;stroke:#1A476F;stroke-width:8.64"/>
	<circle cx="853.88" cy="307.53" r="26.35" style="fill:#1A476F"/>
	<circle cx="853.88" cy="307.53" r="22.03" style="fill:none;stroke:#1A476F;stroke-width:8.64"/>
	<circle cx="803.63" cy="1094.97" r="26.35" style="fill:#1A476F"/>
	<circle cx="803.63" cy="1094.97" r="22.03" style="fill:none;stroke:#1A476F;stroke-width:8.64"/>
	<circle cx="857.34" cy="1530.09" r="26.35" style="fill:#1A476F"/>
	<circle cx="857.34" cy="1530.09" r="22.03" style="fill:none;stroke:#1A476F;stroke-width:8.64"/>
	<circle cx="1087.89" cy="2404.79" r="26.35" style="fill:#1A476F"/>
	<circle cx="1087.89" cy="2404.79" r="22.03" style="fill:none;stroke:#1A476F;stroke-width:8.64"/>
	<circle cx="1189.11" cy="845.98" r="26.35" style="fill:#1A476F"/>
	<circle cx="1189.11" cy="845.98" r="22.03" style="fill:none;stroke:#1A476F;stroke-width:8.64"/>
	<circle cx="1291.95" cy="1258.21" r="26.35" style="fill:#1A476F"/>
	<circle cx="1291.95" cy="1258.21" r="22.03" style="fill:none;stroke:#1A476F;stroke-width:8.64"/>
	<circle cx="1259.16" cy="1398.17" r="26.35" style="fill:#1A476F"/>
	<circle cx="1259.16" cy="1398.17" r="22.03" style="fill:none;stroke:#1A476F;stroke-width:8.64"/>
	<circle cx="1228.22" cy="1386.66" r="26.35" style="fill:#1A476F"/>
	<circle cx="1228.22" cy="1386.66" r="22.03" style="fill:none;stroke:#1A476F;stroke-width:8.64"/>
	<circle cx="1370.66" cy="947.09" r="26.35" style="fill:#1A476F"/>
	<circle cx="1370.66" cy="947.09" r="22.03" style="fill:none;stroke:#1A476F;stroke-width:8.64"/>
	<circle cx="1493.79" cy="1568.70" r="26.35" style="fill:#1A476F"/>
	<circle cx="1493.79" cy="1568.70" r="22.03" style="fill:none;stroke:#1A476F;stroke-width:8.64"/>
	<circle cx="1481.91" cy="2042.56" r="26.35" style="fill:#1A476F"/>
	<circle cx="1481.91" cy="2042.56" r="22.03" style="fill:none;stroke:#1A476F;stroke-width:8.64"/>
	<circle cx="1613.95" cy="2096.89" r="26.35" style="fill:#1A476F"/>
	<circle cx="1613.95" cy="2096.89" r="22.03" style="fill:none;stroke:#1A476F;stroke-width:8.64"/>
	<circle cx="1715.92" cy="2123.37" r="26.35" style="fill:#1A476F"/>
	<circle cx="1715.92" cy="2123.37" r="22.03" style="fill:none;stroke:#1A476F;stroke-width:8.64"/>
	<circle cx="1556.53" cy="1812.25" r="26.35" style="fill:#1A476F"/>
	<circle cx="1556.53" cy="1812.25" r="22.03" style="fill:none;stroke:#1A476F;stroke-width:8.64"/>
	<circle cx="1842.39" cy="1966.33" r="26.35" style="fill:#1A476F"/>
	<circle cx="1842.39" cy="1966.33" r="22.03" style="fill:none;stroke:#1A476F;stroke-width:8.64"/>
	<circle cx="1920.97" cy="2220.89" r="26.35" style="fill:#1A476F"/>
	<circle cx="1920.97" cy="2220.89" r="22.03" style="fill:none;stroke:#1A476F;stroke-width:8.64"/>
	<circle cx="1929.76" cy="2188.96" r="26.35" style="fill:#1A476F"/>
	<circle cx="1929.76" cy="2188.96" r="22.03" style="fill:none;stroke:#1A476F;stroke-width:8.64"/>
	<circle cx="1902.66" cy="1961.38" r="26.35" style="fill:#1A476F"/>
	<circle cx="1902.66" cy="1961.38" r="22.03" style="fill:none;stroke:#1A476F;stroke-width:8.64"/>
	<circle cx="2026.04" cy="1763.12" r="26.35" style="fill:#1A476F"/>
	<circle cx="2026.04" cy="1763.12" r="22.03" style="fill:none;stroke:#1A476F;stroke-width:8.64"/>
	<circle cx="1944.36" cy="1586.15" r="26.35" style="fill:#1A476F"/>
	<circle cx="1944.36" cy="1586.15" r="22.03" style="fill:none;stroke:#1A476F;stroke-width:8.64"/>
	<circle cx="1961.68" cy="1883.41" r="26.35" style="fill:#1A476F"/>
	<circle cx="1961.68" cy="1883.41" r="22.03" style="fill:none;stroke:#1A476F;stroke-width:8.64"/>
	<circle cx="1933.72" cy="2181.16" r="26.35" style="fill:#1A476F"/>
	<circle cx="1933.72" cy="2181.16" r="22.03" style="fill:none;stroke:#1A476F;stroke-width:8.64"/>
	<circle cx="1934.83" cy="1268.60" r="26.35" style="fill:#1A476F"/>
	<circle cx="1934.83" cy="1268.60" r="22.03" style="fill:none;stroke:#1A476F;stroke-width:8.64"/>
	<circle cx="2089.89" cy="2075.23" r="26.35" style="fill:#1A476F"/>
	<circle cx="2089.89" cy="2075.23" r="22.03" style="fill:none;stroke:#1A476F;stroke-width:8.64"/>
	<circle cx="1957.35" cy="1973.13" r="26.35" style="fill:#1A476F"/>
	<circle cx="1957.35" cy="1973.13" r="22.03" style="fill:none;stroke:#1A476F;stroke-width:8.64"/>
	<circle cx="2007.60" cy="1710.77" r="26.35" style="fill:#1A476F"/>
	<circle cx="2007.60" cy="1710.77" r="22.03" style="fill:none;stroke:#1A476F;stroke-width:8.64"/>
	<circle cx="2182.33" cy="2153.94" r="26.35" style="fill:#1A476F"/>
	<circle cx="2182.33" cy="2153.94" r="22.03" style="fill:none;stroke:#1A476F;stroke-width:8.64"/>
	<circle cx="2219.21" cy="2025.11" r="26.35" style="fill:#1A476F"/>
	<circle cx="2219.21" cy="2025.11" r="22.03" style="fill:none;stroke:#1A476F;stroke-width:8.64"/>
	<circle cx="2161.05" cy="1776.73" r="26.35" style="fill:#1A476F"/>
	<circle cx="2161.05" cy="1776.73" r="22.03" style="fill:none;stroke:#1A476F;stroke-width:8.64"/>
	<circle cx="2159.07" cy="1405.84" r="26.35" style="fill:#1A476F"/>
	<circle cx="2159.07" cy="1405.84" r="22.03" style="fill:none;stroke:#1A476F;stroke-width:8.64"/>
	<circle cx="2182.70" cy="1587.51" r="26.35" style="fill:#1A476F"/>
	<circle cx="2182.70" cy="1587.51" r="22.03" style="fill:none;stroke:#1A476F;stroke-width:8.64"/>
	<circle cx="2339.37" cy="1644.57" r="26.35" style="fill:#1A476F"/>
	<circle cx="2339.37" cy="1644.57" r="22.03" style="fill:none;stroke:#1A476F;stroke-width:8.64"/>
	<circle cx="2242.60" cy="1725.25" r="26.35" style="fill:#1A476F"/>
	<circle cx="2242.60" cy="1725.25" r="22.03" style="fill:none;stroke:#1A476F;stroke-width:8.64"/>
	<circle cx="2237.03" cy="1855.44" r="26.35" style="fill:#1A476F"/>
	<circle cx="2237.03" cy="1855.44" r="22.03" style="fill:none;stroke:#1A476F;stroke-width:8.64"/>
	<circle cx="2377.24" cy="1440.25" r="26.35" style="fill:#1A476F"/>
	<circle cx="2377.24" cy="1440.25" r="22.03" style="fill:none;stroke:#1A476F;stroke-width:8.64"/>
	<circle cx="2322.17" cy="2061.00" r="26.35" style="fill:#1A476F"/>
	<circle cx="2322.17" cy="2061.00" r="22.03" style="fill:none;stroke:#1A476F;stroke-width:8.64"/>
	<circle cx="2239.26" cy="1843.81" r="26.35" style="fill:#1A476F"/>
	<circle cx="2239.26" cy="1843.81" r="22.03" style="fill:none;stroke:#1A476F;stroke-width:8.64"/>
	<circle cx="2249.65" cy="1871.53" r="26.35" style="fill:#1A476F"/>
	<circle cx="2249.65" cy="1871.53" r="22.03" style="fill:none;stroke:#1A476F;stroke-width:8.64"/>
	<circle cx="2291.60" cy="1550.02" r="26.35" style="fill:#1A476F"/>
	<circle cx="2291.60" cy="1550.02" r="22.03" style="fill:none;stroke:#1A476F;stroke-width:8.64"/>
	<circle cx="2447.40" cy="1858.66" r="26.35" style="fill:#1A476F"/>
	<circle cx="2447.40" cy="1858.66" r="22.03" style="fill:none;stroke:#1A476F;stroke-width:8.64"/>
	<circle cx="2424.51" cy="2030.68" r="26.35" style="fill:#1A476F"/>
	<circle cx="2424.51" cy="2030.68" r="22.03" style="fill:none;stroke:#1A476F;stroke-width:8.64"/>
	<circle cx="2356.82" cy="1916.20" r="26.35" style="fill:#1A476F"/>
	<circle cx="2356.82" cy="1916.20" r="22.03" style="fill:none;stroke:#1A476F;stroke-width:8.64"/>
	<circle cx="2455.57" cy="1983.03" r="26.35" style="fill:#1A476F"/>
	<circle cx="2455.57" cy="1983.03" r="22.03" style="fill:none;stroke:#1A476F;stroke-width:8.64"/>
	<circle cx="2215.74" cy="1955.19" r="26.35" style="fill:#1A476F"/>
	<circle cx="2215.74" cy="1955.19" r="22.03" style="fill:none;stroke:#1A476F;stroke-width:8.64"/>
	<circle cx="2360.41" cy="1692.09" r="26.35" style="fill:#1A476F"/>
	<circle cx="2360.41" cy="1692.09" r="22.03" style="fill:none;stroke:#1A476F;stroke-width:8.64"/>
	<circle cx="2418.20" cy="1442.60" r="26.35" style="fill:#1A476F"/>
	<circle cx="2418.20" cy="1442.60" r="22.03" style="fill:none;stroke:#1A476F;stroke-width:8.64"/>
	<circle cx="2520.05" cy="1807.92" r="26.35" style="fill:#1A476F"/>
	<circle cx="2520.05" cy="1807.92" r="22.03" style="fill:none;stroke:#1A476F;stroke-width:8.64"/>
	<circle cx="2583.16" cy="1765.23" r="26.35" style="fill:#1A476F"/>
	<circle cx="2583.16" cy="1765.23" r="22.03" style="fill:none;stroke:#1A476F;stroke-width:8.64"/>
	<circle cx="2541.08" cy="1739.24" r="26.35" style="fill:#1A476F"/>
	<circle cx="2541.08" cy="1739.24" r="22.03" style="fill:none;stroke:#1A476F;stroke-width:8.64"/>
	<circle cx="2633.65" cy="1819.80" r="26.35" style="fill:#1A476F"/>
	<circle cx="2633.65" cy="1819.80" r="22.03" style="fill:none;stroke:#1A476F;stroke-width:8.64"/>
	<circle cx="2639.71" cy="1888.48" r="26.35" style="fill:#1A476F"/>
	<circle cx="2639.71" cy="1888.48" r="22.03" style="fill:none;stroke:#1A476F;stroke-width:8.64"/>
	<circle cx="2630.55" cy="1954.32" r="26.35" style="fill:#1A476F"/>
	<circle cx="2630.55" cy="1954.32" r="22.03" style="fill:none;stroke:#1A476F;stroke-width:8.64"/>
	<circle cx="2538.86" cy="1913.73" r="26.35" style="fill:#1A476F"/>
	<circle cx="2538.86" cy="1913.73" r="22.03" style="fill:none;stroke:#1A476F;stroke-width:8.64"/>
	<circle cx="2701.22" cy="1892.94" r="26.35" style="fill:#1A476F"/>
	<circle cx="2701.22" cy="1892.94" r="22.03" style="fill:none;stroke:#1A476F;stroke-width:8.64"/>
	<circle cx="2420.67" cy="1704.83" r="26.35" style="fill:#1A476F"/>
	<circle cx="2420.67" cy="1704.83" r="22.03" style="fill:none;stroke:#1A476F;stroke-width:8.64"/>
	<circle cx="2615.09" cy="1670.68" r="26.35" style="fill:#1A476F"/>
	<circle cx="2615.09" cy="1670.68" r="22.03" style="fill:none;stroke:#1A476F;stroke-width:8.64"/>
	<circle cx="2618.67" cy="1848.26" r="26.35" style="fill:#1A476F"/>
	<circle cx="2618.67" cy="1848.26" r="22.03" style="fill:none;stroke:#1A476F;stroke-width:8.64"/>
	<circle cx="2700.10" cy="1991.45" r="26.35" style="fill:#1A476F"/>
	<circle cx="2700.10" cy="1991.45" r="22.03" style="fill:none;stroke:#1A476F;stroke-width:8.64"/>
	<circle cx="2664.46" cy="1597.91" r="26.35" style="fill:#1A476F"/>
	<circle cx="2664.46" cy="1597.91" r="22.03" style="fill:none;stroke:#1A476F;stroke-width:8.64"/>
	<circle cx="2723.24" cy="1668.45" r="26.35" style="fill:#1A476F"/>
	<circle cx="2723.24" cy="1668.45" r="22.03" style="fill:none;stroke:#1A476F;stroke-width:8.64"/>
	<circle cx="2736.98" cy="1914.84" r="26.35" style="fill:#1A476F"/>
	<circle cx="2736.98" cy="1914.84" r="22.03" style="fill:none;stroke:#1A476F;stroke-width:8.64"/>
	<circle cx="2760.61" cy="1946.28" r="26.35" style="fill:#1A476F"/>
	<circle cx="2760.61" cy="1946.28" r="22.03" style="fill:none;stroke:#1A476F;stroke-width:8.64"/>
	<circle cx="2798.61" cy="1923.26" r="26.35" style="fill:#1A476F"/>
	<circle cx="2798.61" cy="1923.26" r="22.03" style="fill:none;stroke:#1A476F;stroke-width:8.64"/>
	<circle cx="2568.06" cy="1724.39" r="26.35" style="fill:#1A476F"/>
	<circle cx="2568.06" cy="1724.39" r="22.03" style="fill:none;stroke:#1A476F;stroke-width:8.64"/>
	<circle cx="2706.04" cy="1649.52" r="26.35" style="fill:#1A476F"/>
	<circle cx="2706.04" cy="1649.52" r="22.03" style="fill:none;stroke:#1A476F;stroke-width:8.64"/>
	<circle cx="2515.59" cy="1625.75" r="26.35" style="fill:#1A476F"/>
	<circle cx="2515.59" cy="1625.75" r="22.03" style="fill:none;stroke:#1A476F;stroke-width:8.64"/>
	<circle cx="2738.34" cy="1706.81" r="26.35" style="fill:#1A476F"/>
	<circle cx="2738.34" cy="1706.81" r="22.03" style="fill:none;stroke:#1A476F;stroke-width:8.64"/>
	<circle cx="2801.70" cy="2010.51" r="26.35" style="fill:#1A476F"/>
	<circle cx="2801.70" cy="2010.51" r="22.03" style="fill:none;stroke:#1A476F;stroke-width:8.64"/>
	<circle cx="2702.33" cy="1694.56" r="26.35" style="fill:#1A476F"/>
	<circle cx="2702.33" cy="1694.56" r="22.03" style="fill:none;stroke:#1A476F;stroke-width:8.64"/>
	<circle cx="2798.48" cy="2102.45" r="26.35" style="fill:#1A476F"/>
	<circle cx="2798.48" cy="2102.45" r="22.03" style="fill:none;stroke:#1A476F;stroke-width:8.64"/>
	<circle cx="2873.72" cy="1864.85" r="26.35" style="fill:#1A476F"/>
	<circle cx="2873.72" cy="1864.85" r="22.03" style="fill:none;stroke:#1A476F;stroke-width:8.64"/>
	<circle cx="2823.11" cy="1829.95" r="26.35" style="fill:#1A476F"/>
	<circle cx="2823.11" cy="1829.95" r="22.03" style="fill:none;stroke:#1A476F;stroke-width:8.64"/>
	<circle cx="2858.25" cy="1784.90" r="26.35" style="fill:#1A476F"/>
	<circle cx="2858.25" cy="1784.90" r="22.03" style="fill:none;stroke:#1A476F;stroke-width:8.64"/>
	<circle cx="2771.63" cy="1632.56" r="26.35" style="fill:#1A476F"/>
	<circle cx="2771.63" cy="1632.56" r="22.03" style="fill:none;stroke:#1A476F;stroke-width:8.64"/>
	<circle cx="2900.08" cy="1746.79" r="26.35" style="fill:#1A476F"/>
	<circle cx="2900.08" cy="1746.79" r="22.03" style="fill:none;stroke:#1A476F;stroke-width:8.64"/>
	<circle cx="2783.63" cy="1594.20" r="26.35" style="fill:#1A476F"/>
	<circle cx="2783.63" cy="1594.20" r="22.03" style="fill:none;stroke:#1A476F;stroke-width:8.64"/>
	<circle cx="2899.83" cy="1985.75" r="26.35" style="fill:#1A476F"/>
	<circle cx="2899.83" cy="1985.75" r="22.03" style="fill:none;stroke:#1A476F;stroke-width:8.64"/>
	<circle cx="2885.48" cy="1756.93" r="26.35" style="fill:#1A476F"/>
	<circle cx="2885.48" cy="1756.93" r="22.03" style="fill:none;stroke:#1A476F;stroke-width:8.64"/>
	<circle cx="2892.28" cy="1733.30" r="26.35" style="fill:#1A476F"/>
	<circle cx="2892.28" cy="1733.30" r="22.03" style="fill:none;stroke:#1A476F;stroke-width:8.64"/>
	<circle cx="2930.03" cy="1680.21" r="26.35" style="fill:#1A476F"/>
	<circle cx="2930.03" cy="1680.21" r="22.03" style="fill:none;stroke:#1A476F;stroke-width:8.64"/>
	<circle cx="2794.03" cy="1877.22" r="26.35" style="fill:#1A476F"/>
	<circle cx="2794.03" cy="1877.22" r="22.03" style="fill:none;stroke:#1A476F;stroke-width:8.64"/>
	<circle cx="2905.40" cy="1807.80" r="26.35" style="fill:#1A476F"/>
	<circle cx="2905.40" cy="1807.80" r="22.03" style="fill:none;stroke:#1A476F;stroke-width:8.64"/>
	<circle cx="2980.52" cy="1557.69" r="26.35" style="fill:#1A476F"/>
	<circle cx="2980.52" cy="1557.69" r="22.03" style="fill:none;stroke:#1A476F;stroke-width:8.64"/>
	<circle cx="3006.51" cy="1765.97" r="26.35" style="fill:#1A476F"/>
	<circle cx="3006.51" cy="1765.97" r="22.03" style="fill:none;stroke:#1A476F;stroke-width:8.64"/>
	<circle cx="2886.59" cy="1774.88" r="26.35" style="fill:#1A476F"/>
	<circle cx="2886.59" cy="1774.88" r="22.03" style="fill:none;stroke:#1A476F;stroke-width:8.64"/>
	<circle cx="2691.69" cy="1715.48" r="26.35" style="fill:#1A476F"/>
	<circle cx="2691.69" cy="1715.48" r="22.03" style="fill:none;stroke:#1A476F;stroke-width:8.64"/>
	<circle cx="2852.68" cy="1639.86" r="26.35" style="fill:#1A476F"/>
	<circle cx="2852.68" cy="1639.86" r="22.03" style="fill:none;stroke:#1A476F;stroke-width:8.64"/>
	<circle cx="3016.90" cy="1768.32" r="26.35" style="fill:#1A476F"/>
	<circle cx="3016.90" cy="1768.32" r="22.03" style="fill:none;stroke:#1A476F;stroke-width:8.64"/>
	<circle cx="2872.49" cy="1738.25" r="26.35" style="fill:#1A476F"/>
	<circle cx="2872.49" cy="1738.25" r="22.03" style="fill:none;stroke:#1A476F;stroke-width:8.64"/>
	<circle cx="2788.34" cy="1768.81" r="26.35" style="fill:#1A476F"/>
	<circle cx="2788.34" cy="1768.81" r="22.03" style="fill:none;stroke:#1A476F;stroke-width:8.64"/>
	<circle cx="3054.89" cy="1578.36" r="26.35" style="fill:#1A476F"/>
	<circle cx="3054.89" cy="1578.36" r="22.03" style="fill:none;stroke:#1A476F;stroke-width:8.64"/>
	<circle cx="2758.88" cy="1607.44" r="26.35" style="fill:#1A476F"/>
	<circle cx="2758.88" cy="1607.44" r="22.03" style="fill:none;stroke:#1A476F;stroke-width:8.64"/>
	<circle cx="2821.25" cy="1696.91" r="26.35" style="fill:#1A476F"/>
	<circle cx="2821.25" cy="1696.91" r="22.03" style="fill:none;stroke:#1A476F;stroke-width:8.64"/>
	<circle cx="3004.40" cy="1750.37" r="26.35" style="fill:#1A476F"/>
	<circle cx="3004.40" cy="1750.37" r="22.03" style="fill:none;stroke:#1A476F;stroke-width:8.64"/>
	<circle cx="2822.24" cy="1651.87" r="26.35" style="fill:#1A476F"/>
	<circle cx="2822.24" cy="1651.87" r="22.03" style="fill:none;stroke:#1A476F;stroke-width:8.64"/>
	<circle cx="2957.38" cy="1849.13" r="26.35" style="fill:#1A476F"/>
	<circle cx="2957.38" cy="1849.13" r="22.03" style="fill:none;stroke:#1A476F;stroke-width:8.64"/>
	<circle cx="3022.47" cy="1513.01" r="26.35" style="fill:#1A476F"/>
	<circle cx="3022.47" cy="1513.01" r="22.03" style="fill:none;stroke:#1A476F;stroke-width:8.64"/>
	<circle cx="2810.61" cy="1668.70" r="26.35" style="fill:#1A476F"/>
	<circle cx="2810.61" cy="1668.70" r="22.03" style="fill:none;stroke:#1A476F;stroke-width:8.64"/>
	<circle cx="2973.09" cy="1629.34" r="26.35" style="fill:#1A476F"/>
	<circle cx="2973.09" cy="1629.34" r="22.03" style="fill:none;stroke:#1A476F;stroke-width:8.64"/>
	<circle cx="3086.57" cy="1551.63" r="26.35" style="fill:#1A476F"/>
	<circle cx="3086.57" cy="1551.63" r="22.03" style="fill:none;stroke:#1A476F;stroke-width:8.64"/>
	<circle cx="3083.36" cy="1756.81" r="26.35" style="fill:#1A476F"/>
	<circle cx="3083.36" cy="1756.81" r="22.03" style="fill:none;stroke:#1A476F;stroke-width:8.64"/>
	<circle cx="3015.66" cy="1637.63" r="26.35" style="fill:#1A476F"/>
	<circle cx="3015.66" cy="1637.63" r="22.03" style="fill:none;stroke:#1A476F;stroke-width:8.64"/>
	<circle cx="2889.81" cy="1527.00" r="26.35" style="fill:#1A476F"/>
	<circle cx="2889.81" cy="1527.00" r="22.03" style="fill:none;stroke:#1A476F;stroke-width:8.64"/>
	<circle cx="2861.10" cy="1649.52" r="26.35" style="fill:#1A476F"/>
	<circle cx="2861.10" cy="1649.52" r="22.03" style="fill:none;stroke:#1A476F;stroke-width:8.64"/>
	<circle cx="3044.62" cy="1678.10" r="26.35" style="fill:#1A476F"/>
	<circle cx="3044.62" cy="1678.10" r="22.03" style="fill:none;stroke:#1A476F;stroke-width:8.64"/>
	<circle cx="3181.36" cy="1683.42" r="26.35" style="fill:#1A476F"/>
	<circle cx="3181.36" cy="1683.42" r="22.03" style="fill:none;stroke:#1A476F;stroke-width:8.64"/>
	<circle cx="2873.35" cy="1642.09" r="26.35" style="fill:#1A476F"/>
	<circle cx="2873.35" cy="1642.09" r="22.03" style="fill:none;stroke:#1A476F;stroke-width:8.64"/>
	<circle cx="3169.73" cy="1605.09" r="26.35" style="fill:#1A476F"/>
	<circle cx="3169.73" cy="1605.09" r="22.03" style="fill:none;stroke:#1A476F;stroke-width:8.64"/>
	<circle cx="3069.12" cy="1496.18" r="26.35" style="fill:#1A476F"/>
	<circle cx="3069.12" cy="1496.18" r="22.03" style="fill:none;stroke:#1A476F;stroke-width:8.64"/>
	<circle cx="2899.83" cy="1516.73" r="26.35" style="fill:#1A476F"/>
	<circle cx="2899.83" cy="1516.73" r="22.03" style="fill:none;stroke:#1A476F;stroke-width:8.64"/>
	<circle cx="2926.44" cy="1601.75" r="26.35" style="fill:#1A476F"/>
	<circle cx="2926.44" cy="1601.75" r="22.03" style="fill:none;stroke:#1A476F;stroke-width:8.64"/>
	<circle cx="3242.37" cy="1566.48" r="26.35" style="fill:#1A476F"/>
	<circle cx="3242.37" cy="1566.48" r="22.03" style="fill:none;stroke:#1A476F;stroke-width:8.64"/>
	<circle cx="3195.84" cy="1616.97" r="26.35" style="fill:#1A476F"/>
	<circle cx="3195.84" cy="1616.97" r="22.03" style="fill:none;stroke:#1A476F;stroke-width:8.64"/>
	<circle cx="3054.77" cy="1738.87" r="26.35" style="fill:#1A476F"/>
	<circle cx="3054.77" cy="1738.87" r="22.03" style="fill:none;stroke:#1A476F;stroke-width:8.64"/>
	<circle cx="3169.61" cy="1659.04" r="26.35" style="fill:#1A476F"/>
	<circle cx="3169.61" cy="1659.04" r="22.03" style="fill:none;stroke:#1A476F;stroke-width:8.64"/>
	<circle cx="3257.97" cy="1489.50" r="26.35" style="fill:#1A476F"/>
	<circle cx="3257.97" cy="1489.50" r="22.03" style="fill:none;stroke:#1A476F;stroke-width:8.64"/>
	<circle cx="3258.34" cy="1535.91" r="26.35" style="fill:#1A476F"/>
	<circle cx="3258.34" cy="1535.91" r="22.03" style="fill:none;stroke:#1A476F;stroke-width:8.64"/>
	<circle cx="3327.76" cy="1419.95" r="26.35" style="fill:#1A476F"/>
	<circle cx="3327.76" cy="1419.95" r="22.03" style="fill:none;stroke:#1A476F;stroke-width:8.64"/>
	<circle cx="3309.94" cy="1535.54" r="26.35" style="fill:#1A476F"/>
	<circle cx="3309.94" cy="1535.54" r="22.03" style="fill:none;stroke:#1A476F;stroke-width:8.64"/>
	<circle cx="3269.47" cy="1684.66" r="26.35" style="fill:#1A476F"/>
	<circle cx="3269.47" cy="1684.66" r="22.03" style="fill:none;stroke:#1A476F;stroke-width:8.64"/>
	<circle cx="3140.03" cy="1757.18" r="26.35" style="fill:#1A476F"/>
	<circle cx="3140.03" cy="1757.18" r="22.03" style="fill:none;stroke:#1A476F;stroke-width:8.64"/>
	<circle cx="3269.72" cy="1639.86" r="26.35" style="fill:#1A476F"/>
	<circle cx="3269.72" cy="1639.86" r="22.03" style="fill:none;stroke:#1A476F;stroke-width:8.64"/>
	<circle cx="3260.07" cy="1563.38" r="26.35" style="fill:#1A476F"/>
	<circle cx="3260.07" cy="1563.38" r="22.03" style="fill:none;stroke:#1A476F;stroke-width:8.64"/>
	<circle cx="3358.45" cy="1523.53" r="26.35" style="fill:#1A476F"/>
	<circle cx="3358.45" cy="1523.53" r="22.03" style="fill:none;stroke:#1A476F;stroke-width:8.64"/>
	<circle cx="3382.46" cy="1499.77" r="26.35" style="fill:#1A476F"/>
	<circle cx="3382.46" cy="1499.77" r="22.03" style="fill:none;stroke:#1A476F;stroke-width:8.64"/>
	<circle cx="3323.55" cy="1701.12" r="26.35" style="fill:#1A476F"/>
	<circle cx="3323.55" cy="1701.12" r="22.03" style="fill:none;stroke:#1A476F;stroke-width:8.64"/>
	<circle cx="3383.32" cy="1436.16" r="26.35" style="fill:#1A476F"/>
	<circle cx="3383.32" cy="1436.16" r="22.03" style="fill:none;stroke:#1A476F;stroke-width:8.64"/>
	<circle cx="3178.77" cy="1655.95" r="26.35" style="fill:#1A476F"/>
	<circle cx="3178.77" cy="1655.95" r="22.03" style="fill:none;stroke:#1A476F;stroke-width:8.64"/>
	<circle cx="3288.04" cy="1619.20" r="26.35" style="fill:#1A476F"/>
	<circle cx="3288.04" cy="1619.20" r="22.03" style="fill:none;stroke:#1A476F;stroke-width:8.64"/>
	<circle cx="3400.28" cy="1507.45" r="26.35" style="fill:#1A476F"/>
	<circle cx="3400.28" cy="1507.45" r="22.03" style="fill:none;stroke:#1A476F;stroke-width:8.64"/>
	<circle cx="3342.49" cy="1441.49" r="26.35" style="fill:#1A476F"/>
	<circle cx="3342.49" cy="1441.49" r="22.03" style="fill:none;stroke:#1A476F;stroke-width:8.64"/>
	<circle cx="3382.71" cy="1458.32" r="26.35" style="fill:#1A476F"/>
	<circle cx="3382.71" cy="1458.32" r="22.03" style="fill:none;stroke:#1A476F;stroke-width:8.64"/>
	<circle cx="3512.40" cy="1524.15" r="26.35" style="fill:#1A476F"/>
	<circle cx="3512.40" cy="1524.15" r="22.03" style="fill:none;stroke:#1A476F;stroke-width:8.64"/>
	<circle cx="3372.68" cy="1461.29" r="26.35" style="fill:#1A476F"/>
	<circle cx="3372.68" cy="1461.29" r="22.03" style="fill:none;stroke:#1A476F;stroke-width:8.64"/>
	<circle cx="3590.85" cy="1293.10" r="26.35" style="fill:#1A476F"/>
	<circle cx="3590.85" cy="1293.10" r="22.03" style="fill:none;stroke:#1A476F;stroke-width:8.64"/>
	<circle cx="3560.29" cy="1584.67" r="26.35" style="fill:#1A476F"/>
	<circle cx="3560.29" cy="1584.67" r="22.03" style="fill:none;stroke:#1A476F;stroke-width:8.64"/>
	<circle cx="3621.54" cy="1562.89" r="26.35" style="fill:#1A476F"/>
	<circle cx="3621.54" cy="1562.89" r="22.03" style="fill:none;stroke:#1A476F;stroke-width:8.64"/>
	<circle cx="3576.13" cy="1210.93" r="26.35" style="fill:#1A476F"/>
	<circle cx="3576.13" cy="1210.93" r="22.03" style="fill:none;stroke:#1A476F;stroke-width:8.64"/>
	<circle cx="3558.43" cy="1517.84" r="26.35" style="fill:#1A476F"/>
	<circle cx="3558.43" cy="1517.84" r="22.03" style="fill:none;stroke:#1A476F;stroke-width:8.64"/>
	<circle cx="3682.43" cy="1401.88" r="26.35" style="fill:#1A476F"/>
	<circle cx="3682.43" cy="1401.88" r="22.03" style="fill:none;stroke:#1A476F;stroke-width:8.64"/>
	<circle cx="3700.00" cy="1364.76" r="26.35" style="fill:#1A476F"/>
	<circle cx="3700.00" cy="1364.76" r="22.03" style="fill:none;stroke:#1A476F;stroke-width:8.64"/>
	<circle cx="3786.50" cy="1007.98" r="26.35" style="fill:#1A476F"/>
	<circle cx="3786.50" cy="1007.98" r="22.03" style="fill:none;stroke:#1A476F;stroke-width:8.64"/>
	<circle cx="3795.66" cy="1135.32" r="26.35" style="fill:#1A476F"/>
	<circle cx="3795.66" cy="1135.32" r="22.03" style="fill:none;stroke:#1A476F;stroke-width:8.64"/>
	<line x1="390.80" y1="2489.19" x2="390.80" y2="100.86" style="stroke:#000000;stroke-width:5.76"/>
	<line x1="390.80" y1="2425.82" x2="350.83" y2="2425.82" style="stroke:#000000;stroke-width:5.76"/>
	<text x="300.72" y="2425.82" style="font-family:'Helvetica';font-size:99.99px;fill:#000000" transform="rotate(-90 300.72,2425.82)" text-anchor="middle">-1</text>
	<line x1="390.80" y1="1671.91" x2="350.83" y2="1671.91" style="stroke:#000000;stroke-width:5.76"/>
	<text x="300.72" y="1671.91" style="font-family:'Helvetica';font-size:99.99px;fill:#000000" transform="rotate(-90 300.72,1671.91)" text-anchor="middle">0</text>
	<line x1="390.80" y1="918.01" x2="350.83" y2="918.01" style="stroke:#000000;stroke-width:5.76"/>
	<text x="300.72" y="918.01" style="font-family:'Helvetica';font-size:99.99px;fill:#000000" transform="rotate(-90 300.72,918.01)" text-anchor="middle">1</text>
	<line x1="390.80" y1="164.22" x2="350.83" y2="164.22" style="stroke:#000000;stroke-width:5.76"/>
	<text x="300.72" y="164.22" style="font-family:'Helvetica';font-size:99.99px;fill:#000000" transform="rotate(-90 300.72,164.22)" text-anchor="middle">2</text>
	<text x="190.71" y="1294.96" style="font-family:'Helvetica';font-size:99.99px;fill:#000000" transform="rotate(-90 190.71,1294.96)" text-anchor="middle">Residuals</text>
	<line x1="390.80" y1="2489.19" x2="3859.02" y2="2489.19" style="stroke:#000000;stroke-width:5.76"/>
	<line x1="764.03" y1="2489.19" x2="764.03" y2="2529.16" style="stroke:#000000;stroke-width:5.76"/>
	<text x="764.03" y="2619.14" style="font-family:'Helvetica';font-size:99.99px;fill:#000000" text-anchor="middle">-2</text>
	<line x1="1762.08" y1="2489.19" x2="1762.08" y2="2529.16" style="stroke:#000000;stroke-width:5.76"/>
	<text x="1762.08" y="2619.14" style="font-family:'Helvetica';font-size:99.99px;fill:#000000" text-anchor="middle">0</text>
	<line x1="2760.12" y1="2489.19" x2="2760.12" y2="2529.16" style="stroke:#000000;stroke-width:5.76"/>
	<text x="2760.12" y="2619.14" style="font-family:'Helvetica';font-size:99.99px;fill:#000000" text-anchor="middle">2</text>
	<line x1="3758.16" y1="2489.19" x2="3758.16" y2="2529.16" style="stroke:#000000;stroke-width:5.76"/>
	<text x="3758.16" y="2619.14" style="font-family:'Helvetica';font-size:99.99px;fill:#000000" text-anchor="middle">4</text>
	<text x="2124.91" y="2729.16" style="font-family:'Helvetica';font-size:99.99px;fill:#000000" text-anchor="middle">Fitted values</text>
</svg>
