<?xml version="1.0" encoding="UTF-8" standalone="no"?>
<!-- This is a Stata 15.0 generated SVG file (http://www.stata.com) -->

<svg version="1.1" width="600px" height="436px" viewBox="0 0 3960 2880" xmlns="http://www.w3.org/2000/svg" xmlns:xlink="http://www.w3.org/1999/xlink">
	<desc>Stata Graph - Graph</desc>
	<rect x="0" y="0" width="3960" height="2880" style="fill:#EAF2F3;stroke:none"/>
	<rect x="0.00" y="0.00" width="3959.88" height="2880.00" style="fill:#EAF2F3"/>
	<rect x="2.88" y="2.88" width="3954.12" height="2874.24" style="fill:none;stroke:#EAF2F3;stroke-width:5.76"/>
	<rect x="390.80" y="100.86" width="3468.22" height="2388.33" style="fill:#FFFFFF"/>
	<rect x="393.68" y="103.74" width="3462.46" height="2382.57" style="fill:none;stroke:#FFFFFF;stroke-width:5.76"/>
	<line x1="390.80" y1="2425.82" x2="3859.02" y2="2425.82" style="stroke:#EAF2F3;stroke-width:8.64"/>
	<line x1="390.80" y1="1671.91" x2="3859.02" y2="1671.91" style="stroke:#EAF2F3;stroke-width:8.64"/>
	<line x1="390.80" y1="918.01" x2="3859.02" y2="918.01" style="stroke:#EAF2F3;stroke-width:8.64"/>
	<line x1="390.80" y1="164.22" x2="3859.02" y2="164.22" style="stroke:#EAF2F3;stroke-width:8.64"/>
	<circle cx="685.70" cy="1581.57" r="26.35" style="fill:#1A476F"/>
	<circle cx="685.70" cy="1581.57" r="22.03" style="fill:none;stroke:#1A476F;stroke-width:8.64"/>
	<circle cx="821.21" cy="452.94" r="26.35" style="fill:#1A476F"/>
	<circle cx="821.21" cy="452.94" r="22.03" style="fill:none;stroke:#1A476F;stroke-width:8.64"/>
	<circle cx="917.36" cy="307.53" r="26.35" style="fill:#1A476F"/>
	<circle cx="917.36" cy="307.53" r="22.03" style="fill:none;stroke:#1A476F;stroke-width:8.64"/>
	<circle cx="917.36" cy="1094.97" r="26.35" style="fill:#1A476F"/>
	<circle cx="917.36" cy="1094.97" r="22.03" style="fill:none;stroke:#1A476F;stroke-width:8.64"/>
	<circle cx="991.86" cy="1530.09" r="26.35" style="fill:#1A476F"/>
	<circle cx="991.86" cy="1530.09" r="22.03" style="fill:none;stroke:#1A476F;stroke-width:8.64"/>
	<circle cx="1188.25" cy="2404.79" r="26.35" style="fill:#1A476F"/>
	<circle cx="1188.25" cy="2404.79" r="22.03" style="fill:none;stroke:#1A476F;stroke-width:8.64"/>
	<circle cx="1255.32" cy="845.98" r="26.35" style="fill:#1A476F"/>
	<circle cx="1255.32" cy="845.98" r="22.03" style="fill:none;stroke:#1A476F;stroke-width:8.64"/>
	<circle cx="1311.13" cy="1258.21" r="26.35" style="fill:#1A476F"/>
	<circle cx="1311.13" cy="1258.21" r="22.03" style="fill:none;stroke:#1A476F;stroke-width:8.64"/>
	<circle cx="1311.13" cy="1398.17" r="26.35" style="fill:#1A476F"/>
	<circle cx="1311.13" cy="1398.17" r="22.03" style="fill:none;stroke:#1A476F;stroke-width:8.64"/>
	<circle cx="1486.98" cy="1386.66" r="26.35" style="fill:#1A476F"/>
	<circle cx="1486.98" cy="1386.66" r="22.03" style="fill:none;stroke:#1A476F;stroke-width:8.64"/>
	<circle cx="1529.67" cy="947.09" r="26.35" style="fill:#1A476F"/>
	<circle cx="1529.67" cy="947.09" r="22.03" style="fill:none;stroke:#1A476F;stroke-width:8.64"/>
	<circle cx="1529.67" cy="1568.70" r="26.35" style="fill:#1A476F"/>
	<circle cx="1529.67" cy="1568.70" r="22.03" style="fill:none;stroke:#1A476F;stroke-width:8.64"/>
	<circle cx="1642.16" cy="2042.56" r="26.35" style="fill:#1A476F"/>
	<circle cx="1642.16" cy="2042.56" r="22.03" style="fill:none;stroke:#1A476F;stroke-width:8.64"/>
	<circle cx="1678.30" cy="2096.89" r="26.35" style="fill:#1A476F"/>
	<circle cx="1678.30" cy="2096.89" r="22.03" style="fill:none;stroke:#1A476F;stroke-width:8.64"/>
	<circle cx="1710.97" cy="2123.37" r="26.35" style="fill:#1A476F"/>
	<circle cx="1710.97" cy="2123.37" r="22.03" style="fill:none;stroke:#1A476F;stroke-width:8.64"/>
	<circle cx="1838.55" cy="1812.25" r="26.35" style="fill:#1A476F"/>
	<circle cx="1838.55" cy="1812.25" r="22.03" style="fill:none;stroke:#1A476F;stroke-width:8.64"/>
	<circle cx="1864.05" cy="1966.33" r="26.35" style="fill:#1A476F"/>
	<circle cx="1864.05" cy="1966.33" r="22.03" style="fill:none;stroke:#1A476F;stroke-width:8.64"/>
	<circle cx="1922.58" cy="2220.89" r="26.35" style="fill:#1A476F"/>
	<circle cx="1922.58" cy="2220.89" r="22.03" style="fill:none;stroke:#1A476F;stroke-width:8.64"/>
	<circle cx="1934.71" cy="2188.96" r="26.35" style="fill:#1A476F"/>
	<circle cx="1934.71" cy="2188.96" r="22.03" style="fill:none;stroke:#1A476F;stroke-width:8.64"/>
	<circle cx="1887.81" cy="1961.38" r="26.35" style="fill:#1A476F"/>
	<circle cx="1887.81" cy="1961.38" r="22.03" style="fill:none;stroke:#1A476F;stroke-width:8.64"/>
	<circle cx="1989.53" cy="1763.12" r="26.35" style="fill:#1A476F"/>
	<circle cx="1989.53" cy="1763.12" r="22.03" style="fill:none;stroke:#1A476F;stroke-width:8.64"/>
	<circle cx="1996.21" cy="1586.15" r="26.35" style="fill:#1A476F"/>
	<circle cx="1996.21" cy="1586.15" r="22.03" style="fill:none;stroke:#1A476F;stroke-width:8.64"/>
	<circle cx="2051.03" cy="1883.41" r="26.35" style="fill:#1A476F"/>
	<circle cx="2051.03" cy="1883.41" r="22.03" style="fill:none;stroke:#1A476F;stroke-width:8.64"/>
	<circle cx="2053.88" cy="2181.16" r="26.35" style="fill:#1A476F"/>
	<circle cx="2053.88" cy="2181.16" r="22.03" style="fill:none;stroke:#1A476F;stroke-width:8.64"/>
	<circle cx="2059.32" cy="1268.60" r="26.35" style="fill:#1A476F"/>
	<circle cx="2059.32" cy="1268.60" r="22.03" style="fill:none;stroke:#1A476F;stroke-width:8.64"/>
	<circle cx="2080.61" cy="2075.23" r="26.35" style="fill:#1A476F"/>
	<circle cx="2080.61" cy="2075.23" r="22.03" style="fill:none;stroke:#1A476F;stroke-width:8.64"/>
	<circle cx="2100.53" cy="1973.13" r="26.35" style="fill:#1A476F"/>
	<circle cx="2100.53" cy="1973.13" r="22.03" style="fill:none;stroke:#1A476F;stroke-width:8.64"/>
	<circle cx="2126.15" cy="1710.77" r="26.35" style="fill:#1A476F"/>
	<circle cx="2126.15" cy="1710.77" r="22.03" style="fill:none;stroke:#1A476F;stroke-width:8.64"/>
	<circle cx="2217.85" cy="2153.94" r="26.35" style="fill:#1A476F"/>
	<circle cx="2217.85" cy="2153.94" r="22.03" style="fill:none;stroke:#1A476F;stroke-width:8.64"/>
	<circle cx="2219.46" cy="2025.11" r="26.35" style="fill:#1A476F"/>
	<circle cx="2219.46" cy="2025.11" r="22.03" style="fill:none;stroke:#1A476F;stroke-width:8.64"/>
	<circle cx="2239.26" cy="1776.73" r="26.35" style="fill:#1A476F"/>
	<circle cx="2239.26" cy="1776.73" r="22.03" style="fill:none;stroke:#1A476F;stroke-width:8.64"/>
	<circle cx="2247.18" cy="1405.84" r="26.35" style="fill:#1A476F"/>
	<circle cx="2247.18" cy="1405.84" r="22.03" style="fill:none;stroke:#1A476F;stroke-width:8.64"/>
	<circle cx="2256.46" cy="1587.51" r="26.35" style="fill:#1A476F"/>
	<circle cx="2256.46" cy="1587.51" r="22.03" style="fill:none;stroke:#1A476F;stroke-width:8.64"/>
	<circle cx="2277.00" cy="1644.57" r="26.35" style="fill:#1A476F"/>
	<circle cx="2277.00" cy="1644.57" r="22.03" style="fill:none;stroke:#1A476F;stroke-width:8.64"/>
	<circle cx="2278.49" cy="1725.25" r="26.35" style="fill:#1A476F"/>
	<circle cx="2278.49" cy="1725.25" r="22.03" style="fill:none;stroke:#1A476F;stroke-width:8.64"/>
	<circle cx="2303.11" cy="1855.44" r="26.35" style="fill:#1A476F"/>
	<circle cx="2303.11" cy="1855.44" r="22.03" style="fill:none;stroke:#1A476F;stroke-width:8.64"/>
	<circle cx="2335.78" cy="1440.25" r="26.35" style="fill:#1A476F"/>
	<circle cx="2335.78" cy="1440.25" r="22.03" style="fill:none;stroke:#1A476F;stroke-width:8.64"/>
	<circle cx="2348.78" cy="2061.00" r="26.35" style="fill:#1A476F"/>
	<circle cx="2348.78" cy="2061.00" r="22.03" style="fill:none;stroke:#1A476F;stroke-width:8.64"/>
	<circle cx="2348.78" cy="1843.81" r="26.35" style="fill:#1A476F"/>
	<circle cx="2348.78" cy="1843.81" r="22.03" style="fill:none;stroke:#1A476F;stroke-width:8.64"/>
	<circle cx="2354.47" cy="1871.53" r="26.35" style="fill:#1A476F"/>
	<circle cx="2354.47" cy="1871.53" r="22.03" style="fill:none;stroke:#1A476F;stroke-width:8.64"/>
	<circle cx="2358.92" cy="1550.02" r="26.35" style="fill:#1A476F"/>
	<circle cx="2358.92" cy="1550.02" r="22.03" style="fill:none;stroke:#1A476F;stroke-width:8.64"/>
	<circle cx="2385.78" cy="1858.66" r="26.35" style="fill:#1A476F"/>
	<circle cx="2385.78" cy="1858.66" r="22.03" style="fill:none;stroke:#1A476F;stroke-width:8.64"/>
	<circle cx="2394.93" cy="2030.68" r="26.35" style="fill:#1A476F"/>
	<circle cx="2394.93" cy="2030.68" r="22.03" style="fill:none;stroke:#1A476F;stroke-width:8.64"/>
	<circle cx="2399.88" cy="1916.20" r="26.35" style="fill:#1A476F"/>
	<circle cx="2399.88" cy="1916.20" r="22.03" style="fill:none;stroke:#1A476F;stroke-width:8.64"/>
	<circle cx="2414.36" cy="1983.03" r="26.35" style="fill:#1A476F"/>
	<circle cx="2414.36" cy="1983.03" r="22.03" style="fill:none;stroke:#1A476F;stroke-width:8.64"/>
	<circle cx="2414.36" cy="1955.19" r="26.35" style="fill:#1A476F"/>
	<circle cx="2414.36" cy="1955.19" r="22.03" style="fill:none;stroke:#1A476F;stroke-width:8.64"/>
	<circle cx="2469.31" cy="1692.09" r="26.35" style="fill:#1A476F"/>
	<circle cx="2469.31" cy="1692.09" r="22.03" style="fill:none;stroke:#1A476F;stroke-width:8.64"/>
	<circle cx="2472.53" cy="1442.60" r="26.35" style="fill:#1A476F"/>
	<circle cx="2472.53" cy="1442.60" r="22.03" style="fill:none;stroke:#1A476F;stroke-width:8.64"/>
	<circle cx="2500.00" cy="1807.92" r="26.35" style="fill:#1A476F"/>
	<circle cx="2500.00" cy="1807.92" r="22.03" style="fill:none;stroke:#1A476F;stroke-width:8.64"/>
	<circle cx="2519.92" cy="1765.23" r="26.35" style="fill:#1A476F"/>
	<circle cx="2519.92" cy="1765.23" r="22.03" style="fill:none;stroke:#1A476F;stroke-width:8.64"/>
	<circle cx="2541.21" cy="1739.24" r="26.35" style="fill:#1A476F"/>
	<circle cx="2541.21" cy="1739.24" r="22.03" style="fill:none;stroke:#1A476F;stroke-width:8.64"/>
	<circle cx="2562.61" cy="1819.80" r="26.35" style="fill:#1A476F"/>
	<circle cx="2562.61" cy="1819.80" r="22.03" style="fill:none;stroke:#1A476F;stroke-width:8.64"/>
	<circle cx="2570.41" cy="1888.48" r="26.35" style="fill:#1A476F"/>
	<circle cx="2570.41" cy="1888.48" r="22.03" style="fill:none;stroke:#1A476F;stroke-width:8.64"/>
	<circle cx="2572.14" cy="1954.32" r="26.35" style="fill:#1A476F"/>
	<circle cx="2572.14" cy="1954.32" r="22.03" style="fill:none;stroke:#1A476F;stroke-width:8.64"/>
	<circle cx="2587.12" cy="1913.73" r="26.35" style="fill:#1A476F"/>
	<circle cx="2587.12" cy="1913.73" r="22.03" style="fill:none;stroke:#1A476F;stroke-width:8.64"/>
	<circle cx="2629.07" cy="1892.94" r="26.35" style="fill:#1A476F"/>
	<circle cx="2629.07" cy="1892.94" r="22.03" style="fill:none;stroke:#1A476F;stroke-width:8.64"/>
	<circle cx="2641.32" cy="1704.83" r="26.35" style="fill:#1A476F"/>
	<circle cx="2641.32" cy="1704.83" r="22.03" style="fill:none;stroke:#1A476F;stroke-width:8.64"/>
	<circle cx="2652.09" cy="1670.68" r="26.35" style="fill:#1A476F"/>
	<circle cx="2652.09" cy="1670.68" r="22.03" style="fill:none;stroke:#1A476F;stroke-width:8.64"/>
	<circle cx="2662.61" cy="1848.26" r="26.35" style="fill:#1A476F"/>
	<circle cx="2662.61" cy="1848.26" r="22.03" style="fill:none;stroke:#1A476F;stroke-width:8.64"/>
	<circle cx="2685.75" cy="1991.45" r="26.35" style="fill:#1A476F"/>
	<circle cx="2685.75" cy="1991.45" r="22.03" style="fill:none;stroke:#1A476F;stroke-width:8.64"/>
	<circle cx="2687.85" cy="1597.91" r="26.35" style="fill:#1A476F"/>
	<circle cx="2687.85" cy="1597.91" r="22.03" style="fill:none;stroke:#1A476F;stroke-width:8.64"/>
	<circle cx="2691.07" cy="1668.45" r="26.35" style="fill:#1A476F"/>
	<circle cx="2691.07" cy="1668.45" r="22.03" style="fill:none;stroke:#1A476F;stroke-width:8.64"/>
	<circle cx="2692.30" cy="1914.84" r="26.35" style="fill:#1A476F"/>
	<circle cx="2692.30" cy="1914.84" r="22.03" style="fill:none;stroke:#1A476F;stroke-width:8.64"/>
	<circle cx="2710.00" cy="1946.28" r="26.35" style="fill:#1A476F"/>
	<circle cx="2710.00" cy="1946.28" r="22.03" style="fill:none;stroke:#1A476F;stroke-width:8.64"/>
	<circle cx="2711.98" cy="1923.26" r="26.35" style="fill:#1A476F"/>
	<circle cx="2711.98" cy="1923.26" r="22.03" style="fill:none;stroke:#1A476F;stroke-width:8.64"/>
	<circle cx="2730.42" cy="1724.39" r="26.35" style="fill:#1A476F"/>
	<circle cx="2730.42" cy="1724.39" r="22.03" style="fill:none;stroke:#1A476F;stroke-width:8.64"/>
	<circle cx="2731.91" cy="1649.52" r="26.35" style="fill:#1A476F"/>
	<circle cx="2731.91" cy="1649.52" r="22.03" style="fill:none;stroke:#1A476F;stroke-width:8.64"/>
	<circle cx="2735.99" cy="1625.75" r="26.35" style="fill:#1A476F"/>
	<circle cx="2735.99" cy="1625.75" r="22.03" style="fill:none;stroke:#1A476F;stroke-width:8.64"/>
	<circle cx="2757.03" cy="1706.81" r="26.35" style="fill:#1A476F"/>
	<circle cx="2757.03" cy="1706.81" r="22.03" style="fill:none;stroke:#1A476F;stroke-width:8.64"/>
	<circle cx="2759.38" cy="2010.51" r="26.35" style="fill:#1A476F"/>
	<circle cx="2759.38" cy="2010.51" r="22.03" style="fill:none;stroke:#1A476F;stroke-width:8.64"/>
	<circle cx="2762.35" cy="1694.56" r="26.35" style="fill:#1A476F"/>
	<circle cx="2762.35" cy="1694.56" r="22.03" style="fill:none;stroke:#1A476F;stroke-width:8.64"/>
	<circle cx="2793.66" cy="2102.45" r="26.35" style="fill:#1A476F"/>
	<circle cx="2793.66" cy="2102.45" r="22.03" style="fill:none;stroke:#1A476F;stroke-width:8.64"/>
	<circle cx="2796.87" cy="1864.85" r="26.35" style="fill:#1A476F"/>
	<circle cx="2796.87" cy="1864.85" r="22.03" style="fill:none;stroke:#1A476F;stroke-width:8.64"/>
	<circle cx="2799.60" cy="1829.95" r="26.35" style="fill:#1A476F"/>
	<circle cx="2799.60" cy="1829.95" r="22.03" style="fill:none;stroke:#1A476F;stroke-width:8.64"/>
	<circle cx="2800.83" cy="1784.90" r="26.35" style="fill:#1A476F"/>
	<circle cx="2800.83" cy="1784.90" r="22.03" style="fill:none;stroke:#1A476F;stroke-width:8.64"/>
	<circle cx="2805.29" cy="1632.56" r="26.35" style="fill:#1A476F"/>
	<circle cx="2805.29" cy="1632.56" r="22.03" style="fill:none;stroke:#1A476F;stroke-width:8.64"/>
	<circle cx="2810.86" cy="1746.79" r="26.35" style="fill:#1A476F"/>
	<circle cx="2810.86" cy="1746.79" r="22.03" style="fill:none;stroke:#1A476F;stroke-width:8.64"/>
	<circle cx="2813.70" cy="1594.20" r="26.35" style="fill:#1A476F"/>
	<circle cx="2813.70" cy="1594.20" r="22.03" style="fill:none;stroke:#1A476F;stroke-width:8.64"/>
	<circle cx="2814.82" cy="1985.75" r="26.35" style="fill:#1A476F"/>
	<circle cx="2814.82" cy="1985.75" r="22.03" style="fill:none;stroke:#1A476F;stroke-width:8.64"/>
	<circle cx="2827.44" cy="1756.93" r="26.35" style="fill:#1A476F"/>
	<circle cx="2827.44" cy="1756.93" r="22.03" style="fill:none;stroke:#1A476F;stroke-width:8.64"/>
	<circle cx="2844.64" cy="1733.30" r="26.35" style="fill:#1A476F"/>
	<circle cx="2844.64" cy="1733.30" r="22.03" style="fill:none;stroke:#1A476F;stroke-width:8.64"/>
	<circle cx="2847.74" cy="1680.21" r="26.35" style="fill:#1A476F"/>
	<circle cx="2847.74" cy="1680.21" r="22.03" style="fill:none;stroke:#1A476F;stroke-width:8.64"/>
	<circle cx="2847.49" cy="1877.22" r="26.35" style="fill:#1A476F"/>
	<circle cx="2847.49" cy="1877.22" r="22.03" style="fill:none;stroke:#1A476F;stroke-width:8.64"/>
	<circle cx="2857.88" cy="1807.80" r="26.35" style="fill:#1A476F"/>
	<circle cx="2857.88" cy="1807.80" r="22.03" style="fill:none;stroke:#1A476F;stroke-width:8.64"/>
	<circle cx="2868.28" cy="1557.69" r="26.35" style="fill:#1A476F"/>
	<circle cx="2868.28" cy="1557.69" r="22.03" style="fill:none;stroke:#1A476F;stroke-width:8.64"/>
	<circle cx="2879.54" cy="1765.97" r="26.35" style="fill:#1A476F"/>
	<circle cx="2879.54" cy="1765.97" r="22.03" style="fill:none;stroke:#1A476F;stroke-width:8.64"/>
	<circle cx="2892.04" cy="1774.88" r="26.35" style="fill:#1A476F"/>
	<circle cx="2892.04" cy="1774.88" r="22.03" style="fill:none;stroke:#1A476F;stroke-width:8.64"/>
	<circle cx="2897.24" cy="1715.48" r="26.35" style="fill:#1A476F"/>
	<circle cx="2897.24" cy="1715.48" r="22.03" style="fill:none;stroke:#1A476F;stroke-width:8.64"/>
	<circle cx="2907.75" cy="1639.86" r="26.35" style="fill:#1A476F"/>
	<circle cx="2907.75" cy="1639.86" r="22.03" style="fill:none;stroke:#1A476F;stroke-width:8.64"/>
	<circle cx="2929.53" cy="1768.32" r="26.35" style="fill:#1A476F"/>
	<circle cx="2929.53" cy="1768.32" r="22.03" style="fill:none;stroke:#1A476F;stroke-width:8.64"/>
	<circle cx="2933.37" cy="1738.25" r="26.35" style="fill:#1A476F"/>
	<circle cx="2933.37" cy="1738.25" r="22.03" style="fill:none;stroke:#1A476F;stroke-width:8.64"/>
	<circle cx="2955.40" cy="1768.81" r="26.35" style="fill:#1A476F"/>
	<circle cx="2955.40" cy="1768.81" r="22.03" style="fill:none;stroke:#1A476F;stroke-width:8.64"/>
	<circle cx="2964.43" cy="1578.36" r="26.35" style="fill:#1A476F"/>
	<circle cx="2964.43" cy="1578.36" r="22.03" style="fill:none;stroke:#1A476F;stroke-width:8.64"/>
	<circle cx="2964.80" cy="1607.44" r="26.35" style="fill:#1A476F"/>
	<circle cx="2964.80" cy="1607.44" r="22.03" style="fill:none;stroke:#1A476F;stroke-width:8.64"/>
	<circle cx="2965.79" cy="1696.91" r="26.35" style="fill:#1A476F"/>
	<circle cx="2965.79" cy="1696.91" r="22.03" style="fill:none;stroke:#1A476F;stroke-width:8.64"/>
	<circle cx="2956.39" cy="1750.37" r="26.35" style="fill:#1A476F"/>
	<circle cx="2956.39" cy="1750.37" r="22.03" style="fill:none;stroke:#1A476F;stroke-width:8.64"/>
	<circle cx="2980.02" cy="1651.87" r="26.35" style="fill:#1A476F"/>
	<circle cx="2980.02" cy="1651.87" r="22.03" style="fill:none;stroke:#1A476F;stroke-width:8.64"/>
	<circle cx="2982.13" cy="1849.13" r="26.35" style="fill:#1A476F"/>
	<circle cx="2982.13" cy="1849.13" r="22.03" style="fill:none;stroke:#1A476F;stroke-width:8.64"/>
	<circle cx="2998.59" cy="1513.01" r="26.35" style="fill:#1A476F"/>
	<circle cx="2998.59" cy="1513.01" r="22.03" style="fill:none;stroke:#1A476F;stroke-width:8.64"/>
	<circle cx="3003.41" cy="1668.70" r="26.35" style="fill:#1A476F"/>
	<circle cx="3003.41" cy="1668.70" r="22.03" style="fill:none;stroke:#1A476F;stroke-width:8.64"/>
	<circle cx="3007.74" cy="1629.34" r="26.35" style="fill:#1A476F"/>
	<circle cx="3007.74" cy="1629.34" r="22.03" style="fill:none;stroke:#1A476F;stroke-width:8.64"/>
	<circle cx="3029.77" cy="1551.63" r="26.35" style="fill:#1A476F"/>
	<circle cx="3029.77" cy="1551.63" r="22.03" style="fill:none;stroke:#1A476F;stroke-width:8.64"/>
	<circle cx="3041.28" cy="1756.81" r="26.35" style="fill:#1A476F"/>
	<circle cx="3041.28" cy="1756.81" r="22.03" style="fill:none;stroke:#1A476F;stroke-width:8.64"/>
	<circle cx="3046.60" cy="1637.63" r="26.35" style="fill:#1A476F"/>
	<circle cx="3046.60" cy="1637.63" r="22.03" style="fill:none;stroke:#1A476F;stroke-width:8.64"/>
	<circle cx="3048.33" cy="1527.00" r="26.35" style="fill:#1A476F"/>
	<circle cx="3048.33" cy="1527.00" r="22.03" style="fill:none;stroke:#1A476F;stroke-width:8.64"/>
	<circle cx="3050.31" cy="1649.52" r="26.35" style="fill:#1A476F"/>
	<circle cx="3050.31" cy="1649.52" r="22.03" style="fill:none;stroke:#1A476F;stroke-width:8.64"/>
	<circle cx="3061.95" cy="1678.10" r="26.35" style="fill:#1A476F"/>
	<circle cx="3061.95" cy="1678.10" r="22.03" style="fill:none;stroke:#1A476F;stroke-width:8.64"/>
	<circle cx="3062.69" cy="1683.42" r="26.35" style="fill:#1A476F"/>
	<circle cx="3062.69" cy="1683.42" r="22.03" style="fill:none;stroke:#1A476F;stroke-width:8.64"/>
	<circle cx="3069.49" cy="1642.09" r="26.35" style="fill:#1A476F"/>
	<circle cx="3069.49" cy="1642.09" r="22.03" style="fill:none;stroke:#1A476F;stroke-width:8.64"/>
	<circle cx="3072.59" cy="1605.09" r="26.35" style="fill:#1A476F"/>
	<circle cx="3072.59" cy="1605.09" r="22.03" style="fill:none;stroke:#1A476F;stroke-width:8.64"/>
	<circle cx="3078.53" cy="1496.18" r="26.35" style="fill:#1A476F"/>
	<circle cx="3078.53" cy="1496.18" r="22.03" style="fill:none;stroke:#1A476F;stroke-width:8.64"/>
	<circle cx="3082.61" cy="1516.73" r="26.35" style="fill:#1A476F"/>
	<circle cx="3082.61" cy="1516.73" r="22.03" style="fill:none;stroke:#1A476F;stroke-width:8.64"/>
	<circle cx="3114.66" cy="1601.75" r="26.35" style="fill:#1A476F"/>
	<circle cx="3114.66" cy="1601.75" r="22.03" style="fill:none;stroke:#1A476F;stroke-width:8.64"/>
	<circle cx="3128.65" cy="1566.48" r="26.35" style="fill:#1A476F"/>
	<circle cx="3128.65" cy="1566.48" r="22.03" style="fill:none;stroke:#1A476F;stroke-width:8.64"/>
	<circle cx="3151.29" cy="1616.97" r="26.35" style="fill:#1A476F"/>
	<circle cx="3151.29" cy="1616.97" r="22.03" style="fill:none;stroke:#1A476F;stroke-width:8.64"/>
	<circle cx="3159.96" cy="1738.87" r="26.35" style="fill:#1A476F"/>
	<circle cx="3159.96" cy="1738.87" r="22.03" style="fill:none;stroke:#1A476F;stroke-width:8.64"/>
	<circle cx="3162.55" cy="1659.04" r="26.35" style="fill:#1A476F"/>
	<circle cx="3162.55" cy="1659.04" r="22.03" style="fill:none;stroke:#1A476F;stroke-width:8.64"/>
	<circle cx="3180.75" cy="1489.50" r="26.35" style="fill:#1A476F"/>
	<circle cx="3180.75" cy="1489.50" r="22.03" style="fill:none;stroke:#1A476F;stroke-width:8.64"/>
	<circle cx="3184.58" cy="1535.91" r="26.35" style="fill:#1A476F"/>
	<circle cx="3184.58" cy="1535.91" r="22.03" style="fill:none;stroke:#1A476F;stroke-width:8.64"/>
	<circle cx="3207.97" cy="1419.95" r="26.35" style="fill:#1A476F"/>
	<circle cx="3207.97" cy="1419.95" r="22.03" style="fill:none;stroke:#1A476F;stroke-width:8.64"/>
	<circle cx="3212.05" cy="1535.54" r="26.35" style="fill:#1A476F"/>
	<circle cx="3212.05" cy="1535.54" r="22.03" style="fill:none;stroke:#1A476F;stroke-width:8.64"/>
	<circle cx="3226.78" cy="1684.66" r="26.35" style="fill:#1A476F"/>
	<circle cx="3226.78" cy="1684.66" r="22.03" style="fill:none;stroke:#1A476F;stroke-width:8.64"/>
	<circle cx="3243.24" cy="1757.18" r="26.35" style="fill:#1A476F"/>
	<circle cx="3243.24" cy="1757.18" r="22.03" style="fill:none;stroke:#1A476F;stroke-width:8.64"/>
	<circle cx="3250.17" cy="1639.86" r="26.35" style="fill:#1A476F"/>
	<circle cx="3250.17" cy="1639.86" r="22.03" style="fill:none;stroke:#1A476F;stroke-width:8.64"/>
	<circle cx="3264.53" cy="1563.38" r="26.35" style="fill:#1A476F"/>
	<circle cx="3264.53" cy="1563.38" r="22.03" style="fill:none;stroke:#1A476F;stroke-width:8.64"/>
	<circle cx="3283.95" cy="1523.53" r="26.35" style="fill:#1A476F"/>
	<circle cx="3283.95" cy="1523.53" r="22.03" style="fill:none;stroke:#1A476F;stroke-width:8.64"/>
	<circle cx="3318.23" cy="1499.77" r="26.35" style="fill:#1A476F"/>
	<circle cx="3318.23" cy="1499.77" r="22.03" style="fill:none;stroke:#1A476F;stroke-width:8.64"/>
	<circle cx="3318.60" cy="1701.12" r="26.35" style="fill:#1A476F"/>
	<circle cx="3318.60" cy="1701.12" r="22.03" style="fill:none;stroke:#1A476F;stroke-width:8.64"/>
	<circle cx="3342.12" cy="1436.16" r="26.35" style="fill:#1A476F"/>
	<circle cx="3342.12" cy="1436.16" r="22.03" style="fill:none;stroke:#1A476F;stroke-width:8.64"/>
	<circle cx="3342.86" cy="1655.95" r="26.35" style="fill:#1A476F"/>
	<circle cx="3342.86" cy="1655.95" r="22.03" style="fill:none;stroke:#1A476F;stroke-width:8.64"/>
	<circle cx="3350.90" cy="1619.20" r="26.35" style="fill:#1A476F"/>
	<circle cx="3350.90" cy="1619.20" r="22.03" style="fill:none;stroke:#1A476F;stroke-width:8.64"/>
	<circle cx="3361.05" cy="1507.45" r="26.35" style="fill:#1A476F"/>
	<circle cx="3361.05" cy="1507.45" r="22.03" style="fill:none;stroke:#1A476F;stroke-width:8.64"/>
	<circle cx="3367.61" cy="1441.49" r="26.35" style="fill:#1A476F"/>
	<circle cx="3367.61" cy="1441.49" r="22.03" style="fill:none;stroke:#1A476F;stroke-width:8.64"/>
	<circle cx="3368.60" cy="1458.32" r="26.35" style="fill:#1A476F"/>
	<circle cx="3368.60" cy="1458.32" r="22.03" style="fill:none;stroke:#1A476F;stroke-width:8.64"/>
	<circle cx="3421.69" cy="1524.15" r="26.35" style="fill:#1A476F"/>
	<circle cx="3421.69" cy="1524.15" r="22.03" style="fill:none;stroke:#1A476F;stroke-width:8.64"/>
	<circle cx="3452.38" cy="1461.29" r="26.35" style="fill:#1A476F"/>
	<circle cx="3452.38" cy="1461.29" r="22.03" style="fill:none;stroke:#1A476F;stroke-width:8.64"/>
	<circle cx="3474.28" cy="1293.10" r="26.35" style="fill:#1A476F"/>
	<circle cx="3474.28" cy="1293.10" r="22.03" style="fill:none;stroke:#1A476F;stroke-width:8.64"/>
	<circle cx="3483.07" cy="1584.67" r="26.35" style="fill:#1A476F"/>
	<circle cx="3483.07" cy="1584.67" r="22.03" style="fill:none;stroke:#1A476F;stroke-width:8.64"/>
	<circle cx="3488.64" cy="1562.89" r="26.35" style="fill:#1A476F"/>
	<circle cx="3488.64" cy="1562.89" r="22.03" style="fill:none;stroke:#1A476F;stroke-width:8.64"/>
	<circle cx="3514.13" cy="1210.93" r="26.35" style="fill:#1A476F"/>
	<circle cx="3514.13" cy="1210.93" r="22.03" style="fill:none;stroke:#1A476F;stroke-width:8.64"/>
	<circle cx="3530.34" cy="1517.84" r="26.35" style="fill:#1A476F"/>
	<circle cx="3530.34" cy="1517.84" r="22.03" style="fill:none;stroke:#1A476F;stroke-width:8.64"/>
	<circle cx="3577.86" cy="1401.88" r="26.35" style="fill:#1A476F"/>
	<circle cx="3577.86" cy="1401.88" r="22.03" style="fill:none;stroke:#1A476F;stroke-width:8.64"/>
	<circle cx="3587.02" cy="1364.76" r="26.35" style="fill:#1A476F"/>
	<circle cx="3587.02" cy="1364.76" r="22.03" style="fill:none;stroke:#1A476F;stroke-width:8.64"/>
	<circle cx="3652.73" cy="1007.98" r="26.35" style="fill:#1A476F"/>
	<circle cx="3652.73" cy="1007.98" r="22.03" style="fill:none;stroke:#1A476F;stroke-width:8.64"/>
	<circle cx="3703.59" cy="1135.32" r="26.35" style="fill:#1A476F"/>
	<circle cx="3703.59" cy="1135.32" r="22.03" style="fill:none;stroke:#1A476F;stroke-width:8.64"/>
	<line x1="390.80" y1="2489.19" x2="390.80" y2="100.86" style="stroke:#000000;stroke-width:5.76"/>
	<line x1="390.80" y1="2425.82" x2="350.83" y2="2425.82" style="stroke:#000000;stroke-width:5.76"/>
	<text x="300.72" y="2425.82" style="font-family:'Helvetica';font-size:99.99px;fill:#000000" transform="rotate(-90 300.72,2425.82)" text-anchor="middle">-1</text>
	<line x1="390.80" y1="1671.91" x2="350.83" y2="1671.91" style="stroke:#000000;stroke-width:5.76"/>
	<text x="300.72" y="1671.91" style="font-family:'Helvetica';font-size:99.99px;fill:#000000" transform="rotate(-90 300.72,1671.91)" text-anchor="middle">0</text>
	<line x1="390.80" y1="918.01" x2="350.83" y2="918.01" style="stroke:#000000;stroke-width:5.76"/>
	<text x="300.72" y="918.01" style="font-family:'Helvetica';font-size:99.99px;fill:#000000" transform="rotate(-90 300.72,918.01)" text-anchor="middle">1</text>
	<line x1="390.80" y1="164.22" x2="350.83" y2="164.22" style="stroke:#000000;stroke-width:5.76"/>
	<text x="300.72" y="164.22" style="font-family:'Helvetica';font-size:99.99px;fill:#000000" transform="rotate(-90 300.72,164.22)" text-anchor="middle">2</text>
	<text x="190.71" y="1294.96" style="font-family:'Helvetica';font-size:99.99px;fill:#000000" transform="rotate(-90 190.71,1294.96)" text-anchor="middle">Residuals</text>
	<line x1="390.80" y1="2489.19" x2="3859.02" y2="2489.19" style="stroke:#000000;stroke-width:5.76"/>
	<line x1="454.16" y1="2489.19" x2="454.16" y2="2529.16" style="stroke:#000000;stroke-width:5.76"/>
	<text x="454.16" y="2619.14" style="font-family:'Helvetica';font-size:99.99px;fill:#000000" text-anchor="middle">0</text>
	<line x1="1122.41" y1="2489.19" x2="1122.41" y2="2529.16" style="stroke:#000000;stroke-width:5.76"/>
	<text x="1122.41" y="2619.14" style="font-family:'Helvetica';font-size:99.99px;fill:#000000" text-anchor="middle">2</text>
	<line x1="1790.79" y1="2489.19" x2="1790.79" y2="2529.16" style="stroke:#000000;stroke-width:5.76"/>
	<text x="1790.79" y="2619.14" style="font-family:'Helvetica';font-size:99.99px;fill:#000000" text-anchor="middle">4</text>
	<line x1="2459.04" y1="2489.19" x2="2459.04" y2="2529.16" style="stroke:#000000;stroke-width:5.76"/>
	<text x="2459.04" y="2619.14" style="font-family:'Helvetica';font-size:99.99px;fill:#000000" text-anchor="middle">6</text>
	<line x1="3127.41" y1="2489.19" x2="3127.41" y2="2529.16" style="stroke:#000000;stroke-width:5.76"/>
	<text x="3127.41" y="2619.14" style="font-family:'Helvetica';font-size:99.99px;fill:#000000" text-anchor="middle">8</text>
	<line x1="3795.66" y1="2489.19" x2="3795.66" y2="2529.16" style="stroke:#000000;stroke-width:5.76"/>
	<text x="3795.66" y="2619.14" style="font-family:'Helvetica';font-size:99.99px;fill:#000000" text-anchor="middle">10</text>
	<text x="2124.91" y="2729.16" style="font-family:'Helvetica';font-size:99.99px;fill:#000000" text-anchor="middle">lnq</text>
</svg>
