<?xml version="1.0" encoding="UTF-8" standalone="no"?>
<!-- This is a Stata 15.0 generated SVG file (http://www.stata.com) -->

<svg version="1.1" width="600px" height="436px" viewBox="0 0 3960 2880" xmlns="http://www.w3.org/2000/svg" xmlns:xlink="http://www.w3.org/1999/xlink">
	<desc>Stata Graph - Graph</desc>
	<rect x="0" y="0" width="3960" height="2880" style="fill:#EAF2F3;stroke:none"/>
	<rect x="0.00" y="0.00" width="3959.88" height="2880.00" style="fill:#EAF2F3"/>
	<rect x="2.88" y="2.88" width="3954.12" height="2874.24" style="fill:none;stroke:#EAF2F3;stroke-width:5.76"/>
	<rect x="390.80" y="100.86" width="3468.22" height="2388.33" style="fill:#FFFFFF"/>
	<rect x="393.68" y="103.74" width="3462.46" height="2382.57" style="fill:none;stroke:#FFFFFF;stroke-width:5.76"/>
	<line x1="390.80" y1="2425.82" x2="3859.02" y2="2425.82" style="stroke:#EAF2F3;stroke-width:8.64"/>
	<line x1="390.80" y1="1671.91" x2="3859.02" y2="1671.91" style="stroke:#EAF2F3;stroke-width:8.64"/>
	<line x1="390.80" y1="918.01" x2="3859.02" y2="918.01" style="stroke:#EAF2F3;stroke-width:8.64"/>
	<line x1="390.80" y1="164.22" x2="3859.02" y2="164.22" style="stroke:#EAF2F3;stroke-width:8.64"/>
	<circle cx="2555.81" cy="1581.57" r="26.35" style="fill:#1A476F"/>
	<circle cx="2555.81" cy="1581.57" r="22.03" style="fill:none;stroke:#1A476F;stroke-width:8.64"/>
	<circle cx="2297.05" cy="452.94" r="26.35" style="fill:#1A476F"/>
	<circle cx="2297.05" cy="452.94" r="22.03" style="fill:none;stroke:#1A476F;stroke-width:8.64"/>
	<circle cx="2207.70" cy="307.53" r="26.35" style="fill:#1A476F"/>
	<circle cx="2207.70" cy="307.53" r="22.03" style="fill:none;stroke:#1A476F;stroke-width:8.64"/>
	<circle cx="2055.36" cy="1094.97" r="26.35" style="fill:#1A476F"/>
	<circle cx="2055.36" cy="1094.97" r="22.03" style="fill:none;stroke:#1A476F;stroke-width:8.64"/>
	<circle cx="3795.66" cy="1530.09" r="26.35" style="fill:#1A476F"/>
	<circle cx="3795.66" cy="1530.09" r="22.03" style="fill:none;stroke:#1A476F;stroke-width:8.64"/>
	<circle cx="2881.89" cy="2404.79" r="26.35" style="fill:#1A476F"/>
	<circle cx="2881.89" cy="2404.79" r="22.03" style="fill:none;stroke:#1A476F;stroke-width:8.64"/>
	<circle cx="3163.55" cy="845.98" r="26.35" style="fill:#1A476F"/>
	<circle cx="3163.55" cy="845.98" r="22.03" style="fill:none;stroke:#1A476F;stroke-width:8.64"/>
	<circle cx="1535.24" cy="1258.21" r="26.35" style="fill:#1A476F"/>
	<circle cx="1535.24" cy="1258.21" r="22.03" style="fill:none;stroke:#1A476F;stroke-width:8.64"/>
	<circle cx="1703.54" cy="1398.17" r="26.35" style="fill:#1A476F"/>
	<circle cx="1703.54" cy="1398.17" r="22.03" style="fill:none;stroke:#1A476F;stroke-width:8.64"/>
	<circle cx="2694.16" cy="1386.66" r="26.35" style="fill:#1A476F"/>
	<circle cx="2694.16" cy="1386.66" r="22.03" style="fill:none;stroke:#1A476F;stroke-width:8.64"/>
	<circle cx="2177.63" cy="947.09" r="26.35" style="fill:#1A476F"/>
	<circle cx="2177.63" cy="947.09" r="22.03" style="fill:none;stroke:#1A476F;stroke-width:8.64"/>
	<circle cx="2086.30" cy="1568.70" r="26.35" style="fill:#1A476F"/>
	<circle cx="2086.30" cy="1568.70" r="22.03" style="fill:none;stroke:#1A476F;stroke-width:8.64"/>
	<circle cx="3335.06" cy="2042.56" r="26.35" style="fill:#1A476F"/>
	<circle cx="3335.06" cy="2042.56" r="22.03" style="fill:none;stroke:#1A476F;stroke-width:8.64"/>
	<circle cx="1993.24" cy="2096.89" r="26.35" style="fill:#1A476F"/>
	<circle cx="1993.24" cy="2096.89" r="22.03" style="fill:none;stroke:#1A476F;stroke-width:8.64"/>
	<circle cx="2177.63" cy="2123.37" r="26.35" style="fill:#1A476F"/>
	<circle cx="2177.63" cy="2123.37" r="22.03" style="fill:none;stroke:#1A476F;stroke-width:8.64"/>
	<circle cx="1898.45" cy="1812.25" r="26.35" style="fill:#1A476F"/>
	<circle cx="1898.45" cy="1812.25" r="22.03" style="fill:none;stroke:#1A476F;stroke-width:8.64"/>
	<circle cx="3262.17" cy="1966.33" r="26.35" style="fill:#1A476F"/>
	<circle cx="3262.17" cy="1966.33" r="22.03" style="fill:none;stroke:#1A476F;stroke-width:8.64"/>
	<circle cx="1801.92" cy="2220.89" r="26.35" style="fill:#1A476F"/>
	<circle cx="1801.92" cy="2220.89" r="22.03" style="fill:none;stroke:#1A476F;stroke-width:8.64"/>
	<circle cx="1736.46" cy="2188.96" r="26.35" style="fill:#1A476F"/>
	<circle cx="1736.46" cy="2188.96" r="22.03" style="fill:none;stroke:#1A476F;stroke-width:8.64"/>
	<circle cx="2355.70" cy="1961.38" r="26.35" style="fill:#1A476F"/>
	<circle cx="2355.70" cy="1961.38" r="22.03" style="fill:none;stroke:#1A476F;stroke-width:8.64"/>
	<circle cx="2177.63" cy="1763.12" r="26.35" style="fill:#1A476F"/>
	<circle cx="2177.63" cy="1763.12" r="22.03" style="fill:none;stroke:#1A476F;stroke-width:8.64"/>
	<circle cx="2802.32" cy="1586.15" r="26.35" style="fill:#1A476F"/>
	<circle cx="2802.32" cy="1586.15" r="22.03" style="fill:none;stroke:#1A476F;stroke-width:8.64"/>
	<circle cx="1993.24" cy="1883.41" r="26.35" style="fill:#1A476F"/>
	<circle cx="1993.24" cy="1883.41" r="22.03" style="fill:none;stroke:#1A476F;stroke-width:8.64"/>
	<circle cx="2326.38" cy="2181.16" r="26.35" style="fill:#1A476F"/>
	<circle cx="2326.38" cy="2181.16" r="22.03" style="fill:none;stroke:#1A476F;stroke-width:8.64"/>
	<circle cx="2471.04" cy="1268.60" r="26.35" style="fill:#1A476F"/>
	<circle cx="2471.04" cy="1268.60" r="22.03" style="fill:none;stroke:#1A476F;stroke-width:8.64"/>
	<circle cx="2355.70" cy="2075.23" r="26.35" style="fill:#1A476F"/>
	<circle cx="2355.70" cy="2075.23" r="22.03" style="fill:none;stroke:#1A476F;stroke-width:8.64"/>
	<circle cx="3062.81" cy="1973.13" r="26.35" style="fill:#1A476F"/>
	<circle cx="3062.81" cy="1973.13" r="22.03" style="fill:none;stroke:#1A476F;stroke-width:8.64"/>
	<circle cx="3661.76" cy="1710.77" r="26.35" style="fill:#1A476F"/>
	<circle cx="3661.76" cy="1710.77" r="22.03" style="fill:none;stroke:#1A476F;stroke-width:8.64"/>
	<circle cx="2639.34" cy="2153.94" r="26.35" style="fill:#1A476F"/>
	<circle cx="2639.34" cy="2153.94" r="22.03" style="fill:none;stroke:#1A476F;stroke-width:8.64"/>
	<circle cx="2555.81" cy="2025.11" r="26.35" style="fill:#1A476F"/>
	<circle cx="2555.81" cy="2025.11" r="22.03" style="fill:none;stroke:#1A476F;stroke-width:8.64"/>
	<circle cx="2147.31" cy="1776.73" r="26.35" style="fill:#1A476F"/>
	<circle cx="2147.31" cy="1776.73" r="22.03" style="fill:none;stroke:#1A476F;stroke-width:8.64"/>
	<circle cx="2116.87" cy="1405.84" r="26.35" style="fill:#1A476F"/>
	<circle cx="2116.87" cy="1405.84" r="22.03" style="fill:none;stroke:#1A476F;stroke-width:8.64"/>
	<circle cx="1993.24" cy="1587.51" r="26.35" style="fill:#1A476F"/>
	<circle cx="1993.24" cy="1587.51" r="22.03" style="fill:none;stroke:#1A476F;stroke-width:8.64"/>
	<circle cx="1993.24" cy="1644.57" r="26.35" style="fill:#1A476F"/>
	<circle cx="1993.24" cy="1644.57" r="22.03" style="fill:none;stroke:#1A476F;stroke-width:8.64"/>
	<circle cx="2177.63" cy="1725.25" r="26.35" style="fill:#1A476F"/>
	<circle cx="2177.63" cy="1725.25" r="22.03" style="fill:none;stroke:#1A476F;stroke-width:8.64"/>
	<circle cx="1801.92" cy="1855.44" r="26.35" style="fill:#1A476F"/>
	<circle cx="1801.92" cy="1855.44" r="22.03" style="fill:none;stroke:#1A476F;stroke-width:8.64"/>
	<circle cx="2384.79" cy="1440.25" r="26.35" style="fill:#1A476F"/>
	<circle cx="2384.79" cy="1440.25" r="22.03" style="fill:none;stroke:#1A476F;stroke-width:8.64"/>
	<circle cx="2881.89" cy="2061.00" r="26.35" style="fill:#1A476F"/>
	<circle cx="2881.89" cy="2061.00" r="22.03" style="fill:none;stroke:#1A476F;stroke-width:8.64"/>
	<circle cx="2355.70" cy="1843.81" r="26.35" style="fill:#1A476F"/>
	<circle cx="2355.70" cy="1843.81" r="22.03" style="fill:none;stroke:#1A476F;stroke-width:8.64"/>
	<circle cx="2694.16" cy="1871.53" r="26.35" style="fill:#1A476F"/>
	<circle cx="2694.16" cy="1871.53" r="22.03" style="fill:none;stroke:#1A476F;stroke-width:8.64"/>
	<circle cx="2666.81" cy="1550.02" r="26.35" style="fill:#1A476F"/>
	<circle cx="2666.81" cy="1550.02" r="22.03" style="fill:none;stroke:#1A476F;stroke-width:8.64"/>
	<circle cx="1603.18" cy="1858.66" r="26.35" style="fill:#1A476F"/>
	<circle cx="1603.18" cy="1858.66" r="22.03" style="fill:none;stroke:#1A476F;stroke-width:8.64"/>
	<circle cx="1769.25" cy="2030.68" r="26.35" style="fill:#1A476F"/>
	<circle cx="1769.25" cy="2030.68" r="22.03" style="fill:none;stroke:#1A476F;stroke-width:8.64"/>
	<circle cx="1961.81" cy="1916.20" r="26.35" style="fill:#1A476F"/>
	<circle cx="1961.81" cy="1916.20" r="22.03" style="fill:none;stroke:#1A476F;stroke-width:8.64"/>
	<circle cx="1289.97" cy="1983.03" r="26.35" style="fill:#1A476F"/>
	<circle cx="1289.97" cy="1983.03" r="22.03" style="fill:none;stroke:#1A476F;stroke-width:8.64"/>
	<circle cx="2086.30" cy="1955.19" r="26.35" style="fill:#1A476F"/>
	<circle cx="2086.30" cy="1955.19" r="22.03" style="fill:none;stroke:#1A476F;stroke-width:8.64"/>
	<circle cx="3430.47" cy="1692.09" r="26.35" style="fill:#1A476F"/>
	<circle cx="3430.47" cy="1692.09" r="22.03" style="fill:none;stroke:#1A476F;stroke-width:8.64"/>
	<circle cx="1325.73" cy="1442.60" r="26.35" style="fill:#1A476F"/>
	<circle cx="1325.73" cy="1442.60" r="22.03" style="fill:none;stroke:#1A476F;stroke-width:8.64"/>
	<circle cx="2413.62" cy="1807.92" r="26.35" style="fill:#1A476F"/>
	<circle cx="2413.62" cy="1807.92" r="22.03" style="fill:none;stroke:#1A476F;stroke-width:8.64"/>
	<circle cx="2355.70" cy="1765.23" r="26.35" style="fill:#1A476F"/>
	<circle cx="2355.70" cy="1765.23" r="22.03" style="fill:none;stroke:#1A476F;stroke-width:8.64"/>
	<circle cx="2086.30" cy="1739.24" r="26.35" style="fill:#1A476F"/>
	<circle cx="2086.30" cy="1739.24" r="22.03" style="fill:none;stroke:#1A476F;stroke-width:8.64"/>
	<circle cx="1801.92" cy="1819.80" r="26.35" style="fill:#1A476F"/>
	<circle cx="1801.92" cy="1819.80" r="22.03" style="fill:none;stroke:#1A476F;stroke-width:8.64"/>
	<circle cx="1930.25" cy="1888.48" r="26.35" style="fill:#1A476F"/>
	<circle cx="1930.25" cy="1888.48" r="22.03" style="fill:none;stroke:#1A476F;stroke-width:8.64"/>
	<circle cx="2960.22" cy="1954.32" r="26.35" style="fill:#1A476F"/>
	<circle cx="2960.22" cy="1954.32" r="22.03" style="fill:none;stroke:#1A476F;stroke-width:8.64"/>
	<circle cx="1993.24" cy="1913.73" r="26.35" style="fill:#1A476F"/>
	<circle cx="1993.24" cy="1913.73" r="22.03" style="fill:none;stroke:#1A476F;stroke-width:8.64"/>
	<circle cx="1993.24" cy="1892.94" r="26.35" style="fill:#1A476F"/>
	<circle cx="1993.24" cy="1892.94" r="22.03" style="fill:none;stroke:#1A476F;stroke-width:8.64"/>
	<circle cx="1898.45" cy="1704.83" r="26.35" style="fill:#1A476F"/>
	<circle cx="1898.45" cy="1704.83" r="22.03" style="fill:none;stroke:#1A476F;stroke-width:8.64"/>
	<circle cx="2297.05" cy="1670.68" r="26.35" style="fill:#1A476F"/>
	<circle cx="2297.05" cy="1670.68" r="22.03" style="fill:none;stroke:#1A476F;stroke-width:8.64"/>
	<circle cx="1769.25" cy="1848.26" r="26.35" style="fill:#1A476F"/>
	<circle cx="1769.25" cy="1848.26" r="22.03" style="fill:none;stroke:#1A476F;stroke-width:8.64"/>
	<circle cx="2611.62" cy="1991.45" r="26.35" style="fill:#1A476F"/>
	<circle cx="2611.62" cy="1991.45" r="22.03" style="fill:none;stroke:#1A476F;stroke-width:8.64"/>
	<circle cx="1769.25" cy="1597.91" r="26.35" style="fill:#1A476F"/>
	<circle cx="1769.25" cy="1597.91" r="22.03" style="fill:none;stroke:#1A476F;stroke-width:8.64"/>
	<circle cx="3088.18" cy="1668.45" r="26.35" style="fill:#1A476F"/>
	<circle cx="3088.18" cy="1668.45" r="22.03" style="fill:none;stroke:#1A476F;stroke-width:8.64"/>
	<circle cx="2413.62" cy="1914.84" r="26.35" style="fill:#1A476F"/>
	<circle cx="2413.62" cy="1914.84" r="22.03" style="fill:none;stroke:#1A476F;stroke-width:8.64"/>
	<circle cx="2555.81" cy="1946.28" r="26.35" style="fill:#1A476F"/>
	<circle cx="2555.81" cy="1946.28" r="22.03" style="fill:none;stroke:#1A476F;stroke-width:8.64"/>
	<circle cx="2116.87" cy="1923.26" r="26.35" style="fill:#1A476F"/>
	<circle cx="2116.87" cy="1923.26" r="22.03" style="fill:none;stroke:#1A476F;stroke-width:8.64"/>
	<circle cx="2908.13" cy="1724.39" r="26.35" style="fill:#1A476F"/>
	<circle cx="2908.13" cy="1724.39" r="22.03" style="fill:none;stroke:#1A476F;stroke-width:8.64"/>
	<circle cx="2055.36" cy="1649.52" r="26.35" style="fill:#1A476F"/>
	<circle cx="2055.36" cy="1649.52" r="22.03" style="fill:none;stroke:#1A476F;stroke-width:8.64"/>
	<circle cx="2237.65" cy="1625.75" r="26.35" style="fill:#1A476F"/>
	<circle cx="2237.65" cy="1625.75" r="22.03" style="fill:none;stroke:#1A476F;stroke-width:8.64"/>
	<circle cx="1801.92" cy="1706.81" r="26.35" style="fill:#1A476F"/>
	<circle cx="1801.92" cy="1706.81" r="22.03" style="fill:none;stroke:#1A476F;stroke-width:8.64"/>
	<circle cx="2297.05" cy="2010.51" r="26.35" style="fill:#1A476F"/>
	<circle cx="2297.05" cy="2010.51" r="22.03" style="fill:none;stroke:#1A476F;stroke-width:8.64"/>
	<circle cx="3616.35" cy="1694.56" r="26.35" style="fill:#1A476F"/>
	<circle cx="3616.35" cy="1694.56" r="22.03" style="fill:none;stroke:#1A476F;stroke-width:8.64"/>
	<circle cx="2116.87" cy="2102.45" r="26.35" style="fill:#1A476F"/>
	<circle cx="2116.87" cy="2102.45" r="22.03" style="fill:none;stroke:#1A476F;stroke-width:8.64"/>
	<circle cx="2384.79" cy="1864.85" r="26.35" style="fill:#1A476F"/>
	<circle cx="2384.79" cy="1864.85" r="22.03" style="fill:none;stroke:#1A476F;stroke-width:8.64"/>
	<circle cx="1898.45" cy="1829.95" r="26.35" style="fill:#1A476F"/>
	<circle cx="1898.45" cy="1829.95" r="22.03" style="fill:none;stroke:#1A476F;stroke-width:8.64"/>
	<circle cx="1930.25" cy="1784.90" r="26.35" style="fill:#1A476F"/>
	<circle cx="1930.25" cy="1784.90" r="22.03" style="fill:none;stroke:#1A476F;stroke-width:8.64"/>
	<circle cx="1801.92" cy="1632.56" r="26.35" style="fill:#1A476F"/>
	<circle cx="1801.92" cy="1632.56" r="22.03" style="fill:none;stroke:#1A476F;stroke-width:8.64"/>
	<circle cx="2355.70" cy="1746.79" r="26.35" style="fill:#1A476F"/>
	<circle cx="2355.70" cy="1746.79" r="22.03" style="fill:none;stroke:#1A476F;stroke-width:8.64"/>
	<circle cx="2555.81" cy="1594.20" r="26.35" style="fill:#1A476F"/>
	<circle cx="2555.81" cy="1594.20" r="22.03" style="fill:none;stroke:#1A476F;stroke-width:8.64"/>
	<circle cx="2055.36" cy="1985.75" r="26.35" style="fill:#1A476F"/>
	<circle cx="2055.36" cy="1985.75" r="22.03" style="fill:none;stroke:#1A476F;stroke-width:8.64"/>
	<circle cx="1993.24" cy="1756.93" r="26.35" style="fill:#1A476F"/>
	<circle cx="1993.24" cy="1756.93" r="22.03" style="fill:none;stroke:#1A476F;stroke-width:8.64"/>
	<circle cx="3188.42" cy="1733.30" r="26.35" style="fill:#1A476F"/>
	<circle cx="3188.42" cy="1733.30" r="22.03" style="fill:none;stroke:#1A476F;stroke-width:8.64"/>
	<circle cx="2326.38" cy="1680.21" r="26.35" style="fill:#1A476F"/>
	<circle cx="2326.38" cy="1680.21" r="22.03" style="fill:none;stroke:#1A476F;stroke-width:8.64"/>
	<circle cx="3616.35" cy="1877.22" r="26.35" style="fill:#1A476F"/>
	<circle cx="3616.35" cy="1877.22" r="22.03" style="fill:none;stroke:#1A476F;stroke-width:8.64"/>
	<circle cx="2413.62" cy="1807.80" r="26.35" style="fill:#1A476F"/>
	<circle cx="2413.62" cy="1807.80" r="22.03" style="fill:none;stroke:#1A476F;stroke-width:8.64"/>
	<circle cx="1769.25" cy="1557.69" r="26.35" style="fill:#1A476F"/>
	<circle cx="1769.25" cy="1557.69" r="22.03" style="fill:none;stroke:#1A476F;stroke-width:8.64"/>
	<circle cx="1107.19" cy="1765.97" r="26.35" style="fill:#1A476F"/>
	<circle cx="1107.19" cy="1765.97" r="22.03" style="fill:none;stroke:#1A476F;stroke-width:8.64"/>
	<circle cx="1961.81" cy="1774.88" r="26.35" style="fill:#1A476F"/>
	<circle cx="1961.81" cy="1774.88" r="22.03" style="fill:none;stroke:#1A476F;stroke-width:8.64"/>
	<circle cx="2116.87" cy="1715.48" r="26.35" style="fill:#1A476F"/>
	<circle cx="2116.87" cy="1715.48" r="22.03" style="fill:none;stroke:#1A476F;stroke-width:8.64"/>
	<circle cx="1801.92" cy="1639.86" r="26.35" style="fill:#1A476F"/>
	<circle cx="1801.92" cy="1639.86" r="22.03" style="fill:none;stroke:#1A476F;stroke-width:8.64"/>
	<circle cx="2384.79" cy="1768.32" r="26.35" style="fill:#1A476F"/>
	<circle cx="2384.79" cy="1768.32" r="22.03" style="fill:none;stroke:#1A476F;stroke-width:8.64"/>
	<circle cx="2177.63" cy="1738.25" r="26.35" style="fill:#1A476F"/>
	<circle cx="2177.63" cy="1738.25" r="22.03" style="fill:none;stroke:#1A476F;stroke-width:8.64"/>
	<circle cx="2555.81" cy="1768.81" r="26.35" style="fill:#1A476F"/>
	<circle cx="2555.81" cy="1768.81" r="22.03" style="fill:none;stroke:#1A476F;stroke-width:8.64"/>
	<circle cx="1930.25" cy="1578.36" r="26.35" style="fill:#1A476F"/>
	<circle cx="1930.25" cy="1578.36" r="22.03" style="fill:none;stroke:#1A476F;stroke-width:8.64"/>
	<circle cx="2384.79" cy="1607.44" r="26.35" style="fill:#1A476F"/>
	<circle cx="2384.79" cy="1607.44" r="22.03" style="fill:none;stroke:#1A476F;stroke-width:8.64"/>
	<circle cx="2908.13" cy="1696.91" r="26.35" style="fill:#1A476F"/>
	<circle cx="2908.13" cy="1696.91" r="22.03" style="fill:none;stroke:#1A476F;stroke-width:8.64"/>
	<circle cx="1993.24" cy="1750.37" r="26.35" style="fill:#1A476F"/>
	<circle cx="1993.24" cy="1750.37" r="22.03" style="fill:none;stroke:#1A476F;stroke-width:8.64"/>
	<circle cx="1801.92" cy="1651.87" r="26.35" style="fill:#1A476F"/>
	<circle cx="1801.92" cy="1651.87" r="22.03" style="fill:none;stroke:#1A476F;stroke-width:8.64"/>
	<circle cx="1769.25" cy="1849.13" r="26.35" style="fill:#1A476F"/>
	<circle cx="1769.25" cy="1849.13" r="22.03" style="fill:none;stroke:#1A476F;stroke-width:8.64"/>
	<circle cx="1961.81" cy="1513.01" r="26.35" style="fill:#1A476F"/>
	<circle cx="1961.81" cy="1513.01" r="22.03" style="fill:none;stroke:#1A476F;stroke-width:8.64"/>
	<circle cx="1898.45" cy="1668.70" r="26.35" style="fill:#1A476F"/>
	<circle cx="1898.45" cy="1668.70" r="22.03" style="fill:none;stroke:#1A476F;stroke-width:8.64"/>
	<circle cx="1736.46" cy="1629.34" r="26.35" style="fill:#1A476F"/>
	<circle cx="1736.46" cy="1629.34" r="22.03" style="fill:none;stroke:#1A476F;stroke-width:8.64"/>
	<circle cx="3430.47" cy="1551.63" r="26.35" style="fill:#1A476F"/>
	<circle cx="3430.47" cy="1551.63" r="22.03" style="fill:none;stroke:#1A476F;stroke-width:8.64"/>
	<circle cx="1898.45" cy="1756.81" r="26.35" style="fill:#1A476F"/>
	<circle cx="1898.45" cy="1756.81" r="22.03" style="fill:none;stroke:#1A476F;stroke-width:8.64"/>
	<circle cx="2555.81" cy="1637.63" r="26.35" style="fill:#1A476F"/>
	<circle cx="2555.81" cy="1637.63" r="22.03" style="fill:none;stroke:#1A476F;stroke-width:8.64"/>
	<circle cx="2086.30" cy="1527.00" r="26.35" style="fill:#1A476F"/>
	<circle cx="2086.30" cy="1527.00" r="22.03" style="fill:none;stroke:#1A476F;stroke-width:8.64"/>
	<circle cx="1898.45" cy="1649.52" r="26.35" style="fill:#1A476F"/>
	<circle cx="1898.45" cy="1649.52" r="22.03" style="fill:none;stroke:#1A476F;stroke-width:8.64"/>
	<circle cx="1961.81" cy="1678.10" r="26.35" style="fill:#1A476F"/>
	<circle cx="1961.81" cy="1678.10" r="22.03" style="fill:none;stroke:#1A476F;stroke-width:8.64"/>
	<circle cx="2177.63" cy="1683.42" r="26.35" style="fill:#1A476F"/>
	<circle cx="2177.63" cy="1683.42" r="22.03" style="fill:none;stroke:#1A476F;stroke-width:8.64"/>
	<circle cx="2297.05" cy="1642.09" r="26.35" style="fill:#1A476F"/>
	<circle cx="2297.05" cy="1642.09" r="22.03" style="fill:none;stroke:#1A476F;stroke-width:8.64"/>
	<circle cx="2934.24" cy="1605.09" r="26.35" style="fill:#1A476F"/>
	<circle cx="2934.24" cy="1605.09" r="22.03" style="fill:none;stroke:#1A476F;stroke-width:8.64"/>
	<circle cx="1930.25" cy="1496.18" r="26.35" style="fill:#1A476F"/>
	<circle cx="1930.25" cy="1496.18" r="22.03" style="fill:none;stroke:#1A476F;stroke-width:8.64"/>
	<circle cx="1703.54" cy="1516.73" r="26.35" style="fill:#1A476F"/>
	<circle cx="1703.54" cy="1516.73" r="22.03" style="fill:none;stroke:#1A476F;stroke-width:8.64"/>
	<circle cx="2086.30" cy="1601.75" r="26.35" style="fill:#1A476F"/>
	<circle cx="2086.30" cy="1601.75" r="22.03" style="fill:none;stroke:#1A476F;stroke-width:8.64"/>
	<circle cx="2355.70" cy="1566.48" r="26.35" style="fill:#1A476F"/>
	<circle cx="2355.70" cy="1566.48" r="22.03" style="fill:none;stroke:#1A476F;stroke-width:8.64"/>
	<circle cx="2177.63" cy="1616.97" r="26.35" style="fill:#1A476F"/>
	<circle cx="2177.63" cy="1616.97" r="22.03" style="fill:none;stroke:#1A476F;stroke-width:8.64"/>
	<circle cx="2555.81" cy="1738.87" r="26.35" style="fill:#1A476F"/>
	<circle cx="2555.81" cy="1738.87" r="22.03" style="fill:none;stroke:#1A476F;stroke-width:8.64"/>
	<circle cx="2748.49" cy="1659.04" r="26.35" style="fill:#1A476F"/>
	<circle cx="2748.49" cy="1659.04" r="22.03" style="fill:none;stroke:#1A476F;stroke-width:8.64"/>
	<circle cx="2177.63" cy="1489.50" r="26.35" style="fill:#1A476F"/>
	<circle cx="2177.63" cy="1489.50" r="22.03" style="fill:none;stroke:#1A476F;stroke-width:8.64"/>
	<circle cx="2355.70" cy="1535.91" r="26.35" style="fill:#1A476F"/>
	<circle cx="2355.70" cy="1535.91" r="22.03" style="fill:none;stroke:#1A476F;stroke-width:8.64"/>
	<circle cx="1834.22" cy="1419.95" r="26.35" style="fill:#1A476F"/>
	<circle cx="1834.22" cy="1419.95" r="22.03" style="fill:none;stroke:#1A476F;stroke-width:8.64"/>
	<circle cx="1769.25" cy="1535.54" r="26.35" style="fill:#1A476F"/>
	<circle cx="1769.25" cy="1535.54" r="22.03" style="fill:none;stroke:#1A476F;stroke-width:8.64"/>
	<circle cx="1898.45" cy="1684.66" r="26.35" style="fill:#1A476F"/>
	<circle cx="1898.45" cy="1684.66" r="22.03" style="fill:none;stroke:#1A476F;stroke-width:8.64"/>
	<circle cx="2237.65" cy="1757.18" r="26.35" style="fill:#1A476F"/>
	<circle cx="2237.65" cy="1757.18" r="22.03" style="fill:none;stroke:#1A476F;stroke-width:8.64"/>
	<circle cx="3088.18" cy="1639.86" r="26.35" style="fill:#1A476F"/>
	<circle cx="3088.18" cy="1639.86" r="22.03" style="fill:none;stroke:#1A476F;stroke-width:8.64"/>
	<circle cx="2086.30" cy="1563.38" r="26.35" style="fill:#1A476F"/>
	<circle cx="2086.30" cy="1563.38" r="22.03" style="fill:none;stroke:#1A476F;stroke-width:8.64"/>
	<circle cx="2881.89" cy="1523.53" r="26.35" style="fill:#1A476F"/>
	<circle cx="2881.89" cy="1523.53" r="22.03" style="fill:none;stroke:#1A476F;stroke-width:8.64"/>
	<circle cx="1898.45" cy="1499.77" r="26.35" style="fill:#1A476F"/>
	<circle cx="1898.45" cy="1499.77" r="22.03" style="fill:none;stroke:#1A476F;stroke-width:8.64"/>
	<circle cx="1834.22" cy="1701.12" r="26.35" style="fill:#1A476F"/>
	<circle cx="1834.22" cy="1701.12" r="22.03" style="fill:none;stroke:#1A476F;stroke-width:8.64"/>
	<circle cx="2384.79" cy="1436.16" r="26.35" style="fill:#1A476F"/>
	<circle cx="2384.79" cy="1436.16" r="22.03" style="fill:none;stroke:#1A476F;stroke-width:8.64"/>
	<circle cx="1769.25" cy="1655.95" r="26.35" style="fill:#1A476F"/>
	<circle cx="1769.25" cy="1655.95" r="22.03" style="fill:none;stroke:#1A476F;stroke-width:8.64"/>
	<circle cx="2908.13" cy="1619.20" r="26.35" style="fill:#1A476F"/>
	<circle cx="2908.13" cy="1619.20" r="22.03" style="fill:none;stroke:#1A476F;stroke-width:8.64"/>
	<circle cx="2555.81" cy="1507.45" r="26.35" style="fill:#1A476F"/>
	<circle cx="2555.81" cy="1507.45" r="22.03" style="fill:none;stroke:#1A476F;stroke-width:8.64"/>
	<circle cx="2721.39" cy="1441.49" r="26.35" style="fill:#1A476F"/>
	<circle cx="2721.39" cy="1441.49" r="22.03" style="fill:none;stroke:#1A476F;stroke-width:8.64"/>
	<circle cx="1866.52" cy="1458.32" r="26.35" style="fill:#1A476F"/>
	<circle cx="1866.52" cy="1458.32" r="22.03" style="fill:none;stroke:#1A476F;stroke-width:8.64"/>
	<circle cx="1930.25" cy="1524.15" r="26.35" style="fill:#1A476F"/>
	<circle cx="1930.25" cy="1524.15" r="22.03" style="fill:none;stroke:#1A476F;stroke-width:8.64"/>
	<circle cx="2413.62" cy="1461.29" r="26.35" style="fill:#1A476F"/>
	<circle cx="2413.62" cy="1461.29" r="22.03" style="fill:none;stroke:#1A476F;stroke-width:8.64"/>
	<circle cx="2986.09" cy="1293.10" r="26.35" style="fill:#1A476F"/>
	<circle cx="2986.09" cy="1293.10" r="22.03" style="fill:none;stroke:#1A476F;stroke-width:8.64"/>
	<circle cx="2527.72" cy="1584.67" r="26.35" style="fill:#1A476F"/>
	<circle cx="2527.72" cy="1584.67" r="22.03" style="fill:none;stroke:#1A476F;stroke-width:8.64"/>
	<circle cx="2748.49" cy="1562.89" r="26.35" style="fill:#1A476F"/>
	<circle cx="2748.49" cy="1562.89" r="22.03" style="fill:none;stroke:#1A476F;stroke-width:8.64"/>
	<circle cx="2024.43" cy="1210.93" r="26.35" style="fill:#1A476F"/>
	<circle cx="2024.43" cy="1210.93" r="22.03" style="fill:none;stroke:#1A476F;stroke-width:8.64"/>
	<circle cx="3088.18" cy="1517.84" r="26.35" style="fill:#1A476F"/>
	<circle cx="3088.18" cy="1517.84" r="22.03" style="fill:none;stroke:#1A476F;stroke-width:8.64"/>
	<circle cx="1569.27" cy="1401.88" r="26.35" style="fill:#1A476F"/>
	<circle cx="1569.27" cy="1401.88" r="22.03" style="fill:none;stroke:#1A476F;stroke-width:8.64"/>
	<circle cx="1466.31" cy="1364.76" r="26.35" style="fill:#1A476F"/>
	<circle cx="1466.31" cy="1364.76" r="22.03" style="fill:none;stroke:#1A476F;stroke-width:8.64"/>
	<circle cx="3310.81" cy="1007.98" r="26.35" style="fill:#1A476F"/>
	<circle cx="3310.81" cy="1007.98" r="22.03" style="fill:none;stroke:#1A476F;stroke-width:8.64"/>
	<circle cx="1930.25" cy="1135.32" r="26.35" style="fill:#1A476F"/>
	<circle cx="1930.25" cy="1135.32" r="22.03" style="fill:none;stroke:#1A476F;stroke-width:8.64"/>
	<line x1="390.80" y1="2489.19" x2="390.80" y2="100.86" style="stroke:#000000;stroke-width:5.76"/>
	<line x1="390.80" y1="2425.82" x2="350.83" y2="2425.82" style="stroke:#000000;stroke-width:5.76"/>
	<text x="300.72" y="2425.82" style="font-family:'Helvetica';font-size:99.99px;fill:#000000" transform="rotate(-90 300.72,2425.82)" text-anchor="middle">-1</text>
	<line x1="390.80" y1="1671.91" x2="350.83" y2="1671.91" style="stroke:#000000;stroke-width:5.76"/>
	<text x="300.72" y="1671.91" style="font-family:'Helvetica';font-size:99.99px;fill:#000000" transform="rotate(-90 300.72,1671.91)" text-anchor="middle">0</text>
	<line x1="390.80" y1="918.01" x2="350.83" y2="918.01" style="stroke:#000000;stroke-width:5.76"/>
	<text x="300.72" y="918.01" style="font-family:'Helvetica';font-size:99.99px;fill:#000000" transform="rotate(-90 300.72,918.01)" text-anchor="middle">1</text>
	<line x1="390.80" y1="164.22" x2="350.83" y2="164.22" style="stroke:#000000;stroke-width:5.76"/>
	<text x="300.72" y="164.22" style="font-family:'Helvetica';font-size:99.99px;fill:#000000" transform="rotate(-90 300.72,164.22)" text-anchor="middle">2</text>
	<text x="190.71" y="1294.96" style="font-family:'Helvetica';font-size:99.99px;fill:#000000" transform="rotate(-90 190.71,1294.96)" text-anchor="middle">Residuals</text>
	<line x1="390.80" y1="2489.19" x2="3859.02" y2="2489.19" style="stroke:#000000;stroke-width:5.76"/>
	<line x1="454.16" y1="2489.19" x2="454.16" y2="2529.16" style="stroke:#000000;stroke-width:5.76"/>
	<text x="454.16" y="2619.14" style="font-family:'Helvetica';font-size:99.99px;fill:#000000" text-anchor="middle">4.8</text>
	<line x1="1480.67" y1="2489.19" x2="1480.67" y2="2529.16" style="stroke:#000000;stroke-width:5.76"/>
	<text x="1480.67" y="2619.14" style="font-family:'Helvetica';font-size:99.99px;fill:#000000" text-anchor="middle">5</text>
	<line x1="2507.18" y1="2489.19" x2="2507.18" y2="2529.16" style="stroke:#000000;stroke-width:5.76"/>
	<text x="2507.18" y="2619.14" style="font-family:'Helvetica';font-size:99.99px;fill:#000000" text-anchor="middle">5.2</text>
	<line x1="3533.80" y1="2489.19" x2="3533.80" y2="2529.16" style="stroke:#000000;stroke-width:5.76"/>
	<text x="3533.80" y="2619.14" style="font-family:'Helvetica';font-size:99.99px;fill:#000000" text-anchor="middle">5.4</text>
	<text x="2124.91" y="2729.16" style="font-family:'Helvetica';font-size:99.99px;fill:#000000" text-anchor="middle">lnpk</text>
</svg>
