<?xml version="1.0" encoding="UTF-8" standalone="no"?>
<!-- This is a Stata 15.0 generated SVG file (http://www.stata.com) -->

<svg version="1.1" width="600px" height="436px" viewBox="0 0 3960 2880" xmlns="http://www.w3.org/2000/svg" xmlns:xlink="http://www.w3.org/1999/xlink">
	<desc>Stata Graph - Graph</desc>
	<rect x="0" y="0" width="3960" height="2880" style="fill:#EAF2F3;stroke:none"/>
	<rect x="0.00" y="0.00" width="3959.88" height="2880.00" style="fill:#EAF2F3"/>
	<rect x="2.88" y="2.88" width="3954.12" height="2874.24" style="fill:none;stroke:#EAF2F3;stroke-width:5.76"/>
	<rect x="290.81" y="100.86" width="3568.21" height="2132.77" style="fill:#FFFFFF"/>
	<rect x="293.69" y="103.74" width="3562.45" height="2127.01" style="fill:none;stroke:#FFFFFF;stroke-width:5.76"/>
	<line x1="290.81" y1="1668.82" x2="3859.02" y2="1668.82" style="stroke:#EAF2F3;stroke-width:8.64"/>
	<line x1="290.81" y1="1167.25" x2="3859.02" y2="1167.25" style="stroke:#EAF2F3;stroke-width:8.64"/>
	<line x1="290.81" y1="665.67" x2="3859.02" y2="665.67" style="stroke:#EAF2F3;stroke-width:8.64"/>
	<line x1="290.81" y1="164.22" x2="3859.02" y2="164.22" style="stroke:#EAF2F3;stroke-width:8.64"/>
	<circle cx="3294.47" cy="1004.51" r="26.35" style="fill:#1A476F"/>
	<circle cx="3294.47" cy="1004.51" r="22.03" style="fill:none;stroke:#1A476F;stroke-width:8.64"/>
	<circle cx="2354.10" cy="1175.54" r="26.35" style="fill:#1A476F"/>
	<circle cx="2354.10" cy="1175.54" r="22.03" style="fill:none;stroke:#1A476F;stroke-width:8.64"/>
	<circle cx="2060.68" cy="963.42" r="26.35" style="fill:#1A476F"/>
	<circle cx="2060.68" cy="963.42" r="22.03" style="fill:none;stroke:#1A476F;stroke-width:8.64"/>
	<circle cx="2424.63" cy="1139.77" r="26.35" style="fill:#1A476F"/>
	<circle cx="2424.63" cy="1139.77" r="22.03" style="fill:none;stroke:#1A476F;stroke-width:8.64"/>
	<circle cx="2122.07" cy="1794.06" r="26.35" style="fill:#1A476F"/>
	<circle cx="2122.07" cy="1794.06" r="22.03" style="fill:none;stroke:#1A476F;stroke-width:8.64"/>
	<circle cx="999.65" cy="1822.28" r="26.35" style="fill:#1A476F"/>
	<circle cx="999.65" cy="1822.28" r="22.03" style="fill:none;stroke:#1A476F;stroke-width:8.64"/>
	<circle cx="951.14" cy="1712.13" r="26.35" style="fill:#1A476F"/>
	<circle cx="951.14" cy="1712.13" r="22.03" style="fill:none;stroke:#1A476F;stroke-width:8.64"/>
	<circle cx="1140.23" cy="1303.75" r="26.35" style="fill:#1A476F"/>
	<circle cx="1140.23" cy="1303.75" r="22.03" style="fill:none;stroke:#1A476F;stroke-width:8.64"/>
	<circle cx="1840.78" cy="1130.49" r="26.35" style="fill:#1A476F"/>
	<circle cx="1840.78" cy="1130.49" r="22.03" style="fill:none;stroke:#1A476F;stroke-width:8.64"/>
	<circle cx="2138.03" cy="1015.52" r="26.35" style="fill:#1A476F"/>
	<circle cx="2138.03" cy="1015.52" r="22.03" style="fill:none;stroke:#1A476F;stroke-width:8.64"/>
	<circle cx="2335.41" cy="1050.92" r="26.35" style="fill:#1A476F"/>
	<circle cx="2335.41" cy="1050.92" r="22.03" style="fill:none;stroke:#1A476F;stroke-width:8.64"/>
	<circle cx="2274.40" cy="960.33" r="26.35" style="fill:#1A476F"/>
	<circle cx="2274.40" cy="960.33" r="22.03" style="fill:none;stroke:#1A476F;stroke-width:8.64"/>
	<circle cx="2429.83" cy="1091.51" r="26.35" style="fill:#1A476F"/>
	<circle cx="2429.83" cy="1091.51" r="22.03" style="fill:none;stroke:#1A476F;stroke-width:8.64"/>
	<circle cx="2204.85" cy="1117.99" r="26.35" style="fill:#1A476F"/>
	<circle cx="2204.85" cy="1117.99" r="22.03" style="fill:none;stroke:#1A476F;stroke-width:8.64"/>
	<circle cx="2159.56" cy="1224.30" r="26.35" style="fill:#1A476F"/>
	<circle cx="2159.56" cy="1224.30" r="22.03" style="fill:none;stroke:#1A476F;stroke-width:8.64"/>
	<circle cx="1977.03" cy="650.82" r="26.35" style="fill:#1A476F"/>
	<circle cx="1977.03" cy="650.82" r="22.03" style="fill:none;stroke:#1A476F;stroke-width:8.64"/>
	<circle cx="2960.97" cy="886.70" r="26.35" style="fill:#1A476F"/>
	<circle cx="2960.97" cy="886.70" r="22.03" style="fill:none;stroke:#1A476F;stroke-width:8.64"/>
	<circle cx="2556.30" cy="1484.06" r="26.35" style="fill:#1A476F"/>
	<circle cx="2556.30" cy="1484.06" r="22.03" style="fill:none;stroke:#1A476F;stroke-width:8.64"/>
	<circle cx="1531.41" cy="1748.89" r="26.35" style="fill:#1A476F"/>
	<circle cx="1531.41" cy="1748.89" r="22.03" style="fill:none;stroke:#1A476F;stroke-width:8.64"/>
	<circle cx="1077.12" cy="1234.32" r="26.35" style="fill:#1A476F"/>
	<circle cx="1077.12" cy="1234.32" r="22.03" style="fill:none;stroke:#1A476F;stroke-width:8.64"/>
	<circle cx="1959.95" cy="1334.69" r="26.35" style="fill:#1A476F"/>
	<circle cx="1959.95" cy="1334.69" r="22.03" style="fill:none;stroke:#1A476F;stroke-width:8.64"/>
	<circle cx="1787.82" cy="1624.89" r="26.35" style="fill:#1A476F"/>
	<circle cx="1787.82" cy="1624.89" r="22.03" style="fill:none;stroke:#1A476F;stroke-width:8.64"/>
	<circle cx="1289.97" cy="879.89" r="26.35" style="fill:#1A476F"/>
	<circle cx="1289.97" cy="879.89" r="22.03" style="fill:none;stroke:#1A476F;stroke-width:8.64"/>
	<circle cx="2567.94" cy="1216.13" r="26.35" style="fill:#1A476F"/>
	<circle cx="2567.94" cy="1216.13" r="22.03" style="fill:none;stroke:#1A476F;stroke-width:8.64"/>
	<circle cx="1991.14" cy="1099.31" r="26.35" style="fill:#1A476F"/>
	<circle cx="1991.14" cy="1099.31" r="22.03" style="fill:none;stroke:#1A476F;stroke-width:8.64"/>
	<circle cx="2191.61" cy="1139.90" r="26.35" style="fill:#1A476F"/>
	<circle cx="2191.61" cy="1139.90" r="22.03" style="fill:none;stroke:#1A476F;stroke-width:8.64"/>
	<circle cx="2121.82" cy="1186.68" r="26.35" style="fill:#1A476F"/>
	<circle cx="2121.82" cy="1186.68" r="22.03" style="fill:none;stroke:#1A476F;stroke-width:8.64"/>
	<circle cx="2041.63" cy="1194.97" r="26.35" style="fill:#1A476F"/>
	<circle cx="2041.63" cy="1194.97" r="22.03" style="fill:none;stroke:#1A476F;stroke-width:8.64"/>
	<circle cx="2027.40" cy="374.97" r="26.35" style="fill:#1A476F"/>
	<circle cx="2027.40" cy="374.97" r="22.03" style="fill:none;stroke:#1A476F;stroke-width:8.64"/>
	<line x1="951.14" y1="1440.99" x2="2122.81" y2="1169.85" stroke-linecap="round" style="stroke:#90353B;stroke-width:8.64"/>
	<line x1="2122.81" y1="1169.85" x2="3294.47" y2="898.82" stroke-linecap="round" style="stroke:#90353B;stroke-width:8.64"/>
	<line x1="290.81" y1="2233.63" x2="290.81" y2="100.86" style="stroke:#000000;stroke-width:5.76"/>
	<line x1="290.81" y1="2170.27" x2="250.84" y2="2170.27" style="stroke:#000000;stroke-width:5.76"/>
	<text x="200.73" y="2170.27" style="font-family:'Helvetica';font-size:99.99px;fill:#000000" transform="rotate(-90 200.73,2170.27)" text-anchor="middle">-.1</text>
	<line x1="290.81" y1="1668.82" x2="250.84" y2="1668.82" style="stroke:#000000;stroke-width:5.76"/>
	<text x="200.73" y="1668.82" style="font-family:'Helvetica';font-size:99.99px;fill:#000000" transform="rotate(-90 200.73,1668.82)" text-anchor="middle">-.05</text>
	<line x1="290.81" y1="1167.25" x2="250.84" y2="1167.25" style="stroke:#000000;stroke-width:5.76"/>
	<text x="200.73" y="1167.25" style="font-family:'Helvetica';font-size:99.99px;fill:#000000" transform="rotate(-90 200.73,1167.25)" text-anchor="middle">0</text>
	<line x1="290.81" y1="665.67" x2="250.84" y2="665.67" style="stroke:#000000;stroke-width:5.76"/>
	<text x="200.73" y="665.67" style="font-family:'Helvetica';font-size:99.99px;fill:#000000" transform="rotate(-90 200.73,665.67)" text-anchor="middle">.05</text>
	<line x1="290.81" y1="164.22" x2="250.84" y2="164.22" style="stroke:#000000;stroke-width:5.76"/>
	<text x="200.73" y="164.22" style="font-family:'Helvetica';font-size:99.99px;fill:#000000" transform="rotate(-90 200.73,164.22)" text-anchor="middle">.1</text>
	<line x1="290.81" y1="2233.63" x2="3859.02" y2="2233.63" style="stroke:#000000;stroke-width:5.76"/>
	<line x1="354.17" y1="2233.63" x2="354.17" y2="2273.73" style="stroke:#000000;stroke-width:5.76"/>
	<text x="354.17" y="2363.59" style="font-family:'Helvetica';font-size:99.99px;fill:#000000" text-anchor="middle">-.1</text>
	<line x1="1214.48" y1="2233.63" x2="1214.48" y2="2273.73" style="stroke:#000000;stroke-width:5.76"/>
	<text x="1214.48" y="2363.59" style="font-family:'Helvetica';font-size:99.99px;fill:#000000" text-anchor="middle">-.05</text>
	<line x1="2074.92" y1="2233.63" x2="2074.92" y2="2273.73" style="stroke:#000000;stroke-width:5.76"/>
	<text x="2074.92" y="2363.59" style="font-family:'Helvetica';font-size:99.99px;fill:#000000" text-anchor="middle">0</text>
	<line x1="2935.35" y1="2233.63" x2="2935.35" y2="2273.73" style="stroke:#000000;stroke-width:5.76"/>
	<text x="2935.35" y="2363.59" style="font-family:'Helvetica';font-size:99.99px;fill:#000000" text-anchor="middle">.05</text>
	<line x1="3795.66" y1="2233.63" x2="3795.66" y2="2273.73" style="stroke:#000000;stroke-width:5.76"/>
	<text x="3795.66" y="2363.59" style="font-family:'Helvetica';font-size:99.99px;fill:#000000" text-anchor="middle">.1</text>
	<text x="2074.92" y="2473.60" style="font-family:'Helvetica';font-size:99.99px;fill:#000000" text-anchor="middle">e2</text>
	<rect x="1174.88" y="2558.24" width="1800.07" height="186.37" style="fill:#FFFFFF"/>
	<rect x="1177.76" y="2561.12" width="1794.31" height="180.61" style="fill:none;stroke:#000000;stroke-width:5.76"/>
	<circle cx="1240.10" cy="2651.43" r="26.35" style="fill:#1A476F"/>
	<circle cx="1240.10" cy="2651.43" r="22.03" style="fill:none;stroke:#1A476F;stroke-width:8.64"/>
	<line x1="1914.17" y1="2651.43" x2="2288.51" y2="2651.43" style="stroke:#90353B;stroke-width:8.64"/>
	<text x="1322.02" y="2686.46" style="font-family:'Helvetica';font-size:99.99px;fill:#000000">Residuals</text>
	<text x="2348.53" y="2686.46" style="font-family:'Helvetica';font-size:99.99px;fill:#000000">Fitted values</text>
</svg>
