<?xml version="1.0" encoding="UTF-8" standalone="no"?>
<!-- This is a Stata 15.0 generated SVG file (http://www.stata.com) -->

<svg version="1.1" width="600px" height="436px" viewBox="0 0 3960 2880" xmlns="http://www.w3.org/2000/svg" xmlns:xlink="http://www.w3.org/1999/xlink">
	<desc>Stata Graph - Graph</desc>
	<rect x="0" y="0" width="3960" height="2880" style="fill:#EAF2F3;stroke:none"/>
	<rect x="0.00" y="0.00" width="3959.88" height="2880.00" style="fill:#EAF2F3"/>
	<rect x="2.88" y="2.88" width="3954.12" height="2874.24" style="fill:none;stroke:#EAF2F3;stroke-width:5.76"/>
	<rect x="390.80" y="100.86" width="3468.22" height="2273.85" style="fill:#FFFFFF"/>
	<rect x="393.68" y="103.74" width="3462.46" height="2268.09" style="fill:none;stroke:#FFFFFF;stroke-width:5.76"/>
	<line x1="390.80" y1="2311.35" x2="3859.02" y2="2311.35" style="stroke:#EAF2F3;stroke-width:8.64"/>
	<line x1="390.80" y1="1595.56" x2="3859.02" y2="1595.56" style="stroke:#EAF2F3;stroke-width:8.64"/>
	<line x1="390.80" y1="879.89" x2="3859.02" y2="879.89" style="stroke:#EAF2F3;stroke-width:8.64"/>
	<line x1="390.80" y1="164.22" x2="3859.02" y2="164.22" style="stroke:#EAF2F3;stroke-width:8.64"/>
	<line x1="390.80" y1="879.89" x2="3859.02" y2="879.89" style="stroke:#EAF2F3;stroke-width:8.64"/>
	<path d="
M676.91 1392.11 L676.91 1392.11 L899.66 1392.11 L1122.41 1392.11 L1345.29 1392.11 L1568.04 1392.11 L1790.79 1392.11 L2013.54 1392.11 L2236.29 1392.11 L2459.04 1392.11 L2681.91 1392.11 L2904.66 1392.11 L3127.41 1392.11 L3350.16 1392.11 L3350.16 367.67 L3127.41 367.67 L2904.66 367.67 L2681.91 367.67 L2459.04 367.67 L2236.29 367.67 L2013.54 367.67 L1790.79 367.67 L1568.04 367.67 L1345.29 367.67 L1122.41 367.67 L899.66 367.67 L676.91 367.67 L676.91 1392.11 Z" stroke-linecap="round" stroke-alignment="inner" style="fill:#C0C0C0;stroke:#C0C0C0;stroke-width:8.64"/>
	<line x1="676.91" y1="879.89" x2="676.91" y2="311.74" style="stroke:#1A476F;stroke-width:8.64"/>
	<line x1="899.66" y1="879.89" x2="899.66" y2="1120.47" style="stroke:#1A476F;stroke-width:8.64"/>
	<line x1="1122.41" y1="879.89" x2="1122.41" y2="770.12" style="stroke:#1A476F;stroke-width:8.64"/>
	<line x1="1345.29" y1="879.89" x2="1345.29" y2="1092.13" style="stroke:#1A476F;stroke-width:8.64"/>
	<line x1="1568.04" y1="879.89" x2="1568.04" y2="1390.13" style="stroke:#1A476F;stroke-width:8.64"/>
	<line x1="1790.79" y1="879.89" x2="1790.79" y2="878.40" style="stroke:#1A476F;stroke-width:8.64"/>
	<line x1="2013.54" y1="879.89" x2="2013.54" y2="1486.41" style="stroke:#1A476F;stroke-width:8.64"/>
	<line x1="2236.29" y1="879.89" x2="2236.29" y2="983.10" style="stroke:#1A476F;stroke-width:8.64"/>
	<line x1="2459.04" y1="879.89" x2="2459.04" y2="1352.26" style="stroke:#1A476F;stroke-width:8.64"/>
	<line x1="2681.91" y1="879.89" x2="2681.91" y2="2157.90" style="stroke:#1A476F;stroke-width:8.64"/>
	<line x1="2904.66" y1="879.89" x2="2904.66" y2="1597.91" style="stroke:#1A476F;stroke-width:8.64"/>
	<line x1="3127.41" y1="879.89" x2="3127.41" y2="1536.78" style="stroke:#1A476F;stroke-width:8.64"/>
	<line x1="3350.16" y1="879.89" x2="3350.16" y2="809.35" style="stroke:#1A476F;stroke-width:8.64"/>
	<circle cx="676.79" cy="311.74" r="26.35" style="fill:#1A476F"/>
	<circle cx="676.79" cy="311.74" r="22.03" style="fill:none;stroke:#1A476F;stroke-width:8.64"/>
	<circle cx="899.66" cy="1120.59" r="26.35" style="fill:#1A476F"/>
	<circle cx="899.66" cy="1120.59" r="22.03" style="fill:none;stroke:#1A476F;stroke-width:8.64"/>
	<circle cx="1122.41" cy="770.12" r="26.35" style="fill:#1A476F"/>
	<circle cx="1122.41" cy="770.12" r="22.03" style="fill:none;stroke:#1A476F;stroke-width:8.64"/>
	<circle cx="1345.16" cy="1092.13" r="26.35" style="fill:#1A476F"/>
	<circle cx="1345.16" cy="1092.13" r="22.03" style="fill:none;stroke:#1A476F;stroke-width:8.64"/>
	<circle cx="1567.91" cy="1390.25" r="26.35" style="fill:#1A476F"/>
	<circle cx="1567.91" cy="1390.25" r="22.03" style="fill:none;stroke:#1A476F;stroke-width:8.64"/>
	<circle cx="1790.66" cy="878.40" r="26.35" style="fill:#1A476F"/>
	<circle cx="1790.66" cy="878.40" r="22.03" style="fill:none;stroke:#1A476F;stroke-width:8.64"/>
	<circle cx="2013.54" cy="1486.53" r="26.35" style="fill:#1A476F"/>
	<circle cx="2013.54" cy="1486.53" r="22.03" style="fill:none;stroke:#1A476F;stroke-width:8.64"/>
	<circle cx="2236.29" cy="983.10" r="26.35" style="fill:#1A476F"/>
	<circle cx="2236.29" cy="983.10" r="22.03" style="fill:none;stroke:#1A476F;stroke-width:8.64"/>
	<circle cx="2459.04" cy="1352.26" r="26.35" style="fill:#1A476F"/>
	<circle cx="2459.04" cy="1352.26" r="22.03" style="fill:none;stroke:#1A476F;stroke-width:8.64"/>
	<circle cx="2681.79" cy="2157.90" r="26.35" style="fill:#1A476F"/>
	<circle cx="2681.79" cy="2157.90" r="22.03" style="fill:none;stroke:#1A476F;stroke-width:8.64"/>
	<circle cx="2904.54" cy="1598.03" r="26.35" style="fill:#1A476F"/>
	<circle cx="2904.54" cy="1598.03" r="22.03" style="fill:none;stroke:#1A476F;stroke-width:8.64"/>
	<circle cx="3127.29" cy="1536.90" r="26.35" style="fill:#1A476F"/>
	<circle cx="3127.29" cy="1536.90" r="22.03" style="fill:none;stroke:#1A476F;stroke-width:8.64"/>
	<circle cx="3350.16" cy="809.35" r="26.35" style="fill:#1A476F"/>
	<circle cx="3350.16" cy="809.35" r="22.03" style="fill:none;stroke:#1A476F;stroke-width:8.64"/>
	<line x1="390.80" y1="2374.71" x2="390.80" y2="100.86" style="stroke:#000000;stroke-width:5.76"/>
	<line x1="390.80" y1="2311.35" x2="350.83" y2="2311.35" style="stroke:#000000;stroke-width:5.76"/>
	<text x="300.72" y="2311.35" style="font-family:'Helvetica';font-size:99.99px;fill:#000000" transform="rotate(-90 300.72,2311.35)" text-anchor="middle">-1.00</text>
	<line x1="390.80" y1="1595.56" x2="350.83" y2="1595.56" style="stroke:#000000;stroke-width:5.76"/>
	<text x="300.72" y="1595.56" style="font-family:'Helvetica';font-size:99.99px;fill:#000000" transform="rotate(-90 300.72,1595.56)" text-anchor="middle">-0.50</text>
	<line x1="390.80" y1="879.89" x2="350.83" y2="879.89" style="stroke:#000000;stroke-width:5.76"/>
	<text x="300.72" y="879.89" style="font-family:'Helvetica';font-size:99.99px;fill:#000000" transform="rotate(-90 300.72,879.89)" text-anchor="middle">0.00</text>
	<line x1="390.80" y1="164.22" x2="350.83" y2="164.22" style="stroke:#000000;stroke-width:5.76"/>
	<text x="300.72" y="164.22" style="font-family:'Helvetica';font-size:99.99px;fill:#000000" transform="rotate(-90 300.72,164.22)" text-anchor="middle">0.50</text>
	<text x="190.71" y="1237.79" style="font-family:'Helvetica';font-size:99.99px;fill:#000000" transform="rotate(-90 190.71,1237.79)" text-anchor="middle">Partial autocorrelations of e1</text>
	<line x1="390.80" y1="2374.71" x2="3859.02" y2="2374.71" style="stroke:#000000;stroke-width:5.76"/>
	<line x1="454.16" y1="2374.71" x2="454.16" y2="2414.69" style="stroke:#000000;stroke-width:5.76"/>
	<text x="454.16" y="2504.54" style="font-family:'Helvetica';font-size:99.99px;fill:#000000" text-anchor="middle">0</text>
	<line x1="1568.04" y1="2374.71" x2="1568.04" y2="2414.69" style="stroke:#000000;stroke-width:5.76"/>
	<text x="1568.04" y="2504.54" style="font-family:'Helvetica';font-size:99.99px;fill:#000000" text-anchor="middle">5</text>
	<line x1="2681.91" y1="2374.71" x2="2681.91" y2="2414.69" style="stroke:#000000;stroke-width:5.76"/>
	<text x="2681.91" y="2504.54" style="font-family:'Helvetica';font-size:99.99px;fill:#000000" text-anchor="middle">10</text>
	<line x1="3795.66" y1="2374.71" x2="3795.66" y2="2414.69" style="stroke:#000000;stroke-width:5.76"/>
	<text x="3795.66" y="2504.54" style="font-family:'Helvetica';font-size:99.99px;fill:#000000" text-anchor="middle">15</text>
	<text x="2124.91" y="2614.56" style="font-family:'Helvetica';font-size:99.99px;fill:#000000" text-anchor="middle">Lag</text>
	<text x="408.00" y="2737.89" style="font-family:'Helvetica';font-size:79.94px;fill:#000000">95% Confidence bands [se = 1/sqrt(n)]</text>
</svg>
