<?xml version="1.0" encoding="UTF-8" standalone="no"?>
<!-- This is a Stata 15.0 generated SVG file (http://www.stata.com) -->

<svg version="1.1" width="600px" height="436px" viewBox="0 0 3960 2880" xmlns="http://www.w3.org/2000/svg" xmlns:xlink="http://www.w3.org/1999/xlink">
	<desc>Stata Graph - Graph</desc>
	<rect x="0" y="0" width="3960" height="2880" style="fill:#EAF2F3;stroke:none"/>
	<rect x="0.00" y="0.00" width="3959.88" height="2880.00" style="fill:#EAF2F3"/>
	<rect x="2.88" y="2.88" width="3954.12" height="2874.24" style="fill:none;stroke:#EAF2F3;stroke-width:5.76"/>
	<rect x="290.81" y="100.86" width="3568.21" height="2132.77" style="fill:#FFFFFF"/>
	<rect x="293.69" y="103.74" width="3562.45" height="2127.01" style="fill:none;stroke:#FFFFFF;stroke-width:5.76"/>
	<line x1="290.81" y1="2170.27" x2="3859.02" y2="2170.27" style="stroke:#EAF2F3;stroke-width:8.64"/>
	<line x1="290.81" y1="1784.53" x2="3859.02" y2="1784.53" style="stroke:#EAF2F3;stroke-width:8.64"/>
	<line x1="290.81" y1="1398.67" x2="3859.02" y2="1398.67" style="stroke:#EAF2F3;stroke-width:8.64"/>
	<line x1="290.81" y1="1012.93" x2="3859.02" y2="1012.93" style="stroke:#EAF2F3;stroke-width:8.64"/>
	<line x1="290.81" y1="627.06" x2="3859.02" y2="627.06" style="stroke:#EAF2F3;stroke-width:8.64"/>
	<line x1="290.81" y1="241.32" x2="3859.02" y2="241.32" style="stroke:#EAF2F3;stroke-width:8.64"/>
	<line x1="468.76" y1="1452.75" x2="583.48" y2="1499.15" stroke-linecap="round" style="stroke:#1A476F;stroke-width:8.64"/>
	<line x1="583.48" y1="1499.15" x2="698.20" y2="1425.77" stroke-linecap="round" style="stroke:#1A476F;stroke-width:8.64"/>
	<line x1="698.20" y1="1425.77" x2="812.91" y2="1302.39" stroke-linecap="round" style="stroke:#1A476F;stroke-width:8.64"/>
	<line x1="812.91" y1="1302.39" x2="927.63" y2="1375.65" stroke-linecap="round" style="stroke:#1A476F;stroke-width:8.64"/>
	<line x1="927.63" y1="1375.65" x2="1042.35" y2="1614.86" stroke-linecap="round" style="stroke:#1A476F;stroke-width:8.64"/>
	<line x1="1042.35" y1="1614.86" x2="1157.06" y2="1680.45" stroke-linecap="round" style="stroke:#1A476F;stroke-width:8.64"/>
	<line x1="1157.06" y1="1680.45" x2="1271.78" y2="1830.94" stroke-linecap="round" style="stroke:#1A476F;stroke-width:8.64"/>
	<line x1="1271.78" y1="1830.94" x2="1386.49" y2="1904.20" stroke-linecap="round" style="stroke:#1A476F;stroke-width:8.64"/>
	<line x1="1386.49" y1="1904.20" x2="1501.34" y2="1954.32" stroke-linecap="round" style="stroke:#1A476F;stroke-width:8.64"/>
	<line x1="1501.34" y1="1954.32" x2="1616.05" y2="1838.61" stroke-linecap="round" style="stroke:#1A476F;stroke-width:8.64"/>
	<line x1="1616.05" y1="1838.61" x2="1730.77" y2="1792.33" stroke-linecap="round" style="stroke:#1A476F;stroke-width:8.64"/>
	<line x1="1730.77" y1="1792.33" x2="1845.48" y2="1672.66" stroke-linecap="round" style="stroke:#1A476F;stroke-width:8.64"/>
	<line x1="1845.48" y1="1672.66" x2="1960.20" y2="1715.10" stroke-linecap="round" style="stroke:#1A476F;stroke-width:8.64"/>
	<line x1="1960.20" y1="1715.10" x2="2074.92" y2="1472.05" stroke-linecap="round" style="stroke:#1A476F;stroke-width:8.64"/>
	<line x1="2074.92" y1="1472.05" x2="2189.63" y2="1472.05" stroke-linecap="round" style="stroke:#1A476F;stroke-width:8.64"/>
	<line x1="2189.63" y1="1472.05" x2="2304.35" y2="1128.76" stroke-linecap="round" style="stroke:#1A476F;stroke-width:8.64"/>
	<line x1="2304.35" y1="1128.76" x2="2419.07" y2="1232.84" stroke-linecap="round" style="stroke:#1A476F;stroke-width:8.64"/>
	<line x1="2419.07" y1="1232.84" x2="2533.78" y2="1452.75" stroke-linecap="round" style="stroke:#1A476F;stroke-width:8.64"/>
	<line x1="2533.78" y1="1452.75" x2="2648.50" y2="1622.54" stroke-linecap="round" style="stroke:#1A476F;stroke-width:8.64"/>
	<line x1="2648.50" y1="1622.54" x2="2763.21" y2="1711.27" stroke-linecap="round" style="stroke:#1A476F;stroke-width:8.64"/>
	<line x1="2763.21" y1="1711.27" x2="2877.93" y2="1757.55" stroke-linecap="round" style="stroke:#1A476F;stroke-width:8.64"/>
	<line x1="2877.93" y1="1757.55" x2="2992.65" y2="1846.28" stroke-linecap="round" style="stroke:#1A476F;stroke-width:8.64"/>
	<line x1="2992.65" y1="1846.28" x2="3107.36" y2="1684.29" stroke-linecap="round" style="stroke:#1A476F;stroke-width:8.64"/>
	<line x1="3107.36" y1="1684.29" x2="3222.08" y2="1749.88" stroke-linecap="round" style="stroke:#1A476F;stroke-width:8.64"/>
	<line x1="3222.08" y1="1749.88" x2="3336.80" y2="1556.95" stroke-linecap="round" style="stroke:#1A476F;stroke-width:8.64"/>
	<line x1="3336.80" y1="1556.95" x2="3451.51" y2="1491.36" stroke-linecap="round" style="stroke:#1A476F;stroke-width:8.64"/>
	<line x1="3451.51" y1="1491.36" x2="3566.23" y2="1337.04" stroke-linecap="round" style="stroke:#1A476F;stroke-width:8.64"/>
	<line x1="3566.23" y1="1337.04" x2="3680.94" y2="1256.10" stroke-linecap="round" style="stroke:#1A476F;stroke-width:8.64"/>
	<line x1="3680.94" y1="1256.10" x2="3795.66" y2="827.79" stroke-linecap="round" style="stroke:#1A476F;stroke-width:8.64"/>
	<circle cx="468.76" cy="1452.75" r="26.35" style="fill:#1A476F"/>
	<circle cx="468.76" cy="1452.75" r="22.03" style="fill:none;stroke:#1A476F;stroke-width:8.64"/>
	<circle cx="583.48" cy="1499.15" r="26.35" style="fill:#1A476F"/>
	<circle cx="583.48" cy="1499.15" r="22.03" style="fill:none;stroke:#1A476F;stroke-width:8.64"/>
	<circle cx="698.20" cy="1425.77" r="26.35" style="fill:#1A476F"/>
	<circle cx="698.20" cy="1425.77" r="22.03" style="fill:none;stroke:#1A476F;stroke-width:8.64"/>
	<circle cx="812.91" cy="1302.39" r="26.35" style="fill:#1A476F"/>
	<circle cx="812.91" cy="1302.39" r="22.03" style="fill:none;stroke:#1A476F;stroke-width:8.64"/>
	<circle cx="927.63" cy="1375.65" r="26.35" style="fill:#1A476F"/>
	<circle cx="927.63" cy="1375.65" r="22.03" style="fill:none;stroke:#1A476F;stroke-width:8.64"/>
	<circle cx="1042.35" cy="1614.86" r="26.35" style="fill:#1A476F"/>
	<circle cx="1042.35" cy="1614.86" r="22.03" style="fill:none;stroke:#1A476F;stroke-width:8.64"/>
	<circle cx="1157.06" cy="1680.45" r="26.35" style="fill:#1A476F"/>
	<circle cx="1157.06" cy="1680.45" r="22.03" style="fill:none;stroke:#1A476F;stroke-width:8.64"/>
	<circle cx="1271.78" cy="1830.94" r="26.35" style="fill:#1A476F"/>
	<circle cx="1271.78" cy="1830.94" r="22.03" style="fill:none;stroke:#1A476F;stroke-width:8.64"/>
	<circle cx="1386.49" cy="1904.20" r="26.35" style="fill:#1A476F"/>
	<circle cx="1386.49" cy="1904.20" r="22.03" style="fill:none;stroke:#1A476F;stroke-width:8.64"/>
	<circle cx="1501.34" cy="1954.32" r="26.35" style="fill:#1A476F"/>
	<circle cx="1501.34" cy="1954.32" r="22.03" style="fill:none;stroke:#1A476F;stroke-width:8.64"/>
	<circle cx="1616.05" cy="1838.61" r="26.35" style="fill:#1A476F"/>
	<circle cx="1616.05" cy="1838.61" r="22.03" style="fill:none;stroke:#1A476F;stroke-width:8.64"/>
	<circle cx="1730.77" cy="1792.33" r="26.35" style="fill:#1A476F"/>
	<circle cx="1730.77" cy="1792.33" r="22.03" style="fill:none;stroke:#1A476F;stroke-width:8.64"/>
	<circle cx="1845.48" cy="1672.66" r="26.35" style="fill:#1A476F"/>
	<circle cx="1845.48" cy="1672.66" r="22.03" style="fill:none;stroke:#1A476F;stroke-width:8.64"/>
	<circle cx="1960.20" cy="1715.10" r="26.35" style="fill:#1A476F"/>
	<circle cx="1960.20" cy="1715.10" r="22.03" style="fill:none;stroke:#1A476F;stroke-width:8.64"/>
	<circle cx="2074.92" cy="1472.05" r="26.35" style="fill:#1A476F"/>
	<circle cx="2074.92" cy="1472.05" r="22.03" style="fill:none;stroke:#1A476F;stroke-width:8.64"/>
	<circle cx="2189.63" cy="1472.05" r="26.35" style="fill:#1A476F"/>
	<circle cx="2189.63" cy="1472.05" r="22.03" style="fill:none;stroke:#1A476F;stroke-width:8.64"/>
	<circle cx="2304.35" cy="1128.76" r="26.35" style="fill:#1A476F"/>
	<circle cx="2304.35" cy="1128.76" r="22.03" style="fill:none;stroke:#1A476F;stroke-width:8.64"/>
	<circle cx="2419.07" cy="1232.84" r="26.35" style="fill:#1A476F"/>
	<circle cx="2419.07" cy="1232.84" r="22.03" style="fill:none;stroke:#1A476F;stroke-width:8.64"/>
	<circle cx="2533.78" cy="1452.75" r="26.35" style="fill:#1A476F"/>
	<circle cx="2533.78" cy="1452.75" r="22.03" style="fill:none;stroke:#1A476F;stroke-width:8.64"/>
	<circle cx="2648.50" cy="1622.54" r="26.35" style="fill:#1A476F"/>
	<circle cx="2648.50" cy="1622.54" r="22.03" style="fill:none;stroke:#1A476F;stroke-width:8.64"/>
	<circle cx="2763.21" cy="1711.27" r="26.35" style="fill:#1A476F"/>
	<circle cx="2763.21" cy="1711.27" r="22.03" style="fill:none;stroke:#1A476F;stroke-width:8.64"/>
	<circle cx="2877.93" cy="1757.55" r="26.35" style="fill:#1A476F"/>
	<circle cx="2877.93" cy="1757.55" r="22.03" style="fill:none;stroke:#1A476F;stroke-width:8.64"/>
	<circle cx="2992.65" cy="1846.28" r="26.35" style="fill:#1A476F"/>
	<circle cx="2992.65" cy="1846.28" r="22.03" style="fill:none;stroke:#1A476F;stroke-width:8.64"/>
	<circle cx="3107.36" cy="1684.29" r="26.35" style="fill:#1A476F"/>
	<circle cx="3107.36" cy="1684.29" r="22.03" style="fill:none;stroke:#1A476F;stroke-width:8.64"/>
	<circle cx="3222.08" cy="1749.88" r="26.35" style="fill:#1A476F"/>
	<circle cx="3222.08" cy="1749.88" r="22.03" style="fill:none;stroke:#1A476F;stroke-width:8.64"/>
	<circle cx="3336.80" cy="1556.95" r="26.35" style="fill:#1A476F"/>
	<circle cx="3336.80" cy="1556.95" r="22.03" style="fill:none;stroke:#1A476F;stroke-width:8.64"/>
	<circle cx="3451.51" cy="1491.36" r="26.35" style="fill:#1A476F"/>
	<circle cx="3451.51" cy="1491.36" r="22.03" style="fill:none;stroke:#1A476F;stroke-width:8.64"/>
	<circle cx="3566.23" cy="1337.04" r="26.35" style="fill:#1A476F"/>
	<circle cx="3566.23" cy="1337.04" r="22.03" style="fill:none;stroke:#1A476F;stroke-width:8.64"/>
	<circle cx="3680.94" cy="1256.10" r="26.35" style="fill:#1A476F"/>
	<circle cx="3680.94" cy="1256.10" r="22.03" style="fill:none;stroke:#1A476F;stroke-width:8.64"/>
	<circle cx="3795.66" cy="827.79" r="26.35" style="fill:#1A476F"/>
	<circle cx="3795.66" cy="827.79" r="22.03" style="fill:none;stroke:#1A476F;stroke-width:8.64"/>
	<line x1="468.76" y1="1360.18" x2="583.48" y2="781.51" stroke-linecap="round" style="stroke:#90353B;stroke-width:8.64"/>
	<line x1="583.48" y1="781.51" x2="698.20" y2="511.47" stroke-linecap="round" style="stroke:#90353B;stroke-width:8.64"/>
	<line x1="698.20" y1="511.47" x2="812.91" y2="318.54" stroke-linecap="round" style="stroke:#90353B;stroke-width:8.64"/>
	<line x1="812.91" y1="318.54" x2="927.63" y2="279.93" stroke-linecap="round" style="stroke:#90353B;stroke-width:8.64"/>
	<line x1="927.63" y1="279.93" x2="1042.35" y2="434.25" stroke-linecap="round" style="stroke:#90353B;stroke-width:8.64"/>
	<line x1="1042.35" y1="434.25" x2="1157.06" y2="588.57" stroke-linecap="round" style="stroke:#90353B;stroke-width:8.64"/>
	<line x1="1157.06" y1="588.57" x2="1271.78" y2="1128.76" stroke-linecap="round" style="stroke:#90353B;stroke-width:8.64"/>
	<line x1="1271.78" y1="1128.76" x2="1386.49" y2="1707.43" stroke-linecap="round" style="stroke:#90353B;stroke-width:8.64"/>
	<line x1="1386.49" y1="1707.43" x2="1501.34" y2="2016.07" stroke-linecap="round" style="stroke:#90353B;stroke-width:8.64"/>
	<line x1="1501.34" y1="2016.07" x2="1616.05" y2="1861.75" stroke-linecap="round" style="stroke:#90353B;stroke-width:8.64"/>
	<line x1="1616.05" y1="1861.75" x2="1730.77" y2="1938.85" stroke-linecap="round" style="stroke:#90353B;stroke-width:8.64"/>
	<line x1="1730.77" y1="1938.85" x2="1845.48" y2="1707.43" stroke-linecap="round" style="stroke:#90353B;stroke-width:8.64"/>
	<line x1="1845.48" y1="1707.43" x2="1960.20" y2="1398.79" stroke-linecap="round" style="stroke:#90353B;stroke-width:8.64"/>
	<line x1="1960.20" y1="1398.79" x2="2074.92" y2="820.12" stroke-linecap="round" style="stroke:#90353B;stroke-width:8.64"/>
	<line x1="2074.92" y1="820.12" x2="2189.63" y2="511.47" stroke-linecap="round" style="stroke:#90353B;stroke-width:8.64"/>
	<line x1="2189.63" y1="511.47" x2="2304.35" y2="164.22" stroke-linecap="round" style="stroke:#90353B;stroke-width:8.64"/>
	<line x1="2304.35" y1="164.22" x2="2419.07" y2="164.22" stroke-linecap="round" style="stroke:#90353B;stroke-width:8.64"/>
	<line x1="2419.07" y1="164.22" x2="2533.78" y2="357.15" stroke-linecap="round" style="stroke:#90353B;stroke-width:8.64"/>
	<line x1="2533.78" y1="357.15" x2="2648.50" y2="627.18" stroke-linecap="round" style="stroke:#90353B;stroke-width:8.64"/>
	<line x1="2648.50" y1="627.18" x2="2763.21" y2="1244.47" stroke-linecap="round" style="stroke:#90353B;stroke-width:8.64"/>
	<line x1="2763.21" y1="1244.47" x2="2877.93" y2="1398.79" stroke-linecap="round" style="stroke:#90353B;stroke-width:8.64"/>
	<line x1="2877.93" y1="1398.79" x2="2992.65" y2="1707.43" stroke-linecap="round" style="stroke:#90353B;stroke-width:8.64"/>
	<line x1="2992.65" y1="1707.43" x2="3107.36" y2="1900.36" stroke-linecap="round" style="stroke:#90353B;stroke-width:8.64"/>
	<line x1="3107.36" y1="1900.36" x2="3222.08" y2="1861.75" stroke-linecap="round" style="stroke:#90353B;stroke-width:8.64"/>
	<line x1="3222.08" y1="1861.75" x2="3336.80" y2="1668.82" stroke-linecap="round" style="stroke:#90353B;stroke-width:8.64"/>
	<line x1="3336.80" y1="1668.82" x2="3451.51" y2="1360.18" stroke-linecap="round" style="stroke:#90353B;stroke-width:8.64"/>
	<line x1="3451.51" y1="1360.18" x2="3566.23" y2="935.83" stroke-linecap="round" style="stroke:#90353B;stroke-width:8.64"/>
	<line x1="3566.23" y1="935.83" x2="3680.94" y2="472.86" stroke-linecap="round" style="stroke:#90353B;stroke-width:8.64"/>
	<line x1="3680.94" y1="472.86" x2="3795.66" y2="202.83" stroke-linecap="round" style="stroke:#90353B;stroke-width:8.64"/>
	<circle cx="468.76" cy="1360.18" r="26.35" style="fill:#90353B"/>
	<circle cx="468.76" cy="1360.18" r="22.03" style="fill:none;stroke:#90353B;stroke-width:8.64"/>
	<circle cx="583.48" cy="781.51" r="26.35" style="fill:#90353B"/>
	<circle cx="583.48" cy="781.51" r="22.03" style="fill:none;stroke:#90353B;stroke-width:8.64"/>
	<circle cx="698.20" cy="511.47" r="26.35" style="fill:#90353B"/>
	<circle cx="698.20" cy="511.47" r="22.03" style="fill:none;stroke:#90353B;stroke-width:8.64"/>
	<circle cx="812.91" cy="318.54" r="26.35" style="fill:#90353B"/>
	<circle cx="812.91" cy="318.54" r="22.03" style="fill:none;stroke:#90353B;stroke-width:8.64"/>
	<circle cx="927.63" cy="279.93" r="26.35" style="fill:#90353B"/>
	<circle cx="927.63" cy="279.93" r="22.03" style="fill:none;stroke:#90353B;stroke-width:8.64"/>
	<circle cx="1042.35" cy="434.25" r="26.35" style="fill:#90353B"/>
	<circle cx="1042.35" cy="434.25" r="22.03" style="fill:none;stroke:#90353B;stroke-width:8.64"/>
	<circle cx="1157.06" cy="588.57" r="26.35" style="fill:#90353B"/>
	<circle cx="1157.06" cy="588.57" r="22.03" style="fill:none;stroke:#90353B;stroke-width:8.64"/>
	<circle cx="1271.78" cy="1128.76" r="26.35" style="fill:#90353B"/>
	<circle cx="1271.78" cy="1128.76" r="22.03" style="fill:none;stroke:#90353B;stroke-width:8.64"/>
	<circle cx="1386.49" cy="1707.43" r="26.35" style="fill:#90353B"/>
	<circle cx="1386.49" cy="1707.43" r="22.03" style="fill:none;stroke:#90353B;stroke-width:8.64"/>
	<circle cx="1501.34" cy="2016.07" r="26.35" style="fill:#90353B"/>
	<circle cx="1501.34" cy="2016.07" r="22.03" style="fill:none;stroke:#90353B;stroke-width:8.64"/>
	<circle cx="1616.05" cy="1861.75" r="26.35" style="fill:#90353B"/>
	<circle cx="1616.05" cy="1861.75" r="22.03" style="fill:none;stroke:#90353B;stroke-width:8.64"/>
	<circle cx="1730.77" cy="1938.85" r="26.35" style="fill:#90353B"/>
	<circle cx="1730.77" cy="1938.85" r="22.03" style="fill:none;stroke:#90353B;stroke-width:8.64"/>
	<circle cx="1845.48" cy="1707.43" r="26.35" style="fill:#90353B"/>
	<circle cx="1845.48" cy="1707.43" r="22.03" style="fill:none;stroke:#90353B;stroke-width:8.64"/>
	<circle cx="1960.20" cy="1398.79" r="26.35" style="fill:#90353B"/>
	<circle cx="1960.20" cy="1398.79" r="22.03" style="fill:none;stroke:#90353B;stroke-width:8.64"/>
	<circle cx="2074.92" cy="820.12" r="26.35" style="fill:#90353B"/>
	<circle cx="2074.92" cy="820.12" r="22.03" style="fill:none;stroke:#90353B;stroke-width:8.64"/>
	<circle cx="2189.63" cy="511.47" r="26.35" style="fill:#90353B"/>
	<circle cx="2189.63" cy="511.47" r="22.03" style="fill:none;stroke:#90353B;stroke-width:8.64"/>
	<circle cx="2304.35" cy="164.22" r="26.35" style="fill:#90353B"/>
	<circle cx="2304.35" cy="164.22" r="22.03" style="fill:none;stroke:#90353B;stroke-width:8.64"/>
	<circle cx="2419.07" cy="164.22" r="26.35" style="fill:#90353B"/>
	<circle cx="2419.07" cy="164.22" r="22.03" style="fill:none;stroke:#90353B;stroke-width:8.64"/>
	<circle cx="2533.78" cy="357.15" r="26.35" style="fill:#90353B"/>
	<circle cx="2533.78" cy="357.15" r="22.03" style="fill:none;stroke:#90353B;stroke-width:8.64"/>
	<circle cx="2648.50" cy="627.18" r="26.35" style="fill:#90353B"/>
	<circle cx="2648.50" cy="627.18" r="22.03" style="fill:none;stroke:#90353B;stroke-width:8.64"/>
	<circle cx="2763.21" cy="1244.47" r="26.35" style="fill:#90353B"/>
	<circle cx="2763.21" cy="1244.47" r="22.03" style="fill:none;stroke:#90353B;stroke-width:8.64"/>
	<circle cx="2877.93" cy="1398.79" r="26.35" style="fill:#90353B"/>
	<circle cx="2877.93" cy="1398.79" r="22.03" style="fill:none;stroke:#90353B;stroke-width:8.64"/>
	<circle cx="2992.65" cy="1707.43" r="26.35" style="fill:#90353B"/>
	<circle cx="2992.65" cy="1707.43" r="22.03" style="fill:none;stroke:#90353B;stroke-width:8.64"/>
	<circle cx="3107.36" cy="1900.36" r="26.35" style="fill:#90353B"/>
	<circle cx="3107.36" cy="1900.36" r="22.03" style="fill:none;stroke:#90353B;stroke-width:8.64"/>
	<circle cx="3222.08" cy="1861.75" r="26.35" style="fill:#90353B"/>
	<circle cx="3222.08" cy="1861.75" r="22.03" style="fill:none;stroke:#90353B;stroke-width:8.64"/>
	<circle cx="3336.80" cy="1668.82" r="26.35" style="fill:#90353B"/>
	<circle cx="3336.80" cy="1668.82" r="22.03" style="fill:none;stroke:#90353B;stroke-width:8.64"/>
	<circle cx="3451.51" cy="1360.18" r="26.35" style="fill:#90353B"/>
	<circle cx="3451.51" cy="1360.18" r="22.03" style="fill:none;stroke:#90353B;stroke-width:8.64"/>
	<circle cx="3566.23" cy="935.83" r="26.35" style="fill:#90353B"/>
	<circle cx="3566.23" cy="935.83" r="22.03" style="fill:none;stroke:#90353B;stroke-width:8.64"/>
	<circle cx="3680.94" cy="472.86" r="26.35" style="fill:#90353B"/>
	<circle cx="3680.94" cy="472.86" r="22.03" style="fill:none;stroke:#90353B;stroke-width:8.64"/>
	<circle cx="3795.66" cy="202.83" r="26.35" style="fill:#90353B"/>
	<circle cx="3795.66" cy="202.83" r="22.03" style="fill:none;stroke:#90353B;stroke-width:8.64"/>
	<line x1="290.81" y1="2233.63" x2="290.81" y2="100.86" style="stroke:#000000;stroke-width:5.76"/>
	<line x1="290.81" y1="2170.27" x2="250.84" y2="2170.27" style="stroke:#000000;stroke-width:5.76"/>
	<text x="200.73" y="2170.27" style="font-family:'Helvetica';font-size:99.99px;fill:#000000" transform="rotate(-90 200.73,2170.27)" text-anchor="middle">.2</text>
	<line x1="290.81" y1="1784.53" x2="250.84" y2="1784.53" style="stroke:#000000;stroke-width:5.76"/>
	<text x="200.73" y="1784.53" style="font-family:'Helvetica';font-size:99.99px;fill:#000000" transform="rotate(-90 200.73,1784.53)" text-anchor="middle">.3</text>
	<line x1="290.81" y1="1398.67" x2="250.84" y2="1398.67" style="stroke:#000000;stroke-width:5.76"/>
	<text x="200.73" y="1398.67" style="font-family:'Helvetica';font-size:99.99px;fill:#000000" transform="rotate(-90 200.73,1398.67)" text-anchor="middle">.4</text>
	<line x1="290.81" y1="1012.93" x2="250.84" y2="1012.93" style="stroke:#000000;stroke-width:5.76"/>
	<text x="200.73" y="1012.93" style="font-family:'Helvetica';font-size:99.99px;fill:#000000" transform="rotate(-90 200.73,1012.93)" text-anchor="middle">.5</text>
	<line x1="290.81" y1="627.06" x2="250.84" y2="627.06" style="stroke:#000000;stroke-width:5.76"/>
	<text x="200.73" y="627.06" style="font-family:'Helvetica';font-size:99.99px;fill:#000000" transform="rotate(-90 200.73,627.06)" text-anchor="middle">.6</text>
	<line x1="290.81" y1="241.32" x2="250.84" y2="241.32" style="stroke:#000000;stroke-width:5.76"/>
	<text x="200.73" y="241.32" style="font-family:'Helvetica';font-size:99.99px;fill:#000000" transform="rotate(-90 200.73,241.32)" text-anchor="middle">.7</text>
	<line x1="290.81" y1="2233.63" x2="3859.02" y2="2233.63" style="stroke:#000000;stroke-width:5.76"/>
	<line x1="354.17" y1="2233.63" x2="354.17" y2="2273.73" style="stroke:#000000;stroke-width:5.76"/>
	<text x="354.17" y="2363.59" style="font-family:'Helvetica';font-size:99.99px;fill:#000000" text-anchor="middle">0</text>
	<line x1="1501.34" y1="2233.63" x2="1501.34" y2="2273.73" style="stroke:#000000;stroke-width:5.76"/>
	<text x="1501.34" y="2363.59" style="font-family:'Helvetica';font-size:99.99px;fill:#000000" text-anchor="middle">10</text>
	<line x1="2648.50" y1="2233.63" x2="2648.50" y2="2273.73" style="stroke:#000000;stroke-width:5.76"/>
	<text x="2648.50" y="2363.59" style="font-family:'Helvetica';font-size:99.99px;fill:#000000" text-anchor="middle">20</text>
	<line x1="3795.66" y1="2233.63" x2="3795.66" y2="2273.73" style="stroke:#000000;stroke-width:5.76"/>
	<text x="3795.66" y="2363.59" style="font-family:'Helvetica';font-size:99.99px;fill:#000000" text-anchor="middle">30</text>
	<text x="2074.92" y="2473.60" style="font-family:'Helvetica';font-size:99.99px;fill:#000000" text-anchor="middle">time</text>
	<rect x="1014.01" y="2558.24" width="2121.82" height="186.37" style="fill:#FFFFFF"/>
	<rect x="1016.89" y="2561.12" width="2116.06" height="180.61" style="fill:none;stroke:#000000;stroke-width:5.76"/>
	<line x1="1057.20" y1="2651.43" x2="1431.66" y2="2651.43" style="stroke:#1A476F;stroke-width:8.64"/>
	<circle cx="1244.43" cy="2651.43" r="26.35" style="fill:#1A476F"/>
	<circle cx="1244.43" cy="2651.43" r="22.03" style="fill:none;stroke:#1A476F;stroke-width:8.64"/>
	<line x1="2217.85" y1="2651.43" x2="2592.19" y2="2651.43" style="stroke:#90353B;stroke-width:8.64"/>
	<circle cx="2405.08" cy="2651.43" r="26.35" style="fill:#90353B"/>
	<circle cx="2405.08" cy="2651.43" r="22.03" style="fill:none;stroke:#90353B;stroke-width:8.64"/>
	<text x="1491.56" y="2686.46" style="font-family:'Helvetica';font-size:99.99px;fill:#000000">consumption</text>
	<text x="2652.21" y="2686.46" style="font-family:'Helvetica';font-size:99.99px;fill:#000000">temp/100</text>
</svg>
