<?xml version="1.0" encoding="UTF-8" standalone="no"?>
<!DOCTYPE svg PUBLIC "-//W3C//DTD SVG 1.1//EN"
 "http://www.w3.org/Graphics/SVG/1.1/DTD/svg11.dtd">
<!-- Generated by graphviz version 2.38.0 (20140413.2041)
 -->
<!-- Title: parent Pages: 1 -->
<svg width="142pt" height="116pt"
 viewBox="0.00 0.00 141.55 116.00" xmlns="http://www.w3.org/2000/svg" xmlns:xlink="http://www.w3.org/1999/xlink">
<g id="graph0" class="graph" transform="scale(1 1) rotate(0) translate(4 112)">
<title>parent</title>
<polygon fill="white" stroke="none" points="-4,4 -4,-112 137.547,-112 137.547,4 -4,4"/>
<!-- spam -->
<g id="node1" class="node"><title>spam</title>
<ellipse fill="none" stroke="black" cx="30.5473" cy="-90" rx="30.5947" ry="18"/>
<text text-anchor="middle" x="30.5473" y="-86.3" font-family="Times New Roman,serif" font-size="14.00">spam</text>
</g>
<!-- eggs -->
<g id="node2" class="node"><title>eggs</title>
<ellipse fill="none" stroke="black" cx="30.5473" cy="-18" rx="27.0966" ry="18"/>
<text text-anchor="middle" x="30.5473" y="-14.3" font-family="Times New Roman,serif" font-size="14.00">eggs</text>
</g>
<!-- spam&#45;&#45;eggs -->
<g id="edge1" class="edge"><title>spam&#45;&#45;eggs</title>
<path fill="none" stroke="black" d="M30.5473,-71.6966C30.5473,-60.8463 30.5473,-46.9167 30.5473,-36.1043"/>
</g>
<!-- foo -->
<g id="node3" class="node"><title>foo</title>
<polygon fill="none" stroke="black" points="133.547,-108 79.5473,-108 79.5473,-72 133.547,-72 133.547,-108"/>
<text text-anchor="middle" x="106.547" y="-86.3" font-family="Times New Roman,serif" font-size="14.00">foo</text>
</g>
<!-- bar -->
<g id="node4" class="node"><title>bar</title>
<polygon fill="none" stroke="black" points="133.547,-36 79.5473,-36 79.5473,-0 133.547,-0 133.547,-36"/>
<text text-anchor="middle" x="106.547" y="-14.3" font-family="Times New Roman,serif" font-size="14.00">bar</text>
</g>
<!-- foo&#45;&#45;bar -->
<g id="edge2" class="edge"><title>foo&#45;&#45;bar</title>
<path fill="none" stroke="black" d="M106.547,-71.6966C106.547,-60.8463 106.547,-46.9167 106.547,-36.1043"/>
</g>
</g>
</svg>
