<?xml version="1.0" encoding="UTF-8" standalone="no"?>
<!DOCTYPE svg PUBLIC "-//W3C//DTD SVG 1.1//EN"
 "http://www.w3.org/Graphics/SVG/1.1/DTD/svg11.dtd">
<!-- Generated by graphviz version 2.38.0 (20140413.2041)
 -->
<!-- Title: ni Pages: 1 -->
<svg width="354pt" height="44pt"
 viewBox="0.00 0.00 354.00 44.00" xmlns="http://www.w3.org/2000/svg" xmlns:xlink="http://www.w3.org/1999/xlink">
<g id="graph0" class="graph" transform="scale(1 1) rotate(0) translate(4 40)">
<title>ni</title>
<polygon fill="white" stroke="none" points="-4,4 -4,-40 350,-40 350,4 -4,4"/>
<!-- 1 -->
<g id="node1" class="node"><title>1</title>
<polygon fill="none" stroke="black" points="36,-30 0,-30 0,-6 36,-6 36,-0 54,-18 36,-36 36,-30"/>
<text text-anchor="middle" x="27" y="-14.3" font-family="Times New Roman,serif" font-size="14.00">Ni!</text>
</g>
<!-- 2 -->
<g id="node2" class="node"><title>2</title>
<polygon fill="none" stroke="black" points="108,-30 72,-30 72,-6 108,-6 108,-0 126,-18 108,-36 108,-30"/>
<text text-anchor="middle" x="99" y="-14.3" font-family="Times New Roman,serif" font-size="14.00">Ni!</text>
</g>
<!-- 3 -->
<g id="node3" class="node"><title>3</title>
<polygon fill="none" stroke="black" points="175.683,-0.0493367 177.459,-0.147875 179.216,-0.295345 180.948,-0.491342 182.648,-0.735329 184.308,-1.02664 185.923,-1.36447 187.485,-1.7479 188.989,-2.17587 190.429,-2.64722 191.8,-3.16064 193.098,-3.71474 194.317,-4.308 195.455,-4.93879 196.507,-5.60537 197.472,-6.30593 198.346,-7.03854 199.127,-7.80119 199.815,-8.5918 200.408,-9.4082 200.906,-10.2481 201.309,-11.1093 201.617,-11.9894 201.832,-12.886 201.956,-13.7965 201.989,-14.7186 201.934,-15.6497 201.794,-16.5873 201.571,-17.5287 201.269,-18.4713 200.89,-19.4127 200.439,-20.3503 199.918,-21.2814 199.332,-22.2035 198.685,-23.114 197.981,-24.0106 197.223,-24.8907 196.415,-25.7519 195.561,-26.5918 194.666,-27.4082 193.732,-28.1988 192.764,-28.9615 191.764,-29.6941 190.737,-30.3946 189.684,-31.0612 188.61,-31.692 187.516,-32.2853 186.405,-32.8394 185.28,-33.3528 184.142,-33.8241 182.994,-34.2521 181.837,-34.6355 180.672,-34.9734 179.501,-35.2647 178.325,-35.5087 177.145,-35.7047 175.963,-35.8521 174.779,-35.9507 173.593,-36 172.407,-36 171.221,-35.9507 170.037,-35.8521 168.855,-35.7047 167.675,-35.5087 166.499,-35.2647 165.328,-34.9734 164.163,-34.6355 163.006,-34.2521 161.858,-33.8241 160.72,-33.3528 159.595,-32.8394 158.484,-32.2853 157.39,-31.692 156.316,-31.0612 155.263,-30.3946 154.236,-29.6941 153.236,-28.9615 152.268,-28.1988 151.334,-27.4082 150.439,-26.5918 149.585,-25.7519 148.777,-24.8907 148.019,-24.0106 147.315,-23.114 146.668,-22.2035 146.082,-21.2814 145.561,-20.3503 145.11,-19.4127 144.731,-18.4713 144.429,-17.5287 144.206,-16.5873 144.066,-15.6497 144.011,-14.7186 144.044,-13.7965 144.168,-12.886 144.383,-11.9894 144.691,-11.1093 145.094,-10.2481 145.592,-9.4082 146.185,-8.5918 146.873,-7.80119 147.654,-7.03854 148.528,-6.30593 149.493,-5.60537 150.545,-4.93879 151.683,-4.308 152.902,-3.71474 154.2,-3.16064 155.571,-2.64722 157.011,-2.17587 158.515,-1.7479 160.077,-1.36447 161.692,-1.02664 163.352,-0.735329 165.052,-0.491342 166.784,-0.295345 168.541,-0.147875 170.317,-0.0493367 172.105,-1.77636e-013 173.895,-1.84741e-013 175.683,-0.0493367"/>
<text text-anchor="middle" x="173" y="-14.3" font-family="Times New Roman,serif" font-size="14.00">Ni!</text>
</g>
<!-- 4 -->
<g id="node4" class="node"><title>4</title>
<polygon fill="none" stroke="black" points="256,-30 220,-30 220,-6 256,-6 256,-0 274,-18 256,-36 256,-30"/>
<text text-anchor="middle" x="247" y="-14.3" font-family="Times New Roman,serif" font-size="14.00">Ni!</text>
</g>
<!-- 5 -->
<g id="node5" class="node"><title>5</title>
<polygon fill="none" stroke="black" points="328,-30 292,-30 292,-6 328,-6 328,-0 346,-18 328,-36 328,-30"/>
<text text-anchor="middle" x="319" y="-14.3" font-family="Times New Roman,serif" font-size="14.00">&quot;Ni&quot;</text>
</g>
</g>
</svg>
