<?xml version="1.0" encoding="UTF-8" standalone="no"?>
<!DOCTYPE svg PUBLIC "-//W3C//DTD SVG 1.1//EN"
 "http://www.w3.org/Graphics/SVG/1.1/DTD/svg11.dtd">
<!-- Generated by graphviz version 2.38.0 (20140413.2041)
 -->
<!-- Title: %3 Pages: 1 -->
<svg width="250pt" height="116pt"
 viewBox="0.00 0.00 249.79 116.00" xmlns="http://www.w3.org/2000/svg" xmlns:xlink="http://www.w3.org/1999/xlink">
<g id="graph0" class="graph" transform="scale(1 1) rotate(0) translate(4 112)">
<title>%3</title>
<polygon fill="white" stroke="none" points="-4,4 -4,-112 245.79,-112 245.79,4 -4,4"/>
<!-- King Arthur -->
<g id="node1" class="node"><title>King Arthur</title>
<ellipse fill="none" stroke="black" cx="122.195" cy="-90" rx="53.8905" ry="18"/>
<text text-anchor="middle" x="122.195" y="-86.3" font-family="Times New Roman,serif" font-size="14.00">King Arthur</text>
</g>
<!-- Sir Bedevere -->
<g id="node2" class="node"><title>Sir Bedevere</title>
<ellipse fill="none" stroke="black" cx="57.1949" cy="-18" rx="57.3905" ry="18"/>
<text text-anchor="middle" x="57.1949" y="-14.3" font-family="Times New Roman,serif" font-size="14.00">Sir Bedevere</text>
</g>
<!-- King Arthur&#45;&gt;Sir Bedevere -->
<g id="edge1" class="edge"><title>King Arthur&#45;&gt;Sir Bedevere</title>
<path fill="none" stroke="black" d="M106.791,-72.411C98.6149,-63.6062 88.4212,-52.6282 79.4053,-42.9189"/>
<polygon fill="black" stroke="black" points="81.8578,-40.4163 72.4884,-35.4699 76.7282,-45.1795 81.8578,-40.4163"/>
</g>
<!-- Sir Lancelot -->
<g id="node3" class="node"><title>Sir Lancelot</title>
<ellipse fill="none" stroke="black" cx="187.195" cy="-18" rx="54.6905" ry="18"/>
<text text-anchor="middle" x="187.195" y="-14.3" font-family="Times New Roman,serif" font-size="14.00">Sir Lancelot</text>
</g>
<!-- King Arthur&#45;&gt;Sir Lancelot -->
<g id="edge2" class="edge"><title>King Arthur&#45;&gt;Sir Lancelot</title>
<path fill="none" stroke="black" d="M137.599,-72.411C145.775,-63.6062 155.969,-52.6282 164.985,-42.9189"/>
<polygon fill="black" stroke="black" points="167.662,-45.1795 171.901,-35.4699 162.532,-40.4163 167.662,-45.1795"/>
</g>
<!-- Sir Bedevere&#45;&gt;Sir Lancelot -->
<g id="edge3" class="edge"><title>Sir Bedevere&#45;&gt;Sir Lancelot</title>
<path fill="none" stroke="black" d="M114.578,-18C117.184,-18 119.79,-18 122.396,-18"/>
<polygon fill="black" stroke="black" points="122.448,-21.5001 132.448,-18 122.448,-14.5001 122.448,-21.5001"/>
</g>
</g>
</svg>
