<?xml version="1.0" encoding="UTF-8" standalone="no"?>
<!-- This is a Stata 15.0 generated SVG file (http://www.stata.com) -->

<svg version="1.1" width="600px" height="436px" viewBox="0 0 3960 2880" xmlns="http://www.w3.org/2000/svg" xmlns:xlink="http://www.w3.org/1999/xlink">
	<desc>Stata Graph - Graph</desc>
	<rect x="0" y="0" width="3960" height="2880" style="fill:#EAF2F3;stroke:none"/>
	<rect x="0.00" y="0.00" width="3959.88" height="2880.00" style="fill:#EAF2F3"/>
	<rect x="2.88" y="2.88" width="3954.12" height="2874.24" style="fill:none;stroke:#EAF2F3;stroke-width:5.76"/>
	<rect x="390.80" y="100.86" width="3468.22" height="2388.33" style="fill:#FFFFFF"/>
	<rect x="393.68" y="103.74" width="3462.46" height="2382.57" style="fill:none;stroke:#FFFFFF;stroke-width:5.76"/>
	<line x1="390.80" y1="2373.35" x2="3859.02" y2="2373.35" style="stroke:#EAF2F3;stroke-width:8.64"/>
	<line x1="390.80" y1="1963.11" x2="3859.02" y2="1963.11" style="stroke:#EAF2F3;stroke-width:8.64"/>
	<line x1="390.80" y1="1552.99" x2="3859.02" y2="1552.99" style="stroke:#EAF2F3;stroke-width:8.64"/>
	<line x1="390.80" y1="1142.74" x2="3859.02" y2="1142.74" style="stroke:#EAF2F3;stroke-width:8.64"/>
	<line x1="390.80" y1="732.50" x2="3859.02" y2="732.50" style="stroke:#EAF2F3;stroke-width:8.64"/>
	<line x1="390.80" y1="322.38" x2="3859.02" y2="322.38" style="stroke:#EAF2F3;stroke-width:8.64"/>
	<circle cx="454.04" cy="2425.95" r="26.35" style="fill:#1A476F"/>
	<circle cx="454.04" cy="2425.95" r="22.03" style="fill:none;stroke:#1A476F;stroke-width:8.64"/>
	<circle cx="1274.50" cy="2305.91" r="26.35" style="fill:#1A476F"/>
	<circle cx="1274.50" cy="2305.91" r="22.03" style="fill:none;stroke:#1A476F;stroke-width:8.64"/>
	<circle cx="1433.27" cy="2235.24" r="26.35" style="fill:#1A476F"/>
	<circle cx="1433.27" cy="2235.24" r="22.03" style="fill:none;stroke:#1A476F;stroke-width:8.64"/>
	<circle cx="983.07" cy="2261.48" r="26.35" style="fill:#1A476F"/>
	<circle cx="983.07" cy="2261.48" r="22.03" style="fill:none;stroke:#1A476F;stroke-width:8.64"/>
	<circle cx="798.56" cy="2170.77" r="26.35" style="fill:#1A476F"/>
	<circle cx="798.56" cy="2170.77" r="22.03" style="fill:none;stroke:#1A476F;stroke-width:8.64"/>
	<circle cx="524.08" cy="2033.52" r="26.35" style="fill:#1A476F"/>
	<circle cx="524.08" cy="2033.52" r="22.03" style="fill:none;stroke:#1A476F;stroke-width:8.64"/>
	<circle cx="1416.57" cy="1980.80" r="26.35" style="fill:#1A476F"/>
	<circle cx="1416.57" cy="1980.80" r="22.03" style="fill:none;stroke:#1A476F;stroke-width:8.64"/>
	<circle cx="1282.67" cy="1948.75" r="26.35" style="fill:#1A476F"/>
	<circle cx="1282.67" cy="1948.75" r="22.03" style="fill:none;stroke:#1A476F;stroke-width:8.64"/>
	<circle cx="1183.92" cy="1946.52" r="26.35" style="fill:#1A476F"/>
	<circle cx="1183.92" cy="1946.52" r="22.03" style="fill:none;stroke:#1A476F;stroke-width:8.64"/>
	<circle cx="1165.48" cy="1863.86" r="26.35" style="fill:#1A476F"/>
	<circle cx="1165.48" cy="1863.86" r="22.03" style="fill:none;stroke:#1A476F;stroke-width:8.64"/>
	<circle cx="1506.90" cy="1801.49" r="26.35" style="fill:#1A476F"/>
	<circle cx="1506.90" cy="1801.49" r="22.03" style="fill:none;stroke:#1A476F;stroke-width:8.64"/>
	<circle cx="1279.82" cy="1806.68" r="26.35" style="fill:#1A476F"/>
	<circle cx="1279.82" cy="1806.68" r="22.03" style="fill:none;stroke:#1A476F;stroke-width:8.64"/>
	<circle cx="1023.41" cy="1720.80" r="26.35" style="fill:#1A476F"/>
	<circle cx="1023.41" cy="1720.80" r="22.03" style="fill:none;stroke:#1A476F;stroke-width:8.64"/>
	<circle cx="1099.02" cy="1670.92" r="26.35" style="fill:#1A476F"/>
	<circle cx="1099.02" cy="1670.92" r="22.03" style="fill:none;stroke:#1A476F;stroke-width:8.64"/>
	<circle cx="1165.48" cy="1660.41" r="26.35" style="fill:#1A476F"/>
	<circle cx="1165.48" cy="1660.41" r="22.03" style="fill:none;stroke:#1A476F;stroke-width:8.64"/>
	<circle cx="1202.23" cy="1614.00" r="26.35" style="fill:#1A476F"/>
	<circle cx="1202.23" cy="1614.00" r="22.03" style="fill:none;stroke:#1A476F;stroke-width:8.64"/>
	<circle cx="1347.02" cy="1526.88" r="26.35" style="fill:#1A476F"/>
	<circle cx="1347.02" cy="1526.88" r="22.03" style="fill:none;stroke:#1A476F;stroke-width:8.64"/>
	<circle cx="1276.23" cy="1484.92" r="26.35" style="fill:#1A476F"/>
	<circle cx="1276.23" cy="1484.92" r="22.03" style="fill:none;stroke:#1A476F;stroke-width:8.64"/>
	<circle cx="1299.75" cy="1482.20" r="26.35" style="fill:#1A476F"/>
	<circle cx="1299.75" cy="1482.20" r="22.03" style="fill:none;stroke:#1A476F;stroke-width:8.64"/>
	<circle cx="1397.14" cy="1527.00" r="26.35" style="fill:#1A476F"/>
	<circle cx="1397.14" cy="1527.00" r="22.03" style="fill:none;stroke:#1A476F;stroke-width:8.64"/>
	<circle cx="1597.61" cy="1429.98" r="26.35" style="fill:#1A476F"/>
	<circle cx="1597.61" cy="1429.98" r="22.03" style="fill:none;stroke:#1A476F;stroke-width:8.64"/>
	<circle cx="1625.58" cy="1457.94" r="26.35" style="fill:#1A476F"/>
	<circle cx="1625.58" cy="1457.94" r="22.03" style="fill:none;stroke:#1A476F;stroke-width:8.64"/>
	<circle cx="1484.13" cy="1422.06" r="26.35" style="fill:#1A476F"/>
	<circle cx="1484.13" cy="1422.06" r="22.03" style="fill:none;stroke:#1A476F;stroke-width:8.64"/>
	<circle cx="1306.92" cy="1426.14" r="26.35" style="fill:#1A476F"/>
	<circle cx="1306.92" cy="1426.14" r="22.03" style="fill:none;stroke:#1A476F;stroke-width:8.64"/>
	<circle cx="1783.61" cy="1404.36" r="26.35" style="fill:#1A476F"/>
	<circle cx="1783.61" cy="1404.36" r="22.03" style="fill:none;stroke:#1A476F;stroke-width:8.64"/>
	<circle cx="1485.25" cy="1386.54" r="26.35" style="fill:#1A476F"/>
	<circle cx="1485.25" cy="1386.54" r="22.03" style="fill:none;stroke:#1A476F;stroke-width:8.64"/>
	<circle cx="1434.02" cy="1385.92" r="26.35" style="fill:#1A476F"/>
	<circle cx="1434.02" cy="1385.92" r="22.03" style="fill:none;stroke:#1A476F;stroke-width:8.64"/>
	<circle cx="1610.48" cy="1349.78" r="26.35" style="fill:#1A476F"/>
	<circle cx="1610.48" cy="1349.78" r="22.03" style="fill:none;stroke:#1A476F;stroke-width:8.64"/>
	<circle cx="1516.93" cy="1283.33" r="26.35" style="fill:#1A476F"/>
	<circle cx="1516.93" cy="1283.33" r="22.03" style="fill:none;stroke:#1A476F;stroke-width:8.64"/>
	<circle cx="1613.20" cy="1262.17" r="26.35" style="fill:#1A476F"/>
	<circle cx="1613.20" cy="1262.17" r="22.03" style="fill:none;stroke:#1A476F;stroke-width:8.64"/>
	<circle cx="1696.86" cy="1280.48" r="26.35" style="fill:#1A476F"/>
	<circle cx="1696.86" cy="1280.48" r="22.03" style="fill:none;stroke:#1A476F;stroke-width:8.64"/>
	<circle cx="1888.67" cy="1302.01" r="26.35" style="fill:#1A476F"/>
	<circle cx="1888.67" cy="1302.01" r="22.03" style="fill:none;stroke:#1A476F;stroke-width:8.64"/>
	<circle cx="1812.57" cy="1269.22" r="26.35" style="fill:#1A476F"/>
	<circle cx="1812.57" cy="1269.22" r="22.03" style="fill:none;stroke:#1A476F;stroke-width:8.64"/>
	<circle cx="1906.24" cy="1217.86" r="26.35" style="fill:#1A476F"/>
	<circle cx="1906.24" cy="1217.86" r="22.03" style="fill:none;stroke:#1A476F;stroke-width:8.64"/>
	<circle cx="1787.94" cy="1234.20" r="26.35" style="fill:#1A476F"/>
	<circle cx="1787.94" cy="1234.20" r="22.03" style="fill:none;stroke:#1A476F;stroke-width:8.64"/>
	<circle cx="1715.67" cy="1236.42" r="26.35" style="fill:#1A476F"/>
	<circle cx="1715.67" cy="1236.42" r="22.03" style="fill:none;stroke:#1A476F;stroke-width:8.64"/>
	<circle cx="2042.62" cy="1177.89" r="26.35" style="fill:#1A476F"/>
	<circle cx="2042.62" cy="1177.89" r="22.03" style="fill:none;stroke:#1A476F;stroke-width:8.64"/>
	<circle cx="1675.58" cy="1194.84" r="26.35" style="fill:#1A476F"/>
	<circle cx="1675.58" cy="1194.84" r="22.03" style="fill:none;stroke:#1A476F;stroke-width:8.64"/>
	<circle cx="1723.59" cy="1208.09" r="26.35" style="fill:#1A476F"/>
	<circle cx="1723.59" cy="1208.09" r="22.03" style="fill:none;stroke:#1A476F;stroke-width:8.64"/>
	<circle cx="1717.28" cy="1198.80" r="26.35" style="fill:#1A476F"/>
	<circle cx="1717.28" cy="1198.80" r="22.03" style="fill:none;stroke:#1A476F;stroke-width:8.64"/>
	<circle cx="1918.00" cy="1196.33" r="26.35" style="fill:#1A476F"/>
	<circle cx="1918.00" cy="1196.33" r="22.03" style="fill:none;stroke:#1A476F;stroke-width:8.64"/>
	<circle cx="1879.76" cy="1148.31" r="26.35" style="fill:#1A476F"/>
	<circle cx="1879.76" cy="1148.31" r="22.03" style="fill:none;stroke:#1A476F;stroke-width:8.64"/>
	<circle cx="1771.98" cy="1139.28" r="26.35" style="fill:#1A476F"/>
	<circle cx="1771.98" cy="1139.28" r="22.03" style="fill:none;stroke:#1A476F;stroke-width:8.64"/>
	<circle cx="1778.41" cy="1159.94" r="26.35" style="fill:#1A476F"/>
	<circle cx="1778.41" cy="1159.94" r="22.03" style="fill:none;stroke:#1A476F;stroke-width:8.64"/>
	<circle cx="1821.35" cy="1129.50" r="26.35" style="fill:#1A476F"/>
	<circle cx="1821.35" cy="1129.50" r="22.03" style="fill:none;stroke:#1A476F;stroke-width:8.64"/>
	<circle cx="1646.87" cy="1160.44" r="26.35" style="fill:#1A476F"/>
	<circle cx="1646.87" cy="1160.44" r="22.03" style="fill:none;stroke:#1A476F;stroke-width:8.64"/>
	<circle cx="1898.08" cy="1125.29" r="26.35" style="fill:#1A476F"/>
	<circle cx="1898.08" cy="1125.29" r="22.03" style="fill:none;stroke:#1A476F;stroke-width:8.64"/>
	<circle cx="2073.68" cy="1142.12" r="26.35" style="fill:#1A476F"/>
	<circle cx="2073.68" cy="1142.12" r="22.03" style="fill:none;stroke:#1A476F;stroke-width:8.64"/>
	<circle cx="1963.42" cy="1060.45" r="26.35" style="fill:#1A476F"/>
	<circle cx="1963.42" cy="1060.45" r="22.03" style="fill:none;stroke:#1A476F;stroke-width:8.64"/>
	<circle cx="2035.32" cy="1056.61" r="26.35" style="fill:#1A476F"/>
	<circle cx="2035.32" cy="1056.61" r="22.03" style="fill:none;stroke:#1A476F;stroke-width:8.64"/>
	<circle cx="2015.76" cy="1027.78" r="26.35" style="fill:#1A476F"/>
	<circle cx="2015.76" cy="1027.78" r="22.03" style="fill:none;stroke:#1A476F;stroke-width:8.64"/>
	<circle cx="2046.70" cy="1014.78" r="26.35" style="fill:#1A476F"/>
	<circle cx="2046.70" cy="1014.78" r="22.03" style="fill:none;stroke:#1A476F;stroke-width:8.64"/>
	<circle cx="2015.76" cy="997.83" r="26.35" style="fill:#1A476F"/>
	<circle cx="2015.76" cy="997.83" r="22.03" style="fill:none;stroke:#1A476F;stroke-width:8.64"/>
	<circle cx="1974.06" cy="984.83" r="26.35" style="fill:#1A476F"/>
	<circle cx="1974.06" cy="984.83" r="22.03" style="fill:none;stroke:#1A476F;stroke-width:8.64"/>
	<circle cx="1923.08" cy="1023.07" r="26.35" style="fill:#1A476F"/>
	<circle cx="1923.08" cy="1023.07" r="22.03" style="fill:none;stroke:#1A476F;stroke-width:8.64"/>
	<circle cx="2061.68" cy="963.42" r="26.35" style="fill:#1A476F"/>
	<circle cx="2061.68" cy="963.42" r="22.03" style="fill:none;stroke:#1A476F;stroke-width:8.64"/>
	<circle cx="1938.92" cy="1016.51" r="26.35" style="fill:#1A476F"/>
	<circle cx="1938.92" cy="1016.51" r="22.03" style="fill:none;stroke:#1A476F;stroke-width:8.64"/>
	<circle cx="2109.81" cy="981.74" r="26.35" style="fill:#1A476F"/>
	<circle cx="2109.81" cy="981.74" r="22.03" style="fill:none;stroke:#1A476F;stroke-width:8.64"/>
	<circle cx="2020.10" cy="964.54" r="26.35" style="fill:#1A476F"/>
	<circle cx="2020.10" cy="964.54" r="22.03" style="fill:none;stroke:#1A476F;stroke-width:8.64"/>
	<circle cx="2009.58" cy="917.63" r="26.35" style="fill:#1A476F"/>
	<circle cx="2009.58" cy="917.63" r="22.03" style="fill:none;stroke:#1A476F;stroke-width:8.64"/>
	<circle cx="2186.66" cy="960.45" r="26.35" style="fill:#1A476F"/>
	<circle cx="2186.66" cy="960.45" r="22.03" style="fill:none;stroke:#1A476F;stroke-width:8.64"/>
	<circle cx="2196.19" cy="932.49" r="26.35" style="fill:#1A476F"/>
	<circle cx="2196.19" cy="932.49" r="22.03" style="fill:none;stroke:#1A476F;stroke-width:8.64"/>
	<circle cx="2078.51" cy="906.00" r="26.35" style="fill:#1A476F"/>
	<circle cx="2078.51" cy="906.00" r="22.03" style="fill:none;stroke:#1A476F;stroke-width:8.64"/>
	<circle cx="2080.73" cy="905.26" r="26.35" style="fill:#1A476F"/>
	<circle cx="2080.73" cy="905.26" r="22.03" style="fill:none;stroke:#1A476F;stroke-width:8.64"/>
	<circle cx="2122.68" cy="889.05" r="26.35" style="fill:#1A476F"/>
	<circle cx="2122.68" cy="889.05" r="22.03" style="fill:none;stroke:#1A476F;stroke-width:8.64"/>
	<circle cx="2044.72" cy="948.82" r="26.35" style="fill:#1A476F"/>
	<circle cx="2044.72" cy="948.82" r="22.03" style="fill:none;stroke:#1A476F;stroke-width:8.64"/>
	<circle cx="2192.48" cy="924.81" r="26.35" style="fill:#1A476F"/>
	<circle cx="2192.48" cy="924.81" r="22.03" style="fill:none;stroke:#1A476F;stroke-width:8.64"/>
	<circle cx="2054.87" cy="942.76" r="26.35" style="fill:#1A476F"/>
	<circle cx="2054.87" cy="942.76" r="22.03" style="fill:none;stroke:#1A476F;stroke-width:8.64"/>
	<circle cx="2188.02" cy="908.60" r="26.35" style="fill:#1A476F"/>
	<circle cx="2188.02" cy="908.60" r="22.03" style="fill:none;stroke:#1A476F;stroke-width:8.64"/>
	<circle cx="2079.62" cy="868.50" r="26.35" style="fill:#1A476F"/>
	<circle cx="2079.62" cy="868.50" r="22.03" style="fill:none;stroke:#1A476F;stroke-width:8.64"/>
	<circle cx="2166.12" cy="893.87" r="26.35" style="fill:#1A476F"/>
	<circle cx="2166.12" cy="893.87" r="22.03" style="fill:none;stroke:#1A476F;stroke-width:8.64"/>
	<circle cx="2029.13" cy="851.43" r="26.35" style="fill:#1A476F"/>
	<circle cx="2029.13" cy="851.43" r="22.03" style="fill:none;stroke:#1A476F;stroke-width:8.64"/>
	<circle cx="2212.28" cy="834.60" r="26.35" style="fill:#1A476F"/>
	<circle cx="2212.28" cy="834.60" r="22.03" style="fill:none;stroke:#1A476F;stroke-width:8.64"/>
	<circle cx="2190.75" cy="837.32" r="26.35" style="fill:#1A476F"/>
	<circle cx="2190.75" cy="837.32" r="22.03" style="fill:none;stroke:#1A476F;stroke-width:8.64"/>
	<circle cx="2241.73" cy="835.59" r="26.35" style="fill:#1A476F"/>
	<circle cx="2241.73" cy="835.59" r="22.03" style="fill:none;stroke:#1A476F;stroke-width:8.64"/>
	<circle cx="2252.99" cy="858.11" r="26.35" style="fill:#1A476F"/>
	<circle cx="2252.99" cy="858.11" r="22.03" style="fill:none;stroke:#1A476F;stroke-width:8.64"/>
	<circle cx="2294.57" cy="813.19" r="26.35" style="fill:#1A476F"/>
	<circle cx="2294.57" cy="813.19" r="22.03" style="fill:none;stroke:#1A476F;stroke-width:8.64"/>
	<circle cx="2282.45" cy="858.98" r="26.35" style="fill:#1A476F"/>
	<circle cx="2282.45" cy="858.98" r="22.03" style="fill:none;stroke:#1A476F;stroke-width:8.64"/>
	<circle cx="2169.83" cy="824.57" r="26.35" style="fill:#1A476F"/>
	<circle cx="2169.83" cy="824.57" r="22.03" style="fill:none;stroke:#1A476F;stroke-width:8.64"/>
	<circle cx="2277.87" cy="815.17" r="26.35" style="fill:#1A476F"/>
	<circle cx="2277.87" cy="815.17" r="22.03" style="fill:none;stroke:#1A476F;stroke-width:8.64"/>
	<circle cx="2295.44" cy="798.95" r="26.35" style="fill:#1A476F"/>
	<circle cx="2295.44" cy="798.95" r="22.03" style="fill:none;stroke:#1A476F;stroke-width:8.64"/>
	<circle cx="2352.86" cy="787.57" r="26.35" style="fill:#1A476F"/>
	<circle cx="2352.86" cy="787.57" r="22.03" style="fill:none;stroke:#1A476F;stroke-width:8.64"/>
	<circle cx="2143.10" cy="830.51" r="26.35" style="fill:#1A476F"/>
	<circle cx="2143.10" cy="830.51" r="22.03" style="fill:none;stroke:#1A476F;stroke-width:8.64"/>
	<circle cx="2267.10" cy="794.00" r="26.35" style="fill:#1A476F"/>
	<circle cx="2267.10" cy="794.00" r="22.03" style="fill:none;stroke:#1A476F;stroke-width:8.64"/>
	<circle cx="2456.56" cy="780.02" r="26.35" style="fill:#1A476F"/>
	<circle cx="2456.56" cy="780.02" r="22.03" style="fill:none;stroke:#1A476F;stroke-width:8.64"/>
	<circle cx="2368.45" cy="778.16" r="26.35" style="fill:#1A476F"/>
	<circle cx="2368.45" cy="778.16" r="22.03" style="fill:none;stroke:#1A476F;stroke-width:8.64"/>
	<circle cx="2269.45" cy="793.63" r="26.35" style="fill:#1A476F"/>
	<circle cx="2269.45" cy="793.63" r="22.03" style="fill:none;stroke:#1A476F;stroke-width:8.64"/>
	<circle cx="2146.82" cy="823.95" r="26.35" style="fill:#1A476F"/>
	<circle cx="2146.82" cy="823.95" r="22.03" style="fill:none;stroke:#1A476F;stroke-width:8.64"/>
	<circle cx="2313.14" cy="797.47" r="26.35" style="fill:#1A476F"/>
	<circle cx="2313.14" cy="797.47" r="22.03" style="fill:none;stroke:#1A476F;stroke-width:8.64"/>
	<circle cx="2375.38" cy="726.19" r="26.35" style="fill:#1A476F"/>
	<circle cx="2375.38" cy="726.19" r="22.03" style="fill:none;stroke:#1A476F;stroke-width:8.64"/>
	<circle cx="2277.37" cy="774.82" r="26.35" style="fill:#1A476F"/>
	<circle cx="2277.37" cy="774.82" r="22.03" style="fill:none;stroke:#1A476F;stroke-width:8.64"/>
	<circle cx="2195.08" cy="753.17" r="26.35" style="fill:#1A476F"/>
	<circle cx="2195.08" cy="753.17" r="22.03" style="fill:none;stroke:#1A476F;stroke-width:8.64"/>
	<circle cx="2504.45" cy="720.99" r="26.35" style="fill:#1A476F"/>
	<circle cx="2504.45" cy="720.99" r="22.03" style="fill:none;stroke:#1A476F;stroke-width:8.64"/>
	<circle cx="2256.09" cy="770.99" r="26.35" style="fill:#1A476F"/>
	<circle cx="2256.09" cy="770.99" r="22.03" style="fill:none;stroke:#1A476F;stroke-width:8.64"/>
	<circle cx="2258.56" cy="773.71" r="26.35" style="fill:#1A476F"/>
	<circle cx="2258.56" cy="773.71" r="22.03" style="fill:none;stroke:#1A476F;stroke-width:8.64"/>
	<circle cx="2374.89" cy="722.23" r="26.35" style="fill:#1A476F"/>
	<circle cx="2374.89" cy="722.23" r="22.03" style="fill:none;stroke:#1A476F;stroke-width:8.64"/>
	<circle cx="2282.82" cy="766.28" r="26.35" style="fill:#1A476F"/>
	<circle cx="2282.82" cy="766.28" r="22.03" style="fill:none;stroke:#1A476F;stroke-width:8.64"/>
	<circle cx="2286.28" cy="738.93" r="26.35" style="fill:#1A476F"/>
	<circle cx="2286.28" cy="738.93" r="22.03" style="fill:none;stroke:#1A476F;stroke-width:8.64"/>
	<circle cx="2512.99" cy="700.32" r="26.35" style="fill:#1A476F"/>
	<circle cx="2512.99" cy="700.32" r="22.03" style="fill:none;stroke:#1A476F;stroke-width:8.64"/>
	<circle cx="2264.75" cy="747.10" r="26.35" style="fill:#1A476F"/>
	<circle cx="2264.75" cy="747.10" r="22.03" style="fill:none;stroke:#1A476F;stroke-width:8.64"/>
	<circle cx="2413.37" cy="721.98" r="26.35" style="fill:#1A476F"/>
	<circle cx="2413.37" cy="721.98" r="22.03" style="fill:none;stroke:#1A476F;stroke-width:8.64"/>
	<circle cx="2543.31" cy="658.74" r="26.35" style="fill:#1A476F"/>
	<circle cx="2543.31" cy="658.74" r="22.03" style="fill:none;stroke:#1A476F;stroke-width:8.64"/>
	<circle cx="2433.79" cy="657.38" r="26.35" style="fill:#1A476F"/>
	<circle cx="2433.79" cy="657.38" r="22.03" style="fill:none;stroke:#1A476F;stroke-width:8.64"/>
	<circle cx="2442.58" cy="670.99" r="26.35" style="fill:#1A476F"/>
	<circle cx="2442.58" cy="670.99" r="22.03" style="fill:none;stroke:#1A476F;stroke-width:8.64"/>
	<circle cx="2401.12" cy="712.70" r="26.35" style="fill:#1A476F"/>
	<circle cx="2401.12" cy="712.70" r="22.03" style="fill:none;stroke:#1A476F;stroke-width:8.64"/>
	<circle cx="2314.62" cy="712.20" r="26.35" style="fill:#1A476F"/>
	<circle cx="2314.62" cy="712.20" r="22.03" style="fill:none;stroke:#1A476F;stroke-width:8.64"/>
	<circle cx="2444.31" cy="665.42" r="26.35" style="fill:#1A476F"/>
	<circle cx="2444.31" cy="665.42" r="22.03" style="fill:none;stroke:#1A476F;stroke-width:8.64"/>
	<circle cx="2549.25" cy="631.27" r="26.35" style="fill:#1A476F"/>
	<circle cx="2549.25" cy="631.27" r="22.03" style="fill:none;stroke:#1A476F;stroke-width:8.64"/>
	<circle cx="2328.23" cy="693.89" r="26.35" style="fill:#1A476F"/>
	<circle cx="2328.23" cy="693.89" r="22.03" style="fill:none;stroke:#1A476F;stroke-width:8.64"/>
	<circle cx="2580.93" cy="612.71" r="26.35" style="fill:#1A476F"/>
	<circle cx="2580.93" cy="612.71" r="22.03" style="fill:none;stroke:#1A476F;stroke-width:8.64"/>
	<circle cx="2558.53" cy="658.00" r="26.35" style="fill:#1A476F"/>
	<circle cx="2558.53" cy="658.00" r="22.03" style="fill:none;stroke:#1A476F;stroke-width:8.64"/>
	<circle cx="2414.49" cy="690.05" r="26.35" style="fill:#1A476F"/>
	<circle cx="2414.49" cy="690.05" r="22.03" style="fill:none;stroke:#1A476F;stroke-width:8.64"/>
	<circle cx="2390.97" cy="662.33" r="26.35" style="fill:#1A476F"/>
	<circle cx="2390.97" cy="662.33" r="22.03" style="fill:none;stroke:#1A476F;stroke-width:8.64"/>
	<circle cx="2658.15" cy="576.57" r="26.35" style="fill:#1A476F"/>
	<circle cx="2658.15" cy="576.57" r="22.03" style="fill:none;stroke:#1A476F;stroke-width:8.64"/>
	<circle cx="2595.28" cy="572.86" r="26.35" style="fill:#1A476F"/>
	<circle cx="2595.28" cy="572.86" r="22.03" style="fill:none;stroke:#1A476F;stroke-width:8.64"/>
	<circle cx="2420.55" cy="623.22" r="26.35" style="fill:#1A476F"/>
	<circle cx="2420.55" cy="623.22" r="22.03" style="fill:none;stroke:#1A476F;stroke-width:8.64"/>
	<circle cx="2552.72" cy="595.26" r="26.35" style="fill:#1A476F"/>
	<circle cx="2552.72" cy="595.26" r="22.03" style="fill:none;stroke:#1A476F;stroke-width:8.64"/>
	<circle cx="2710.62" cy="556.03" r="26.35" style="fill:#1A476F"/>
	<circle cx="2710.62" cy="556.03" r="22.03" style="fill:none;stroke:#1A476F;stroke-width:8.64"/>
	<circle cx="2686.74" cy="551.45" r="26.35" style="fill:#1A476F"/>
	<circle cx="2686.74" cy="551.45" r="22.03" style="fill:none;stroke:#1A476F;stroke-width:8.64"/>
	<circle cx="2801.95" cy="534.12" r="26.35" style="fill:#1A476F"/>
	<circle cx="2801.95" cy="534.12" r="22.03" style="fill:none;stroke:#1A476F;stroke-width:8.64"/>
	<circle cx="2727.57" cy="525.58" r="26.35" style="fill:#1A476F"/>
	<circle cx="2727.57" cy="525.58" r="22.03" style="fill:none;stroke:#1A476F;stroke-width:8.64"/>
	<circle cx="2617.93" cy="531.15" r="26.35" style="fill:#1A476F"/>
	<circle cx="2617.93" cy="531.15" r="22.03" style="fill:none;stroke:#1A476F;stroke-width:8.64"/>
	<circle cx="2478.22" cy="572.86" r="26.35" style="fill:#1A476F"/>
	<circle cx="2478.22" cy="572.86" r="22.03" style="fill:none;stroke:#1A476F;stroke-width:8.64"/>
	<circle cx="2641.57" cy="502.07" r="26.35" style="fill:#1A476F"/>
	<circle cx="2641.57" cy="502.07" r="22.03" style="fill:none;stroke:#1A476F;stroke-width:8.64"/>
	<circle cx="2673.87" cy="513.45" r="26.35" style="fill:#1A476F"/>
	<circle cx="2673.87" cy="513.45" r="22.03" style="fill:none;stroke:#1A476F;stroke-width:8.64"/>
	<circle cx="2772.12" cy="466.68" r="26.35" style="fill:#1A476F"/>
	<circle cx="2772.12" cy="466.68" r="22.03" style="fill:none;stroke:#1A476F;stroke-width:8.64"/>
	<circle cx="2803.43" cy="471.63" r="26.35" style="fill:#1A476F"/>
	<circle cx="2803.43" cy="471.63" r="22.03" style="fill:none;stroke:#1A476F;stroke-width:8.64"/>
	<circle cx="2651.96" cy="475.71" r="26.35" style="fill:#1A476F"/>
	<circle cx="2651.96" cy="475.71" r="22.03" style="fill:none;stroke:#1A476F;stroke-width:8.64"/>
	<circle cx="2837.34" cy="440.56" r="26.35" style="fill:#1A476F"/>
	<circle cx="2837.34" cy="440.56" r="22.03" style="fill:none;stroke:#1A476F;stroke-width:8.64"/>
	<circle cx="2561.50" cy="495.63" r="26.35" style="fill:#1A476F"/>
	<circle cx="2561.50" cy="495.63" r="22.03" style="fill:none;stroke:#1A476F;stroke-width:8.64"/>
	<circle cx="2666.69" cy="459.62" r="26.35" style="fill:#1A476F"/>
	<circle cx="2666.69" cy="459.62" r="22.03" style="fill:none;stroke:#1A476F;stroke-width:8.64"/>
	<circle cx="2813.46" cy="424.72" r="26.35" style="fill:#1A476F"/>
	<circle cx="2813.46" cy="424.72" r="22.03" style="fill:none;stroke:#1A476F;stroke-width:8.64"/>
	<circle cx="2802.32" cy="463.71" r="26.35" style="fill:#1A476F"/>
	<circle cx="2802.32" cy="463.71" r="22.03" style="fill:none;stroke:#1A476F;stroke-width:8.64"/>
	<circle cx="2825.21" cy="442.79" r="26.35" style="fill:#1A476F"/>
	<circle cx="2825.21" cy="442.79" r="22.03" style="fill:none;stroke:#1A476F;stroke-width:8.64"/>
	<circle cx="2893.03" cy="380.67" r="26.35" style="fill:#1A476F"/>
	<circle cx="2893.03" cy="380.67" r="22.03" style="fill:none;stroke:#1A476F;stroke-width:8.64"/>
	<circle cx="2815.81" cy="406.90" r="26.35" style="fill:#1A476F"/>
	<circle cx="2815.81" cy="406.90" r="22.03" style="fill:none;stroke:#1A476F;stroke-width:8.64"/>
	<circle cx="3075.31" cy="314.71" r="26.35" style="fill:#1A476F"/>
	<circle cx="3075.31" cy="314.71" r="22.03" style="fill:none;stroke:#1A476F;stroke-width:8.64"/>
	<circle cx="2899.22" cy="324.98" r="26.35" style="fill:#1A476F"/>
	<circle cx="2899.22" cy="324.98" r="22.03" style="fill:none;stroke:#1A476F;stroke-width:8.64"/>
	<circle cx="2958.86" cy="304.93" r="26.35" style="fill:#1A476F"/>
	<circle cx="2958.86" cy="304.93" r="22.03" style="fill:none;stroke:#1A476F;stroke-width:8.64"/>
	<circle cx="3106.50" cy="316.07" r="26.35" style="fill:#1A476F"/>
	<circle cx="3106.50" cy="316.07" r="22.03" style="fill:none;stroke:#1A476F;stroke-width:8.64"/>
	<circle cx="2932.63" cy="318.17" r="26.35" style="fill:#1A476F"/>
	<circle cx="2932.63" cy="318.17" r="22.03" style="fill:none;stroke:#1A476F;stroke-width:8.64"/>
	<circle cx="3090.66" cy="263.97" r="26.35" style="fill:#1A476F"/>
	<circle cx="3090.66" cy="263.97" r="22.03" style="fill:none;stroke:#1A476F;stroke-width:8.64"/>
	<circle cx="3123.95" cy="262.23" r="26.35" style="fill:#1A476F"/>
	<circle cx="3123.95" cy="262.23" r="22.03" style="fill:none;stroke:#1A476F;stroke-width:8.64"/>
	<circle cx="3378.00" cy="177.22" r="26.35" style="fill:#1A476F"/>
	<circle cx="3378.00" cy="177.22" r="22.03" style="fill:none;stroke:#1A476F;stroke-width:8.64"/>
	<circle cx="3318.85" cy="164.22" r="26.35" style="fill:#1A476F"/>
	<circle cx="3318.85" cy="164.22" r="22.03" style="fill:none;stroke:#1A476F;stroke-width:8.64"/>
	<line x1="390.80" y1="2489.19" x2="390.80" y2="100.86" style="stroke:#000000;stroke-width:5.76"/>
	<line x1="390.80" y1="2373.35" x2="350.83" y2="2373.35" style="stroke:#000000;stroke-width:5.76"/>
	<text x="300.72" y="2373.35" style="font-family:'Helvetica';font-size:99.99px;fill:#000000" transform="rotate(-90 300.72,2373.35)" text-anchor="middle">-6</text>
	<line x1="390.80" y1="1963.11" x2="350.83" y2="1963.11" style="stroke:#000000;stroke-width:5.76"/>
	<text x="300.72" y="1963.11" style="font-family:'Helvetica';font-size:99.99px;fill:#000000" transform="rotate(-90 300.72,1963.11)" text-anchor="middle">-4</text>
	<line x1="390.80" y1="1552.99" x2="350.83" y2="1552.99" style="stroke:#000000;stroke-width:5.76"/>
	<text x="300.72" y="1552.99" style="font-family:'Helvetica';font-size:99.99px;fill:#000000" transform="rotate(-90 300.72,1552.99)" text-anchor="middle">-2</text>
	<line x1="390.80" y1="1142.74" x2="350.83" y2="1142.74" style="stroke:#000000;stroke-width:5.76"/>
	<text x="300.72" y="1142.74" style="font-family:'Helvetica';font-size:99.99px;fill:#000000" transform="rotate(-90 300.72,1142.74)" text-anchor="middle">0</text>
	<line x1="390.80" y1="732.50" x2="350.83" y2="732.50" style="stroke:#000000;stroke-width:5.76"/>
	<text x="300.72" y="732.50" style="font-family:'Helvetica';font-size:99.99px;fill:#000000" transform="rotate(-90 300.72,732.50)" text-anchor="middle">2</text>
	<line x1="390.80" y1="322.38" x2="350.83" y2="322.38" style="stroke:#000000;stroke-width:5.76"/>
	<text x="300.72" y="322.38" style="font-family:'Helvetica';font-size:99.99px;fill:#000000" transform="rotate(-90 300.72,322.38)" text-anchor="middle">4</text>
	<text x="190.71" y="1294.96" style="font-family:'Helvetica';font-size:99.99px;fill:#000000" transform="rotate(-90 190.71,1294.96)" text-anchor="middle">Fitted values</text>
	<line x1="390.80" y1="2489.19" x2="3859.02" y2="2489.19" style="stroke:#000000;stroke-width:5.76"/>
	<line x1="651.05" y1="2489.19" x2="651.05" y2="2529.16" style="stroke:#000000;stroke-width:5.76"/>
	<text x="651.05" y="2619.14" style="font-family:'Helvetica';font-size:99.99px;fill:#000000" text-anchor="middle">-2</text>
	<line x1="1437.23" y1="2489.19" x2="1437.23" y2="2529.16" style="stroke:#000000;stroke-width:5.76"/>
	<text x="1437.23" y="2619.14" style="font-family:'Helvetica';font-size:99.99px;fill:#000000" text-anchor="middle">0</text>
	<line x1="2223.42" y1="2489.19" x2="2223.42" y2="2529.16" style="stroke:#000000;stroke-width:5.76"/>
	<text x="2223.42" y="2619.14" style="font-family:'Helvetica';font-size:99.99px;fill:#000000" text-anchor="middle">2</text>
	<line x1="3009.60" y1="2489.19" x2="3009.60" y2="2529.16" style="stroke:#000000;stroke-width:5.76"/>
	<text x="3009.60" y="2619.14" style="font-family:'Helvetica';font-size:99.99px;fill:#000000" text-anchor="middle">4</text>
	<line x1="3795.66" y1="2489.19" x2="3795.66" y2="2529.16" style="stroke:#000000;stroke-width:5.76"/>
	<text x="3795.66" y="2619.14" style="font-family:'Helvetica';font-size:99.99px;fill:#000000" text-anchor="middle">6</text>
	<text x="2124.91" y="2729.16" style="font-family:'Helvetica';font-size:99.99px;fill:#000000" text-anchor="middle">lntc</text>
</svg>
