<?xml version="1.0" encoding="UTF-8" standalone="no"?>
<!-- This is a Stata 15.0 generated SVG file (http://www.stata.com) -->

<svg version="1.1" width="600px" height="436px" viewBox="0 0 3960 2880" xmlns="http://www.w3.org/2000/svg" xmlns:xlink="http://www.w3.org/1999/xlink">
	<desc>Stata Graph - Graph</desc>
	<rect x="0" y="0" width="3960" height="2880" style="fill:#EAF2F3;stroke:none"/>
	<rect x="0.00" y="0.00" width="3959.88" height="2880.00" style="fill:#EAF2F3"/>
	<rect x="2.88" y="2.88" width="3954.12" height="2874.24" style="fill:none;stroke:#EAF2F3;stroke-width:5.76"/>
	<rect x="390.80" y="100.86" width="3468.22" height="2388.33" style="fill:#FFFFFF"/>
	<rect x="393.68" y="103.74" width="3462.46" height="2382.57" style="fill:none;stroke:#FFFFFF;stroke-width:5.76"/>
	<line x1="390.80" y1="2292.54" x2="3859.02" y2="2292.54" style="stroke:#EAF2F3;stroke-width:8.64"/>
	<line x1="390.80" y1="1760.40" x2="3859.02" y2="1760.40" style="stroke:#EAF2F3;stroke-width:8.64"/>
	<line x1="390.80" y1="1228.38" x2="3859.02" y2="1228.38" style="stroke:#EAF2F3;stroke-width:8.64"/>
	<line x1="390.80" y1="696.24" x2="3859.02" y2="696.24" style="stroke:#EAF2F3;stroke-width:8.64"/>
	<line x1="390.80" y1="164.22" x2="3859.02" y2="164.22" style="stroke:#EAF2F3;stroke-width:8.64"/>
	<circle cx="685.70" cy="2425.95" r="26.35" style="fill:#1A476F"/>
	<circle cx="685.70" cy="2425.95" r="22.03" style="fill:none;stroke:#1A476F;stroke-width:8.64"/>
	<circle cx="821.21" cy="1870.66" r="26.35" style="fill:#1A476F"/>
	<circle cx="821.21" cy="1870.66" r="22.03" style="fill:none;stroke:#1A476F;stroke-width:8.64"/>
	<circle cx="917.36" cy="1763.25" r="26.35" style="fill:#1A476F"/>
	<circle cx="917.36" cy="1763.25" r="22.03" style="fill:none;stroke:#1A476F;stroke-width:8.64"/>
	<circle cx="917.36" cy="2067.80" r="26.35" style="fill:#1A476F"/>
	<circle cx="917.36" cy="2067.80" r="22.03" style="fill:none;stroke:#1A476F;stroke-width:8.64"/>
	<circle cx="991.86" cy="2192.67" r="26.35" style="fill:#1A476F"/>
	<circle cx="991.86" cy="2192.67" r="22.03" style="fill:none;stroke:#1A476F;stroke-width:8.64"/>
	<circle cx="1188.25" cy="2378.43" r="26.35" style="fill:#1A476F"/>
	<circle cx="1188.25" cy="2378.43" r="22.03" style="fill:none;stroke:#1A476F;stroke-width:8.64"/>
	<circle cx="1255.32" cy="1774.38" r="26.35" style="fill:#1A476F"/>
	<circle cx="1255.32" cy="1774.38" r="22.03" style="fill:none;stroke:#1A476F;stroke-width:8.64"/>
	<circle cx="1311.13" cy="1865.09" r="26.35" style="fill:#1A476F"/>
	<circle cx="1311.13" cy="1865.09" r="22.03" style="fill:none;stroke:#1A476F;stroke-width:8.64"/>
	<circle cx="1311.13" cy="1931.92" r="26.35" style="fill:#1A476F"/>
	<circle cx="1311.13" cy="1931.92" r="22.03" style="fill:none;stroke:#1A476F;stroke-width:8.64"/>
	<circle cx="1486.98" cy="1944.42" r="26.35" style="fill:#1A476F"/>
	<circle cx="1486.98" cy="1944.42" r="22.03" style="fill:none;stroke:#1A476F;stroke-width:8.64"/>
	<circle cx="1529.67" cy="1713.37" r="26.35" style="fill:#1A476F"/>
	<circle cx="1529.67" cy="1713.37" r="22.03" style="fill:none;stroke:#1A476F;stroke-width:8.64"/>
	<circle cx="1529.67" cy="1867.07" r="26.35" style="fill:#1A476F"/>
	<circle cx="1529.67" cy="1867.07" r="22.03" style="fill:none;stroke:#1A476F;stroke-width:8.64"/>
	<circle cx="1642.16" cy="2040.58" r="26.35" style="fill:#1A476F"/>
	<circle cx="1642.16" cy="2040.58" r="22.03" style="fill:none;stroke:#1A476F;stroke-width:8.64"/>
	<circle cx="1678.30" cy="1989.47" r="26.35" style="fill:#1A476F"/>
	<circle cx="1678.30" cy="1989.47" r="22.03" style="fill:none;stroke:#1A476F;stroke-width:8.64"/>
	<circle cx="1710.97" cy="1944.42" r="26.35" style="fill:#1A476F"/>
	<circle cx="1710.97" cy="1944.42" r="22.03" style="fill:none;stroke:#1A476F;stroke-width:8.64"/>
	<circle cx="1838.55" cy="1919.55" r="26.35" style="fill:#1A476F"/>
	<circle cx="1838.55" cy="1919.55" r="22.03" style="fill:none;stroke:#1A476F;stroke-width:8.64"/>
	<circle cx="1864.05" cy="1821.53" r="26.35" style="fill:#1A476F"/>
	<circle cx="1864.05" cy="1821.53" r="22.03" style="fill:none;stroke:#1A476F;stroke-width:8.64"/>
	<circle cx="1922.58" cy="1869.43" r="26.35" style="fill:#1A476F"/>
	<circle cx="1922.58" cy="1869.43" r="22.03" style="fill:none;stroke:#1A476F;stroke-width:8.64"/>
	<circle cx="1934.71" cy="1853.46" r="26.35" style="fill:#1A476F"/>
	<circle cx="1934.71" cy="1853.46" r="22.03" style="fill:none;stroke:#1A476F;stroke-width:8.64"/>
	<circle cx="1887.81" cy="1787.62" r="26.35" style="fill:#1A476F"/>
	<circle cx="1887.81" cy="1787.62" r="22.03" style="fill:none;stroke:#1A476F;stroke-width:8.64"/>
	<circle cx="1989.53" cy="1651.99" r="26.35" style="fill:#1A476F"/>
	<circle cx="1989.53" cy="1651.99" r="22.03" style="fill:none;stroke:#1A476F;stroke-width:8.64"/>
	<circle cx="1996.21" cy="1632.93" r="26.35" style="fill:#1A476F"/>
	<circle cx="1996.21" cy="1632.93" r="22.03" style="fill:none;stroke:#1A476F;stroke-width:8.64"/>
	<circle cx="2051.03" cy="1728.72" r="26.35" style="fill:#1A476F"/>
	<circle cx="2051.03" cy="1728.72" r="22.03" style="fill:none;stroke:#1A476F;stroke-width:8.64"/>
	<circle cx="2053.88" cy="1848.64" r="26.35" style="fill:#1A476F"/>
	<circle cx="2053.88" cy="1848.64" r="22.03" style="fill:none;stroke:#1A476F;stroke-width:8.64"/>
	<circle cx="2059.32" cy="1526.01" r="26.35" style="fill:#1A476F"/>
	<circle cx="2059.32" cy="1526.01" r="22.03" style="fill:none;stroke:#1A476F;stroke-width:8.64"/>
	<circle cx="2080.61" cy="1727.98" r="26.35" style="fill:#1A476F"/>
	<circle cx="2080.61" cy="1727.98" r="22.03" style="fill:none;stroke:#1A476F;stroke-width:8.64"/>
	<circle cx="2100.53" cy="1762.63" r="26.35" style="fill:#1A476F"/>
	<circle cx="2100.53" cy="1762.63" r="22.03" style="fill:none;stroke:#1A476F;stroke-width:8.64"/>
	<circle cx="2126.15" cy="1643.20" r="26.35" style="fill:#1A476F"/>
	<circle cx="2126.15" cy="1643.20" r="22.03" style="fill:none;stroke:#1A476F;stroke-width:8.64"/>
	<circle cx="2217.85" cy="1706.57" r="26.35" style="fill:#1A476F"/>
	<circle cx="2217.85" cy="1706.57" r="22.03" style="fill:none;stroke:#1A476F;stroke-width:8.64"/>
	<circle cx="2219.46" cy="1641.35" r="26.35" style="fill:#1A476F"/>
	<circle cx="2219.46" cy="1641.35" r="22.03" style="fill:none;stroke:#1A476F;stroke-width:8.64"/>
	<circle cx="2239.26" cy="1584.79" r="26.35" style="fill:#1A476F"/>
	<circle cx="2239.26" cy="1584.79" r="22.03" style="fill:none;stroke:#1A476F;stroke-width:8.64"/>
	<circle cx="2247.18" cy="1454.85" r="26.35" style="fill:#1A476F"/>
	<circle cx="2247.18" cy="1454.85" r="22.03" style="fill:none;stroke:#1A476F;stroke-width:8.64"/>
	<circle cx="2256.46" cy="1506.46" r="26.35" style="fill:#1A476F"/>
	<circle cx="2256.46" cy="1506.46" r="22.03" style="fill:none;stroke:#1A476F;stroke-width:8.64"/>
	<circle cx="2277.00" cy="1443.09" r="26.35" style="fill:#1A476F"/>
	<circle cx="2277.00" cy="1443.09" r="22.03" style="fill:none;stroke:#1A476F;stroke-width:8.64"/>
	<circle cx="2278.49" cy="1523.04" r="26.35" style="fill:#1A476F"/>
	<circle cx="2278.49" cy="1523.04" r="22.03" style="fill:none;stroke:#1A476F;stroke-width:8.64"/>
	<circle cx="2303.11" cy="1572.05" r="26.35" style="fill:#1A476F"/>
	<circle cx="2303.11" cy="1572.05" r="22.03" style="fill:none;stroke:#1A476F;stroke-width:8.64"/>
	<circle cx="2335.78" cy="1350.77" r="26.35" style="fill:#1A476F"/>
	<circle cx="2335.78" cy="1350.77" r="22.03" style="fill:none;stroke:#1A476F;stroke-width:8.64"/>
	<circle cx="2348.78" cy="1599.15" r="26.35" style="fill:#1A476F"/>
	<circle cx="2348.78" cy="1599.15" r="22.03" style="fill:none;stroke:#1A476F;stroke-width:8.64"/>
	<circle cx="2348.78" cy="1566.72" r="26.35" style="fill:#1A476F"/>
	<circle cx="2348.78" cy="1566.72" r="22.03" style="fill:none;stroke:#1A476F;stroke-width:8.64"/>
	<circle cx="2354.47" cy="1570.93" r="26.35" style="fill:#1A476F"/>
	<circle cx="2354.47" cy="1570.93" r="22.03" style="fill:none;stroke:#1A476F;stroke-width:8.64"/>
	<circle cx="2358.92" cy="1435.05" r="26.35" style="fill:#1A476F"/>
	<circle cx="2358.92" cy="1435.05" r="22.03" style="fill:none;stroke:#1A476F;stroke-width:8.64"/>
	<circle cx="2385.78" cy="1460.91" r="26.35" style="fill:#1A476F"/>
	<circle cx="2385.78" cy="1460.91" r="22.03" style="fill:none;stroke:#1A476F;stroke-width:8.64"/>
	<circle cx="2394.93" cy="1533.93" r="26.35" style="fill:#1A476F"/>
	<circle cx="2394.93" cy="1533.93" r="22.03" style="fill:none;stroke:#1A476F;stroke-width:8.64"/>
	<circle cx="2399.88" cy="1529.60" r="26.35" style="fill:#1A476F"/>
	<circle cx="2399.88" cy="1529.60" r="22.03" style="fill:none;stroke:#1A476F;stroke-width:8.64"/>
	<circle cx="2414.36" cy="1500.52" r="26.35" style="fill:#1A476F"/>
	<circle cx="2414.36" cy="1500.52" r="22.03" style="fill:none;stroke:#1A476F;stroke-width:8.64"/>
	<circle cx="2414.36" cy="1618.58" r="26.35" style="fill:#1A476F"/>
	<circle cx="2414.36" cy="1618.58" r="22.03" style="fill:none;stroke:#1A476F;stroke-width:8.64"/>
	<circle cx="2469.31" cy="1448.54" r="26.35" style="fill:#1A476F"/>
	<circle cx="2469.31" cy="1448.54" r="22.03" style="fill:none;stroke:#1A476F;stroke-width:8.64"/>
	<circle cx="2472.53" cy="1329.74" r="26.35" style="fill:#1A476F"/>
	<circle cx="2472.53" cy="1329.74" r="22.03" style="fill:none;stroke:#1A476F;stroke-width:8.64"/>
	<circle cx="2500.00" cy="1404.36" r="26.35" style="fill:#1A476F"/>
	<circle cx="2500.00" cy="1404.36" r="22.03" style="fill:none;stroke:#1A476F;stroke-width:8.64"/>
	<circle cx="2519.92" cy="1355.72" r="26.35" style="fill:#1A476F"/>
	<circle cx="2519.92" cy="1355.72" r="22.03" style="fill:none;stroke:#1A476F;stroke-width:8.64"/>
	<circle cx="2541.21" cy="1368.84" r="26.35" style="fill:#1A476F"/>
	<circle cx="2541.21" cy="1368.84" r="22.03" style="fill:none;stroke:#1A476F;stroke-width:8.64"/>
	<circle cx="2562.61" cy="1348.05" r="26.35" style="fill:#1A476F"/>
	<circle cx="2562.61" cy="1348.05" r="22.03" style="fill:none;stroke:#1A476F;stroke-width:8.64"/>
	<circle cx="2570.41" cy="1368.97" r="26.35" style="fill:#1A476F"/>
	<circle cx="2570.41" cy="1368.97" r="22.03" style="fill:none;stroke:#1A476F;stroke-width:8.64"/>
	<circle cx="2572.14" cy="1397.18" r="26.35" style="fill:#1A476F"/>
	<circle cx="2572.14" cy="1397.18" r="22.03" style="fill:none;stroke:#1A476F;stroke-width:8.64"/>
	<circle cx="2587.12" cy="1431.71" r="26.35" style="fill:#1A476F"/>
	<circle cx="2587.12" cy="1431.71" r="22.03" style="fill:none;stroke:#1A476F;stroke-width:8.64"/>
	<circle cx="2629.07" cy="1337.78" r="26.35" style="fill:#1A476F"/>
	<circle cx="2629.07" cy="1337.78" r="22.03" style="fill:none;stroke:#1A476F;stroke-width:8.64"/>
	<circle cx="2641.32" cy="1420.94" r="26.35" style="fill:#1A476F"/>
	<circle cx="2641.32" cy="1420.94" r="22.03" style="fill:none;stroke:#1A476F;stroke-width:8.64"/>
	<circle cx="2652.09" cy="1305.23" r="26.35" style="fill:#1A476F"/>
	<circle cx="2652.09" cy="1305.23" r="22.03" style="fill:none;stroke:#1A476F;stroke-width:8.64"/>
	<circle cx="2662.61" cy="1366.00" r="26.35" style="fill:#1A476F"/>
	<circle cx="2662.61" cy="1366.00" r="22.03" style="fill:none;stroke:#1A476F;stroke-width:8.64"/>
	<circle cx="2685.75" cy="1373.17" r="26.35" style="fill:#1A476F"/>
	<circle cx="2685.75" cy="1373.17" r="22.03" style="fill:none;stroke:#1A476F;stroke-width:8.64"/>
	<circle cx="2687.85" cy="1253.26" r="26.35" style="fill:#1A476F"/>
	<circle cx="2687.85" cy="1253.26" r="22.03" style="fill:none;stroke:#1A476F;stroke-width:8.64"/>
	<circle cx="2691.07" cy="1246.82" r="26.35" style="fill:#1A476F"/>
	<circle cx="2691.07" cy="1246.82" r="22.03" style="fill:none;stroke:#1A476F;stroke-width:8.64"/>
	<circle cx="2692.30" cy="1326.39" r="26.35" style="fill:#1A476F"/>
	<circle cx="2692.30" cy="1326.39" r="22.03" style="fill:none;stroke:#1A476F;stroke-width:8.64"/>
	<circle cx="2710.00" cy="1324.91" r="26.35" style="fill:#1A476F"/>
	<circle cx="2710.00" cy="1324.91" r="22.03" style="fill:none;stroke:#1A476F;stroke-width:8.64"/>
	<circle cx="2711.98" cy="1296.57" r="26.35" style="fill:#1A476F"/>
	<circle cx="2711.98" cy="1296.57" r="22.03" style="fill:none;stroke:#1A476F;stroke-width:8.64"/>
	<circle cx="2730.42" cy="1349.29" r="26.35" style="fill:#1A476F"/>
	<circle cx="2730.42" cy="1349.29" r="22.03" style="fill:none;stroke:#1A476F;stroke-width:8.64"/>
	<circle cx="2731.91" cy="1249.30" r="26.35" style="fill:#1A476F"/>
	<circle cx="2731.91" cy="1249.30" r="22.03" style="fill:none;stroke:#1A476F;stroke-width:8.64"/>
	<circle cx="2735.99" cy="1342.48" r="26.35" style="fill:#1A476F"/>
	<circle cx="2735.99" cy="1342.48" r="22.03" style="fill:none;stroke:#1A476F;stroke-width:8.64"/>
	<circle cx="2757.03" cy="1252.27" r="26.35" style="fill:#1A476F"/>
	<circle cx="2757.03" cy="1252.27" r="22.03" style="fill:none;stroke:#1A476F;stroke-width:8.64"/>
	<circle cx="2759.38" cy="1325.65" r="26.35" style="fill:#1A476F"/>
	<circle cx="2759.38" cy="1325.65" r="22.03" style="fill:none;stroke:#1A476F;stroke-width:8.64"/>
	<circle cx="2762.35" cy="1267.12" r="26.35" style="fill:#1A476F"/>
	<circle cx="2762.35" cy="1267.12" r="22.03" style="fill:none;stroke:#1A476F;stroke-width:8.64"/>
	<circle cx="2793.66" cy="1359.81" r="26.35" style="fill:#1A476F"/>
	<circle cx="2793.66" cy="1359.81" r="22.03" style="fill:none;stroke:#1A476F;stroke-width:8.64"/>
	<circle cx="2796.87" cy="1235.81" r="26.35" style="fill:#1A476F"/>
	<circle cx="2796.87" cy="1235.81" r="22.03" style="fill:none;stroke:#1A476F;stroke-width:8.64"/>
	<circle cx="2799.60" cy="1250.53" r="26.35" style="fill:#1A476F"/>
	<circle cx="2799.60" cy="1250.53" r="22.03" style="fill:none;stroke:#1A476F;stroke-width:8.64"/>
	<circle cx="2800.83" cy="1216.01" r="26.35" style="fill:#1A476F"/>
	<circle cx="2800.83" cy="1216.01" r="22.03" style="fill:none;stroke:#1A476F;stroke-width:8.64"/>
	<circle cx="2805.29" cy="1208.33" r="26.35" style="fill:#1A476F"/>
	<circle cx="2805.29" cy="1208.33" r="22.03" style="fill:none;stroke:#1A476F;stroke-width:8.64"/>
	<circle cx="2810.86" cy="1180.12" r="26.35" style="fill:#1A476F"/>
	<circle cx="2810.86" cy="1180.12" r="22.03" style="fill:none;stroke:#1A476F;stroke-width:8.64"/>
	<circle cx="2813.70" cy="1188.41" r="26.35" style="fill:#1A476F"/>
	<circle cx="2813.70" cy="1188.41" r="22.03" style="fill:none;stroke:#1A476F;stroke-width:8.64"/>
	<circle cx="2814.82" cy="1264.64" r="26.35" style="fill:#1A476F"/>
	<circle cx="2814.82" cy="1264.64" r="22.03" style="fill:none;stroke:#1A476F;stroke-width:8.64"/>
	<circle cx="2827.44" cy="1191.50" r="26.35" style="fill:#1A476F"/>
	<circle cx="2827.44" cy="1191.50" r="22.03" style="fill:none;stroke:#1A476F;stroke-width:8.64"/>
	<circle cx="2844.64" cy="1179.62" r="26.35" style="fill:#1A476F"/>
	<circle cx="2844.64" cy="1179.62" r="22.03" style="fill:none;stroke:#1A476F;stroke-width:8.64"/>
	<circle cx="2847.74" cy="1140.76" r="26.35" style="fill:#1A476F"/>
	<circle cx="2847.74" cy="1140.76" r="22.03" style="fill:none;stroke:#1A476F;stroke-width:8.64"/>
	<circle cx="2847.49" cy="1282.71" r="26.35" style="fill:#1A476F"/>
	<circle cx="2847.49" cy="1282.71" r="22.03" style="fill:none;stroke:#1A476F;stroke-width:8.64"/>
	<circle cx="2857.88" cy="1198.80" r="26.35" style="fill:#1A476F"/>
	<circle cx="2857.88" cy="1198.80" r="22.03" style="fill:none;stroke:#1A476F;stroke-width:8.64"/>
	<circle cx="2868.28" cy="1070.47" r="26.35" style="fill:#1A476F"/>
	<circle cx="2868.28" cy="1070.47" r="22.03" style="fill:none;stroke:#1A476F;stroke-width:8.64"/>
	<circle cx="2879.54" cy="1130.12" r="26.35" style="fill:#1A476F"/>
	<circle cx="2879.54" cy="1130.12" r="22.03" style="fill:none;stroke:#1A476F;stroke-width:8.64"/>
	<circle cx="2892.04" cy="1197.19" r="26.35" style="fill:#1A476F"/>
	<circle cx="2892.04" cy="1197.19" r="22.03" style="fill:none;stroke:#1A476F;stroke-width:8.64"/>
	<circle cx="2897.24" cy="1280.23" r="26.35" style="fill:#1A476F"/>
	<circle cx="2897.24" cy="1280.23" r="22.03" style="fill:none;stroke:#1A476F;stroke-width:8.64"/>
	<circle cx="2907.75" cy="1167.62" r="26.35" style="fill:#1A476F"/>
	<circle cx="2907.75" cy="1167.62" r="22.03" style="fill:none;stroke:#1A476F;stroke-width:8.64"/>
	<circle cx="2929.53" cy="1125.54" r="26.35" style="fill:#1A476F"/>
	<circle cx="2929.53" cy="1125.54" r="22.03" style="fill:none;stroke:#1A476F;stroke-width:8.64"/>
	<circle cx="2933.37" cy="1191.87" r="26.35" style="fill:#1A476F"/>
	<circle cx="2933.37" cy="1191.87" r="22.03" style="fill:none;stroke:#1A476F;stroke-width:8.64"/>
	<circle cx="2955.40" cy="1247.56" r="26.35" style="fill:#1A476F"/>
	<circle cx="2955.40" cy="1247.56" r="22.03" style="fill:none;stroke:#1A476F;stroke-width:8.64"/>
	<circle cx="2964.43" cy="1038.17" r="26.35" style="fill:#1A476F"/>
	<circle cx="2964.43" cy="1038.17" r="22.03" style="fill:none;stroke:#1A476F;stroke-width:8.64"/>
	<circle cx="2964.80" cy="1206.23" r="26.35" style="fill:#1A476F"/>
	<circle cx="2964.80" cy="1206.23" r="22.03" style="fill:none;stroke:#1A476F;stroke-width:8.64"/>
	<circle cx="2965.79" cy="1204.62" r="26.35" style="fill:#1A476F"/>
	<circle cx="2965.79" cy="1204.62" r="22.03" style="fill:none;stroke:#1A476F;stroke-width:8.64"/>
	<circle cx="2956.39" cy="1125.79" r="26.35" style="fill:#1A476F"/>
	<circle cx="2956.39" cy="1125.79" r="22.03" style="fill:none;stroke:#1A476F;stroke-width:8.64"/>
	<circle cx="2980.02" cy="1188.16" r="26.35" style="fill:#1A476F"/>
	<circle cx="2980.02" cy="1188.16" r="22.03" style="fill:none;stroke:#1A476F;stroke-width:8.64"/>
	<circle cx="2982.13" cy="1185.81" r="26.35" style="fill:#1A476F"/>
	<circle cx="2982.13" cy="1185.81" r="22.03" style="fill:none;stroke:#1A476F;stroke-width:8.64"/>
	<circle cx="2998.59" cy="1032.35" r="26.35" style="fill:#1A476F"/>
	<circle cx="2998.59" cy="1032.35" r="22.03" style="fill:none;stroke:#1A476F;stroke-width:8.64"/>
	<circle cx="3003.41" cy="1200.41" r="26.35" style="fill:#1A476F"/>
	<circle cx="3003.41" cy="1200.41" r="22.03" style="fill:none;stroke:#1A476F;stroke-width:8.64"/>
	<circle cx="3007.74" cy="1099.80" r="26.35" style="fill:#1A476F"/>
	<circle cx="3007.74" cy="1099.80" r="22.03" style="fill:none;stroke:#1A476F;stroke-width:8.64"/>
	<circle cx="3029.77" cy="1011.94" r="26.35" style="fill:#1A476F"/>
	<circle cx="3029.77" cy="1011.94" r="22.03" style="fill:none;stroke:#1A476F;stroke-width:8.64"/>
	<circle cx="3041.28" cy="1086.06" r="26.35" style="fill:#1A476F"/>
	<circle cx="3041.28" cy="1086.06" r="22.03" style="fill:none;stroke:#1A476F;stroke-width:8.64"/>
	<circle cx="3046.60" cy="1080.12" r="26.35" style="fill:#1A476F"/>
	<circle cx="3046.60" cy="1080.12" r="22.03" style="fill:none;stroke:#1A476F;stroke-width:8.64"/>
	<circle cx="3048.33" cy="1108.09" r="26.35" style="fill:#1A476F"/>
	<circle cx="3048.33" cy="1108.09" r="22.03" style="fill:none;stroke:#1A476F;stroke-width:8.64"/>
	<circle cx="3050.31" cy="1166.63" r="26.35" style="fill:#1A476F"/>
	<circle cx="3050.31" cy="1166.63" r="22.03" style="fill:none;stroke:#1A476F;stroke-width:8.64"/>
	<circle cx="3061.95" cy="1078.89" r="26.35" style="fill:#1A476F"/>
	<circle cx="3061.95" cy="1078.89" r="22.03" style="fill:none;stroke:#1A476F;stroke-width:8.64"/>
	<circle cx="3062.69" cy="1007.85" r="26.35" style="fill:#1A476F"/>
	<circle cx="3062.69" cy="1007.85" r="22.03" style="fill:none;stroke:#1A476F;stroke-width:8.64"/>
	<circle cx="3069.49" cy="1157.47" r="26.35" style="fill:#1A476F"/>
	<circle cx="3069.49" cy="1157.47" r="22.03" style="fill:none;stroke:#1A476F;stroke-width:8.64"/>
	<circle cx="3072.59" cy="986.44" r="26.35" style="fill:#1A476F"/>
	<circle cx="3072.59" cy="986.44" r="22.03" style="fill:none;stroke:#1A476F;stroke-width:8.64"/>
	<circle cx="3078.53" cy="1001.54" r="26.35" style="fill:#1A476F"/>
	<circle cx="3078.53" cy="1001.54" r="22.03" style="fill:none;stroke:#1A476F;stroke-width:8.64"/>
	<circle cx="3082.61" cy="1099.06" r="26.35" style="fill:#1A476F"/>
	<circle cx="3082.61" cy="1099.06" r="22.03" style="fill:none;stroke:#1A476F;stroke-width:8.64"/>
	<circle cx="3114.66" cy="1114.90" r="26.35" style="fill:#1A476F"/>
	<circle cx="3114.66" cy="1114.90" r="22.03" style="fill:none;stroke:#1A476F;stroke-width:8.64"/>
	<circle cx="3128.65" cy="934.09" r="26.35" style="fill:#1A476F"/>
	<circle cx="3128.65" cy="934.09" r="22.03" style="fill:none;stroke:#1A476F;stroke-width:8.64"/>
	<circle cx="3151.29" cy="976.67" r="26.35" style="fill:#1A476F"/>
	<circle cx="3151.29" cy="976.67" r="22.03" style="fill:none;stroke:#1A476F;stroke-width:8.64"/>
	<circle cx="3159.96" cy="1094.85" r="26.35" style="fill:#1A476F"/>
	<circle cx="3159.96" cy="1094.85" r="22.03" style="fill:none;stroke:#1A476F;stroke-width:8.64"/>
	<circle cx="3162.55" cy="1005.50" r="26.35" style="fill:#1A476F"/>
	<circle cx="3162.55" cy="1005.50" r="22.03" style="fill:none;stroke:#1A476F;stroke-width:8.64"/>
	<circle cx="3180.75" cy="898.58" r="26.35" style="fill:#1A476F"/>
	<circle cx="3180.75" cy="898.58" r="22.03" style="fill:none;stroke:#1A476F;stroke-width:8.64"/>
	<circle cx="3184.58" cy="914.79" r="26.35" style="fill:#1A476F"/>
	<circle cx="3184.58" cy="914.79" r="22.03" style="fill:none;stroke:#1A476F;stroke-width:8.64"/>
	<circle cx="3207.97" cy="836.82" r="26.35" style="fill:#1A476F"/>
	<circle cx="3207.97" cy="836.82" r="22.03" style="fill:none;stroke:#1A476F;stroke-width:8.64"/>
	<circle cx="3212.05" cy="887.07" r="26.35" style="fill:#1A476F"/>
	<circle cx="3212.05" cy="887.07" r="22.03" style="fill:none;stroke:#1A476F;stroke-width:8.64"/>
	<circle cx="3226.78" cy="961.32" r="26.35" style="fill:#1A476F"/>
	<circle cx="3226.78" cy="961.32" r="22.03" style="fill:none;stroke:#1A476F;stroke-width:8.64"/>
	<circle cx="3243.24" cy="1055.87" r="26.35" style="fill:#1A476F"/>
	<circle cx="3243.24" cy="1055.87" r="22.03" style="fill:none;stroke:#1A476F;stroke-width:8.64"/>
	<circle cx="3250.17" cy="945.36" r="26.35" style="fill:#1A476F"/>
	<circle cx="3250.17" cy="945.36" r="22.03" style="fill:none;stroke:#1A476F;stroke-width:8.64"/>
	<circle cx="3264.53" cy="923.45" r="26.35" style="fill:#1A476F"/>
	<circle cx="3264.53" cy="923.45" r="22.03" style="fill:none;stroke:#1A476F;stroke-width:8.64"/>
	<circle cx="3283.95" cy="857.00" r="26.35" style="fill:#1A476F"/>
	<circle cx="3283.95" cy="857.00" r="22.03" style="fill:none;stroke:#1A476F;stroke-width:8.64"/>
	<circle cx="3318.23" cy="835.83" r="26.35" style="fill:#1A476F"/>
	<circle cx="3318.23" cy="835.83" r="22.03" style="fill:none;stroke:#1A476F;stroke-width:8.64"/>
	<circle cx="3318.60" cy="938.30" r="26.35" style="fill:#1A476F"/>
	<circle cx="3318.60" cy="938.30" r="22.03" style="fill:none;stroke:#1A476F;stroke-width:8.64"/>
	<circle cx="3342.12" cy="812.94" r="26.35" style="fill:#1A476F"/>
	<circle cx="3342.12" cy="812.94" r="22.03" style="fill:none;stroke:#1A476F;stroke-width:8.64"/>
	<circle cx="3342.86" cy="999.56" r="26.35" style="fill:#1A476F"/>
	<circle cx="3342.86" cy="999.56" r="22.03" style="fill:none;stroke:#1A476F;stroke-width:8.64"/>
	<circle cx="3350.90" cy="928.28" r="26.35" style="fill:#1A476F"/>
	<circle cx="3350.90" cy="928.28" r="22.03" style="fill:none;stroke:#1A476F;stroke-width:8.64"/>
	<circle cx="3361.05" cy="829.03" r="26.35" style="fill:#1A476F"/>
	<circle cx="3361.05" cy="829.03" r="22.03" style="fill:none;stroke:#1A476F;stroke-width:8.64"/>
	<circle cx="3367.61" cy="836.58" r="26.35" style="fill:#1A476F"/>
	<circle cx="3367.61" cy="836.58" r="22.03" style="fill:none;stroke:#1A476F;stroke-width:8.64"/>
	<circle cx="3368.60" cy="820.98" r="26.35" style="fill:#1A476F"/>
	<circle cx="3368.60" cy="820.98" r="22.03" style="fill:none;stroke:#1A476F;stroke-width:8.64"/>
	<circle cx="3421.69" cy="775.19" r="26.35" style="fill:#1A476F"/>
	<circle cx="3421.69" cy="775.19" r="22.03" style="fill:none;stroke:#1A476F;stroke-width:8.64"/>
	<circle cx="3452.38" cy="827.42" r="26.35" style="fill:#1A476F"/>
	<circle cx="3452.38" cy="827.42" r="22.03" style="fill:none;stroke:#1A476F;stroke-width:8.64"/>
	<circle cx="3474.28" cy="651.81" r="26.35" style="fill:#1A476F"/>
	<circle cx="3474.28" cy="651.81" r="22.03" style="fill:none;stroke:#1A476F;stroke-width:8.64"/>
	<circle cx="3483.07" cy="770.99" r="26.35" style="fill:#1A476F"/>
	<circle cx="3483.07" cy="770.99" r="22.03" style="fill:none;stroke:#1A476F;stroke-width:8.64"/>
	<circle cx="3488.64" cy="730.64" r="26.35" style="fill:#1A476F"/>
	<circle cx="3488.64" cy="730.64" r="22.03" style="fill:none;stroke:#1A476F;stroke-width:8.64"/>
	<circle cx="3514.13" cy="630.65" r="26.35" style="fill:#1A476F"/>
	<circle cx="3514.13" cy="630.65" r="22.03" style="fill:none;stroke:#1A476F;stroke-width:8.64"/>
	<circle cx="3530.34" cy="748.34" r="26.35" style="fill:#1A476F"/>
	<circle cx="3530.34" cy="748.34" r="22.03" style="fill:none;stroke:#1A476F;stroke-width:8.64"/>
	<circle cx="3577.86" cy="641.42" r="26.35" style="fill:#1A476F"/>
	<circle cx="3577.86" cy="641.42" r="22.03" style="fill:none;stroke:#1A476F;stroke-width:8.64"/>
	<circle cx="3587.02" cy="618.89" r="26.35" style="fill:#1A476F"/>
	<circle cx="3587.02" cy="618.89" r="22.03" style="fill:none;stroke:#1A476F;stroke-width:8.64"/>
	<circle cx="3652.73" cy="446.88" r="26.35" style="fill:#1A476F"/>
	<circle cx="3652.73" cy="446.88" r="22.03" style="fill:none;stroke:#1A476F;stroke-width:8.64"/>
	<circle cx="3703.59" cy="486.97" r="26.35" style="fill:#1A476F"/>
	<circle cx="3703.59" cy="486.97" r="22.03" style="fill:none;stroke:#1A476F;stroke-width:8.64"/>
	<line x1="390.80" y1="2489.19" x2="390.80" y2="100.86" style="stroke:#000000;stroke-width:5.76"/>
	<line x1="390.80" y1="2292.54" x2="350.83" y2="2292.54" style="stroke:#000000;stroke-width:5.76"/>
	<text x="300.72" y="2292.54" style="font-family:'Helvetica';font-size:99.99px;fill:#000000" transform="rotate(-90 300.72,2292.54)" text-anchor="middle">-2</text>
	<line x1="390.80" y1="1760.40" x2="350.83" y2="1760.40" style="stroke:#000000;stroke-width:5.76"/>
	<text x="300.72" y="1760.40" style="font-family:'Helvetica';font-size:99.99px;fill:#000000" transform="rotate(-90 300.72,1760.40)" text-anchor="middle">0</text>
	<line x1="390.80" y1="1228.38" x2="350.83" y2="1228.38" style="stroke:#000000;stroke-width:5.76"/>
	<text x="300.72" y="1228.38" style="font-family:'Helvetica';font-size:99.99px;fill:#000000" transform="rotate(-90 300.72,1228.38)" text-anchor="middle">2</text>
	<line x1="390.80" y1="696.24" x2="350.83" y2="696.24" style="stroke:#000000;stroke-width:5.76"/>
	<text x="300.72" y="696.24" style="font-family:'Helvetica';font-size:99.99px;fill:#000000" transform="rotate(-90 300.72,696.24)" text-anchor="middle">4</text>
	<line x1="390.80" y1="164.22" x2="350.83" y2="164.22" style="stroke:#000000;stroke-width:5.76"/>
	<text x="300.72" y="164.22" style="font-family:'Helvetica';font-size:99.99px;fill:#000000" transform="rotate(-90 300.72,164.22)" text-anchor="middle">6</text>
	<text x="190.71" y="1294.96" style="font-family:'Helvetica';font-size:99.99px;fill:#000000" transform="rotate(-90 190.71,1294.96)" text-anchor="middle">lntc</text>
	<line x1="390.80" y1="2489.19" x2="3859.02" y2="2489.19" style="stroke:#000000;stroke-width:5.76"/>
	<line x1="454.16" y1="2489.19" x2="454.16" y2="2529.16" style="stroke:#000000;stroke-width:5.76"/>
	<text x="454.16" y="2619.14" style="font-family:'Helvetica';font-size:99.99px;fill:#000000" text-anchor="middle">0</text>
	<line x1="1122.41" y1="2489.19" x2="1122.41" y2="2529.16" style="stroke:#000000;stroke-width:5.76"/>
	<text x="1122.41" y="2619.14" style="font-family:'Helvetica';font-size:99.99px;fill:#000000" text-anchor="middle">2</text>
	<line x1="1790.79" y1="2489.19" x2="1790.79" y2="2529.16" style="stroke:#000000;stroke-width:5.76"/>
	<text x="1790.79" y="2619.14" style="font-family:'Helvetica';font-size:99.99px;fill:#000000" text-anchor="middle">4</text>
	<line x1="2459.04" y1="2489.19" x2="2459.04" y2="2529.16" style="stroke:#000000;stroke-width:5.76"/>
	<text x="2459.04" y="2619.14" style="font-family:'Helvetica';font-size:99.99px;fill:#000000" text-anchor="middle">6</text>
	<line x1="3127.41" y1="2489.19" x2="3127.41" y2="2529.16" style="stroke:#000000;stroke-width:5.76"/>
	<text x="3127.41" y="2619.14" style="font-family:'Helvetica';font-size:99.99px;fill:#000000" text-anchor="middle">8</text>
	<line x1="3795.66" y1="2489.19" x2="3795.66" y2="2529.16" style="stroke:#000000;stroke-width:5.76"/>
	<text x="3795.66" y="2619.14" style="font-family:'Helvetica';font-size:99.99px;fill:#000000" text-anchor="middle">10</text>
	<text x="2124.91" y="2729.16" style="font-family:'Helvetica';font-size:99.99px;fill:#000000" text-anchor="middle">lnq</text>
</svg>
