<?xml version="1.0" encoding="UTF-8" standalone="no"?>
<!-- This is a Stata 15.0 generated SVG file (http://www.stata.com) -->

<svg version="1.1" width="600px" height="436px" viewBox="0 0 3960 2880" xmlns="http://www.w3.org/2000/svg" xmlns:xlink="http://www.w3.org/1999/xlink">
	<desc>Stata Graph - Graph</desc>
	<rect x="0" y="0" width="3960" height="2880" style="fill:#EAF2F3;stroke:none"/>
	<rect x="0.00" y="0.00" width="3959.88" height="2880.00" style="fill:#EAF2F3"/>
	<rect x="2.88" y="2.88" width="3954.12" height="2874.24" style="fill:none;stroke:#EAF2F3;stroke-width:5.76"/>
	<rect x="524.08" y="275.35" width="3334.94" height="2213.83" style="fill:#FFFFFF"/>
	<rect x="526.96" y="278.23" width="3329.18" height="2208.07" style="fill:none;stroke:#FFFFFF;stroke-width:5.76"/>
	<line x1="524.08" y1="2425.82" x2="3859.02" y2="2425.82" style="stroke:#EAF2F3;stroke-width:8.64"/>
	<line x1="524.08" y1="2039.34" x2="3859.02" y2="2039.34" style="stroke:#EAF2F3;stroke-width:8.64"/>
	<line x1="524.08" y1="1394.21" x2="3859.02" y2="1394.21" style="stroke:#EAF2F3;stroke-width:8.64"/>
	<line x1="524.08" y1="739.68" x2="3859.02" y2="739.68" style="stroke:#EAF2F3;stroke-width:8.64"/>
	<line x1="524.08" y1="338.71" x2="3859.02" y2="338.71" style="stroke:#EAF2F3;stroke-width:8.64"/>
	<line x1="587.44" y1="2343.90" x2="598.08" y2="2342.04" stroke-linecap="round" style="stroke:#1A476F;stroke-width:8.64"/>
	<line x1="598.08" y1="2342.04" x2="608.85" y2="2340.06" stroke-linecap="round" style="stroke:#1A476F;stroke-width:8.64"/>
	<line x1="608.85" y1="2340.06" x2="619.62" y2="2338.08" stroke-linecap="round" style="stroke:#1A476F;stroke-width:8.64"/>
	<line x1="619.62" y1="2338.08" x2="630.38" y2="2336.10" stroke-linecap="round" style="stroke:#1A476F;stroke-width:8.64"/>
	<line x1="630.38" y1="2336.10" x2="641.02" y2="2334.12" stroke-linecap="round" style="stroke:#1A476F;stroke-width:8.64"/>
	<line x1="641.02" y1="2334.12" x2="651.79" y2="2332.02" stroke-linecap="round" style="stroke:#1A476F;stroke-width:8.64"/>
	<line x1="651.79" y1="2332.02" x2="662.56" y2="2329.91" stroke-linecap="round" style="stroke:#1A476F;stroke-width:8.64"/>
	<line x1="662.56" y1="2329.91" x2="673.20" y2="2327.69" stroke-linecap="round" style="stroke:#1A476F;stroke-width:8.64"/>
	<line x1="673.20" y1="2327.69" x2="683.97" y2="2325.46" stroke-linecap="round" style="stroke:#1A476F;stroke-width:8.64"/>
	<line x1="683.97" y1="2325.46" x2="694.73" y2="2323.23" stroke-linecap="round" style="stroke:#1A476F;stroke-width:8.64"/>
	<line x1="694.73" y1="2323.23" x2="705.38" y2="2320.88" stroke-linecap="round" style="stroke:#1A476F;stroke-width:8.64"/>
	<line x1="705.38" y1="2320.88" x2="716.14" y2="2318.53" stroke-linecap="round" style="stroke:#1A476F;stroke-width:8.64"/>
	<line x1="716.14" y1="2318.53" x2="726.91" y2="2316.18" stroke-linecap="round" style="stroke:#1A476F;stroke-width:8.64"/>
	<line x1="726.91" y1="2316.18" x2="737.67" y2="2313.70" stroke-linecap="round" style="stroke:#1A476F;stroke-width:8.64"/>
	<line x1="737.67" y1="2313.70" x2="748.32" y2="2311.23" stroke-linecap="round" style="stroke:#1A476F;stroke-width:8.64"/>
	<line x1="748.32" y1="2311.23" x2="759.08" y2="2308.63" stroke-linecap="round" style="stroke:#1A476F;stroke-width:8.64"/>
	<line x1="759.08" y1="2308.63" x2="769.85" y2="2306.03" stroke-linecap="round" style="stroke:#1A476F;stroke-width:8.64"/>
	<line x1="769.85" y1="2306.03" x2="780.49" y2="2303.43" stroke-linecap="round" style="stroke:#1A476F;stroke-width:8.64"/>
	<line x1="780.49" y1="2303.43" x2="791.26" y2="2300.71" stroke-linecap="round" style="stroke:#1A476F;stroke-width:8.64"/>
	<line x1="791.26" y1="2300.71" x2="802.02" y2="2297.99" stroke-linecap="round" style="stroke:#1A476F;stroke-width:8.64"/>
	<line x1="802.02" y1="2297.99" x2="812.79" y2="2295.14" stroke-linecap="round" style="stroke:#1A476F;stroke-width:8.64"/>
	<line x1="812.79" y1="2295.14" x2="823.43" y2="2292.29" stroke-linecap="round" style="stroke:#1A476F;stroke-width:8.64"/>
	<line x1="823.43" y1="2292.29" x2="834.20" y2="2289.32" stroke-linecap="round" style="stroke:#1A476F;stroke-width:8.64"/>
	<line x1="834.20" y1="2289.32" x2="844.97" y2="2286.35" stroke-linecap="round" style="stroke:#1A476F;stroke-width:8.64"/>
	<line x1="844.97" y1="2286.35" x2="855.61" y2="2283.38" stroke-linecap="round" style="stroke:#1A476F;stroke-width:8.64"/>
	<line x1="855.61" y1="2283.38" x2="866.37" y2="2280.29" stroke-linecap="round" style="stroke:#1A476F;stroke-width:8.64"/>
	<line x1="866.37" y1="2280.29" x2="877.14" y2="2277.07" stroke-linecap="round" style="stroke:#1A476F;stroke-width:8.64"/>
	<line x1="877.14" y1="2277.07" x2="887.78" y2="2273.98" stroke-linecap="round" style="stroke:#1A476F;stroke-width:8.64"/>
	<line x1="887.78" y1="2273.98" x2="898.55" y2="2270.64" stroke-linecap="round" style="stroke:#1A476F;stroke-width:8.64"/>
	<line x1="898.55" y1="2270.64" x2="909.32" y2="2267.29" stroke-linecap="round" style="stroke:#1A476F;stroke-width:8.64"/>
	<line x1="909.32" y1="2267.29" x2="920.08" y2="2263.95" stroke-linecap="round" style="stroke:#1A476F;stroke-width:8.64"/>
	<line x1="920.08" y1="2263.95" x2="930.72" y2="2260.49" stroke-linecap="round" style="stroke:#1A476F;stroke-width:8.64"/>
	<line x1="930.72" y1="2260.49" x2="941.49" y2="2257.02" stroke-linecap="round" style="stroke:#1A476F;stroke-width:8.64"/>
	<line x1="941.49" y1="2257.02" x2="952.26" y2="2253.43" stroke-linecap="round" style="stroke:#1A476F;stroke-width:8.64"/>
	<line x1="952.26" y1="2253.43" x2="962.90" y2="2249.85" stroke-linecap="round" style="stroke:#1A476F;stroke-width:8.64"/>
	<line x1="962.90" y1="2249.85" x2="973.66" y2="2246.13" stroke-linecap="round" style="stroke:#1A476F;stroke-width:8.64"/>
	<line x1="973.66" y1="2246.13" x2="984.43" y2="2242.42" stroke-linecap="round" style="stroke:#1A476F;stroke-width:8.64"/>
	<line x1="984.43" y1="2242.42" x2="995.20" y2="2238.58" stroke-linecap="round" style="stroke:#1A476F;stroke-width:8.64"/>
	<line x1="995.20" y1="2238.58" x2="1005.84" y2="2234.75" stroke-linecap="round" style="stroke:#1A476F;stroke-width:8.64"/>
	<line x1="1005.84" y1="2234.75" x2="1016.61" y2="2230.79" stroke-linecap="round" style="stroke:#1A476F;stroke-width:8.64"/>
	<line x1="1016.61" y1="2230.79" x2="1027.37" y2="2226.70" stroke-linecap="round" style="stroke:#1A476F;stroke-width:8.64"/>
	<line x1="1027.37" y1="2226.70" x2="1038.02" y2="2222.62" stroke-linecap="round" style="stroke:#1A476F;stroke-width:8.64"/>
	<line x1="1038.02" y1="2222.62" x2="1048.78" y2="2218.54" stroke-linecap="round" style="stroke:#1A476F;stroke-width:8.64"/>
	<line x1="1048.78" y1="2218.54" x2="1059.55" y2="2214.33" stroke-linecap="round" style="stroke:#1A476F;stroke-width:8.64"/>
	<line x1="1059.55" y1="2214.33" x2="1070.31" y2="2210.00" stroke-linecap="round" style="stroke:#1A476F;stroke-width:8.64"/>
	<line x1="1070.31" y1="2210.00" x2="1080.96" y2="2205.67" stroke-linecap="round" style="stroke:#1A476F;stroke-width:8.64"/>
	<line x1="1080.96" y1="2205.67" x2="1091.72" y2="2201.21" stroke-linecap="round" style="stroke:#1A476F;stroke-width:8.64"/>
	<line x1="1091.72" y1="2201.21" x2="1102.49" y2="2196.75" stroke-linecap="round" style="stroke:#1A476F;stroke-width:8.64"/>
	<line x1="1102.49" y1="2196.75" x2="1113.13" y2="2192.18" stroke-linecap="round" style="stroke:#1A476F;stroke-width:8.64"/>
	<line x1="1113.13" y1="2192.18" x2="1123.90" y2="2187.47" stroke-linecap="round" style="stroke:#1A476F;stroke-width:8.64"/>
	<line x1="1123.90" y1="2187.47" x2="1134.66" y2="2182.77" stroke-linecap="round" style="stroke:#1A476F;stroke-width:8.64"/>
	<line x1="1134.66" y1="2182.77" x2="1145.31" y2="2178.07" stroke-linecap="round" style="stroke:#1A476F;stroke-width:8.64"/>
	<line x1="1145.31" y1="2178.07" x2="1156.07" y2="2173.12" stroke-linecap="round" style="stroke:#1A476F;stroke-width:8.64"/>
	<line x1="1156.07" y1="2173.12" x2="1166.84" y2="2168.29" stroke-linecap="round" style="stroke:#1A476F;stroke-width:8.64"/>
	<line x1="1166.84" y1="2168.29" x2="1177.61" y2="2163.22" stroke-linecap="round" style="stroke:#1A476F;stroke-width:8.64"/>
	<line x1="1177.61" y1="2163.22" x2="1188.25" y2="2158.14" stroke-linecap="round" style="stroke:#1A476F;stroke-width:8.64"/>
	<line x1="1188.25" y1="2158.14" x2="1199.01" y2="2153.07" stroke-linecap="round" style="stroke:#1A476F;stroke-width:8.64"/>
	<line x1="1199.01" y1="2153.07" x2="1209.78" y2="2147.75" stroke-linecap="round" style="stroke:#1A476F;stroke-width:8.64"/>
	<line x1="1209.78" y1="2147.75" x2="1220.42" y2="2142.55" stroke-linecap="round" style="stroke:#1A476F;stroke-width:8.64"/>
	<line x1="1220.42" y1="2142.55" x2="1231.19" y2="2137.11" stroke-linecap="round" style="stroke:#1A476F;stroke-width:8.64"/>
	<line x1="1231.19" y1="2137.11" x2="1241.95" y2="2131.66" stroke-linecap="round" style="stroke:#1A476F;stroke-width:8.64"/>
	<line x1="1241.95" y1="2131.66" x2="1252.72" y2="2126.22" stroke-linecap="round" style="stroke:#1A476F;stroke-width:8.64"/>
	<line x1="1252.72" y1="2126.22" x2="1263.36" y2="2120.52" stroke-linecap="round" style="stroke:#1A476F;stroke-width:8.64"/>
	<line x1="1263.36" y1="2120.52" x2="1274.13" y2="2114.95" stroke-linecap="round" style="stroke:#1A476F;stroke-width:8.64"/>
	<line x1="1274.13" y1="2114.95" x2="1284.90" y2="2109.14" stroke-linecap="round" style="stroke:#1A476F;stroke-width:8.64"/>
	<line x1="1284.90" y1="2109.14" x2="1295.54" y2="2103.32" stroke-linecap="round" style="stroke:#1A476F;stroke-width:8.64"/>
	<line x1="1295.54" y1="2103.32" x2="1306.31" y2="2097.38" stroke-linecap="round" style="stroke:#1A476F;stroke-width:8.64"/>
	<line x1="1306.31" y1="2097.38" x2="1317.07" y2="2091.44" stroke-linecap="round" style="stroke:#1A476F;stroke-width:8.64"/>
	<line x1="1317.07" y1="2091.44" x2="1327.71" y2="2085.38" stroke-linecap="round" style="stroke:#1A476F;stroke-width:8.64"/>
	<line x1="1327.71" y1="2085.38" x2="1338.48" y2="2079.31" stroke-linecap="round" style="stroke:#1A476F;stroke-width:8.64"/>
	<line x1="1338.48" y1="2079.31" x2="1349.25" y2="2073.12" stroke-linecap="round" style="stroke:#1A476F;stroke-width:8.64"/>
	<line x1="1349.25" y1="2073.12" x2="1360.01" y2="2066.81" stroke-linecap="round" style="stroke:#1A476F;stroke-width:8.64"/>
	<line x1="1360.01" y1="2066.81" x2="1370.66" y2="2060.50" stroke-linecap="round" style="stroke:#1A476F;stroke-width:8.64"/>
	<line x1="1370.66" y1="2060.50" x2="1381.42" y2="2054.07" stroke-linecap="round" style="stroke:#1A476F;stroke-width:8.64"/>
	<line x1="1381.42" y1="2054.07" x2="1392.19" y2="2047.51" stroke-linecap="round" style="stroke:#1A476F;stroke-width:8.64"/>
	<line x1="1392.19" y1="2047.51" x2="1402.83" y2="2040.95" stroke-linecap="round" style="stroke:#1A476F;stroke-width:8.64"/>
	<line x1="1402.83" y1="2040.95" x2="1413.60" y2="2034.27" stroke-linecap="round" style="stroke:#1A476F;stroke-width:8.64"/>
	<line x1="1413.60" y1="2034.27" x2="1424.36" y2="2027.58" stroke-linecap="round" style="stroke:#1A476F;stroke-width:8.64"/>
	<line x1="1424.36" y1="2027.58" x2="1435.13" y2="2020.78" stroke-linecap="round" style="stroke:#1A476F;stroke-width:8.64"/>
	<line x1="1435.13" y1="2020.78" x2="1445.77" y2="2013.97" stroke-linecap="round" style="stroke:#1A476F;stroke-width:8.64"/>
	<line x1="1445.77" y1="2013.97" x2="1456.54" y2="2006.92" stroke-linecap="round" style="stroke:#1A476F;stroke-width:8.64"/>
	<line x1="1456.54" y1="2006.92" x2="1467.30" y2="1999.99" stroke-linecap="round" style="stroke:#1A476F;stroke-width:8.64"/>
	<line x1="1467.30" y1="1999.99" x2="1477.95" y2="1992.81" stroke-linecap="round" style="stroke:#1A476F;stroke-width:8.64"/>
	<line x1="1477.95" y1="1992.81" x2="1488.71" y2="1985.63" stroke-linecap="round" style="stroke:#1A476F;stroke-width:8.64"/>
	<line x1="1488.71" y1="1985.63" x2="1499.48" y2="1978.45" stroke-linecap="round" style="stroke:#1A476F;stroke-width:8.64"/>
	<line x1="1499.48" y1="1978.45" x2="1510.12" y2="1971.15" stroke-linecap="round" style="stroke:#1A476F;stroke-width:8.64"/>
	<line x1="1510.12" y1="1971.15" x2="1520.89" y2="1963.73" stroke-linecap="round" style="stroke:#1A476F;stroke-width:8.64"/>
	<line x1="1520.89" y1="1963.73" x2="1531.65" y2="1956.30" stroke-linecap="round" style="stroke:#1A476F;stroke-width:8.64"/>
	<line x1="1531.65" y1="1956.30" x2="1542.42" y2="1948.75" stroke-linecap="round" style="stroke:#1A476F;stroke-width:8.64"/>
	<line x1="1542.42" y1="1948.75" x2="1553.06" y2="1941.20" stroke-linecap="round" style="stroke:#1A476F;stroke-width:8.64"/>
	<line x1="1553.06" y1="1941.20" x2="1563.83" y2="1933.53" stroke-linecap="round" style="stroke:#1A476F;stroke-width:8.64"/>
	<line x1="1563.83" y1="1933.53" x2="1574.60" y2="1925.73" stroke-linecap="round" style="stroke:#1A476F;stroke-width:8.64"/>
	<line x1="1574.60" y1="1925.73" x2="1585.24" y2="1917.94" stroke-linecap="round" style="stroke:#1A476F;stroke-width:8.64"/>
	<line x1="1585.24" y1="1917.94" x2="1596.00" y2="1910.14" stroke-linecap="round" style="stroke:#1A476F;stroke-width:8.64"/>
	<line x1="1596.00" y1="1910.14" x2="1606.77" y2="1902.10" stroke-linecap="round" style="stroke:#1A476F;stroke-width:8.64"/>
	<line x1="1606.77" y1="1902.10" x2="1617.54" y2="1894.18" stroke-linecap="round" style="stroke:#1A476F;stroke-width:8.64"/>
	<line x1="1617.54" y1="1894.18" x2="1628.18" y2="1886.13" stroke-linecap="round" style="stroke:#1A476F;stroke-width:8.64"/>
	<line x1="1628.18" y1="1886.13" x2="1638.94" y2="1877.96" stroke-linecap="round" style="stroke:#1A476F;stroke-width:8.64"/>
	<line x1="1638.94" y1="1877.96" x2="1649.71" y2="1869.80" stroke-linecap="round" style="stroke:#1A476F;stroke-width:8.64"/>
	<line x1="1649.71" y1="1869.80" x2="1660.35" y2="1861.51" stroke-linecap="round" style="stroke:#1A476F;stroke-width:8.64"/>
	<line x1="1660.35" y1="1861.51" x2="1671.12" y2="1853.09" stroke-linecap="round" style="stroke:#1A476F;stroke-width:8.64"/>
	<line x1="1671.12" y1="1853.09" x2="1681.89" y2="1844.80" stroke-linecap="round" style="stroke:#1A476F;stroke-width:8.64"/>
	<line x1="1681.89" y1="1844.80" x2="1692.53" y2="1836.26" stroke-linecap="round" style="stroke:#1A476F;stroke-width:8.64"/>
	<line x1="1692.53" y1="1836.26" x2="1703.30" y2="1827.84" stroke-linecap="round" style="stroke:#1A476F;stroke-width:8.64"/>
	<line x1="1703.30" y1="1827.84" x2="1714.06" y2="1819.18" stroke-linecap="round" style="stroke:#1A476F;stroke-width:8.64"/>
	<line x1="1714.06" y1="1819.18" x2="1724.83" y2="1810.64" stroke-linecap="round" style="stroke:#1A476F;stroke-width:8.64"/>
	<line x1="1724.83" y1="1810.64" x2="1735.47" y2="1801.86" stroke-linecap="round" style="stroke:#1A476F;stroke-width:8.64"/>
	<line x1="1735.47" y1="1801.86" x2="1746.24" y2="1793.19" stroke-linecap="round" style="stroke:#1A476F;stroke-width:8.64"/>
	<line x1="1746.24" y1="1793.19" x2="1757.00" y2="1784.41" stroke-linecap="round" style="stroke:#1A476F;stroke-width:8.64"/>
	<line x1="1757.00" y1="1784.41" x2="1767.65" y2="1775.50" stroke-linecap="round" style="stroke:#1A476F;stroke-width:8.64"/>
	<line x1="1767.65" y1="1775.50" x2="1778.41" y2="1766.59" stroke-linecap="round" style="stroke:#1A476F;stroke-width:8.64"/>
	<line x1="1778.41" y1="1766.59" x2="1789.18" y2="1757.68" stroke-linecap="round" style="stroke:#1A476F;stroke-width:8.64"/>
	<line x1="1789.18" y1="1757.68" x2="1799.94" y2="1748.64" stroke-linecap="round" style="stroke:#1A476F;stroke-width:8.64"/>
	<line x1="1799.94" y1="1748.64" x2="1810.59" y2="1739.48" stroke-linecap="round" style="stroke:#1A476F;stroke-width:8.64"/>
	<line x1="1810.59" y1="1739.48" x2="1821.35" y2="1730.45" stroke-linecap="round" style="stroke:#1A476F;stroke-width:8.64"/>
	<line x1="1821.35" y1="1730.45" x2="1832.12" y2="1721.29" stroke-linecap="round" style="stroke:#1A476F;stroke-width:8.64"/>
	<line x1="1832.12" y1="1721.29" x2="1842.76" y2="1712.01" stroke-linecap="round" style="stroke:#1A476F;stroke-width:8.64"/>
	<line x1="1842.76" y1="1712.01" x2="1853.53" y2="1702.73" stroke-linecap="round" style="stroke:#1A476F;stroke-width:8.64"/>
	<line x1="1853.53" y1="1702.73" x2="1864.29" y2="1693.45" stroke-linecap="round" style="stroke:#1A476F;stroke-width:8.64"/>
	<line x1="1864.29" y1="1693.45" x2="1875.06" y2="1684.17" stroke-linecap="round" style="stroke:#1A476F;stroke-width:8.64"/>
	<line x1="1875.06" y1="1684.17" x2="1885.70" y2="1674.76" stroke-linecap="round" style="stroke:#1A476F;stroke-width:8.64"/>
	<line x1="1885.70" y1="1674.76" x2="1896.47" y2="1665.36" stroke-linecap="round" style="stroke:#1A476F;stroke-width:8.64"/>
	<line x1="1896.47" y1="1665.36" x2="1907.23" y2="1655.83" stroke-linecap="round" style="stroke:#1A476F;stroke-width:8.64"/>
	<line x1="1907.23" y1="1655.83" x2="1917.88" y2="1646.30" stroke-linecap="round" style="stroke:#1A476F;stroke-width:8.64"/>
	<line x1="1917.88" y1="1646.30" x2="1928.64" y2="1636.77" stroke-linecap="round" style="stroke:#1A476F;stroke-width:8.64"/>
	<line x1="1928.64" y1="1636.77" x2="1939.41" y2="1627.12" stroke-linecap="round" style="stroke:#1A476F;stroke-width:8.64"/>
	<line x1="1939.41" y1="1627.12" x2="1950.05" y2="1617.46" stroke-linecap="round" style="stroke:#1A476F;stroke-width:8.64"/>
	<line x1="1950.05" y1="1617.46" x2="1960.82" y2="1607.81" stroke-linecap="round" style="stroke:#1A476F;stroke-width:8.64"/>
	<line x1="1960.82" y1="1607.81" x2="1971.59" y2="1598.16" stroke-linecap="round" style="stroke:#1A476F;stroke-width:8.64"/>
	<line x1="1971.59" y1="1598.16" x2="1982.35" y2="1588.38" stroke-linecap="round" style="stroke:#1A476F;stroke-width:8.64"/>
	<line x1="1982.35" y1="1588.38" x2="1992.99" y2="1578.73" stroke-linecap="round" style="stroke:#1A476F;stroke-width:8.64"/>
	<line x1="1992.99" y1="1578.73" x2="2003.76" y2="1568.83" stroke-linecap="round" style="stroke:#1A476F;stroke-width:8.64"/>
	<line x1="2003.76" y1="1568.83" x2="2014.53" y2="1559.05" stroke-linecap="round" style="stroke:#1A476F;stroke-width:8.64"/>
	<line x1="2014.53" y1="1559.05" x2="2025.17" y2="1549.27" stroke-linecap="round" style="stroke:#1A476F;stroke-width:8.64"/>
	<line x1="2025.17" y1="1549.27" x2="2035.93" y2="1539.37" stroke-linecap="round" style="stroke:#1A476F;stroke-width:8.64"/>
	<line x1="2035.93" y1="1539.37" x2="2046.70" y2="1529.47" stroke-linecap="round" style="stroke:#1A476F;stroke-width:8.64"/>
	<line x1="2046.70" y1="1529.47" x2="2057.47" y2="1519.57" stroke-linecap="round" style="stroke:#1A476F;stroke-width:8.64"/>
	<line x1="2057.47" y1="1519.57" x2="2068.11" y2="1509.55" stroke-linecap="round" style="stroke:#1A476F;stroke-width:8.64"/>
	<line x1="2068.11" y1="1509.55" x2="2078.88" y2="1499.65" stroke-linecap="round" style="stroke:#1A476F;stroke-width:8.64"/>
	<line x1="2078.88" y1="1499.65" x2="2089.64" y2="1489.63" stroke-linecap="round" style="stroke:#1A476F;stroke-width:8.64"/>
	<line x1="2089.64" y1="1489.63" x2="2100.28" y2="1479.72" stroke-linecap="round" style="stroke:#1A476F;stroke-width:8.64"/>
	<line x1="2100.28" y1="1479.72" x2="2111.05" y2="1469.70" stroke-linecap="round" style="stroke:#1A476F;stroke-width:8.64"/>
	<line x1="2111.05" y1="1469.70" x2="2121.82" y2="1459.68" stroke-linecap="round" style="stroke:#1A476F;stroke-width:8.64"/>
	<line x1="2121.82" y1="1459.68" x2="2132.46" y2="1449.65" stroke-linecap="round" style="stroke:#1A476F;stroke-width:8.64"/>
	<line x1="2132.46" y1="1449.65" x2="2143.23" y2="1439.63" stroke-linecap="round" style="stroke:#1A476F;stroke-width:8.64"/>
	<line x1="2143.23" y1="1439.63" x2="2153.99" y2="1429.48" stroke-linecap="round" style="stroke:#1A476F;stroke-width:8.64"/>
	<line x1="2153.99" y1="1429.48" x2="2164.76" y2="1419.46" stroke-linecap="round" style="stroke:#1A476F;stroke-width:8.64"/>
	<line x1="2164.76" y1="1419.46" x2="2175.40" y2="1409.43" stroke-linecap="round" style="stroke:#1A476F;stroke-width:8.64"/>
	<line x1="2175.40" y1="1409.43" x2="2186.17" y2="1399.28" stroke-linecap="round" style="stroke:#1A476F;stroke-width:8.64"/>
	<line x1="2186.17" y1="1399.28" x2="2196.93" y2="1389.26" stroke-linecap="round" style="stroke:#1A476F;stroke-width:8.64"/>
	<line x1="2196.93" y1="1389.26" x2="2207.58" y2="1379.11" stroke-linecap="round" style="stroke:#1A476F;stroke-width:8.64"/>
	<line x1="2207.58" y1="1379.11" x2="2218.34" y2="1369.09" stroke-linecap="round" style="stroke:#1A476F;stroke-width:8.64"/>
	<line x1="2218.34" y1="1369.09" x2="2229.11" y2="1359.06" stroke-linecap="round" style="stroke:#1A476F;stroke-width:8.64"/>
	<line x1="2229.11" y1="1359.06" x2="2239.88" y2="1348.92" stroke-linecap="round" style="stroke:#1A476F;stroke-width:8.64"/>
	<line x1="2239.88" y1="1348.92" x2="2250.52" y2="1338.89" stroke-linecap="round" style="stroke:#1A476F;stroke-width:8.64"/>
	<line x1="2250.52" y1="1338.89" x2="2261.28" y2="1328.75" stroke-linecap="round" style="stroke:#1A476F;stroke-width:8.64"/>
	<line x1="2261.28" y1="1328.75" x2="2272.05" y2="1318.72" stroke-linecap="round" style="stroke:#1A476F;stroke-width:8.64"/>
	<line x1="2272.05" y1="1318.72" x2="2282.69" y2="1308.70" stroke-linecap="round" style="stroke:#1A476F;stroke-width:8.64"/>
	<line x1="2282.69" y1="1308.70" x2="2293.46" y2="1298.67" stroke-linecap="round" style="stroke:#1A476F;stroke-width:8.64"/>
	<line x1="2293.46" y1="1298.67" x2="2304.22" y2="1288.65" stroke-linecap="round" style="stroke:#1A476F;stroke-width:8.64"/>
	<line x1="2304.22" y1="1288.65" x2="2314.87" y2="1278.62" stroke-linecap="round" style="stroke:#1A476F;stroke-width:8.64"/>
	<line x1="2314.87" y1="1278.62" x2="2325.63" y2="1268.60" stroke-linecap="round" style="stroke:#1A476F;stroke-width:8.64"/>
	<line x1="2325.63" y1="1268.60" x2="2336.40" y2="1258.58" stroke-linecap="round" style="stroke:#1A476F;stroke-width:8.64"/>
	<line x1="2336.40" y1="1258.58" x2="2347.17" y2="1248.68" stroke-linecap="round" style="stroke:#1A476F;stroke-width:8.64"/>
	<line x1="2347.17" y1="1248.68" x2="2357.81" y2="1238.65" stroke-linecap="round" style="stroke:#1A476F;stroke-width:8.64"/>
	<line x1="2357.81" y1="1238.65" x2="2368.57" y2="1228.75" stroke-linecap="round" style="stroke:#1A476F;stroke-width:8.64"/>
	<line x1="2368.57" y1="1228.75" x2="2379.34" y2="1218.85" stroke-linecap="round" style="stroke:#1A476F;stroke-width:8.64"/>
	<line x1="2379.34" y1="1218.85" x2="2389.98" y2="1208.95" stroke-linecap="round" style="stroke:#1A476F;stroke-width:8.64"/>
	<line x1="2389.98" y1="1208.95" x2="2400.75" y2="1199.17" stroke-linecap="round" style="stroke:#1A476F;stroke-width:8.64"/>
	<line x1="2400.75" y1="1199.17" x2="2411.52" y2="1189.27" stroke-linecap="round" style="stroke:#1A476F;stroke-width:8.64"/>
	<line x1="2411.52" y1="1189.27" x2="2422.28" y2="1179.50" stroke-linecap="round" style="stroke:#1A476F;stroke-width:8.64"/>
	<line x1="2422.28" y1="1179.50" x2="2432.93" y2="1169.72" stroke-linecap="round" style="stroke:#1A476F;stroke-width:8.64"/>
	<line x1="2432.93" y1="1169.72" x2="2443.69" y2="1159.94" stroke-linecap="round" style="stroke:#1A476F;stroke-width:8.64"/>
	<line x1="2443.69" y1="1159.94" x2="2454.46" y2="1150.29" stroke-linecap="round" style="stroke:#1A476F;stroke-width:8.64"/>
	<line x1="2454.46" y1="1150.29" x2="2465.10" y2="1140.64" stroke-linecap="round" style="stroke:#1A476F;stroke-width:8.64"/>
	<line x1="2465.10" y1="1140.64" x2="2475.87" y2="1130.99" stroke-linecap="round" style="stroke:#1A476F;stroke-width:8.64"/>
	<line x1="2475.87" y1="1130.99" x2="2486.63" y2="1121.33" stroke-linecap="round" style="stroke:#1A476F;stroke-width:8.64"/>
	<line x1="2486.63" y1="1121.33" x2="2497.28" y2="1111.80" stroke-linecap="round" style="stroke:#1A476F;stroke-width:8.64"/>
	<line x1="2497.28" y1="1111.80" x2="2508.04" y2="1102.28" stroke-linecap="round" style="stroke:#1A476F;stroke-width:8.64"/>
	<line x1="2508.04" y1="1102.28" x2="2518.81" y2="1092.75" stroke-linecap="round" style="stroke:#1A476F;stroke-width:8.64"/>
	<line x1="2518.81" y1="1092.75" x2="2529.57" y2="1083.34" stroke-linecap="round" style="stroke:#1A476F;stroke-width:8.64"/>
	<line x1="2529.57" y1="1083.34" x2="2540.22" y2="1073.94" stroke-linecap="round" style="stroke:#1A476F;stroke-width:8.64"/>
	<line x1="2540.22" y1="1073.94" x2="2550.98" y2="1064.53" stroke-linecap="round" style="stroke:#1A476F;stroke-width:8.64"/>
	<line x1="2550.98" y1="1064.53" x2="2561.75" y2="1055.25" stroke-linecap="round" style="stroke:#1A476F;stroke-width:8.64"/>
	<line x1="2561.75" y1="1055.25" x2="2572.39" y2="1045.97" stroke-linecap="round" style="stroke:#1A476F;stroke-width:8.64"/>
	<line x1="2572.39" y1="1045.97" x2="2583.16" y2="1036.81" stroke-linecap="round" style="stroke:#1A476F;stroke-width:8.64"/>
	<line x1="2583.16" y1="1036.81" x2="2593.92" y2="1027.65" stroke-linecap="round" style="stroke:#1A476F;stroke-width:8.64"/>
	<line x1="2593.92" y1="1027.65" x2="2604.69" y2="1018.49" stroke-linecap="round" style="stroke:#1A476F;stroke-width:8.64"/>
	<line x1="2604.69" y1="1018.49" x2="2615.33" y2="1009.46" stroke-linecap="round" style="stroke:#1A476F;stroke-width:8.64"/>
	<line x1="2615.33" y1="1009.46" x2="2626.10" y2="1000.43" stroke-linecap="round" style="stroke:#1A476F;stroke-width:8.64"/>
	<line x1="2626.10" y1="1000.43" x2="2636.86" y2="991.39" stroke-linecap="round" style="stroke:#1A476F;stroke-width:8.64"/>
	<line x1="2636.86" y1="991.39" x2="2647.51" y2="982.48" stroke-linecap="round" style="stroke:#1A476F;stroke-width:8.64"/>
	<line x1="2647.51" y1="982.48" x2="2658.27" y2="973.70" stroke-linecap="round" style="stroke:#1A476F;stroke-width:8.64"/>
	<line x1="2658.27" y1="973.70" x2="2669.04" y2="964.91" stroke-linecap="round" style="stroke:#1A476F;stroke-width:8.64"/>
	<line x1="2669.04" y1="964.91" x2="2679.81" y2="956.12" stroke-linecap="round" style="stroke:#1A476F;stroke-width:8.64"/>
	<line x1="2679.81" y1="956.12" x2="2690.45" y2="947.46" stroke-linecap="round" style="stroke:#1A476F;stroke-width:8.64"/>
	<line x1="2690.45" y1="947.46" x2="2701.22" y2="938.80" stroke-linecap="round" style="stroke:#1A476F;stroke-width:8.64"/>
	<line x1="2701.22" y1="938.80" x2="2711.98" y2="930.26" stroke-linecap="round" style="stroke:#1A476F;stroke-width:8.64"/>
	<line x1="2711.98" y1="930.26" x2="2722.62" y2="921.72" stroke-linecap="round" style="stroke:#1A476F;stroke-width:8.64"/>
	<line x1="2722.62" y1="921.72" x2="2733.39" y2="913.30" stroke-linecap="round" style="stroke:#1A476F;stroke-width:8.64"/>
	<line x1="2733.39" y1="913.30" x2="2744.16" y2="904.89" stroke-linecap="round" style="stroke:#1A476F;stroke-width:8.64"/>
	<line x1="2744.16" y1="904.89" x2="2754.80" y2="896.60" stroke-linecap="round" style="stroke:#1A476F;stroke-width:8.64"/>
	<line x1="2754.80" y1="896.60" x2="2765.57" y2="888.43" stroke-linecap="round" style="stroke:#1A476F;stroke-width:8.64"/>
	<line x1="2765.57" y1="888.43" x2="2776.33" y2="880.26" stroke-linecap="round" style="stroke:#1A476F;stroke-width:8.64"/>
	<line x1="2776.33" y1="880.26" x2="2787.10" y2="872.09" stroke-linecap="round" style="stroke:#1A476F;stroke-width:8.64"/>
	<line x1="2787.10" y1="872.09" x2="2797.74" y2="864.05" stroke-linecap="round" style="stroke:#1A476F;stroke-width:8.64"/>
	<line x1="2797.74" y1="864.05" x2="2808.51" y2="856.01" stroke-linecap="round" style="stroke:#1A476F;stroke-width:8.64"/>
	<line x1="2808.51" y1="856.01" x2="2819.27" y2="848.21" stroke-linecap="round" style="stroke:#1A476F;stroke-width:8.64"/>
	<line x1="2819.27" y1="848.21" x2="2829.92" y2="840.29" stroke-linecap="round" style="stroke:#1A476F;stroke-width:8.64"/>
	<line x1="2829.92" y1="840.29" x2="2840.68" y2="832.49" stroke-linecap="round" style="stroke:#1A476F;stroke-width:8.64"/>
	<line x1="2840.68" y1="832.49" x2="2851.45" y2="824.82" stroke-linecap="round" style="stroke:#1A476F;stroke-width:8.64"/>
	<line x1="2851.45" y1="824.82" x2="2862.21" y2="817.15" stroke-linecap="round" style="stroke:#1A476F;stroke-width:8.64"/>
	<line x1="2862.21" y1="817.15" x2="2872.86" y2="809.60" stroke-linecap="round" style="stroke:#1A476F;stroke-width:8.64"/>
	<line x1="2872.86" y1="809.60" x2="2883.62" y2="802.17" stroke-linecap="round" style="stroke:#1A476F;stroke-width:8.64"/>
	<line x1="2883.62" y1="802.17" x2="2894.39" y2="794.75" stroke-linecap="round" style="stroke:#1A476F;stroke-width:8.64"/>
	<line x1="2894.39" y1="794.75" x2="2905.03" y2="787.45" stroke-linecap="round" style="stroke:#1A476F;stroke-width:8.64"/>
	<line x1="2905.03" y1="787.45" x2="2915.80" y2="780.14" stroke-linecap="round" style="stroke:#1A476F;stroke-width:8.64"/>
	<line x1="2915.80" y1="780.14" x2="2926.56" y2="772.97" stroke-linecap="round" style="stroke:#1A476F;stroke-width:8.64"/>
	<line x1="2926.56" y1="772.97" x2="2937.21" y2="765.79" stroke-linecap="round" style="stroke:#1A476F;stroke-width:8.64"/>
	<line x1="2937.21" y1="765.79" x2="2947.97" y2="758.73" stroke-linecap="round" style="stroke:#1A476F;stroke-width:8.64"/>
	<line x1="2947.97" y1="758.73" x2="2958.74" y2="751.80" stroke-linecap="round" style="stroke:#1A476F;stroke-width:8.64"/>
	<line x1="2958.74" y1="751.80" x2="2969.51" y2="744.87" stroke-linecap="round" style="stroke:#1A476F;stroke-width:8.64"/>
	<line x1="2969.51" y1="744.87" x2="2980.15" y2="738.07" stroke-linecap="round" style="stroke:#1A476F;stroke-width:8.64"/>
	<line x1="2980.15" y1="738.07" x2="2990.91" y2="731.26" stroke-linecap="round" style="stroke:#1A476F;stroke-width:8.64"/>
	<line x1="2990.91" y1="731.26" x2="3001.68" y2="724.70" stroke-linecap="round" style="stroke:#1A476F;stroke-width:8.64"/>
	<line x1="3001.68" y1="724.70" x2="3012.32" y2="718.02" stroke-linecap="round" style="stroke:#1A476F;stroke-width:8.64"/>
	<line x1="3012.32" y1="718.02" x2="3023.09" y2="711.58" stroke-linecap="round" style="stroke:#1A476F;stroke-width:8.64"/>
	<line x1="3023.09" y1="711.58" x2="3033.86" y2="705.15" stroke-linecap="round" style="stroke:#1A476F;stroke-width:8.64"/>
	<line x1="3033.86" y1="705.15" x2="3044.62" y2="698.71" stroke-linecap="round" style="stroke:#1A476F;stroke-width:8.64"/>
	<line x1="3044.62" y1="698.71" x2="3055.26" y2="692.40" stroke-linecap="round" style="stroke:#1A476F;stroke-width:8.64"/>
	<line x1="3055.26" y1="692.40" x2="3066.03" y2="686.22" stroke-linecap="round" style="stroke:#1A476F;stroke-width:8.64"/>
	<line x1="3066.03" y1="686.22" x2="3076.80" y2="680.03" stroke-linecap="round" style="stroke:#1A476F;stroke-width:8.64"/>
	<line x1="3076.80" y1="680.03" x2="3087.44" y2="673.96" stroke-linecap="round" style="stroke:#1A476F;stroke-width:8.64"/>
	<line x1="3087.44" y1="673.96" x2="3098.20" y2="668.02" stroke-linecap="round" style="stroke:#1A476F;stroke-width:8.64"/>
	<line x1="3098.20" y1="668.02" x2="3108.97" y2="662.08" stroke-linecap="round" style="stroke:#1A476F;stroke-width:8.64"/>
	<line x1="3108.97" y1="662.08" x2="3119.61" y2="656.27" stroke-linecap="round" style="stroke:#1A476F;stroke-width:8.64"/>
	<line x1="3119.61" y1="656.27" x2="3130.38" y2="650.57" stroke-linecap="round" style="stroke:#1A476F;stroke-width:8.64"/>
	<line x1="3130.38" y1="650.57" x2="3141.15" y2="644.88" stroke-linecap="round" style="stroke:#1A476F;stroke-width:8.64"/>
	<line x1="3141.15" y1="644.88" x2="3151.91" y2="639.31" stroke-linecap="round" style="stroke:#1A476F;stroke-width:8.64"/>
	<line x1="3151.91" y1="639.31" x2="3162.55" y2="633.74" stroke-linecap="round" style="stroke:#1A476F;stroke-width:8.64"/>
	<line x1="3162.55" y1="633.74" x2="3173.32" y2="628.30" stroke-linecap="round" style="stroke:#1A476F;stroke-width:8.64"/>
	<line x1="3173.32" y1="628.30" x2="3184.09" y2="622.85" stroke-linecap="round" style="stroke:#1A476F;stroke-width:8.64"/>
	<line x1="3184.09" y1="622.85" x2="3194.73" y2="617.66" stroke-linecap="round" style="stroke:#1A476F;stroke-width:8.64"/>
	<line x1="3194.73" y1="617.66" x2="3205.50" y2="612.33" stroke-linecap="round" style="stroke:#1A476F;stroke-width:8.64"/>
	<line x1="3205.50" y1="612.33" x2="3216.26" y2="607.26" stroke-linecap="round" style="stroke:#1A476F;stroke-width:8.64"/>
	<line x1="3216.26" y1="607.26" x2="3227.03" y2="602.19" stroke-linecap="round" style="stroke:#1A476F;stroke-width:8.64"/>
	<line x1="3227.03" y1="602.19" x2="3237.67" y2="597.11" stroke-linecap="round" style="stroke:#1A476F;stroke-width:8.64"/>
	<line x1="3237.67" y1="597.11" x2="3248.44" y2="592.16" stroke-linecap="round" style="stroke:#1A476F;stroke-width:8.64"/>
	<line x1="3248.44" y1="592.16" x2="3259.20" y2="587.34" stroke-linecap="round" style="stroke:#1A476F;stroke-width:8.64"/>
	<line x1="3259.20" y1="587.34" x2="3269.85" y2="582.51" stroke-linecap="round" style="stroke:#1A476F;stroke-width:8.64"/>
	<line x1="3269.85" y1="582.51" x2="3280.61" y2="577.81" stroke-linecap="round" style="stroke:#1A476F;stroke-width:8.64"/>
	<line x1="3280.61" y1="577.81" x2="3291.38" y2="573.23" stroke-linecap="round" style="stroke:#1A476F;stroke-width:8.64"/>
	<line x1="3291.38" y1="573.23" x2="3302.02" y2="568.65" stroke-linecap="round" style="stroke:#1A476F;stroke-width:8.64"/>
	<line x1="3302.02" y1="568.65" x2="3312.79" y2="564.07" stroke-linecap="round" style="stroke:#1A476F;stroke-width:8.64"/>
	<line x1="3312.79" y1="564.07" x2="3323.55" y2="559.74" stroke-linecap="round" style="stroke:#1A476F;stroke-width:8.64"/>
	<line x1="3323.55" y1="559.74" x2="3334.32" y2="555.28" stroke-linecap="round" style="stroke:#1A476F;stroke-width:8.64"/>
	<line x1="3334.32" y1="555.28" x2="3344.96" y2="551.08" stroke-linecap="round" style="stroke:#1A476F;stroke-width:8.64"/>
	<line x1="3344.96" y1="551.08" x2="3355.73" y2="546.87" stroke-linecap="round" style="stroke:#1A476F;stroke-width:8.64"/>
	<line x1="3355.73" y1="546.87" x2="3366.49" y2="542.66" stroke-linecap="round" style="stroke:#1A476F;stroke-width:8.64"/>
	<line x1="3366.49" y1="542.66" x2="3377.14" y2="538.58" stroke-linecap="round" style="stroke:#1A476F;stroke-width:8.64"/>
	<line x1="3377.14" y1="538.58" x2="3387.90" y2="534.62" stroke-linecap="round" style="stroke:#1A476F;stroke-width:8.64"/>
	<line x1="3387.90" y1="534.62" x2="3398.67" y2="530.66" stroke-linecap="round" style="stroke:#1A476F;stroke-width:8.64"/>
	<line x1="3398.67" y1="530.66" x2="3409.44" y2="526.70" stroke-linecap="round" style="stroke:#1A476F;stroke-width:8.64"/>
	<line x1="3409.44" y1="526.70" x2="3420.08" y2="522.86" stroke-linecap="round" style="stroke:#1A476F;stroke-width:8.64"/>
	<line x1="3420.08" y1="522.86" x2="3430.84" y2="519.15" stroke-linecap="round" style="stroke:#1A476F;stroke-width:8.64"/>
	<line x1="3430.84" y1="519.15" x2="3441.61" y2="515.43" stroke-linecap="round" style="stroke:#1A476F;stroke-width:8.64"/>
	<line x1="3441.61" y1="515.43" x2="3452.25" y2="511.85" stroke-linecap="round" style="stroke:#1A476F;stroke-width:8.64"/>
	<line x1="3452.25" y1="511.85" x2="3463.02" y2="508.26" stroke-linecap="round" style="stroke:#1A476F;stroke-width:8.64"/>
	<line x1="3463.02" y1="508.26" x2="3473.79" y2="504.79" stroke-linecap="round" style="stroke:#1A476F;stroke-width:8.64"/>
	<line x1="3473.79" y1="504.79" x2="3484.55" y2="501.33" stroke-linecap="round" style="stroke:#1A476F;stroke-width:8.64"/>
	<line x1="3484.55" y1="501.33" x2="3495.20" y2="497.99" stroke-linecap="round" style="stroke:#1A476F;stroke-width:8.64"/>
	<line x1="3495.20" y1="497.99" x2="3505.96" y2="494.64" stroke-linecap="round" style="stroke:#1A476F;stroke-width:8.64"/>
	<line x1="3505.96" y1="494.64" x2="3516.73" y2="491.30" stroke-linecap="round" style="stroke:#1A476F;stroke-width:8.64"/>
	<line x1="3516.73" y1="491.30" x2="3527.37" y2="488.21" stroke-linecap="round" style="stroke:#1A476F;stroke-width:8.64"/>
	<line x1="3527.37" y1="488.21" x2="3538.14" y2="484.99" stroke-linecap="round" style="stroke:#1A476F;stroke-width:8.64"/>
	<line x1="3538.14" y1="484.99" x2="3548.90" y2="481.90" stroke-linecap="round" style="stroke:#1A476F;stroke-width:8.64"/>
	<line x1="3548.90" y1="481.90" x2="3559.55" y2="478.93" stroke-linecap="round" style="stroke:#1A476F;stroke-width:8.64"/>
	<line x1="3559.55" y1="478.93" x2="3570.31" y2="475.96" stroke-linecap="round" style="stroke:#1A476F;stroke-width:8.64"/>
	<line x1="3570.31" y1="475.96" x2="3581.08" y2="472.99" stroke-linecap="round" style="stroke:#1A476F;stroke-width:8.64"/>
	<line x1="3581.08" y1="472.99" x2="3591.84" y2="470.14" stroke-linecap="round" style="stroke:#1A476F;stroke-width:8.64"/>
	<line x1="3591.84" y1="470.14" x2="3602.49" y2="467.29" stroke-linecap="round" style="stroke:#1A476F;stroke-width:8.64"/>
	<line x1="3602.49" y1="467.29" x2="3613.25" y2="464.57" stroke-linecap="round" style="stroke:#1A476F;stroke-width:8.64"/>
	<line x1="3613.25" y1="464.57" x2="3624.02" y2="461.85" stroke-linecap="round" style="stroke:#1A476F;stroke-width:8.64"/>
	<line x1="3624.02" y1="461.85" x2="3634.66" y2="459.25" stroke-linecap="round" style="stroke:#1A476F;stroke-width:8.64"/>
	<line x1="3634.66" y1="459.25" x2="3645.43" y2="456.53" stroke-linecap="round" style="stroke:#1A476F;stroke-width:8.64"/>
	<line x1="3645.43" y1="456.53" x2="3656.19" y2="454.05" stroke-linecap="round" style="stroke:#1A476F;stroke-width:8.64"/>
	<line x1="3656.19" y1="454.05" x2="3666.96" y2="451.58" stroke-linecap="round" style="stroke:#1A476F;stroke-width:8.64"/>
	<line x1="3666.96" y1="451.58" x2="3677.60" y2="449.10" stroke-linecap="round" style="stroke:#1A476F;stroke-width:8.64"/>
	<line x1="3677.60" y1="449.10" x2="3688.37" y2="446.63" stroke-linecap="round" style="stroke:#1A476F;stroke-width:8.64"/>
	<line x1="3688.37" y1="446.63" x2="3699.14" y2="444.28" stroke-linecap="round" style="stroke:#1A476F;stroke-width:8.64"/>
	<line x1="3699.14" y1="444.28" x2="3709.78" y2="442.05" stroke-linecap="round" style="stroke:#1A476F;stroke-width:8.64"/>
	<line x1="3709.78" y1="442.05" x2="3720.54" y2="439.70" stroke-linecap="round" style="stroke:#1A476F;stroke-width:8.64"/>
	<line x1="3720.54" y1="439.70" x2="3731.31" y2="437.47" stroke-linecap="round" style="stroke:#1A476F;stroke-width:8.64"/>
	<line x1="3731.31" y1="437.47" x2="3741.95" y2="435.37" stroke-linecap="round" style="stroke:#1A476F;stroke-width:8.64"/>
	<line x1="3741.95" y1="435.37" x2="3752.72" y2="433.14" stroke-linecap="round" style="stroke:#1A476F;stroke-width:8.64"/>
	<line x1="3752.72" y1="433.14" x2="3763.49" y2="431.03" stroke-linecap="round" style="stroke:#1A476F;stroke-width:8.64"/>
	<line x1="3763.49" y1="431.03" x2="3774.25" y2="429.05" stroke-linecap="round" style="stroke:#1A476F;stroke-width:8.64"/>
	<line x1="3774.25" y1="429.05" x2="3784.89" y2="427.07" stroke-linecap="round" style="stroke:#1A476F;stroke-width:8.64"/>
	<line x1="3784.89" y1="427.07" x2="3795.66" y2="425.09" stroke-linecap="round" style="stroke:#1A476F;stroke-width:8.64"/>
	<line x1="1405.55" y1="2425.82" x2="1405.55" y2="2039.34" style="stroke:#000000;stroke-width:8.64"/>
	<line x1="587.44" y1="2039.34" x2="1405.55" y2="2039.34" style="stroke:#000000;stroke-width:8.64"/>
	<line x1="2191.61" y1="2425.82" x2="2191.61" y2="1394.21" style="stroke:#000000;stroke-width:8.64"/>
	<line x1="587.44" y1="1394.21" x2="2191.61" y2="1394.21" style="stroke:#000000;stroke-width:8.64"/>
	<line x1="2977.67" y1="2425.82" x2="2977.67" y2="739.68" style="stroke:#000000;stroke-width:8.64"/>
	<line x1="587.44" y1="739.68" x2="2977.67" y2="739.68" style="stroke:#000000;stroke-width:8.64"/>
	<line x1="524.08" y1="2489.19" x2="524.08" y2="275.35" style="stroke:#000000;stroke-width:5.76"/>
	<line x1="524.08" y1="2425.82" x2="484.11" y2="2425.82" style="stroke:#000000;stroke-width:5.76"/>
	<text x="464.06" y="2460.85" style="font-family:'Helvetica';font-size:99.99px;fill:#000000" text-anchor="end">0</text>
	<line x1="524.08" y1="2039.34" x2="484.11" y2="2039.34" style="stroke:#000000;stroke-width:5.76"/>
	<text x="464.06" y="2074.37" style="font-family:'Helvetica';font-size:99.99px;fill:#000000" text-anchor="end">1.85</text>
	<line x1="524.08" y1="1394.21" x2="484.11" y2="1394.21" style="stroke:#000000;stroke-width:5.76"/>
	<text x="464.06" y="1429.24" style="font-family:'Helvetica';font-size:99.99px;fill:#000000" text-anchor="end">4.94</text>
	<line x1="524.08" y1="739.68" x2="484.11" y2="739.68" style="stroke:#000000;stroke-width:5.76"/>
	<text x="464.06" y="774.71" style="font-family:'Helvetica';font-size:99.99px;fill:#000000" text-anchor="end">8.08</text>
	<line x1="524.08" y1="338.71" x2="484.11" y2="338.71" style="stroke:#000000;stroke-width:5.76"/>
	<text x="464.06" y="373.74" style="font-family:'Helvetica';font-size:99.99px;fill:#000000" text-anchor="end">10</text>
	<text x="190.71" y="1382.33" style="font-family:'Helvetica';font-size:99.99px;fill:#000000" transform="rotate(-90 190.71,1382.33)" text-anchor="middle">Expected Score</text>
	<line x1="524.08" y1="2489.19" x2="3859.02" y2="2489.19" style="stroke:#000000;stroke-width:5.76"/>
	<line x1="587.44" y1="2489.19" x2="587.44" y2="2529.16" style="stroke:#000000;stroke-width:5.76"/>
	<text x="587.44" y="2619.14" style="font-family:'Helvetica';font-size:99.99px;fill:#000000" text-anchor="middle">-4</text>
	<line x1="1405.55" y1="2489.19" x2="1405.55" y2="2529.16" style="stroke:#000000;stroke-width:5.76"/>
	<text x="1405.55" y="2619.14" style="font-family:'Helvetica';font-size:99.99px;fill:#000000" text-anchor="middle">-1.96</text>
	<line x1="2191.61" y1="2489.19" x2="2191.61" y2="2529.16" style="stroke:#000000;stroke-width:5.76"/>
	<text x="2191.61" y="2619.14" style="font-family:'Helvetica';font-size:99.99px;fill:#000000" text-anchor="middle">0</text>
	<line x1="2977.67" y1="2489.19" x2="2977.67" y2="2529.16" style="stroke:#000000;stroke-width:5.76"/>
	<text x="2977.67" y="2619.14" style="font-family:'Helvetica';font-size:99.99px;fill:#000000" text-anchor="middle">1.96</text>
	<line x1="3795.66" y1="2489.19" x2="3795.66" y2="2529.16" style="stroke:#000000;stroke-width:5.76"/>
	<text x="3795.66" y="2619.14" style="font-family:'Helvetica';font-size:99.99px;fill:#000000" text-anchor="middle">4</text>
	<text x="2191.61" y="2729.16" style="font-family:'Helvetica';font-size:99.99px;fill:#000000" text-anchor="middle">Theta</text>
	<text x="2191.61" y="215.98" style="font-family:'Helvetica';font-size:139.96px;fill:#1E2D53" text-anchor="middle">Test Characteristic Curve</text>
</svg>
