<?xml version="1.0" encoding="UTF-8" standalone="no"?>
<!-- This is a Stata 15.0 generated SVG file (http://www.stata.com) -->

<svg version="1.1" width="600px" height="436px" viewBox="0 0 3960 2880" xmlns="http://www.w3.org/2000/svg" xmlns:xlink="http://www.w3.org/1999/xlink">
	<desc>Stata Graph - Graph</desc>
	<rect x="0" y="0" width="3960" height="2880" style="fill:#EAF2F3;stroke:none"/>
	<rect x="0.00" y="0.00" width="3959.88" height="2880.00" style="fill:#EAF2F3"/>
	<rect x="2.88" y="2.88" width="3954.12" height="2874.24" style="fill:none;stroke:#EAF2F3;stroke-width:5.76"/>
	<rect x="390.80" y="275.35" width="3468.22" height="2213.83" style="fill:#FFFFFF"/>
	<rect x="393.68" y="278.23" width="3462.46" height="2208.07" style="fill:none;stroke:#FFFFFF;stroke-width:5.76"/>
	<line x1="390.80" y1="1904.08" x2="3859.02" y2="1904.08" style="stroke:#EAF2F3;stroke-width:8.64"/>
	<line x1="390.80" y1="1382.33" x2="3859.02" y2="1382.33" style="stroke:#EAF2F3;stroke-width:8.64"/>
	<line x1="390.80" y1="860.46" x2="3859.02" y2="860.46" style="stroke:#EAF2F3;stroke-width:8.64"/>
	<line x1="454.04" y1="2106.66" x2="465.30" y2="2099.86" stroke-linecap="round" style="stroke:#1A476F;stroke-width:8.64"/>
	<line x1="465.30" y1="2099.86" x2="476.44" y2="2093.05" stroke-linecap="round" style="stroke:#1A476F;stroke-width:8.64"/>
	<line x1="476.44" y1="2093.05" x2="487.57" y2="2086.12" stroke-linecap="round" style="stroke:#1A476F;stroke-width:8.64"/>
	<line x1="487.57" y1="2086.12" x2="498.84" y2="2078.94" stroke-linecap="round" style="stroke:#1A476F;stroke-width:8.64"/>
	<line x1="498.84" y1="2078.94" x2="509.97" y2="2071.76" stroke-linecap="round" style="stroke:#1A476F;stroke-width:8.64"/>
	<line x1="509.97" y1="2071.76" x2="521.11" y2="2064.46" stroke-linecap="round" style="stroke:#1A476F;stroke-width:8.64"/>
	<line x1="521.11" y1="2064.46" x2="532.25" y2="2057.04" stroke-linecap="round" style="stroke:#1A476F;stroke-width:8.64"/>
	<line x1="532.25" y1="2057.04" x2="543.51" y2="2049.49" stroke-linecap="round" style="stroke:#1A476F;stroke-width:8.64"/>
	<line x1="543.51" y1="2049.49" x2="554.65" y2="2041.82" stroke-linecap="round" style="stroke:#1A476F;stroke-width:8.64"/>
	<line x1="554.65" y1="2041.82" x2="565.78" y2="2033.89" stroke-linecap="round" style="stroke:#1A476F;stroke-width:8.64"/>
	<line x1="565.78" y1="2033.89" x2="577.05" y2="2025.97" stroke-linecap="round" style="stroke:#1A476F;stroke-width:8.64"/>
	<line x1="577.05" y1="2025.97" x2="588.18" y2="2017.93" stroke-linecap="round" style="stroke:#1A476F;stroke-width:8.64"/>
	<line x1="588.18" y1="2017.93" x2="599.32" y2="2009.76" stroke-linecap="round" style="stroke:#1A476F;stroke-width:8.64"/>
	<line x1="599.32" y1="2009.76" x2="610.58" y2="2001.47" stroke-linecap="round" style="stroke:#1A476F;stroke-width:8.64"/>
	<line x1="610.58" y1="2001.47" x2="621.72" y2="1993.06" stroke-linecap="round" style="stroke:#1A476F;stroke-width:8.64"/>
	<line x1="621.72" y1="1993.06" x2="632.86" y2="1984.52" stroke-linecap="round" style="stroke:#1A476F;stroke-width:8.64"/>
	<line x1="632.86" y1="1984.52" x2="644.12" y2="1975.85" stroke-linecap="round" style="stroke:#1A476F;stroke-width:8.64"/>
	<line x1="644.12" y1="1975.85" x2="655.26" y2="1966.94" stroke-linecap="round" style="stroke:#1A476F;stroke-width:8.64"/>
	<line x1="655.26" y1="1966.94" x2="666.39" y2="1958.03" stroke-linecap="round" style="stroke:#1A476F;stroke-width:8.64"/>
	<line x1="666.39" y1="1958.03" x2="677.65" y2="1949.00" stroke-linecap="round" style="stroke:#1A476F;stroke-width:8.64"/>
	<line x1="677.65" y1="1949.00" x2="688.79" y2="1939.84" stroke-linecap="round" style="stroke:#1A476F;stroke-width:8.64"/>
	<line x1="688.79" y1="1939.84" x2="699.93" y2="1930.56" stroke-linecap="round" style="stroke:#1A476F;stroke-width:8.64"/>
	<line x1="699.93" y1="1930.56" x2="711.07" y2="1921.16" stroke-linecap="round" style="stroke:#1A476F;stroke-width:8.64"/>
	<line x1="711.07" y1="1921.16" x2="722.33" y2="1911.63" stroke-linecap="round" style="stroke:#1A476F;stroke-width:8.64"/>
	<line x1="722.33" y1="1911.63" x2="733.47" y2="1901.97" stroke-linecap="round" style="stroke:#1A476F;stroke-width:8.64"/>
	<line x1="733.47" y1="1901.97" x2="744.60" y2="1892.07" stroke-linecap="round" style="stroke:#1A476F;stroke-width:8.64"/>
	<line x1="744.60" y1="1892.07" x2="755.87" y2="1882.17" stroke-linecap="round" style="stroke:#1A476F;stroke-width:8.64"/>
	<line x1="755.87" y1="1882.17" x2="767.00" y2="1872.15" stroke-linecap="round" style="stroke:#1A476F;stroke-width:8.64"/>
	<line x1="767.00" y1="1872.15" x2="778.14" y2="1862.00" stroke-linecap="round" style="stroke:#1A476F;stroke-width:8.64"/>
	<line x1="778.14" y1="1862.00" x2="789.40" y2="1851.73" stroke-linecap="round" style="stroke:#1A476F;stroke-width:8.64"/>
	<line x1="789.40" y1="1851.73" x2="800.54" y2="1841.46" stroke-linecap="round" style="stroke:#1A476F;stroke-width:8.64"/>
	<line x1="800.54" y1="1841.46" x2="811.68" y2="1830.94" stroke-linecap="round" style="stroke:#1A476F;stroke-width:8.64"/>
	<line x1="811.68" y1="1830.94" x2="822.94" y2="1820.30" stroke-linecap="round" style="stroke:#1A476F;stroke-width:8.64"/>
	<line x1="822.94" y1="1820.30" x2="834.08" y2="1809.53" stroke-linecap="round" style="stroke:#1A476F;stroke-width:8.64"/>
	<line x1="834.08" y1="1809.53" x2="845.21" y2="1798.76" stroke-linecap="round" style="stroke:#1A476F;stroke-width:8.64"/>
	<line x1="845.21" y1="1798.76" x2="856.35" y2="1787.75" stroke-linecap="round" style="stroke:#1A476F;stroke-width:8.64"/>
	<line x1="856.35" y1="1787.75" x2="867.61" y2="1776.73" stroke-linecap="round" style="stroke:#1A476F;stroke-width:8.64"/>
	<line x1="867.61" y1="1776.73" x2="878.75" y2="1765.60" stroke-linecap="round" style="stroke:#1A476F;stroke-width:8.64"/>
	<line x1="878.75" y1="1765.60" x2="889.89" y2="1754.33" stroke-linecap="round" style="stroke:#1A476F;stroke-width:8.64"/>
	<line x1="889.89" y1="1754.33" x2="901.15" y2="1742.95" stroke-linecap="round" style="stroke:#1A476F;stroke-width:8.64"/>
	<line x1="901.15" y1="1742.95" x2="912.28" y2="1731.56" stroke-linecap="round" style="stroke:#1A476F;stroke-width:8.64"/>
	<line x1="912.28" y1="1731.56" x2="923.42" y2="1719.93" stroke-linecap="round" style="stroke:#1A476F;stroke-width:8.64"/>
	<line x1="923.42" y1="1719.93" x2="934.68" y2="1708.30" stroke-linecap="round" style="stroke:#1A476F;stroke-width:8.64"/>
	<line x1="934.68" y1="1708.30" x2="945.82" y2="1696.54" stroke-linecap="round" style="stroke:#1A476F;stroke-width:8.64"/>
	<line x1="945.82" y1="1696.54" x2="956.96" y2="1684.79" stroke-linecap="round" style="stroke:#1A476F;stroke-width:8.64"/>
	<line x1="956.96" y1="1684.79" x2="968.22" y2="1672.78" stroke-linecap="round" style="stroke:#1A476F;stroke-width:8.64"/>
	<line x1="968.22" y1="1672.78" x2="979.36" y2="1660.78" stroke-linecap="round" style="stroke:#1A476F;stroke-width:8.64"/>
	<line x1="979.36" y1="1660.78" x2="990.50" y2="1648.77" stroke-linecap="round" style="stroke:#1A476F;stroke-width:8.64"/>
	<line x1="990.50" y1="1648.77" x2="1001.63" y2="1636.52" stroke-linecap="round" style="stroke:#1A476F;stroke-width:8.64"/>
	<line x1="1001.63" y1="1636.52" x2="1012.89" y2="1624.27" stroke-linecap="round" style="stroke:#1A476F;stroke-width:8.64"/>
	<line x1="1012.89" y1="1624.27" x2="1024.03" y2="1612.02" stroke-linecap="round" style="stroke:#1A476F;stroke-width:8.64"/>
	<line x1="1024.03" y1="1612.02" x2="1035.17" y2="1599.64" stroke-linecap="round" style="stroke:#1A476F;stroke-width:8.64"/>
	<line x1="1035.17" y1="1599.64" x2="1046.43" y2="1587.14" stroke-linecap="round" style="stroke:#1A476F;stroke-width:8.64"/>
	<line x1="1046.43" y1="1587.14" x2="1057.57" y2="1574.64" stroke-linecap="round" style="stroke:#1A476F;stroke-width:8.64"/>
	<line x1="1057.57" y1="1574.64" x2="1068.70" y2="1562.15" stroke-linecap="round" style="stroke:#1A476F;stroke-width:8.64"/>
	<line x1="1068.70" y1="1562.15" x2="1079.97" y2="1549.52" stroke-linecap="round" style="stroke:#1A476F;stroke-width:8.64"/>
	<line x1="1079.97" y1="1549.52" x2="1091.10" y2="1536.90" stroke-linecap="round" style="stroke:#1A476F;stroke-width:8.64"/>
	<line x1="1091.10" y1="1536.90" x2="1102.24" y2="1524.15" stroke-linecap="round" style="stroke:#1A476F;stroke-width:8.64"/>
	<line x1="1102.24" y1="1524.15" x2="1113.50" y2="1511.41" stroke-linecap="round" style="stroke:#1A476F;stroke-width:8.64"/>
	<line x1="1113.50" y1="1511.41" x2="1124.64" y2="1498.54" stroke-linecap="round" style="stroke:#1A476F;stroke-width:8.64"/>
	<line x1="1124.64" y1="1498.54" x2="1135.78" y2="1485.79" stroke-linecap="round" style="stroke:#1A476F;stroke-width:8.64"/>
	<line x1="1135.78" y1="1485.79" x2="1147.04" y2="1472.92" stroke-linecap="round" style="stroke:#1A476F;stroke-width:8.64"/>
	<line x1="1147.04" y1="1472.92" x2="1158.18" y2="1459.92" stroke-linecap="round" style="stroke:#1A476F;stroke-width:8.64"/>
	<line x1="1158.18" y1="1459.92" x2="1169.31" y2="1447.05" stroke-linecap="round" style="stroke:#1A476F;stroke-width:8.64"/>
	<line x1="1169.31" y1="1447.05" x2="1180.45" y2="1434.18" stroke-linecap="round" style="stroke:#1A476F;stroke-width:8.64"/>
	<line x1="1180.45" y1="1434.18" x2="1191.71" y2="1421.19" stroke-linecap="round" style="stroke:#1A476F;stroke-width:8.64"/>
	<line x1="1191.71" y1="1421.19" x2="1202.85" y2="1408.20" stroke-linecap="round" style="stroke:#1A476F;stroke-width:8.64"/>
	<line x1="1202.85" y1="1408.20" x2="1213.99" y2="1395.20" stroke-linecap="round" style="stroke:#1A476F;stroke-width:8.64"/>
	<line x1="1213.99" y1="1395.20" x2="1225.25" y2="1382.33" stroke-linecap="round" style="stroke:#1A476F;stroke-width:8.64"/>
	<line x1="1225.25" y1="1382.33" x2="1236.39" y2="1369.34" stroke-linecap="round" style="stroke:#1A476F;stroke-width:8.64"/>
	<line x1="1236.39" y1="1369.34" x2="1247.52" y2="1356.34" stroke-linecap="round" style="stroke:#1A476F;stroke-width:8.64"/>
	<line x1="1247.52" y1="1356.34" x2="1258.79" y2="1343.47" stroke-linecap="round" style="stroke:#1A476F;stroke-width:8.64"/>
	<line x1="1258.79" y1="1343.47" x2="1269.92" y2="1330.48" stroke-linecap="round" style="stroke:#1A476F;stroke-width:8.64"/>
	<line x1="1269.92" y1="1330.48" x2="1281.06" y2="1317.61" stroke-linecap="round" style="stroke:#1A476F;stroke-width:8.64"/>
	<line x1="1281.06" y1="1317.61" x2="1292.32" y2="1304.74" stroke-linecap="round" style="stroke:#1A476F;stroke-width:8.64"/>
	<line x1="1292.32" y1="1304.74" x2="1303.46" y2="1291.87" stroke-linecap="round" style="stroke:#1A476F;stroke-width:8.64"/>
	<line x1="1303.46" y1="1291.87" x2="1314.60" y2="1279.00" stroke-linecap="round" style="stroke:#1A476F;stroke-width:8.64"/>
	<line x1="1314.60" y1="1279.00" x2="1325.73" y2="1266.25" stroke-linecap="round" style="stroke:#1A476F;stroke-width:8.64"/>
	<line x1="1325.73" y1="1266.25" x2="1336.99" y2="1253.50" stroke-linecap="round" style="stroke:#1A476F;stroke-width:8.64"/>
	<line x1="1336.99" y1="1253.50" x2="1348.13" y2="1240.76" stroke-linecap="round" style="stroke:#1A476F;stroke-width:8.64"/>
	<line x1="1348.13" y1="1240.76" x2="1359.27" y2="1228.13" stroke-linecap="round" style="stroke:#1A476F;stroke-width:8.64"/>
	<line x1="1359.27" y1="1228.13" x2="1370.53" y2="1215.51" stroke-linecap="round" style="stroke:#1A476F;stroke-width:8.64"/>
	<line x1="1370.53" y1="1215.51" x2="1381.67" y2="1203.01" stroke-linecap="round" style="stroke:#1A476F;stroke-width:8.64"/>
	<line x1="1381.67" y1="1203.01" x2="1392.81" y2="1190.51" stroke-linecap="round" style="stroke:#1A476F;stroke-width:8.64"/>
	<line x1="1392.81" y1="1190.51" x2="1404.07" y2="1178.14" stroke-linecap="round" style="stroke:#1A476F;stroke-width:8.64"/>
	<line x1="1404.07" y1="1178.14" x2="1415.20" y2="1165.76" stroke-linecap="round" style="stroke:#1A476F;stroke-width:8.64"/>
	<line x1="1415.20" y1="1165.76" x2="1426.34" y2="1153.51" stroke-linecap="round" style="stroke:#1A476F;stroke-width:8.64"/>
	<line x1="1426.34" y1="1153.51" x2="1437.60" y2="1141.38" stroke-linecap="round" style="stroke:#1A476F;stroke-width:8.64"/>
	<line x1="1437.60" y1="1141.38" x2="1448.74" y2="1129.25" stroke-linecap="round" style="stroke:#1A476F;stroke-width:8.64"/>
	<line x1="1448.74" y1="1129.25" x2="1459.88" y2="1117.25" stroke-linecap="round" style="stroke:#1A476F;stroke-width:8.64"/>
	<line x1="1459.88" y1="1117.25" x2="1471.14" y2="1105.37" stroke-linecap="round" style="stroke:#1A476F;stroke-width:8.64"/>
	<line x1="1471.14" y1="1105.37" x2="1482.28" y2="1093.61" stroke-linecap="round" style="stroke:#1A476F;stroke-width:8.64"/>
	<line x1="1482.28" y1="1093.61" x2="1493.42" y2="1081.86" stroke-linecap="round" style="stroke:#1A476F;stroke-width:8.64"/>
	<line x1="1493.42" y1="1081.86" x2="1504.55" y2="1070.35" stroke-linecap="round" style="stroke:#1A476F;stroke-width:8.64"/>
	<line x1="1504.55" y1="1070.35" x2="1515.81" y2="1058.84" stroke-linecap="round" style="stroke:#1A476F;stroke-width:8.64"/>
	<line x1="1515.81" y1="1058.84" x2="1526.95" y2="1047.45" stroke-linecap="round" style="stroke:#1A476F;stroke-width:8.64"/>
	<line x1="1526.95" y1="1047.45" x2="1538.09" y2="1036.19" stroke-linecap="round" style="stroke:#1A476F;stroke-width:8.64"/>
	<line x1="1538.09" y1="1036.19" x2="1549.35" y2="1025.05" stroke-linecap="round" style="stroke:#1A476F;stroke-width:8.64"/>
	<line x1="1549.35" y1="1025.05" x2="1560.49" y2="1014.04" stroke-linecap="round" style="stroke:#1A476F;stroke-width:8.64"/>
	<line x1="1560.49" y1="1014.04" x2="1571.63" y2="1003.15" stroke-linecap="round" style="stroke:#1A476F;stroke-width:8.64"/>
	<line x1="1571.63" y1="1003.15" x2="1582.89" y2="992.38" stroke-linecap="round" style="stroke:#1A476F;stroke-width:8.64"/>
	<line x1="1582.89" y1="992.38" x2="1594.02" y2="981.86" stroke-linecap="round" style="stroke:#1A476F;stroke-width:8.64"/>
	<line x1="1594.02" y1="981.86" x2="1605.16" y2="971.34" stroke-linecap="round" style="stroke:#1A476F;stroke-width:8.64"/>
	<line x1="1605.16" y1="971.34" x2="1616.42" y2="961.07" stroke-linecap="round" style="stroke:#1A476F;stroke-width:8.64"/>
	<line x1="1616.42" y1="961.07" x2="1627.56" y2="950.92" stroke-linecap="round" style="stroke:#1A476F;stroke-width:8.64"/>
	<line x1="1627.56" y1="950.92" x2="1638.70" y2="940.90" stroke-linecap="round" style="stroke:#1A476F;stroke-width:8.64"/>
	<line x1="1638.70" y1="940.90" x2="1649.84" y2="931.00" stroke-linecap="round" style="stroke:#1A476F;stroke-width:8.64"/>
	<line x1="1649.84" y1="931.00" x2="1661.10" y2="921.35" stroke-linecap="round" style="stroke:#1A476F;stroke-width:8.64"/>
	<line x1="1661.10" y1="921.35" x2="1672.23" y2="911.82" stroke-linecap="round" style="stroke:#1A476F;stroke-width:8.64"/>
	<line x1="1672.23" y1="911.82" x2="1683.37" y2="902.41" stroke-linecap="round" style="stroke:#1A476F;stroke-width:8.64"/>
	<line x1="1683.37" y1="902.41" x2="1694.63" y2="893.13" stroke-linecap="round" style="stroke:#1A476F;stroke-width:8.64"/>
	<line x1="1694.63" y1="893.13" x2="1705.77" y2="884.22" stroke-linecap="round" style="stroke:#1A476F;stroke-width:8.64"/>
	<line x1="1705.77" y1="884.22" x2="1716.91" y2="875.31" stroke-linecap="round" style="stroke:#1A476F;stroke-width:8.64"/>
	<line x1="1716.91" y1="875.31" x2="1728.17" y2="866.65" stroke-linecap="round" style="stroke:#1A476F;stroke-width:8.64"/>
	<line x1="1728.17" y1="866.65" x2="1739.31" y2="858.11" stroke-linecap="round" style="stroke:#1A476F;stroke-width:8.64"/>
	<line x1="1739.31" y1="858.11" x2="1750.44" y2="849.82" stroke-linecap="round" style="stroke:#1A476F;stroke-width:8.64"/>
	<line x1="1750.44" y1="849.82" x2="1761.70" y2="841.77" stroke-linecap="round" style="stroke:#1A476F;stroke-width:8.64"/>
	<line x1="1761.70" y1="841.77" x2="1772.84" y2="833.85" stroke-linecap="round" style="stroke:#1A476F;stroke-width:8.64"/>
	<line x1="1772.84" y1="833.85" x2="1783.98" y2="826.06" stroke-linecap="round" style="stroke:#1A476F;stroke-width:8.64"/>
	<line x1="1783.98" y1="826.06" x2="1795.24" y2="818.51" stroke-linecap="round" style="stroke:#1A476F;stroke-width:8.64"/>
	<line x1="1795.24" y1="818.51" x2="1806.38" y2="811.21" stroke-linecap="round" style="stroke:#1A476F;stroke-width:8.64"/>
	<line x1="1806.38" y1="811.21" x2="1817.52" y2="804.15" stroke-linecap="round" style="stroke:#1A476F;stroke-width:8.64"/>
	<line x1="1817.52" y1="804.15" x2="1828.65" y2="797.22" stroke-linecap="round" style="stroke:#1A476F;stroke-width:8.64"/>
	<line x1="1828.65" y1="797.22" x2="1839.92" y2="790.42" stroke-linecap="round" style="stroke:#1A476F;stroke-width:8.64"/>
	<line x1="1839.92" y1="790.42" x2="1851.05" y2="783.98" stroke-linecap="round" style="stroke:#1A476F;stroke-width:8.64"/>
	<line x1="1851.05" y1="783.98" x2="1862.19" y2="777.67" stroke-linecap="round" style="stroke:#1A476F;stroke-width:8.64"/>
	<line x1="1862.19" y1="777.67" x2="1873.45" y2="771.61" stroke-linecap="round" style="stroke:#1A476F;stroke-width:8.64"/>
	<line x1="1873.45" y1="771.61" x2="1884.59" y2="765.79" stroke-linecap="round" style="stroke:#1A476F;stroke-width:8.64"/>
	<line x1="1884.59" y1="765.79" x2="1895.73" y2="760.22" stroke-linecap="round" style="stroke:#1A476F;stroke-width:8.64"/>
	<line x1="1895.73" y1="760.22" x2="1906.99" y2="754.77" stroke-linecap="round" style="stroke:#1A476F;stroke-width:8.64"/>
	<line x1="1906.99" y1="754.77" x2="1918.13" y2="749.70" stroke-linecap="round" style="stroke:#1A476F;stroke-width:8.64"/>
	<line x1="1918.13" y1="749.70" x2="1929.26" y2="744.75" stroke-linecap="round" style="stroke:#1A476F;stroke-width:8.64"/>
	<line x1="1929.26" y1="744.75" x2="1940.52" y2="740.05" stroke-linecap="round" style="stroke:#1A476F;stroke-width:8.64"/>
	<line x1="1940.52" y1="740.05" x2="1951.66" y2="735.59" stroke-linecap="round" style="stroke:#1A476F;stroke-width:8.64"/>
	<line x1="1951.66" y1="735.59" x2="1962.80" y2="731.39" stroke-linecap="round" style="stroke:#1A476F;stroke-width:8.64"/>
	<line x1="1962.80" y1="731.39" x2="1973.94" y2="727.30" stroke-linecap="round" style="stroke:#1A476F;stroke-width:8.64"/>
	<line x1="1973.94" y1="727.30" x2="1985.20" y2="723.59" stroke-linecap="round" style="stroke:#1A476F;stroke-width:8.64"/>
	<line x1="1985.20" y1="723.59" x2="1996.34" y2="720.12" stroke-linecap="round" style="stroke:#1A476F;stroke-width:8.64"/>
	<line x1="1996.34" y1="720.12" x2="2007.47" y2="716.91" stroke-linecap="round" style="stroke:#1A476F;stroke-width:8.64"/>
	<line x1="2007.47" y1="716.91" x2="2018.73" y2="713.81" stroke-linecap="round" style="stroke:#1A476F;stroke-width:8.64"/>
	<line x1="2018.73" y1="713.81" x2="2029.87" y2="711.09" stroke-linecap="round" style="stroke:#1A476F;stroke-width:8.64"/>
	<line x1="2029.87" y1="711.09" x2="2041.01" y2="708.61" stroke-linecap="round" style="stroke:#1A476F;stroke-width:8.64"/>
	<line x1="2041.01" y1="708.61" x2="2052.27" y2="706.39" stroke-linecap="round" style="stroke:#1A476F;stroke-width:8.64"/>
	<line x1="2052.27" y1="706.39" x2="2063.41" y2="704.28" stroke-linecap="round" style="stroke:#1A476F;stroke-width:8.64"/>
	<line x1="2063.41" y1="704.28" x2="2074.55" y2="702.55" stroke-linecap="round" style="stroke:#1A476F;stroke-width:8.64"/>
	<line x1="2074.55" y1="702.55" x2="2085.81" y2="701.07" stroke-linecap="round" style="stroke:#1A476F;stroke-width:8.64"/>
	<line x1="2085.81" y1="701.07" x2="2096.94" y2="699.83" stroke-linecap="round" style="stroke:#1A476F;stroke-width:8.64"/>
	<line x1="2096.94" y1="699.83" x2="2108.08" y2="698.84" stroke-linecap="round" style="stroke:#1A476F;stroke-width:8.64"/>
	<line x1="2108.08" y1="698.84" x2="2119.22" y2="698.10" stroke-linecap="round" style="stroke:#1A476F;stroke-width:8.64"/>
	<line x1="2119.22" y1="698.10" x2="2130.48" y2="697.72" stroke-linecap="round" style="stroke:#1A476F;stroke-width:8.64"/>
	<line x1="2130.48" y1="697.72" x2="2141.62" y2="697.48" stroke-linecap="round" style="stroke:#1A476F;stroke-width:8.64"/>
	<line x1="2141.62" y1="697.48" x2="2152.76" y2="697.48" stroke-linecap="round" style="stroke:#1A476F;stroke-width:8.64"/>
	<line x1="2152.76" y1="697.48" x2="2164.02" y2="697.85" stroke-linecap="round" style="stroke:#1A476F;stroke-width:8.64"/>
	<line x1="2164.02" y1="697.85" x2="2175.15" y2="698.47" stroke-linecap="round" style="stroke:#1A476F;stroke-width:8.64"/>
	<line x1="2175.15" y1="698.47" x2="2186.29" y2="699.21" stroke-linecap="round" style="stroke:#1A476F;stroke-width:8.64"/>
	<line x1="2186.29" y1="699.21" x2="2197.55" y2="700.32" stroke-linecap="round" style="stroke:#1A476F;stroke-width:8.64"/>
	<line x1="2197.55" y1="700.32" x2="2208.69" y2="701.68" stroke-linecap="round" style="stroke:#1A476F;stroke-width:8.64"/>
	<line x1="2208.69" y1="701.68" x2="2219.83" y2="703.29" stroke-linecap="round" style="stroke:#1A476F;stroke-width:8.64"/>
	<line x1="2219.83" y1="703.29" x2="2231.09" y2="705.15" stroke-linecap="round" style="stroke:#1A476F;stroke-width:8.64"/>
	<line x1="2231.09" y1="705.15" x2="2242.23" y2="707.25" stroke-linecap="round" style="stroke:#1A476F;stroke-width:8.64"/>
	<line x1="2242.23" y1="707.25" x2="2253.36" y2="709.73" stroke-linecap="round" style="stroke:#1A476F;stroke-width:8.64"/>
	<line x1="2253.36" y1="709.73" x2="2264.63" y2="712.33" stroke-linecap="round" style="stroke:#1A476F;stroke-width:8.64"/>
	<line x1="2264.63" y1="712.33" x2="2275.76" y2="715.30" stroke-linecap="round" style="stroke:#1A476F;stroke-width:8.64"/>
	<line x1="2275.76" y1="715.30" x2="2286.90" y2="718.39" stroke-linecap="round" style="stroke:#1A476F;stroke-width:8.64"/>
	<line x1="2286.90" y1="718.39" x2="2298.04" y2="721.86" stroke-linecap="round" style="stroke:#1A476F;stroke-width:8.64"/>
	<line x1="2298.04" y1="721.86" x2="2309.30" y2="725.45" stroke-linecap="round" style="stroke:#1A476F;stroke-width:8.64"/>
	<line x1="2309.30" y1="725.45" x2="2320.44" y2="729.41" stroke-linecap="round" style="stroke:#1A476F;stroke-width:8.64"/>
	<line x1="2320.44" y1="729.41" x2="2331.57" y2="733.61" stroke-linecap="round" style="stroke:#1A476F;stroke-width:8.64"/>
	<line x1="2331.57" y1="733.61" x2="2342.84" y2="737.94" stroke-linecap="round" style="stroke:#1A476F;stroke-width:8.64"/>
	<line x1="2342.84" y1="737.94" x2="2353.97" y2="742.65" stroke-linecap="round" style="stroke:#1A476F;stroke-width:8.64"/>
	<line x1="2353.97" y1="742.65" x2="2365.11" y2="747.47" stroke-linecap="round" style="stroke:#1A476F;stroke-width:8.64"/>
	<line x1="2365.11" y1="747.47" x2="2376.37" y2="752.67" stroke-linecap="round" style="stroke:#1A476F;stroke-width:8.64"/>
	<line x1="2376.37" y1="752.67" x2="2387.51" y2="758.12" stroke-linecap="round" style="stroke:#1A476F;stroke-width:8.64"/>
	<line x1="2387.51" y1="758.12" x2="2398.65" y2="763.69" stroke-linecap="round" style="stroke:#1A476F;stroke-width:8.64"/>
	<line x1="2398.65" y1="763.69" x2="2409.91" y2="769.50" stroke-linecap="round" style="stroke:#1A476F;stroke-width:8.64"/>
	<line x1="2409.91" y1="769.50" x2="2421.05" y2="775.69" stroke-linecap="round" style="stroke:#1A476F;stroke-width:8.64"/>
	<line x1="2421.05" y1="775.69" x2="2432.18" y2="782.00" stroke-linecap="round" style="stroke:#1A476F;stroke-width:8.64"/>
	<line x1="2432.18" y1="782.00" x2="2443.32" y2="788.56" stroke-linecap="round" style="stroke:#1A476F;stroke-width:8.64"/>
	<line x1="2443.32" y1="788.56" x2="2454.58" y2="795.37" stroke-linecap="round" style="stroke:#1A476F;stroke-width:8.64"/>
	<line x1="2454.58" y1="795.37" x2="2465.72" y2="802.30" stroke-linecap="round" style="stroke:#1A476F;stroke-width:8.64"/>
	<line x1="2465.72" y1="802.30" x2="2476.86" y2="809.60" stroke-linecap="round" style="stroke:#1A476F;stroke-width:8.64"/>
	<line x1="2476.86" y1="809.60" x2="2488.12" y2="817.02" stroke-linecap="round" style="stroke:#1A476F;stroke-width:8.64"/>
	<line x1="2488.12" y1="817.02" x2="2499.26" y2="824.70" stroke-linecap="round" style="stroke:#1A476F;stroke-width:8.64"/>
	<line x1="2499.26" y1="824.70" x2="2510.39" y2="832.49" stroke-linecap="round" style="stroke:#1A476F;stroke-width:8.64"/>
	<line x1="2510.39" y1="832.49" x2="2521.65" y2="840.54" stroke-linecap="round" style="stroke:#1A476F;stroke-width:8.64"/>
	<line x1="2521.65" y1="840.54" x2="2532.79" y2="848.83" stroke-linecap="round" style="stroke:#1A476F;stroke-width:8.64"/>
	<line x1="2532.79" y1="848.83" x2="2543.93" y2="857.37" stroke-linecap="round" style="stroke:#1A476F;stroke-width:8.64"/>
	<line x1="2543.93" y1="857.37" x2="2555.19" y2="866.03" stroke-linecap="round" style="stroke:#1A476F;stroke-width:8.64"/>
	<line x1="2555.19" y1="866.03" x2="2566.33" y2="874.94" stroke-linecap="round" style="stroke:#1A476F;stroke-width:8.64"/>
	<line x1="2566.33" y1="874.94" x2="2577.47" y2="883.97" stroke-linecap="round" style="stroke:#1A476F;stroke-width:8.64"/>
	<line x1="2577.47" y1="883.97" x2="2588.73" y2="893.26" stroke-linecap="round" style="stroke:#1A476F;stroke-width:8.64"/>
	<line x1="2588.73" y1="893.26" x2="2599.86" y2="902.66" stroke-linecap="round" style="stroke:#1A476F;stroke-width:8.64"/>
	<line x1="2599.86" y1="902.66" x2="2611.00" y2="912.31" stroke-linecap="round" style="stroke:#1A476F;stroke-width:8.64"/>
	<line x1="2611.00" y1="912.31" x2="2622.14" y2="922.09" stroke-linecap="round" style="stroke:#1A476F;stroke-width:8.64"/>
	<line x1="2622.14" y1="922.09" x2="2633.40" y2="931.99" stroke-linecap="round" style="stroke:#1A476F;stroke-width:8.64"/>
	<line x1="2633.40" y1="931.99" x2="2644.54" y2="942.14" stroke-linecap="round" style="stroke:#1A476F;stroke-width:8.64"/>
	<line x1="2644.54" y1="942.14" x2="2655.68" y2="952.41" stroke-linecap="round" style="stroke:#1A476F;stroke-width:8.64"/>
	<line x1="2655.68" y1="952.41" x2="2666.94" y2="962.93" stroke-linecap="round" style="stroke:#1A476F;stroke-width:8.64"/>
	<line x1="2666.94" y1="962.93" x2="2678.07" y2="973.45" stroke-linecap="round" style="stroke:#1A476F;stroke-width:8.64"/>
	<line x1="2678.07" y1="973.45" x2="2689.21" y2="984.21" stroke-linecap="round" style="stroke:#1A476F;stroke-width:8.64"/>
	<line x1="2689.21" y1="984.21" x2="2700.47" y2="995.10" stroke-linecap="round" style="stroke:#1A476F;stroke-width:8.64"/>
	<line x1="2700.47" y1="995.10" x2="2711.61" y2="1006.12" stroke-linecap="round" style="stroke:#1A476F;stroke-width:8.64"/>
	<line x1="2711.61" y1="1006.12" x2="2722.75" y2="1017.38" stroke-linecap="round" style="stroke:#1A476F;stroke-width:8.64"/>
	<line x1="2722.75" y1="1017.38" x2="2734.01" y2="1028.64" stroke-linecap="round" style="stroke:#1A476F;stroke-width:8.64"/>
	<line x1="2734.01" y1="1028.64" x2="2745.15" y2="1040.03" stroke-linecap="round" style="stroke:#1A476F;stroke-width:8.64"/>
	<line x1="2745.15" y1="1040.03" x2="2756.28" y2="1051.66" stroke-linecap="round" style="stroke:#1A476F;stroke-width:8.64"/>
	<line x1="2756.28" y1="1051.66" x2="2767.42" y2="1063.29" stroke-linecap="round" style="stroke:#1A476F;stroke-width:8.64"/>
	<line x1="2767.42" y1="1063.29" x2="2778.68" y2="1075.05" stroke-linecap="round" style="stroke:#1A476F;stroke-width:8.64"/>
	<line x1="2778.68" y1="1075.05" x2="2789.82" y2="1087.05" stroke-linecap="round" style="stroke:#1A476F;stroke-width:8.64"/>
	<line x1="2789.82" y1="1087.05" x2="2800.96" y2="1099.06" stroke-linecap="round" style="stroke:#1A476F;stroke-width:8.64"/>
	<line x1="2800.96" y1="1099.06" x2="2812.22" y2="1111.06" stroke-linecap="round" style="stroke:#1A476F;stroke-width:8.64"/>
	<line x1="2812.22" y1="1111.06" x2="2823.36" y2="1123.31" stroke-linecap="round" style="stroke:#1A476F;stroke-width:8.64"/>
	<line x1="2823.36" y1="1123.31" x2="2834.49" y2="1135.57" stroke-linecap="round" style="stroke:#1A476F;stroke-width:8.64"/>
	<line x1="2834.49" y1="1135.57" x2="2845.76" y2="1147.94" stroke-linecap="round" style="stroke:#1A476F;stroke-width:8.64"/>
	<line x1="2845.76" y1="1147.94" x2="2856.89" y2="1160.44" stroke-linecap="round" style="stroke:#1A476F;stroke-width:8.64"/>
	<line x1="2856.89" y1="1160.44" x2="2868.03" y2="1172.94" stroke-linecap="round" style="stroke:#1A476F;stroke-width:8.64"/>
	<line x1="2868.03" y1="1172.94" x2="2879.29" y2="1185.56" stroke-linecap="round" style="stroke:#1A476F;stroke-width:8.64"/>
	<line x1="2879.29" y1="1185.56" x2="2890.43" y2="1198.18" stroke-linecap="round" style="stroke:#1A476F;stroke-width:8.64"/>
	<line x1="2890.43" y1="1198.18" x2="2901.57" y2="1210.93" stroke-linecap="round" style="stroke:#1A476F;stroke-width:8.64"/>
	<line x1="2901.57" y1="1210.93" x2="2912.83" y2="1223.80" stroke-linecap="round" style="stroke:#1A476F;stroke-width:8.64"/>
	<line x1="2912.83" y1="1223.80" x2="2923.97" y2="1236.67" stroke-linecap="round" style="stroke:#1A476F;stroke-width:8.64"/>
	<line x1="2923.97" y1="1236.67" x2="2935.10" y2="1249.54" stroke-linecap="round" style="stroke:#1A476F;stroke-width:8.64"/>
	<line x1="2935.10" y1="1249.54" x2="2946.24" y2="1262.41" stroke-linecap="round" style="stroke:#1A476F;stroke-width:8.64"/>
	<line x1="2946.24" y1="1262.41" x2="2957.50" y2="1275.41" stroke-linecap="round" style="stroke:#1A476F;stroke-width:8.64"/>
	<line x1="2957.50" y1="1275.41" x2="2968.64" y2="1288.40" stroke-linecap="round" style="stroke:#1A476F;stroke-width:8.64"/>
	<line x1="2968.64" y1="1288.40" x2="2979.78" y2="1301.40" stroke-linecap="round" style="stroke:#1A476F;stroke-width:8.64"/>
	<line x1="2979.78" y1="1301.40" x2="2991.04" y2="1314.51" stroke-linecap="round" style="stroke:#1A476F;stroke-width:8.64"/>
	<line x1="2991.04" y1="1314.51" x2="3002.18" y2="1327.63" stroke-linecap="round" style="stroke:#1A476F;stroke-width:8.64"/>
	<line x1="3002.18" y1="1327.63" x2="3013.31" y2="1340.63" stroke-linecap="round" style="stroke:#1A476F;stroke-width:8.64"/>
	<line x1="3013.31" y1="1340.63" x2="3024.57" y2="1353.74" stroke-linecap="round" style="stroke:#1A476F;stroke-width:8.64"/>
	<line x1="3024.57" y1="1353.74" x2="3035.71" y2="1366.86" stroke-linecap="round" style="stroke:#1A476F;stroke-width:8.64"/>
	<line x1="3035.71" y1="1366.86" x2="3046.85" y2="1379.98" stroke-linecap="round" style="stroke:#1A476F;stroke-width:8.64"/>
	<line x1="3046.85" y1="1379.98" x2="3058.11" y2="1393.10" stroke-linecap="round" style="stroke:#1A476F;stroke-width:8.64"/>
	<line x1="3058.11" y1="1393.10" x2="3069.25" y2="1406.22" stroke-linecap="round" style="stroke:#1A476F;stroke-width:8.64"/>
	<line x1="3069.25" y1="1406.22" x2="3080.39" y2="1419.33" stroke-linecap="round" style="stroke:#1A476F;stroke-width:8.64"/>
	<line x1="3080.39" y1="1419.33" x2="3091.52" y2="1432.33" stroke-linecap="round" style="stroke:#1A476F;stroke-width:8.64"/>
	<line x1="3091.52" y1="1432.33" x2="3102.78" y2="1445.45" stroke-linecap="round" style="stroke:#1A476F;stroke-width:8.64"/>
	<line x1="3102.78" y1="1445.45" x2="3113.92" y2="1458.44" stroke-linecap="round" style="stroke:#1A476F;stroke-width:8.64"/>
	<line x1="3113.92" y1="1458.44" x2="3125.06" y2="1471.43" stroke-linecap="round" style="stroke:#1A476F;stroke-width:8.64"/>
	<line x1="3125.06" y1="1471.43" x2="3136.32" y2="1484.43" stroke-linecap="round" style="stroke:#1A476F;stroke-width:8.64"/>
	<line x1="3136.32" y1="1484.43" x2="3147.46" y2="1497.30" stroke-linecap="round" style="stroke:#1A476F;stroke-width:8.64"/>
	<line x1="3147.46" y1="1497.30" x2="3158.59" y2="1510.17" stroke-linecap="round" style="stroke:#1A476F;stroke-width:8.64"/>
	<line x1="3158.59" y1="1510.17" x2="3169.86" y2="1523.04" stroke-linecap="round" style="stroke:#1A476F;stroke-width:8.64"/>
	<line x1="3169.86" y1="1523.04" x2="3180.99" y2="1535.79" stroke-linecap="round" style="stroke:#1A476F;stroke-width:8.64"/>
	<line x1="3180.99" y1="1535.79" x2="3192.13" y2="1548.53" stroke-linecap="round" style="stroke:#1A476F;stroke-width:8.64"/>
	<line x1="3192.13" y1="1548.53" x2="3203.39" y2="1561.28" stroke-linecap="round" style="stroke:#1A476F;stroke-width:8.64"/>
	<line x1="3203.39" y1="1561.28" x2="3214.53" y2="1573.78" stroke-linecap="round" style="stroke:#1A476F;stroke-width:8.64"/>
	<line x1="3214.53" y1="1573.78" x2="3225.67" y2="1586.40" stroke-linecap="round" style="stroke:#1A476F;stroke-width:8.64"/>
	<line x1="3225.67" y1="1586.40" x2="3236.80" y2="1598.90" stroke-linecap="round" style="stroke:#1A476F;stroke-width:8.64"/>
	<line x1="3236.80" y1="1598.90" x2="3248.07" y2="1611.28" stroke-linecap="round" style="stroke:#1A476F;stroke-width:8.64"/>
	<line x1="3248.07" y1="1611.28" x2="3259.20" y2="1623.65" stroke-linecap="round" style="stroke:#1A476F;stroke-width:8.64"/>
	<line x1="3259.20" y1="1623.65" x2="3270.34" y2="1635.90" stroke-linecap="round" style="stroke:#1A476F;stroke-width:8.64"/>
	<line x1="3270.34" y1="1635.90" x2="3281.60" y2="1648.15" stroke-linecap="round" style="stroke:#1A476F;stroke-width:8.64"/>
	<line x1="3281.60" y1="1648.15" x2="3292.74" y2="1660.16" stroke-linecap="round" style="stroke:#1A476F;stroke-width:8.64"/>
	<line x1="3292.74" y1="1660.16" x2="3303.88" y2="1672.29" stroke-linecap="round" style="stroke:#1A476F;stroke-width:8.64"/>
	<line x1="3303.88" y1="1672.29" x2="3315.14" y2="1684.17" stroke-linecap="round" style="stroke:#1A476F;stroke-width:8.64"/>
	<line x1="3315.14" y1="1684.17" x2="3326.28" y2="1696.05" stroke-linecap="round" style="stroke:#1A476F;stroke-width:8.64"/>
	<line x1="3326.28" y1="1696.05" x2="3337.41" y2="1707.80" stroke-linecap="round" style="stroke:#1A476F;stroke-width:8.64"/>
	<line x1="3337.41" y1="1707.80" x2="3348.68" y2="1719.44" stroke-linecap="round" style="stroke:#1A476F;stroke-width:8.64"/>
	<line x1="3348.68" y1="1719.44" x2="3359.81" y2="1730.95" stroke-linecap="round" style="stroke:#1A476F;stroke-width:8.64"/>
	<line x1="3359.81" y1="1730.95" x2="3370.95" y2="1742.45" stroke-linecap="round" style="stroke:#1A476F;stroke-width:8.64"/>
	<line x1="3370.95" y1="1742.45" x2="3382.21" y2="1753.84" stroke-linecap="round" style="stroke:#1A476F;stroke-width:8.64"/>
	<line x1="3382.21" y1="1753.84" x2="3393.35" y2="1765.10" stroke-linecap="round" style="stroke:#1A476F;stroke-width:8.64"/>
	<line x1="3393.35" y1="1765.10" x2="3404.49" y2="1776.24" stroke-linecap="round" style="stroke:#1A476F;stroke-width:8.64"/>
	<line x1="3404.49" y1="1776.24" x2="3415.62" y2="1787.25" stroke-linecap="round" style="stroke:#1A476F;stroke-width:8.64"/>
	<line x1="3415.62" y1="1787.25" x2="3426.89" y2="1798.14" stroke-linecap="round" style="stroke:#1A476F;stroke-width:8.64"/>
	<line x1="3426.89" y1="1798.14" x2="3438.02" y2="1809.03" stroke-linecap="round" style="stroke:#1A476F;stroke-width:8.64"/>
	<line x1="3438.02" y1="1809.03" x2="3449.16" y2="1819.68" stroke-linecap="round" style="stroke:#1A476F;stroke-width:8.64"/>
	<line x1="3449.16" y1="1819.68" x2="3460.42" y2="1830.32" stroke-linecap="round" style="stroke:#1A476F;stroke-width:8.64"/>
	<line x1="3460.42" y1="1830.32" x2="3471.56" y2="1840.84" stroke-linecap="round" style="stroke:#1A476F;stroke-width:8.64"/>
	<line x1="3471.56" y1="1840.84" x2="3482.70" y2="1851.23" stroke-linecap="round" style="stroke:#1A476F;stroke-width:8.64"/>
	<line x1="3482.70" y1="1851.23" x2="3493.96" y2="1861.38" stroke-linecap="round" style="stroke:#1A476F;stroke-width:8.64"/>
	<line x1="3493.96" y1="1861.38" x2="3505.09" y2="1871.53" stroke-linecap="round" style="stroke:#1A476F;stroke-width:8.64"/>
	<line x1="3505.09" y1="1871.53" x2="3516.23" y2="1881.55" stroke-linecap="round" style="stroke:#1A476F;stroke-width:8.64"/>
	<line x1="3516.23" y1="1881.55" x2="3527.49" y2="1891.45" stroke-linecap="round" style="stroke:#1A476F;stroke-width:8.64"/>
	<line x1="3527.49" y1="1891.45" x2="3538.63" y2="1901.23" stroke-linecap="round" style="stroke:#1A476F;stroke-width:8.64"/>
	<line x1="3538.63" y1="1901.23" x2="3549.77" y2="1910.88" stroke-linecap="round" style="stroke:#1A476F;stroke-width:8.64"/>
	<line x1="3549.77" y1="1910.88" x2="3560.91" y2="1920.41" stroke-linecap="round" style="stroke:#1A476F;stroke-width:8.64"/>
	<line x1="3560.91" y1="1920.41" x2="3572.17" y2="1929.82" stroke-linecap="round" style="stroke:#1A476F;stroke-width:8.64"/>
	<line x1="3572.17" y1="1929.82" x2="3583.30" y2="1939.10" stroke-linecap="round" style="stroke:#1A476F;stroke-width:8.64"/>
	<line x1="3583.30" y1="1939.10" x2="3594.44" y2="1948.26" stroke-linecap="round" style="stroke:#1A476F;stroke-width:8.64"/>
	<line x1="3594.44" y1="1948.26" x2="3605.70" y2="1957.29" stroke-linecap="round" style="stroke:#1A476F;stroke-width:8.64"/>
	<line x1="3605.70" y1="1957.29" x2="3616.84" y2="1966.20" stroke-linecap="round" style="stroke:#1A476F;stroke-width:8.64"/>
	<line x1="3616.84" y1="1966.20" x2="3627.98" y2="1974.99" stroke-linecap="round" style="stroke:#1A476F;stroke-width:8.64"/>
	<line x1="3627.98" y1="1974.99" x2="3639.24" y2="1983.65" stroke-linecap="round" style="stroke:#1A476F;stroke-width:8.64"/>
	<line x1="3639.24" y1="1983.65" x2="3650.38" y2="1992.19" stroke-linecap="round" style="stroke:#1A476F;stroke-width:8.64"/>
	<line x1="3650.38" y1="1992.19" x2="3661.51" y2="2000.61" stroke-linecap="round" style="stroke:#1A476F;stroke-width:8.64"/>
	<line x1="3661.51" y1="2000.61" x2="3672.78" y2="2008.90" stroke-linecap="round" style="stroke:#1A476F;stroke-width:8.64"/>
	<line x1="3672.78" y1="2008.90" x2="3683.91" y2="2017.06" stroke-linecap="round" style="stroke:#1A476F;stroke-width:8.64"/>
	<line x1="3683.91" y1="2017.06" x2="3695.05" y2="2025.11" stroke-linecap="round" style="stroke:#1A476F;stroke-width:8.64"/>
	<line x1="3695.05" y1="2025.11" x2="3706.31" y2="2033.03" stroke-linecap="round" style="stroke:#1A476F;stroke-width:8.64"/>
	<line x1="3706.31" y1="2033.03" x2="3717.45" y2="2040.83" stroke-linecap="round" style="stroke:#1A476F;stroke-width:8.64"/>
	<line x1="3717.45" y1="2040.83" x2="3728.59" y2="2048.50" stroke-linecap="round" style="stroke:#1A476F;stroke-width:8.64"/>
	<line x1="3728.59" y1="2048.50" x2="3739.72" y2="2056.05" stroke-linecap="round" style="stroke:#1A476F;stroke-width:8.64"/>
	<line x1="3739.72" y1="2056.05" x2="3750.99" y2="2063.47" stroke-linecap="round" style="stroke:#1A476F;stroke-width:8.64"/>
	<line x1="3750.99" y1="2063.47" x2="3762.12" y2="2070.77" stroke-linecap="round" style="stroke:#1A476F;stroke-width:8.64"/>
	<line x1="3762.12" y1="2070.77" x2="3773.26" y2="2078.07" stroke-linecap="round" style="stroke:#1A476F;stroke-width:8.64"/>
	<line x1="3773.26" y1="2078.07" x2="3784.52" y2="2085.13" stroke-linecap="round" style="stroke:#1A476F;stroke-width:8.64"/>
	<line x1="3784.52" y1="2085.13" x2="3795.66" y2="2092.06" stroke-linecap="round" style="stroke:#1A476F;stroke-width:8.64"/>
	<line x1="390.80" y1="2489.19" x2="390.80" y2="275.35" style="stroke:#000000;stroke-width:5.76"/>
	<line x1="390.80" y1="2425.82" x2="350.83" y2="2425.82" style="stroke:#000000;stroke-width:5.76"/>
	<text x="300.72" y="2425.82" style="font-family:'Helvetica';font-size:99.99px;fill:#000000" transform="rotate(-90 300.72,2425.82)" text-anchor="middle">1</text>
	<line x1="390.80" y1="1904.08" x2="350.83" y2="1904.08" style="stroke:#000000;stroke-width:5.76"/>
	<text x="300.72" y="1904.08" style="font-family:'Helvetica';font-size:99.99px;fill:#000000" transform="rotate(-90 300.72,1904.08)" text-anchor="middle">1.5</text>
	<line x1="390.80" y1="1382.33" x2="350.83" y2="1382.33" style="stroke:#000000;stroke-width:5.76"/>
	<text x="300.72" y="1382.33" style="font-family:'Helvetica';font-size:99.99px;fill:#000000" transform="rotate(-90 300.72,1382.33)" text-anchor="middle">2</text>
	<line x1="390.80" y1="860.46" x2="350.83" y2="860.46" style="stroke:#000000;stroke-width:5.76"/>
	<text x="300.72" y="860.46" style="font-family:'Helvetica';font-size:99.99px;fill:#000000" transform="rotate(-90 300.72,860.46)" text-anchor="middle">2.5</text>
	<line x1="390.80" y1="338.71" x2="350.83" y2="338.71" style="stroke:#000000;stroke-width:5.76"/>
	<text x="300.72" y="338.71" style="font-family:'Helvetica';font-size:99.99px;fill:#000000" transform="rotate(-90 300.72,338.71)" text-anchor="middle">3</text>
	<text x="190.71" y="1382.33" style="font-family:'Helvetica';font-size:99.99px;fill:#000000" transform="rotate(-90 190.71,1382.33)" text-anchor="middle">Information</text>
	<line x1="390.80" y1="2489.19" x2="3859.02" y2="2489.19" style="stroke:#000000;stroke-width:5.76"/>
	<line x1="454.16" y1="2489.19" x2="454.16" y2="2529.16" style="stroke:#000000;stroke-width:5.76"/>
	<text x="454.16" y="2619.14" style="font-family:'Helvetica';font-size:99.99px;fill:#000000" text-anchor="middle">-4</text>
	<line x1="1289.47" y1="2489.19" x2="1289.47" y2="2529.16" style="stroke:#000000;stroke-width:5.76"/>
	<text x="1289.47" y="2619.14" style="font-family:'Helvetica';font-size:99.99px;fill:#000000" text-anchor="middle">-2</text>
	<line x1="2124.91" y1="2489.19" x2="2124.91" y2="2529.16" style="stroke:#000000;stroke-width:5.76"/>
	<text x="2124.91" y="2619.14" style="font-family:'Helvetica';font-size:99.99px;fill:#000000" text-anchor="middle">0</text>
	<line x1="2960.35" y1="2489.19" x2="2960.35" y2="2529.16" style="stroke:#000000;stroke-width:5.76"/>
	<text x="2960.35" y="2619.14" style="font-family:'Helvetica';font-size:99.99px;fill:#000000" text-anchor="middle">2</text>
	<line x1="3795.66" y1="2489.19" x2="3795.66" y2="2529.16" style="stroke:#000000;stroke-width:5.76"/>
	<text x="3795.66" y="2619.14" style="font-family:'Helvetica';font-size:99.99px;fill:#000000" text-anchor="middle">4</text>
	<text x="2124.91" y="2729.16" style="font-family:'Helvetica';font-size:99.99px;fill:#000000" text-anchor="middle">Theta</text>
	<text x="2124.91" y="215.98" style="font-family:'Helvetica';font-size:139.96px;fill:#1E2D53" text-anchor="middle">Test Information Function</text>
</svg>
