<?xml version="1.0" encoding="UTF-8" standalone="no"?>
<!-- This is a Stata 15.0 generated SVG file (http://www.stata.com) -->

<svg version="1.1" width="600px" height="436px" viewBox="0 0 3960 2880" xmlns="http://www.w3.org/2000/svg" xmlns:xlink="http://www.w3.org/1999/xlink">
	<desc>Stata Graph - Graph</desc>
	<rect x="0" y="0" width="3960" height="2880" style="fill:#EAF2F3;stroke:none"/>
	<rect x="0.00" y="0.00" width="3959.88" height="2880.00" style="fill:#EAF2F3"/>
	<rect x="2.88" y="2.88" width="3954.12" height="2874.24" style="fill:none;stroke:#EAF2F3;stroke-width:5.76"/>
	<rect x="407.38" y="275.35" width="3451.64" height="2213.83" style="fill:#FFFFFF"/>
	<rect x="410.26" y="278.23" width="3445.88" height="2208.07" style="fill:none;stroke:#FFFFFF;stroke-width:5.76"/>
	<line x1="407.38" y1="2425.82" x2="3859.02" y2="2425.82" style="stroke:#EAF2F3;stroke-width:8.64"/>
	<line x1="407.38" y1="1382.33" x2="3859.02" y2="1382.33" style="stroke:#EAF2F3;stroke-width:8.64"/>
	<line x1="407.38" y1="338.71" x2="3859.02" y2="338.71" style="stroke:#EAF2F3;stroke-width:8.64"/>
	<line x1="470.75" y1="2177.45" x2="481.88" y2="2172.00" stroke-linecap="round" style="stroke:#1A476F;stroke-width:8.64"/>
	<line x1="481.88" y1="2172.00" x2="493.02" y2="2166.56" stroke-linecap="round" style="stroke:#1A476F;stroke-width:8.64"/>
	<line x1="493.02" y1="2166.56" x2="504.16" y2="2160.87" stroke-linecap="round" style="stroke:#1A476F;stroke-width:8.64"/>
	<line x1="504.16" y1="2160.87" x2="515.17" y2="2155.17" stroke-linecap="round" style="stroke:#1A476F;stroke-width:8.64"/>
	<line x1="515.17" y1="2155.17" x2="526.31" y2="2149.36" stroke-linecap="round" style="stroke:#1A476F;stroke-width:8.64"/>
	<line x1="526.31" y1="2149.36" x2="537.45" y2="2143.42" stroke-linecap="round" style="stroke:#1A476F;stroke-width:8.64"/>
	<line x1="537.45" y1="2143.42" x2="548.58" y2="2137.35" stroke-linecap="round" style="stroke:#1A476F;stroke-width:8.64"/>
	<line x1="548.58" y1="2137.35" x2="559.72" y2="2131.17" stroke-linecap="round" style="stroke:#1A476F;stroke-width:8.64"/>
	<line x1="559.72" y1="2131.17" x2="570.86" y2="2124.85" stroke-linecap="round" style="stroke:#1A476F;stroke-width:8.64"/>
	<line x1="570.86" y1="2124.85" x2="582.00" y2="2118.54" stroke-linecap="round" style="stroke:#1A476F;stroke-width:8.64"/>
	<line x1="582.00" y1="2118.54" x2="593.01" y2="2111.98" stroke-linecap="round" style="stroke:#1A476F;stroke-width:8.64"/>
	<line x1="593.01" y1="2111.98" x2="604.15" y2="2105.42" stroke-linecap="round" style="stroke:#1A476F;stroke-width:8.64"/>
	<line x1="604.15" y1="2105.42" x2="615.28" y2="2098.74" stroke-linecap="round" style="stroke:#1A476F;stroke-width:8.64"/>
	<line x1="615.28" y1="2098.74" x2="626.42" y2="2091.81" stroke-linecap="round" style="stroke:#1A476F;stroke-width:8.64"/>
	<line x1="626.42" y1="2091.81" x2="637.56" y2="2084.88" stroke-linecap="round" style="stroke:#1A476F;stroke-width:8.64"/>
	<line x1="637.56" y1="2084.88" x2="648.70" y2="2077.83" stroke-linecap="round" style="stroke:#1A476F;stroke-width:8.64"/>
	<line x1="648.70" y1="2077.83" x2="659.84" y2="2070.65" stroke-linecap="round" style="stroke:#1A476F;stroke-width:8.64"/>
	<line x1="659.84" y1="2070.65" x2="670.85" y2="2063.35" stroke-linecap="round" style="stroke:#1A476F;stroke-width:8.64"/>
	<line x1="670.85" y1="2063.35" x2="681.99" y2="2055.92" stroke-linecap="round" style="stroke:#1A476F;stroke-width:8.64"/>
	<line x1="681.99" y1="2055.92" x2="693.12" y2="2048.37" stroke-linecap="round" style="stroke:#1A476F;stroke-width:8.64"/>
	<line x1="693.12" y1="2048.37" x2="704.26" y2="2040.83" stroke-linecap="round" style="stroke:#1A476F;stroke-width:8.64"/>
	<line x1="704.26" y1="2040.83" x2="715.40" y2="2033.03" stroke-linecap="round" style="stroke:#1A476F;stroke-width:8.64"/>
	<line x1="715.40" y1="2033.03" x2="726.54" y2="2025.11" stroke-linecap="round" style="stroke:#1A476F;stroke-width:8.64"/>
	<line x1="726.54" y1="2025.11" x2="737.67" y2="2017.06" stroke-linecap="round" style="stroke:#1A476F;stroke-width:8.64"/>
	<line x1="737.67" y1="2017.06" x2="748.69" y2="2009.02" stroke-linecap="round" style="stroke:#1A476F;stroke-width:8.64"/>
	<line x1="748.69" y1="2009.02" x2="759.83" y2="2000.73" stroke-linecap="round" style="stroke:#1A476F;stroke-width:8.64"/>
	<line x1="759.83" y1="2000.73" x2="770.96" y2="1992.31" stroke-linecap="round" style="stroke:#1A476F;stroke-width:8.64"/>
	<line x1="770.96" y1="1992.31" x2="782.10" y2="1983.90" stroke-linecap="round" style="stroke:#1A476F;stroke-width:8.64"/>
	<line x1="782.10" y1="1983.90" x2="793.24" y2="1975.24" stroke-linecap="round" style="stroke:#1A476F;stroke-width:8.64"/>
	<line x1="793.24" y1="1975.24" x2="804.38" y2="1966.45" stroke-linecap="round" style="stroke:#1A476F;stroke-width:8.64"/>
	<line x1="804.38" y1="1966.45" x2="815.51" y2="1957.66" stroke-linecap="round" style="stroke:#1A476F;stroke-width:8.64"/>
	<line x1="815.51" y1="1957.66" x2="826.53" y2="1948.63" stroke-linecap="round" style="stroke:#1A476F;stroke-width:8.64"/>
	<line x1="826.53" y1="1948.63" x2="837.66" y2="1939.59" stroke-linecap="round" style="stroke:#1A476F;stroke-width:8.64"/>
	<line x1="837.66" y1="1939.59" x2="848.80" y2="1930.31" stroke-linecap="round" style="stroke:#1A476F;stroke-width:8.64"/>
	<line x1="848.80" y1="1930.31" x2="859.94" y2="1921.03" stroke-linecap="round" style="stroke:#1A476F;stroke-width:8.64"/>
	<line x1="859.94" y1="1921.03" x2="871.08" y2="1911.50" stroke-linecap="round" style="stroke:#1A476F;stroke-width:8.64"/>
	<line x1="871.08" y1="1911.50" x2="882.21" y2="1901.97" stroke-linecap="round" style="stroke:#1A476F;stroke-width:8.64"/>
	<line x1="882.21" y1="1901.97" x2="893.35" y2="1892.32" stroke-linecap="round" style="stroke:#1A476F;stroke-width:8.64"/>
	<line x1="893.35" y1="1892.32" x2="904.49" y2="1882.42" stroke-linecap="round" style="stroke:#1A476F;stroke-width:8.64"/>
	<line x1="904.49" y1="1882.42" x2="915.50" y2="1872.52" stroke-linecap="round" style="stroke:#1A476F;stroke-width:8.64"/>
	<line x1="915.50" y1="1872.52" x2="926.64" y2="1862.50" stroke-linecap="round" style="stroke:#1A476F;stroke-width:8.64"/>
	<line x1="926.64" y1="1862.50" x2="937.78" y2="1852.35" stroke-linecap="round" style="stroke:#1A476F;stroke-width:8.64"/>
	<line x1="937.78" y1="1852.35" x2="948.91" y2="1842.08" stroke-linecap="round" style="stroke:#1A476F;stroke-width:8.64"/>
	<line x1="948.91" y1="1842.08" x2="960.05" y2="1831.68" stroke-linecap="round" style="stroke:#1A476F;stroke-width:8.64"/>
	<line x1="960.05" y1="1831.68" x2="971.19" y2="1821.16" stroke-linecap="round" style="stroke:#1A476F;stroke-width:8.64"/>
	<line x1="971.19" y1="1821.16" x2="982.33" y2="1810.64" stroke-linecap="round" style="stroke:#1A476F;stroke-width:8.64"/>
	<line x1="982.33" y1="1810.64" x2="993.34" y2="1799.88" stroke-linecap="round" style="stroke:#1A476F;stroke-width:8.64"/>
	<line x1="993.34" y1="1799.88" x2="1004.48" y2="1789.11" stroke-linecap="round" style="stroke:#1A476F;stroke-width:8.64"/>
	<line x1="1004.48" y1="1789.11" x2="1015.62" y2="1778.22" stroke-linecap="round" style="stroke:#1A476F;stroke-width:8.64"/>
	<line x1="1015.62" y1="1778.22" x2="1026.75" y2="1767.21" stroke-linecap="round" style="stroke:#1A476F;stroke-width:8.64"/>
	<line x1="1026.75" y1="1767.21" x2="1037.89" y2="1756.07" stroke-linecap="round" style="stroke:#1A476F;stroke-width:8.64"/>
	<line x1="1037.89" y1="1756.07" x2="1049.03" y2="1744.81" stroke-linecap="round" style="stroke:#1A476F;stroke-width:8.64"/>
	<line x1="1049.03" y1="1744.81" x2="1060.17" y2="1733.54" stroke-linecap="round" style="stroke:#1A476F;stroke-width:8.64"/>
	<line x1="1060.17" y1="1733.54" x2="1071.18" y2="1722.16" stroke-linecap="round" style="stroke:#1A476F;stroke-width:8.64"/>
	<line x1="1071.18" y1="1722.16" x2="1082.32" y2="1710.65" stroke-linecap="round" style="stroke:#1A476F;stroke-width:8.64"/>
	<line x1="1082.32" y1="1710.65" x2="1093.45" y2="1699.02" stroke-linecap="round" style="stroke:#1A476F;stroke-width:8.64"/>
	<line x1="1093.45" y1="1699.02" x2="1104.59" y2="1687.38" stroke-linecap="round" style="stroke:#1A476F;stroke-width:8.64"/>
	<line x1="1104.59" y1="1687.38" x2="1115.73" y2="1675.63" stroke-linecap="round" style="stroke:#1A476F;stroke-width:8.64"/>
	<line x1="1115.73" y1="1675.63" x2="1126.87" y2="1663.75" stroke-linecap="round" style="stroke:#1A476F;stroke-width:8.64"/>
	<line x1="1126.87" y1="1663.75" x2="1138.01" y2="1651.87" stroke-linecap="round" style="stroke:#1A476F;stroke-width:8.64"/>
	<line x1="1138.01" y1="1651.87" x2="1149.02" y2="1639.86" stroke-linecap="round" style="stroke:#1A476F;stroke-width:8.64"/>
	<line x1="1149.02" y1="1639.86" x2="1160.16" y2="1627.73" stroke-linecap="round" style="stroke:#1A476F;stroke-width:8.64"/>
	<line x1="1160.16" y1="1627.73" x2="1171.29" y2="1615.61" stroke-linecap="round" style="stroke:#1A476F;stroke-width:8.64"/>
	<line x1="1171.29" y1="1615.61" x2="1182.43" y2="1603.48" stroke-linecap="round" style="stroke:#1A476F;stroke-width:8.64"/>
	<line x1="1182.43" y1="1603.48" x2="1193.57" y2="1591.10" stroke-linecap="round" style="stroke:#1A476F;stroke-width:8.64"/>
	<line x1="1193.57" y1="1591.10" x2="1204.71" y2="1578.85" stroke-linecap="round" style="stroke:#1A476F;stroke-width:8.64"/>
	<line x1="1204.71" y1="1578.85" x2="1215.84" y2="1566.48" stroke-linecap="round" style="stroke:#1A476F;stroke-width:8.64"/>
	<line x1="1215.84" y1="1566.48" x2="1226.86" y2="1553.98" stroke-linecap="round" style="stroke:#1A476F;stroke-width:8.64"/>
	<line x1="1226.86" y1="1553.98" x2="1237.99" y2="1541.48" stroke-linecap="round" style="stroke:#1A476F;stroke-width:8.64"/>
	<line x1="1237.99" y1="1541.48" x2="1249.13" y2="1528.98" stroke-linecap="round" style="stroke:#1A476F;stroke-width:8.64"/>
	<line x1="1249.13" y1="1528.98" x2="1260.27" y2="1516.36" stroke-linecap="round" style="stroke:#1A476F;stroke-width:8.64"/>
	<line x1="1260.27" y1="1516.36" x2="1271.41" y2="1503.73" stroke-linecap="round" style="stroke:#1A476F;stroke-width:8.64"/>
	<line x1="1271.41" y1="1503.73" x2="1282.55" y2="1491.11" stroke-linecap="round" style="stroke:#1A476F;stroke-width:8.64"/>
	<line x1="1282.55" y1="1491.11" x2="1293.68" y2="1478.49" stroke-linecap="round" style="stroke:#1A476F;stroke-width:8.64"/>
	<line x1="1293.68" y1="1478.49" x2="1304.70" y2="1465.74" stroke-linecap="round" style="stroke:#1A476F;stroke-width:8.64"/>
	<line x1="1304.70" y1="1465.74" x2="1315.83" y2="1452.99" stroke-linecap="round" style="stroke:#1A476F;stroke-width:8.64"/>
	<line x1="1315.83" y1="1452.99" x2="1326.97" y2="1440.25" stroke-linecap="round" style="stroke:#1A476F;stroke-width:8.64"/>
	<line x1="1326.97" y1="1440.25" x2="1338.11" y2="1427.38" stroke-linecap="round" style="stroke:#1A476F;stroke-width:8.64"/>
	<line x1="1338.11" y1="1427.38" x2="1349.25" y2="1414.63" stroke-linecap="round" style="stroke:#1A476F;stroke-width:8.64"/>
	<line x1="1349.25" y1="1414.63" x2="1360.38" y2="1401.88" stroke-linecap="round" style="stroke:#1A476F;stroke-width:8.64"/>
	<line x1="1360.38" y1="1401.88" x2="1371.52" y2="1389.01" stroke-linecap="round" style="stroke:#1A476F;stroke-width:8.64"/>
	<line x1="1371.52" y1="1389.01" x2="1382.54" y2="1376.27" stroke-linecap="round" style="stroke:#1A476F;stroke-width:8.64"/>
	<line x1="1382.54" y1="1376.27" x2="1393.67" y2="1363.40" stroke-linecap="round" style="stroke:#1A476F;stroke-width:8.64"/>
	<line x1="1393.67" y1="1363.40" x2="1404.81" y2="1350.65" stroke-linecap="round" style="stroke:#1A476F;stroke-width:8.64"/>
	<line x1="1404.81" y1="1350.65" x2="1415.95" y2="1337.78" stroke-linecap="round" style="stroke:#1A476F;stroke-width:8.64"/>
	<line x1="1415.95" y1="1337.78" x2="1427.09" y2="1325.03" stroke-linecap="round" style="stroke:#1A476F;stroke-width:8.64"/>
	<line x1="1427.09" y1="1325.03" x2="1438.22" y2="1312.29" stroke-linecap="round" style="stroke:#1A476F;stroke-width:8.64"/>
	<line x1="1438.22" y1="1312.29" x2="1449.36" y2="1299.54" stroke-linecap="round" style="stroke:#1A476F;stroke-width:8.64"/>
	<line x1="1449.36" y1="1299.54" x2="1460.37" y2="1286.79" stroke-linecap="round" style="stroke:#1A476F;stroke-width:8.64"/>
	<line x1="1460.37" y1="1286.79" x2="1471.51" y2="1274.17" stroke-linecap="round" style="stroke:#1A476F;stroke-width:8.64"/>
	<line x1="1471.51" y1="1274.17" x2="1482.65" y2="1261.42" stroke-linecap="round" style="stroke:#1A476F;stroke-width:8.64"/>
	<line x1="1482.65" y1="1261.42" x2="1493.79" y2="1248.80" stroke-linecap="round" style="stroke:#1A476F;stroke-width:8.64"/>
	<line x1="1493.79" y1="1248.80" x2="1504.92" y2="1236.30" stroke-linecap="round" style="stroke:#1A476F;stroke-width:8.64"/>
	<line x1="1504.92" y1="1236.30" x2="1516.06" y2="1223.68" stroke-linecap="round" style="stroke:#1A476F;stroke-width:8.64"/>
	<line x1="1516.06" y1="1223.68" x2="1527.20" y2="1211.18" stroke-linecap="round" style="stroke:#1A476F;stroke-width:8.64"/>
	<line x1="1527.20" y1="1211.18" x2="1538.34" y2="1198.80" stroke-linecap="round" style="stroke:#1A476F;stroke-width:8.64"/>
	<line x1="1538.34" y1="1198.80" x2="1549.35" y2="1186.43" stroke-linecap="round" style="stroke:#1A476F;stroke-width:8.64"/>
	<line x1="1549.35" y1="1186.43" x2="1560.49" y2="1174.05" stroke-linecap="round" style="stroke:#1A476F;stroke-width:8.64"/>
	<line x1="1560.49" y1="1174.05" x2="1571.63" y2="1161.80" stroke-linecap="round" style="stroke:#1A476F;stroke-width:8.64"/>
	<line x1="1571.63" y1="1161.80" x2="1582.76" y2="1149.55" stroke-linecap="round" style="stroke:#1A476F;stroke-width:8.64"/>
	<line x1="1582.76" y1="1149.55" x2="1593.90" y2="1137.42" stroke-linecap="round" style="stroke:#1A476F;stroke-width:8.64"/>
	<line x1="1593.90" y1="1137.42" x2="1605.04" y2="1125.42" stroke-linecap="round" style="stroke:#1A476F;stroke-width:8.64"/>
	<line x1="1605.04" y1="1125.42" x2="1616.18" y2="1113.41" stroke-linecap="round" style="stroke:#1A476F;stroke-width:8.64"/>
	<line x1="1616.18" y1="1113.41" x2="1627.19" y2="1101.41" stroke-linecap="round" style="stroke:#1A476F;stroke-width:8.64"/>
	<line x1="1627.19" y1="1101.41" x2="1638.33" y2="1089.65" stroke-linecap="round" style="stroke:#1A476F;stroke-width:8.64"/>
	<line x1="1638.33" y1="1089.65" x2="1649.46" y2="1077.90" stroke-linecap="round" style="stroke:#1A476F;stroke-width:8.64"/>
	<line x1="1649.46" y1="1077.90" x2="1660.60" y2="1066.14" stroke-linecap="round" style="stroke:#1A476F;stroke-width:8.64"/>
	<line x1="1660.60" y1="1066.14" x2="1671.74" y2="1054.63" stroke-linecap="round" style="stroke:#1A476F;stroke-width:8.64"/>
	<line x1="1671.74" y1="1054.63" x2="1682.88" y2="1043.12" stroke-linecap="round" style="stroke:#1A476F;stroke-width:8.64"/>
	<line x1="1682.88" y1="1043.12" x2="1694.01" y2="1031.74" stroke-linecap="round" style="stroke:#1A476F;stroke-width:8.64"/>
	<line x1="1694.01" y1="1031.74" x2="1705.03" y2="1020.35" stroke-linecap="round" style="stroke:#1A476F;stroke-width:8.64"/>
	<line x1="1705.03" y1="1020.35" x2="1716.17" y2="1009.09" stroke-linecap="round" style="stroke:#1A476F;stroke-width:8.64"/>
	<line x1="1716.17" y1="1009.09" x2="1727.30" y2="998.07" stroke-linecap="round" style="stroke:#1A476F;stroke-width:8.64"/>
	<line x1="1727.30" y1="998.07" x2="1738.44" y2="986.94" stroke-linecap="round" style="stroke:#1A476F;stroke-width:8.64"/>
	<line x1="1738.44" y1="986.94" x2="1749.58" y2="976.05" stroke-linecap="round" style="stroke:#1A476F;stroke-width:8.64"/>
	<line x1="1749.58" y1="976.05" x2="1760.71" y2="965.28" stroke-linecap="round" style="stroke:#1A476F;stroke-width:8.64"/>
	<line x1="1760.71" y1="965.28" x2="1771.85" y2="954.51" stroke-linecap="round" style="stroke:#1A476F;stroke-width:8.64"/>
	<line x1="1771.85" y1="954.51" x2="1782.87" y2="943.99" stroke-linecap="round" style="stroke:#1A476F;stroke-width:8.64"/>
	<line x1="1782.87" y1="943.99" x2="1794.00" y2="933.48" stroke-linecap="round" style="stroke:#1A476F;stroke-width:8.64"/>
	<line x1="1794.00" y1="933.48" x2="1805.14" y2="923.08" stroke-linecap="round" style="stroke:#1A476F;stroke-width:8.64"/>
	<line x1="1805.14" y1="923.08" x2="1816.28" y2="912.81" stroke-linecap="round" style="stroke:#1A476F;stroke-width:8.64"/>
	<line x1="1816.28" y1="912.81" x2="1827.42" y2="902.66" stroke-linecap="round" style="stroke:#1A476F;stroke-width:8.64"/>
	<line x1="1827.42" y1="902.66" x2="1838.55" y2="892.64" stroke-linecap="round" style="stroke:#1A476F;stroke-width:8.64"/>
	<line x1="1838.55" y1="892.64" x2="1849.69" y2="882.61" stroke-linecap="round" style="stroke:#1A476F;stroke-width:8.64"/>
	<line x1="1849.69" y1="882.61" x2="1860.70" y2="872.84" stroke-linecap="round" style="stroke:#1A476F;stroke-width:8.64"/>
	<line x1="1860.70" y1="872.84" x2="1871.84" y2="863.18" stroke-linecap="round" style="stroke:#1A476F;stroke-width:8.64"/>
	<line x1="1871.84" y1="863.18" x2="1882.98" y2="853.53" stroke-linecap="round" style="stroke:#1A476F;stroke-width:8.64"/>
	<line x1="1882.98" y1="853.53" x2="1894.12" y2="844.13" stroke-linecap="round" style="stroke:#1A476F;stroke-width:8.64"/>
	<line x1="1894.12" y1="844.13" x2="1905.26" y2="834.72" stroke-linecap="round" style="stroke:#1A476F;stroke-width:8.64"/>
	<line x1="1905.26" y1="834.72" x2="1916.39" y2="825.56" stroke-linecap="round" style="stroke:#1A476F;stroke-width:8.64"/>
	<line x1="1916.39" y1="825.56" x2="1927.53" y2="816.40" stroke-linecap="round" style="stroke:#1A476F;stroke-width:8.64"/>
	<line x1="1927.53" y1="816.40" x2="1938.54" y2="807.37" stroke-linecap="round" style="stroke:#1A476F;stroke-width:8.64"/>
	<line x1="1938.54" y1="807.37" x2="1949.68" y2="798.58" stroke-linecap="round" style="stroke:#1A476F;stroke-width:8.64"/>
	<line x1="1949.68" y1="798.58" x2="1960.82" y2="789.80" stroke-linecap="round" style="stroke:#1A476F;stroke-width:8.64"/>
	<line x1="1960.82" y1="789.80" x2="1971.96" y2="781.26" stroke-linecap="round" style="stroke:#1A476F;stroke-width:8.64"/>
	<line x1="1971.96" y1="781.26" x2="1983.09" y2="772.72" stroke-linecap="round" style="stroke:#1A476F;stroke-width:8.64"/>
	<line x1="1983.09" y1="772.72" x2="1994.23" y2="764.30" stroke-linecap="round" style="stroke:#1A476F;stroke-width:8.64"/>
	<line x1="1994.23" y1="764.30" x2="2005.37" y2="756.01" stroke-linecap="round" style="stroke:#1A476F;stroke-width:8.64"/>
	<line x1="2005.37" y1="756.01" x2="2016.38" y2="747.97" stroke-linecap="round" style="stroke:#1A476F;stroke-width:8.64"/>
	<line x1="2016.38" y1="747.97" x2="2027.52" y2="739.92" stroke-linecap="round" style="stroke:#1A476F;stroke-width:8.64"/>
	<line x1="2027.52" y1="739.92" x2="2038.66" y2="732.00" stroke-linecap="round" style="stroke:#1A476F;stroke-width:8.64"/>
	<line x1="2038.66" y1="732.00" x2="2049.80" y2="724.21" stroke-linecap="round" style="stroke:#1A476F;stroke-width:8.64"/>
	<line x1="2049.80" y1="724.21" x2="2060.93" y2="716.53" stroke-linecap="round" style="stroke:#1A476F;stroke-width:8.64"/>
	<line x1="2060.93" y1="716.53" x2="2072.07" y2="709.11" stroke-linecap="round" style="stroke:#1A476F;stroke-width:8.64"/>
	<line x1="2072.07" y1="709.11" x2="2083.21" y2="701.68" stroke-linecap="round" style="stroke:#1A476F;stroke-width:8.64"/>
	<line x1="2083.21" y1="701.68" x2="2094.22" y2="694.38" stroke-linecap="round" style="stroke:#1A476F;stroke-width:8.64"/>
	<line x1="2094.22" y1="694.38" x2="2105.36" y2="687.21" stroke-linecap="round" style="stroke:#1A476F;stroke-width:8.64"/>
	<line x1="2105.36" y1="687.21" x2="2116.50" y2="680.03" stroke-linecap="round" style="stroke:#1A476F;stroke-width:8.64"/>
	<line x1="2116.50" y1="680.03" x2="2127.63" y2="673.10" stroke-linecap="round" style="stroke:#1A476F;stroke-width:8.64"/>
	<line x1="2127.63" y1="673.10" x2="2138.77" y2="666.29" stroke-linecap="round" style="stroke:#1A476F;stroke-width:8.64"/>
	<line x1="2138.77" y1="666.29" x2="2149.91" y2="659.61" stroke-linecap="round" style="stroke:#1A476F;stroke-width:8.64"/>
	<line x1="2149.91" y1="659.61" x2="2161.05" y2="652.93" stroke-linecap="round" style="stroke:#1A476F;stroke-width:8.64"/>
	<line x1="2161.05" y1="652.93" x2="2172.06" y2="646.49" stroke-linecap="round" style="stroke:#1A476F;stroke-width:8.64"/>
	<line x1="2172.06" y1="646.49" x2="2183.20" y2="640.06" stroke-linecap="round" style="stroke:#1A476F;stroke-width:8.64"/>
	<line x1="2183.20" y1="640.06" x2="2194.34" y2="633.74" stroke-linecap="round" style="stroke:#1A476F;stroke-width:8.64"/>
	<line x1="2194.34" y1="633.74" x2="2205.47" y2="627.68" stroke-linecap="round" style="stroke:#1A476F;stroke-width:8.64"/>
	<line x1="2205.47" y1="627.68" x2="2216.61" y2="621.62" stroke-linecap="round" style="stroke:#1A476F;stroke-width:8.64"/>
	<line x1="2216.61" y1="621.62" x2="2227.75" y2="615.68" stroke-linecap="round" style="stroke:#1A476F;stroke-width:8.64"/>
	<line x1="2227.75" y1="615.68" x2="2238.89" y2="609.74" stroke-linecap="round" style="stroke:#1A476F;stroke-width:8.64"/>
	<line x1="2238.89" y1="609.74" x2="2250.02" y2="604.04" stroke-linecap="round" style="stroke:#1A476F;stroke-width:8.64"/>
	<line x1="2250.02" y1="604.04" x2="2261.04" y2="598.47" stroke-linecap="round" style="stroke:#1A476F;stroke-width:8.64"/>
	<line x1="2261.04" y1="598.47" x2="2272.17" y2="592.90" stroke-linecap="round" style="stroke:#1A476F;stroke-width:8.64"/>
	<line x1="2272.17" y1="592.90" x2="2283.31" y2="587.46" stroke-linecap="round" style="stroke:#1A476F;stroke-width:8.64"/>
	<line x1="2283.31" y1="587.46" x2="2294.45" y2="582.14" stroke-linecap="round" style="stroke:#1A476F;stroke-width:8.64"/>
	<line x1="2294.45" y1="582.14" x2="2305.59" y2="576.94" stroke-linecap="round" style="stroke:#1A476F;stroke-width:8.64"/>
	<line x1="2305.59" y1="576.94" x2="2316.72" y2="571.74" stroke-linecap="round" style="stroke:#1A476F;stroke-width:8.64"/>
	<line x1="2316.72" y1="571.74" x2="2327.86" y2="566.79" stroke-linecap="round" style="stroke:#1A476F;stroke-width:8.64"/>
	<line x1="2327.86" y1="566.79" x2="2338.88" y2="561.84" stroke-linecap="round" style="stroke:#1A476F;stroke-width:8.64"/>
	<line x1="2338.88" y1="561.84" x2="2350.01" y2="557.02" stroke-linecap="round" style="stroke:#1A476F;stroke-width:8.64"/>
	<line x1="2350.01" y1="557.02" x2="2361.15" y2="552.19" stroke-linecap="round" style="stroke:#1A476F;stroke-width:8.64"/>
	<line x1="2361.15" y1="552.19" x2="2372.29" y2="547.49" stroke-linecap="round" style="stroke:#1A476F;stroke-width:8.64"/>
	<line x1="2372.29" y1="547.49" x2="2383.43" y2="543.03" stroke-linecap="round" style="stroke:#1A476F;stroke-width:8.64"/>
	<line x1="2383.43" y1="543.03" x2="2394.56" y2="538.45" stroke-linecap="round" style="stroke:#1A476F;stroke-width:8.64"/>
	<line x1="2394.56" y1="538.45" x2="2405.70" y2="534.12" stroke-linecap="round" style="stroke:#1A476F;stroke-width:8.64"/>
	<line x1="2405.70" y1="534.12" x2="2416.71" y2="529.79" stroke-linecap="round" style="stroke:#1A476F;stroke-width:8.64"/>
	<line x1="2416.71" y1="529.79" x2="2427.85" y2="525.58" stroke-linecap="round" style="stroke:#1A476F;stroke-width:8.64"/>
	<line x1="2427.85" y1="525.58" x2="2438.99" y2="521.50" stroke-linecap="round" style="stroke:#1A476F;stroke-width:8.64"/>
	<line x1="2438.99" y1="521.50" x2="2450.13" y2="517.41" stroke-linecap="round" style="stroke:#1A476F;stroke-width:8.64"/>
	<line x1="2450.13" y1="517.41" x2="2461.26" y2="513.45" stroke-linecap="round" style="stroke:#1A476F;stroke-width:8.64"/>
	<line x1="2461.26" y1="513.45" x2="2472.40" y2="509.49" stroke-linecap="round" style="stroke:#1A476F;stroke-width:8.64"/>
	<line x1="2472.40" y1="509.49" x2="2483.54" y2="505.78" stroke-linecap="round" style="stroke:#1A476F;stroke-width:8.64"/>
	<line x1="2483.54" y1="505.78" x2="2494.55" y2="501.95" stroke-linecap="round" style="stroke:#1A476F;stroke-width:8.64"/>
	<line x1="2494.55" y1="501.95" x2="2505.69" y2="498.36" stroke-linecap="round" style="stroke:#1A476F;stroke-width:8.64"/>
	<line x1="2505.69" y1="498.36" x2="2516.83" y2="494.77" stroke-linecap="round" style="stroke:#1A476F;stroke-width:8.64"/>
	<line x1="2516.83" y1="494.77" x2="2527.97" y2="491.30" stroke-linecap="round" style="stroke:#1A476F;stroke-width:8.64"/>
	<line x1="2527.97" y1="491.30" x2="2539.10" y2="487.84" stroke-linecap="round" style="stroke:#1A476F;stroke-width:8.64"/>
	<line x1="2539.10" y1="487.84" x2="2550.24" y2="484.50" stroke-linecap="round" style="stroke:#1A476F;stroke-width:8.64"/>
	<line x1="2550.24" y1="484.50" x2="2561.38" y2="481.16" stroke-linecap="round" style="stroke:#1A476F;stroke-width:8.64"/>
	<line x1="2561.38" y1="481.16" x2="2572.39" y2="477.94" stroke-linecap="round" style="stroke:#1A476F;stroke-width:8.64"/>
	<line x1="2572.39" y1="477.94" x2="2583.53" y2="474.84" stroke-linecap="round" style="stroke:#1A476F;stroke-width:8.64"/>
	<line x1="2583.53" y1="474.84" x2="2594.67" y2="471.75" stroke-linecap="round" style="stroke:#1A476F;stroke-width:8.64"/>
	<line x1="2594.67" y1="471.75" x2="2605.80" y2="468.66" stroke-linecap="round" style="stroke:#1A476F;stroke-width:8.64"/>
	<line x1="2605.80" y1="468.66" x2="2616.94" y2="465.69" stroke-linecap="round" style="stroke:#1A476F;stroke-width:8.64"/>
	<line x1="2616.94" y1="465.69" x2="2628.08" y2="462.84" stroke-linecap="round" style="stroke:#1A476F;stroke-width:8.64"/>
	<line x1="2628.08" y1="462.84" x2="2639.22" y2="459.99" stroke-linecap="round" style="stroke:#1A476F;stroke-width:8.64"/>
	<line x1="2639.22" y1="459.99" x2="2650.23" y2="457.27" stroke-linecap="round" style="stroke:#1A476F;stroke-width:8.64"/>
	<line x1="2650.23" y1="457.27" x2="2661.37" y2="454.55" stroke-linecap="round" style="stroke:#1A476F;stroke-width:8.64"/>
	<line x1="2661.37" y1="454.55" x2="2672.51" y2="451.83" stroke-linecap="round" style="stroke:#1A476F;stroke-width:8.64"/>
	<line x1="2672.51" y1="451.83" x2="2683.64" y2="449.23" stroke-linecap="round" style="stroke:#1A476F;stroke-width:8.64"/>
	<line x1="2683.64" y1="449.23" x2="2694.78" y2="446.75" stroke-linecap="round" style="stroke:#1A476F;stroke-width:8.64"/>
	<line x1="2694.78" y1="446.75" x2="2705.92" y2="444.28" stroke-linecap="round" style="stroke:#1A476F;stroke-width:8.64"/>
	<line x1="2705.92" y1="444.28" x2="2717.05" y2="441.80" stroke-linecap="round" style="stroke:#1A476F;stroke-width:8.64"/>
	<line x1="2717.05" y1="441.80" x2="2728.07" y2="439.45" stroke-linecap="round" style="stroke:#1A476F;stroke-width:8.64"/>
	<line x1="2728.07" y1="439.45" x2="2739.21" y2="437.10" stroke-linecap="round" style="stroke:#1A476F;stroke-width:8.64"/>
	<line x1="2739.21" y1="437.10" x2="2750.34" y2="434.87" stroke-linecap="round" style="stroke:#1A476F;stroke-width:8.64"/>
	<line x1="2750.34" y1="434.87" x2="2761.48" y2="432.64" stroke-linecap="round" style="stroke:#1A476F;stroke-width:8.64"/>
	<line x1="2761.48" y1="432.64" x2="2772.62" y2="430.42" stroke-linecap="round" style="stroke:#1A476F;stroke-width:8.64"/>
	<line x1="2772.62" y1="430.42" x2="2783.76" y2="428.31" stroke-linecap="round" style="stroke:#1A476F;stroke-width:8.64"/>
	<line x1="2783.76" y1="428.31" x2="2794.89" y2="426.21" stroke-linecap="round" style="stroke:#1A476F;stroke-width:8.64"/>
	<line x1="2794.89" y1="426.21" x2="2805.91" y2="424.23" stroke-linecap="round" style="stroke:#1A476F;stroke-width:8.64"/>
	<line x1="2805.91" y1="424.23" x2="2817.05" y2="422.12" stroke-linecap="round" style="stroke:#1A476F;stroke-width:8.64"/>
	<line x1="2817.05" y1="422.12" x2="2828.18" y2="420.27" stroke-linecap="round" style="stroke:#1A476F;stroke-width:8.64"/>
	<line x1="2828.18" y1="420.27" x2="2839.32" y2="418.29" stroke-linecap="round" style="stroke:#1A476F;stroke-width:8.64"/>
	<line x1="2839.32" y1="418.29" x2="2850.46" y2="416.43" stroke-linecap="round" style="stroke:#1A476F;stroke-width:8.64"/>
	<line x1="2850.46" y1="416.43" x2="2861.59" y2="414.70" stroke-linecap="round" style="stroke:#1A476F;stroke-width:8.64"/>
	<line x1="2861.59" y1="414.70" x2="2872.73" y2="412.84" stroke-linecap="round" style="stroke:#1A476F;stroke-width:8.64"/>
	<line x1="2872.73" y1="412.84" x2="2883.87" y2="411.11" stroke-linecap="round" style="stroke:#1A476F;stroke-width:8.64"/>
	<line x1="2883.87" y1="411.11" x2="2894.88" y2="409.50" stroke-linecap="round" style="stroke:#1A476F;stroke-width:8.64"/>
	<line x1="2894.88" y1="409.50" x2="2906.02" y2="407.77" stroke-linecap="round" style="stroke:#1A476F;stroke-width:8.64"/>
	<line x1="2906.02" y1="407.77" x2="2917.16" y2="406.16" stroke-linecap="round" style="stroke:#1A476F;stroke-width:8.64"/>
	<line x1="2917.16" y1="406.16" x2="2928.30" y2="404.55" stroke-linecap="round" style="stroke:#1A476F;stroke-width:8.64"/>
	<line x1="2928.30" y1="404.55" x2="2939.43" y2="403.07" stroke-linecap="round" style="stroke:#1A476F;stroke-width:8.64"/>
	<line x1="2939.43" y1="403.07" x2="2950.57" y2="401.58" stroke-linecap="round" style="stroke:#1A476F;stroke-width:8.64"/>
	<line x1="2950.57" y1="401.58" x2="2961.71" y2="400.10" stroke-linecap="round" style="stroke:#1A476F;stroke-width:8.64"/>
	<line x1="2961.71" y1="400.10" x2="2972.72" y2="398.61" stroke-linecap="round" style="stroke:#1A476F;stroke-width:8.64"/>
	<line x1="2972.72" y1="398.61" x2="2983.86" y2="397.25" stroke-linecap="round" style="stroke:#1A476F;stroke-width:8.64"/>
	<line x1="2983.86" y1="397.25" x2="2995.00" y2="395.89" stroke-linecap="round" style="stroke:#1A476F;stroke-width:8.64"/>
	<line x1="2995.00" y1="395.89" x2="3006.14" y2="394.53" stroke-linecap="round" style="stroke:#1A476F;stroke-width:8.64"/>
	<line x1="3006.14" y1="394.53" x2="3017.27" y2="393.17" stroke-linecap="round" style="stroke:#1A476F;stroke-width:8.64"/>
	<line x1="3017.27" y1="393.17" x2="3028.41" y2="391.93" stroke-linecap="round" style="stroke:#1A476F;stroke-width:8.64"/>
	<line x1="3028.41" y1="391.93" x2="3039.55" y2="390.57" stroke-linecap="round" style="stroke:#1A476F;stroke-width:8.64"/>
	<line x1="3039.55" y1="390.57" x2="3050.56" y2="389.45" stroke-linecap="round" style="stroke:#1A476F;stroke-width:8.64"/>
	<line x1="3050.56" y1="389.45" x2="3061.70" y2="388.22" stroke-linecap="round" style="stroke:#1A476F;stroke-width:8.64"/>
	<line x1="3061.70" y1="388.22" x2="3072.84" y2="386.98" stroke-linecap="round" style="stroke:#1A476F;stroke-width:8.64"/>
	<line x1="3072.84" y1="386.98" x2="3083.97" y2="385.86" stroke-linecap="round" style="stroke:#1A476F;stroke-width:8.64"/>
	<line x1="3083.97" y1="385.86" x2="3095.11" y2="384.75" stroke-linecap="round" style="stroke:#1A476F;stroke-width:8.64"/>
	<line x1="3095.11" y1="384.75" x2="3106.25" y2="383.64" stroke-linecap="round" style="stroke:#1A476F;stroke-width:8.64"/>
	<line x1="3106.25" y1="383.64" x2="3117.39" y2="382.65" stroke-linecap="round" style="stroke:#1A476F;stroke-width:8.64"/>
	<line x1="3117.39" y1="382.65" x2="3128.40" y2="381.53" stroke-linecap="round" style="stroke:#1A476F;stroke-width:8.64"/>
	<line x1="3128.40" y1="381.53" x2="3139.54" y2="380.54" stroke-linecap="round" style="stroke:#1A476F;stroke-width:8.64"/>
	<line x1="3139.54" y1="380.54" x2="3150.68" y2="379.55" stroke-linecap="round" style="stroke:#1A476F;stroke-width:8.64"/>
	<line x1="3150.68" y1="379.55" x2="3161.81" y2="378.56" stroke-linecap="round" style="stroke:#1A476F;stroke-width:8.64"/>
	<line x1="3161.81" y1="378.56" x2="3172.95" y2="377.70" stroke-linecap="round" style="stroke:#1A476F;stroke-width:8.64"/>
	<line x1="3172.95" y1="377.70" x2="3184.09" y2="376.71" stroke-linecap="round" style="stroke:#1A476F;stroke-width:8.64"/>
	<line x1="3184.09" y1="376.71" x2="3195.22" y2="375.84" stroke-linecap="round" style="stroke:#1A476F;stroke-width:8.64"/>
	<line x1="3195.22" y1="375.84" x2="3206.24" y2="374.97" stroke-linecap="round" style="stroke:#1A476F;stroke-width:8.64"/>
	<line x1="3206.24" y1="374.97" x2="3217.38" y2="374.11" stroke-linecap="round" style="stroke:#1A476F;stroke-width:8.64"/>
	<line x1="3217.38" y1="374.11" x2="3228.51" y2="373.24" stroke-linecap="round" style="stroke:#1A476F;stroke-width:8.64"/>
	<line x1="3228.51" y1="373.24" x2="3239.65" y2="372.38" stroke-linecap="round" style="stroke:#1A476F;stroke-width:8.64"/>
	<line x1="3239.65" y1="372.38" x2="3250.79" y2="371.63" stroke-linecap="round" style="stroke:#1A476F;stroke-width:8.64"/>
	<line x1="3250.79" y1="371.63" x2="3261.93" y2="370.77" stroke-linecap="round" style="stroke:#1A476F;stroke-width:8.64"/>
	<line x1="3261.93" y1="370.77" x2="3273.06" y2="370.02" stroke-linecap="round" style="stroke:#1A476F;stroke-width:8.64"/>
	<line x1="3273.06" y1="370.02" x2="3284.08" y2="369.28" stroke-linecap="round" style="stroke:#1A476F;stroke-width:8.64"/>
	<line x1="3284.08" y1="369.28" x2="3295.22" y2="368.54" stroke-linecap="round" style="stroke:#1A476F;stroke-width:8.64"/>
	<line x1="3295.22" y1="368.54" x2="3306.35" y2="367.92" stroke-linecap="round" style="stroke:#1A476F;stroke-width:8.64"/>
	<line x1="3306.35" y1="367.92" x2="3317.49" y2="367.18" stroke-linecap="round" style="stroke:#1A476F;stroke-width:8.64"/>
	<line x1="3317.49" y1="367.18" x2="3328.63" y2="366.44" stroke-linecap="round" style="stroke:#1A476F;stroke-width:8.64"/>
	<line x1="3328.63" y1="366.44" x2="3339.76" y2="365.82" stroke-linecap="round" style="stroke:#1A476F;stroke-width:8.64"/>
	<line x1="3339.76" y1="365.82" x2="3350.90" y2="365.20" stroke-linecap="round" style="stroke:#1A476F;stroke-width:8.64"/>
	<line x1="3350.90" y1="365.20" x2="3361.92" y2="364.58" stroke-linecap="round" style="stroke:#1A476F;stroke-width:8.64"/>
	<line x1="3361.92" y1="364.58" x2="3373.05" y2="363.96" stroke-linecap="round" style="stroke:#1A476F;stroke-width:8.64"/>
	<line x1="3373.05" y1="363.96" x2="3384.19" y2="363.34" stroke-linecap="round" style="stroke:#1A476F;stroke-width:8.64"/>
	<line x1="3384.19" y1="363.34" x2="3395.33" y2="362.72" stroke-linecap="round" style="stroke:#1A476F;stroke-width:8.64"/>
	<line x1="3395.33" y1="362.72" x2="3406.47" y2="362.10" stroke-linecap="round" style="stroke:#1A476F;stroke-width:8.64"/>
	<line x1="3406.47" y1="362.10" x2="3417.60" y2="361.61" stroke-linecap="round" style="stroke:#1A476F;stroke-width:8.64"/>
	<line x1="3417.60" y1="361.61" x2="3428.74" y2="361.11" stroke-linecap="round" style="stroke:#1A476F;stroke-width:8.64"/>
	<line x1="3428.74" y1="361.11" x2="3439.76" y2="360.50" stroke-linecap="round" style="stroke:#1A476F;stroke-width:8.64"/>
	<line x1="3439.76" y1="360.50" x2="3450.89" y2="360.00" stroke-linecap="round" style="stroke:#1A476F;stroke-width:8.64"/>
	<line x1="3450.89" y1="360.00" x2="3462.03" y2="359.50" stroke-linecap="round" style="stroke:#1A476F;stroke-width:8.64"/>
	<line x1="3462.03" y1="359.50" x2="3473.17" y2="359.01" stroke-linecap="round" style="stroke:#1A476F;stroke-width:8.64"/>
	<line x1="3473.17" y1="359.01" x2="3484.30" y2="358.51" stroke-linecap="round" style="stroke:#1A476F;stroke-width:8.64"/>
	<line x1="3484.30" y1="358.51" x2="3495.44" y2="358.02" stroke-linecap="round" style="stroke:#1A476F;stroke-width:8.64"/>
	<line x1="3495.44" y1="358.02" x2="3506.58" y2="357.52" stroke-linecap="round" style="stroke:#1A476F;stroke-width:8.64"/>
	<line x1="3506.58" y1="357.52" x2="3517.72" y2="357.15" stroke-linecap="round" style="stroke:#1A476F;stroke-width:8.64"/>
	<line x1="3517.72" y1="357.15" x2="3528.73" y2="356.66" stroke-linecap="round" style="stroke:#1A476F;stroke-width:8.64"/>
	<line x1="3528.73" y1="356.66" x2="3539.87" y2="356.29" stroke-linecap="round" style="stroke:#1A476F;stroke-width:8.64"/>
	<line x1="3539.87" y1="356.29" x2="3551.01" y2="355.79" stroke-linecap="round" style="stroke:#1A476F;stroke-width:8.64"/>
	<line x1="3551.01" y1="355.79" x2="3562.14" y2="355.42" stroke-linecap="round" style="stroke:#1A476F;stroke-width:8.64"/>
	<line x1="3562.14" y1="355.42" x2="3573.28" y2="355.05" stroke-linecap="round" style="stroke:#1A476F;stroke-width:8.64"/>
	<line x1="3573.28" y1="355.05" x2="3584.42" y2="354.68" stroke-linecap="round" style="stroke:#1A476F;stroke-width:8.64"/>
	<line x1="3584.42" y1="354.68" x2="3595.56" y2="354.18" stroke-linecap="round" style="stroke:#1A476F;stroke-width:8.64"/>
	<line x1="3595.56" y1="354.18" x2="3606.57" y2="353.81" stroke-linecap="round" style="stroke:#1A476F;stroke-width:8.64"/>
	<line x1="3606.57" y1="353.81" x2="3617.71" y2="353.56" stroke-linecap="round" style="stroke:#1A476F;stroke-width:8.64"/>
	<line x1="3617.71" y1="353.56" x2="3628.84" y2="353.19" stroke-linecap="round" style="stroke:#1A476F;stroke-width:8.64"/>
	<line x1="3628.84" y1="353.19" x2="3639.98" y2="352.82" stroke-linecap="round" style="stroke:#1A476F;stroke-width:8.64"/>
	<line x1="3639.98" y1="352.82" x2="3651.12" y2="352.45" stroke-linecap="round" style="stroke:#1A476F;stroke-width:8.64"/>
	<line x1="3651.12" y1="352.45" x2="3662.26" y2="352.08" stroke-linecap="round" style="stroke:#1A476F;stroke-width:8.64"/>
	<line x1="3662.26" y1="352.08" x2="3673.40" y2="351.83" stroke-linecap="round" style="stroke:#1A476F;stroke-width:8.64"/>
	<line x1="3673.40" y1="351.83" x2="3684.41" y2="351.46" stroke-linecap="round" style="stroke:#1A476F;stroke-width:8.64"/>
	<line x1="3684.41" y1="351.46" x2="3695.55" y2="351.21" stroke-linecap="round" style="stroke:#1A476F;stroke-width:8.64"/>
	<line x1="3695.55" y1="351.21" x2="3706.68" y2="350.84" stroke-linecap="round" style="stroke:#1A476F;stroke-width:8.64"/>
	<line x1="3706.68" y1="350.84" x2="3717.82" y2="350.59" stroke-linecap="round" style="stroke:#1A476F;stroke-width:8.64"/>
	<line x1="3717.82" y1="350.59" x2="3728.96" y2="350.35" stroke-linecap="round" style="stroke:#1A476F;stroke-width:8.64"/>
	<line x1="3728.96" y1="350.35" x2="3740.10" y2="350.10" stroke-linecap="round" style="stroke:#1A476F;stroke-width:8.64"/>
	<line x1="3740.10" y1="350.10" x2="3751.23" y2="349.73" stroke-linecap="round" style="stroke:#1A476F;stroke-width:8.64"/>
	<line x1="3751.23" y1="349.73" x2="3762.25" y2="349.48" stroke-linecap="round" style="stroke:#1A476F;stroke-width:8.64"/>
	<line x1="3762.25" y1="349.48" x2="3773.39" y2="349.23" stroke-linecap="round" style="stroke:#1A476F;stroke-width:8.64"/>
	<line x1="3773.39" y1="349.23" x2="3784.52" y2="348.99" stroke-linecap="round" style="stroke:#1A476F;stroke-width:8.64"/>
	<line x1="3784.52" y1="348.99" x2="3795.66" y2="348.74" stroke-linecap="round" style="stroke:#1A476F;stroke-width:8.64"/>
	<circle cx="1349.49" cy="2425.95" r="26.35" style="fill:#90353B"/>
	<circle cx="1349.49" cy="2425.95" r="22.03" style="fill:none;stroke:#90353B;stroke-width:8.64"/>
	<circle cx="1524.72" cy="338.84" r="26.35" style="fill:#90353B"/>
	<circle cx="1524.72" cy="338.84" r="22.03" style="fill:none;stroke:#90353B;stroke-width:8.64"/>
	<circle cx="1688.07" cy="2425.95" r="26.35" style="fill:#90353B"/>
	<circle cx="1688.07" cy="2425.95" r="22.03" style="fill:none;stroke:#90353B;stroke-width:8.64"/>
	<circle cx="1843.38" cy="860.58" r="26.35" style="fill:#90353B"/>
	<circle cx="1843.38" cy="860.58" r="22.03" style="fill:none;stroke:#90353B;stroke-width:8.64"/>
	<circle cx="1993.61" cy="835.71" r="26.35" style="fill:#90353B"/>
	<circle cx="1993.61" cy="835.71" r="22.03" style="fill:none;stroke:#90353B;stroke-width:8.64"/>
	<circle cx="2141.12" cy="686.59" r="26.35" style="fill:#90353B"/>
	<circle cx="2141.12" cy="686.59" r="22.03" style="fill:none;stroke:#90353B;stroke-width:8.64"/>
	<circle cx="2288.63" cy="623.35" r="26.35" style="fill:#90353B"/>
	<circle cx="2288.63" cy="623.35" r="22.03" style="fill:none;stroke:#90353B;stroke-width:8.64"/>
	<circle cx="2438.37" cy="338.84" r="26.35" style="fill:#90353B"/>
	<circle cx="2438.37" cy="338.84" r="22.03" style="fill:none;stroke:#90353B;stroke-width:8.64"/>
	<circle cx="2592.93" cy="338.84" r="26.35" style="fill:#90353B"/>
	<circle cx="2592.93" cy="338.84" r="22.03" style="fill:none;stroke:#90353B;stroke-width:8.64"/>
	<circle cx="2755.54" cy="338.84" r="26.35" style="fill:#90353B"/>
	<circle cx="2755.54" cy="338.84" r="22.03" style="fill:none;stroke:#90353B;stroke-width:8.64"/>
	<circle cx="2929.53" cy="338.84" r="26.35" style="fill:#90353B"/>
	<circle cx="2929.53" cy="338.84" r="22.03" style="fill:none;stroke:#90353B;stroke-width:8.64"/>
	<line x1="407.38" y1="2489.19" x2="407.38" y2="275.35" style="stroke:#000000;stroke-width:5.76"/>
	<line x1="407.38" y1="2425.82" x2="367.41" y2="2425.82" style="stroke:#000000;stroke-width:5.76"/>
	<text x="347.49" y="2460.85" style="font-family:'Helvetica';font-size:99.99px;fill:#000000" text-anchor="end">0</text>
	<line x1="407.38" y1="1382.33" x2="367.41" y2="1382.33" style="stroke:#000000;stroke-width:5.76"/>
	<text x="347.49" y="1417.36" style="font-family:'Helvetica';font-size:99.99px;fill:#000000" text-anchor="end">.5</text>
	<line x1="407.38" y1="338.71" x2="367.41" y2="338.71" style="stroke:#000000;stroke-width:5.76"/>
	<text x="347.49" y="373.74" style="font-family:'Helvetica';font-size:99.99px;fill:#000000" text-anchor="end">1</text>
	<text x="190.71" y="1382.33" style="font-family:'Helvetica';font-size:99.99px;fill:#000000" transform="rotate(-90 190.71,1382.33)" text-anchor="middle">Probability</text>
	<line x1="407.38" y1="2489.19" x2="3859.02" y2="2489.19" style="stroke:#000000;stroke-width:5.76"/>
	<line x1="470.75" y1="2489.19" x2="470.75" y2="2529.16" style="stroke:#000000;stroke-width:5.76"/>
	<text x="470.75" y="2619.14" style="font-family:'Helvetica';font-size:99.99px;fill:#000000" text-anchor="middle">-4</text>
	<line x1="1301.97" y1="2489.19" x2="1301.97" y2="2529.16" style="stroke:#000000;stroke-width:5.76"/>
	<text x="1301.97" y="2619.14" style="font-family:'Helvetica';font-size:99.99px;fill:#000000" text-anchor="middle">-2</text>
	<line x1="2133.20" y1="2489.19" x2="2133.20" y2="2529.16" style="stroke:#000000;stroke-width:5.76"/>
	<text x="2133.20" y="2619.14" style="font-family:'Helvetica';font-size:99.99px;fill:#000000" text-anchor="middle">0</text>
	<line x1="2964.43" y1="2489.19" x2="2964.43" y2="2529.16" style="stroke:#000000;stroke-width:5.76"/>
	<text x="2964.43" y="2619.14" style="font-family:'Helvetica';font-size:99.99px;fill:#000000" text-anchor="middle">2</text>
	<line x1="3795.66" y1="2489.19" x2="3795.66" y2="2529.16" style="stroke:#000000;stroke-width:5.76"/>
	<text x="3795.66" y="2619.14" style="font-family:'Helvetica';font-size:99.99px;fill:#000000" text-anchor="middle">4</text>
	<text x="2133.20" y="2729.16" style="font-family:'Helvetica';font-size:99.99px;fill:#000000" text-anchor="middle">Theta</text>
	<text x="2133.20" y="215.98" style="font-family:'Helvetica';font-size:139.96px;fill:#1E2D53" text-anchor="middle">Item Characteristic Curve for Pr(math1=1)</text>
</svg>
