<?xml version="1.0" encoding="UTF-8" standalone="no"?>
<!-- This is a Stata 15.0 generated SVG file (http://www.stata.com) -->

<svg version="1.1" width="600px" height="436px" viewBox="0 0 3960 2880" xmlns="http://www.w3.org/2000/svg" xmlns:xlink="http://www.w3.org/1999/xlink">
	<desc>Stata Graph - Graph</desc>
	<rect x="0" y="0" width="3960" height="2880" style="fill:#EAF2F3;stroke:none"/>
	<rect x="0.00" y="0.00" width="3959.88" height="2880.00" style="fill:#EAF2F3"/>
	<rect x="2.88" y="2.88" width="3954.12" height="2874.24" style="fill:none;stroke:#EAF2F3;stroke-width:5.76"/>
	<rect x="407.38" y="275.35" width="3451.64" height="2213.83" style="fill:#FFFFFF"/>
	<rect x="410.26" y="278.23" width="3445.88" height="2208.07" style="fill:none;stroke:#FFFFFF;stroke-width:5.76"/>
	<line x1="407.38" y1="2425.82" x2="3859.02" y2="2425.82" style="stroke:#EAF2F3;stroke-width:8.64"/>
	<line x1="407.38" y1="1382.33" x2="3859.02" y2="1382.33" style="stroke:#EAF2F3;stroke-width:8.64"/>
	<line x1="407.38" y1="338.71" x2="3859.02" y2="338.71" style="stroke:#EAF2F3;stroke-width:8.64"/>
	<line x1="470.75" y1="2223.49" x2="481.88" y2="2219.03" stroke-linecap="round" style="stroke:#1A476F;stroke-width:8.64"/>
	<line x1="481.88" y1="2219.03" x2="493.02" y2="2214.33" stroke-linecap="round" style="stroke:#1A476F;stroke-width:8.64"/>
	<line x1="493.02" y1="2214.33" x2="504.16" y2="2209.63" stroke-linecap="round" style="stroke:#1A476F;stroke-width:8.64"/>
	<line x1="504.16" y1="2209.63" x2="515.17" y2="2204.92" stroke-linecap="round" style="stroke:#1A476F;stroke-width:8.64"/>
	<line x1="515.17" y1="2204.92" x2="526.31" y2="2199.97" stroke-linecap="round" style="stroke:#1A476F;stroke-width:8.64"/>
	<line x1="526.31" y1="2199.97" x2="537.45" y2="2195.02" stroke-linecap="round" style="stroke:#1A476F;stroke-width:8.64"/>
	<line x1="537.45" y1="2195.02" x2="548.58" y2="2189.82" stroke-linecap="round" style="stroke:#1A476F;stroke-width:8.64"/>
	<line x1="548.58" y1="2189.82" x2="559.72" y2="2184.63" stroke-linecap="round" style="stroke:#1A476F;stroke-width:8.64"/>
	<line x1="559.72" y1="2184.63" x2="570.86" y2="2179.43" stroke-linecap="round" style="stroke:#1A476F;stroke-width:8.64"/>
	<line x1="570.86" y1="2179.43" x2="582.00" y2="2173.98" stroke-linecap="round" style="stroke:#1A476F;stroke-width:8.64"/>
	<line x1="582.00" y1="2173.98" x2="593.01" y2="2168.54" stroke-linecap="round" style="stroke:#1A476F;stroke-width:8.64"/>
	<line x1="593.01" y1="2168.54" x2="604.15" y2="2162.97" stroke-linecap="round" style="stroke:#1A476F;stroke-width:8.64"/>
	<line x1="604.15" y1="2162.97" x2="615.28" y2="2157.28" stroke-linecap="round" style="stroke:#1A476F;stroke-width:8.64"/>
	<line x1="615.28" y1="2157.28" x2="626.42" y2="2151.46" stroke-linecap="round" style="stroke:#1A476F;stroke-width:8.64"/>
	<line x1="626.42" y1="2151.46" x2="637.56" y2="2145.52" stroke-linecap="round" style="stroke:#1A476F;stroke-width:8.64"/>
	<line x1="637.56" y1="2145.52" x2="648.70" y2="2139.46" stroke-linecap="round" style="stroke:#1A476F;stroke-width:8.64"/>
	<line x1="648.70" y1="2139.46" x2="659.84" y2="2133.39" stroke-linecap="round" style="stroke:#1A476F;stroke-width:8.64"/>
	<line x1="659.84" y1="2133.39" x2="670.85" y2="2127.21" stroke-linecap="round" style="stroke:#1A476F;stroke-width:8.64"/>
	<line x1="670.85" y1="2127.21" x2="681.99" y2="2120.77" stroke-linecap="round" style="stroke:#1A476F;stroke-width:8.64"/>
	<line x1="681.99" y1="2120.77" x2="693.12" y2="2114.33" stroke-linecap="round" style="stroke:#1A476F;stroke-width:8.64"/>
	<line x1="693.12" y1="2114.33" x2="704.26" y2="2107.78" stroke-linecap="round" style="stroke:#1A476F;stroke-width:8.64"/>
	<line x1="704.26" y1="2107.78" x2="715.40" y2="2101.09" stroke-linecap="round" style="stroke:#1A476F;stroke-width:8.64"/>
	<line x1="715.40" y1="2101.09" x2="726.54" y2="2094.29" stroke-linecap="round" style="stroke:#1A476F;stroke-width:8.64"/>
	<line x1="726.54" y1="2094.29" x2="737.67" y2="2087.48" stroke-linecap="round" style="stroke:#1A476F;stroke-width:8.64"/>
	<line x1="737.67" y1="2087.48" x2="748.69" y2="2080.43" stroke-linecap="round" style="stroke:#1A476F;stroke-width:8.64"/>
	<line x1="748.69" y1="2080.43" x2="759.83" y2="2073.25" stroke-linecap="round" style="stroke:#1A476F;stroke-width:8.64"/>
	<line x1="759.83" y1="2073.25" x2="770.96" y2="2066.07" stroke-linecap="round" style="stroke:#1A476F;stroke-width:8.64"/>
	<line x1="770.96" y1="2066.07" x2="782.10" y2="2058.65" stroke-linecap="round" style="stroke:#1A476F;stroke-width:8.64"/>
	<line x1="782.10" y1="2058.65" x2="793.24" y2="2051.22" stroke-linecap="round" style="stroke:#1A476F;stroke-width:8.64"/>
	<line x1="793.24" y1="2051.22" x2="804.38" y2="2043.55" stroke-linecap="round" style="stroke:#1A476F;stroke-width:8.64"/>
	<line x1="804.38" y1="2043.55" x2="815.51" y2="2035.87" stroke-linecap="round" style="stroke:#1A476F;stroke-width:8.64"/>
	<line x1="815.51" y1="2035.87" x2="826.53" y2="2027.95" stroke-linecap="round" style="stroke:#1A476F;stroke-width:8.64"/>
	<line x1="826.53" y1="2027.95" x2="837.66" y2="2020.03" stroke-linecap="round" style="stroke:#1A476F;stroke-width:8.64"/>
	<line x1="837.66" y1="2020.03" x2="848.80" y2="2011.87" stroke-linecap="round" style="stroke:#1A476F;stroke-width:8.64"/>
	<line x1="848.80" y1="2011.87" x2="859.94" y2="2003.70" stroke-linecap="round" style="stroke:#1A476F;stroke-width:8.64"/>
	<line x1="859.94" y1="2003.70" x2="871.08" y2="1995.41" stroke-linecap="round" style="stroke:#1A476F;stroke-width:8.64"/>
	<line x1="871.08" y1="1995.41" x2="882.21" y2="1986.99" stroke-linecap="round" style="stroke:#1A476F;stroke-width:8.64"/>
	<line x1="882.21" y1="1986.99" x2="893.35" y2="1978.33" stroke-linecap="round" style="stroke:#1A476F;stroke-width:8.64"/>
	<line x1="893.35" y1="1978.33" x2="904.49" y2="1969.67" stroke-linecap="round" style="stroke:#1A476F;stroke-width:8.64"/>
	<line x1="904.49" y1="1969.67" x2="915.50" y2="1960.88" stroke-linecap="round" style="stroke:#1A476F;stroke-width:8.64"/>
	<line x1="915.50" y1="1960.88" x2="926.64" y2="1951.97" stroke-linecap="round" style="stroke:#1A476F;stroke-width:8.64"/>
	<line x1="926.64" y1="1951.97" x2="937.78" y2="1942.81" stroke-linecap="round" style="stroke:#1A476F;stroke-width:8.64"/>
	<line x1="937.78" y1="1942.81" x2="948.91" y2="1933.65" stroke-linecap="round" style="stroke:#1A476F;stroke-width:8.64"/>
	<line x1="948.91" y1="1933.65" x2="960.05" y2="1924.37" stroke-linecap="round" style="stroke:#1A476F;stroke-width:8.64"/>
	<line x1="960.05" y1="1924.37" x2="971.19" y2="1914.97" stroke-linecap="round" style="stroke:#1A476F;stroke-width:8.64"/>
	<line x1="971.19" y1="1914.97" x2="982.33" y2="1905.44" stroke-linecap="round" style="stroke:#1A476F;stroke-width:8.64"/>
	<line x1="982.33" y1="1905.44" x2="993.34" y2="1895.79" stroke-linecap="round" style="stroke:#1A476F;stroke-width:8.64"/>
	<line x1="993.34" y1="1895.79" x2="1004.48" y2="1886.01" stroke-linecap="round" style="stroke:#1A476F;stroke-width:8.64"/>
	<line x1="1004.48" y1="1886.01" x2="1015.62" y2="1876.11" stroke-linecap="round" style="stroke:#1A476F;stroke-width:8.64"/>
	<line x1="1015.62" y1="1876.11" x2="1026.75" y2="1866.08" stroke-linecap="round" style="stroke:#1A476F;stroke-width:8.64"/>
	<line x1="1026.75" y1="1866.08" x2="1037.89" y2="1856.06" stroke-linecap="round" style="stroke:#1A476F;stroke-width:8.64"/>
	<line x1="1037.89" y1="1856.06" x2="1049.03" y2="1845.79" stroke-linecap="round" style="stroke:#1A476F;stroke-width:8.64"/>
	<line x1="1049.03" y1="1845.79" x2="1060.17" y2="1835.52" stroke-linecap="round" style="stroke:#1A476F;stroke-width:8.64"/>
	<line x1="1060.17" y1="1835.52" x2="1071.18" y2="1825.00" stroke-linecap="round" style="stroke:#1A476F;stroke-width:8.64"/>
	<line x1="1071.18" y1="1825.00" x2="1082.32" y2="1814.48" stroke-linecap="round" style="stroke:#1A476F;stroke-width:8.64"/>
	<line x1="1082.32" y1="1814.48" x2="1093.45" y2="1803.84" stroke-linecap="round" style="stroke:#1A476F;stroke-width:8.64"/>
	<line x1="1093.45" y1="1803.84" x2="1104.59" y2="1793.07" stroke-linecap="round" style="stroke:#1A476F;stroke-width:8.64"/>
	<line x1="1104.59" y1="1793.07" x2="1115.73" y2="1782.18" stroke-linecap="round" style="stroke:#1A476F;stroke-width:8.64"/>
	<line x1="1115.73" y1="1782.18" x2="1126.87" y2="1771.17" stroke-linecap="round" style="stroke:#1A476F;stroke-width:8.64"/>
	<line x1="1126.87" y1="1771.17" x2="1138.01" y2="1760.03" stroke-linecap="round" style="stroke:#1A476F;stroke-width:8.64"/>
	<line x1="1138.01" y1="1760.03" x2="1149.02" y2="1748.89" stroke-linecap="round" style="stroke:#1A476F;stroke-width:8.64"/>
	<line x1="1149.02" y1="1748.89" x2="1160.16" y2="1737.63" stroke-linecap="round" style="stroke:#1A476F;stroke-width:8.64"/>
	<line x1="1160.16" y1="1737.63" x2="1171.29" y2="1726.24" stroke-linecap="round" style="stroke:#1A476F;stroke-width:8.64"/>
	<line x1="1171.29" y1="1726.24" x2="1182.43" y2="1714.73" stroke-linecap="round" style="stroke:#1A476F;stroke-width:8.64"/>
	<line x1="1182.43" y1="1714.73" x2="1193.57" y2="1703.22" stroke-linecap="round" style="stroke:#1A476F;stroke-width:8.64"/>
	<line x1="1193.57" y1="1703.22" x2="1204.71" y2="1691.59" stroke-linecap="round" style="stroke:#1A476F;stroke-width:8.64"/>
	<line x1="1204.71" y1="1691.59" x2="1215.84" y2="1679.83" stroke-linecap="round" style="stroke:#1A476F;stroke-width:8.64"/>
	<line x1="1215.84" y1="1679.83" x2="1226.86" y2="1668.08" stroke-linecap="round" style="stroke:#1A476F;stroke-width:8.64"/>
	<line x1="1226.86" y1="1668.08" x2="1237.99" y2="1656.07" stroke-linecap="round" style="stroke:#1A476F;stroke-width:8.64"/>
	<line x1="1237.99" y1="1656.07" x2="1249.13" y2="1644.19" stroke-linecap="round" style="stroke:#1A476F;stroke-width:8.64"/>
	<line x1="1249.13" y1="1644.19" x2="1260.27" y2="1632.07" stroke-linecap="round" style="stroke:#1A476F;stroke-width:8.64"/>
	<line x1="1260.27" y1="1632.07" x2="1271.41" y2="1620.06" stroke-linecap="round" style="stroke:#1A476F;stroke-width:8.64"/>
	<line x1="1271.41" y1="1620.06" x2="1282.55" y2="1607.81" stroke-linecap="round" style="stroke:#1A476F;stroke-width:8.64"/>
	<line x1="1282.55" y1="1607.81" x2="1293.68" y2="1595.56" stroke-linecap="round" style="stroke:#1A476F;stroke-width:8.64"/>
	<line x1="1293.68" y1="1595.56" x2="1304.70" y2="1583.31" stroke-linecap="round" style="stroke:#1A476F;stroke-width:8.64"/>
	<line x1="1304.70" y1="1583.31" x2="1315.83" y2="1570.93" stroke-linecap="round" style="stroke:#1A476F;stroke-width:8.64"/>
	<line x1="1315.83" y1="1570.93" x2="1326.97" y2="1558.56" stroke-linecap="round" style="stroke:#1A476F;stroke-width:8.64"/>
	<line x1="1326.97" y1="1558.56" x2="1338.11" y2="1546.06" stroke-linecap="round" style="stroke:#1A476F;stroke-width:8.64"/>
	<line x1="1338.11" y1="1546.06" x2="1349.25" y2="1533.56" stroke-linecap="round" style="stroke:#1A476F;stroke-width:8.64"/>
	<line x1="1349.25" y1="1533.56" x2="1360.38" y2="1520.94" stroke-linecap="round" style="stroke:#1A476F;stroke-width:8.64"/>
	<line x1="1360.38" y1="1520.94" x2="1371.52" y2="1508.31" stroke-linecap="round" style="stroke:#1A476F;stroke-width:8.64"/>
	<line x1="1371.52" y1="1508.31" x2="1382.54" y2="1495.69" stroke-linecap="round" style="stroke:#1A476F;stroke-width:8.64"/>
	<line x1="1382.54" y1="1495.69" x2="1393.67" y2="1483.07" stroke-linecap="round" style="stroke:#1A476F;stroke-width:8.64"/>
	<line x1="1393.67" y1="1483.07" x2="1404.81" y2="1470.32" stroke-linecap="round" style="stroke:#1A476F;stroke-width:8.64"/>
	<line x1="1404.81" y1="1470.32" x2="1415.95" y2="1457.57" stroke-linecap="round" style="stroke:#1A476F;stroke-width:8.64"/>
	<line x1="1415.95" y1="1457.57" x2="1427.09" y2="1444.83" stroke-linecap="round" style="stroke:#1A476F;stroke-width:8.64"/>
	<line x1="1427.09" y1="1444.83" x2="1438.22" y2="1432.08" stroke-linecap="round" style="stroke:#1A476F;stroke-width:8.64"/>
	<line x1="1438.22" y1="1432.08" x2="1449.36" y2="1419.21" stroke-linecap="round" style="stroke:#1A476F;stroke-width:8.64"/>
	<line x1="1449.36" y1="1419.21" x2="1460.37" y2="1406.46" stroke-linecap="round" style="stroke:#1A476F;stroke-width:8.64"/>
	<line x1="1460.37" y1="1406.46" x2="1471.51" y2="1393.59" stroke-linecap="round" style="stroke:#1A476F;stroke-width:8.64"/>
	<line x1="1471.51" y1="1393.59" x2="1482.65" y2="1380.85" stroke-linecap="round" style="stroke:#1A476F;stroke-width:8.64"/>
	<line x1="1482.65" y1="1380.85" x2="1493.79" y2="1367.98" stroke-linecap="round" style="stroke:#1A476F;stroke-width:8.64"/>
	<line x1="1493.79" y1="1367.98" x2="1504.92" y2="1355.23" stroke-linecap="round" style="stroke:#1A476F;stroke-width:8.64"/>
	<line x1="1504.92" y1="1355.23" x2="1516.06" y2="1342.48" stroke-linecap="round" style="stroke:#1A476F;stroke-width:8.64"/>
	<line x1="1516.06" y1="1342.48" x2="1527.20" y2="1329.61" stroke-linecap="round" style="stroke:#1A476F;stroke-width:8.64"/>
	<line x1="1527.20" y1="1329.61" x2="1538.34" y2="1316.86" stroke-linecap="round" style="stroke:#1A476F;stroke-width:8.64"/>
	<line x1="1538.34" y1="1316.86" x2="1549.35" y2="1304.12" stroke-linecap="round" style="stroke:#1A476F;stroke-width:8.64"/>
	<line x1="1549.35" y1="1304.12" x2="1560.49" y2="1291.37" stroke-linecap="round" style="stroke:#1A476F;stroke-width:8.64"/>
	<line x1="1560.49" y1="1291.37" x2="1571.63" y2="1278.75" stroke-linecap="round" style="stroke:#1A476F;stroke-width:8.64"/>
	<line x1="1571.63" y1="1278.75" x2="1582.76" y2="1266.00" stroke-linecap="round" style="stroke:#1A476F;stroke-width:8.64"/>
	<line x1="1582.76" y1="1266.00" x2="1593.90" y2="1253.38" stroke-linecap="round" style="stroke:#1A476F;stroke-width:8.64"/>
	<line x1="1593.90" y1="1253.38" x2="1605.04" y2="1240.76" stroke-linecap="round" style="stroke:#1A476F;stroke-width:8.64"/>
	<line x1="1605.04" y1="1240.76" x2="1616.18" y2="1228.26" stroke-linecap="round" style="stroke:#1A476F;stroke-width:8.64"/>
	<line x1="1616.18" y1="1228.26" x2="1627.19" y2="1215.76" stroke-linecap="round" style="stroke:#1A476F;stroke-width:8.64"/>
	<line x1="1627.19" y1="1215.76" x2="1638.33" y2="1203.26" stroke-linecap="round" style="stroke:#1A476F;stroke-width:8.64"/>
	<line x1="1638.33" y1="1203.26" x2="1649.46" y2="1190.88" stroke-linecap="round" style="stroke:#1A476F;stroke-width:8.64"/>
	<line x1="1649.46" y1="1190.88" x2="1660.60" y2="1178.51" stroke-linecap="round" style="stroke:#1A476F;stroke-width:8.64"/>
	<line x1="1660.60" y1="1178.51" x2="1671.74" y2="1166.26" stroke-linecap="round" style="stroke:#1A476F;stroke-width:8.64"/>
	<line x1="1671.74" y1="1166.26" x2="1682.88" y2="1154.00" stroke-linecap="round" style="stroke:#1A476F;stroke-width:8.64"/>
	<line x1="1682.88" y1="1154.00" x2="1694.01" y2="1141.88" stroke-linecap="round" style="stroke:#1A476F;stroke-width:8.64"/>
	<line x1="1694.01" y1="1141.88" x2="1705.03" y2="1129.75" stroke-linecap="round" style="stroke:#1A476F;stroke-width:8.64"/>
	<line x1="1705.03" y1="1129.75" x2="1716.17" y2="1117.74" stroke-linecap="round" style="stroke:#1A476F;stroke-width:8.64"/>
	<line x1="1716.17" y1="1117.74" x2="1727.30" y2="1105.74" stroke-linecap="round" style="stroke:#1A476F;stroke-width:8.64"/>
	<line x1="1727.30" y1="1105.74" x2="1738.44" y2="1093.86" stroke-linecap="round" style="stroke:#1A476F;stroke-width:8.64"/>
	<line x1="1738.44" y1="1093.86" x2="1749.58" y2="1082.10" stroke-linecap="round" style="stroke:#1A476F;stroke-width:8.64"/>
	<line x1="1749.58" y1="1082.10" x2="1760.71" y2="1070.35" stroke-linecap="round" style="stroke:#1A476F;stroke-width:8.64"/>
	<line x1="1760.71" y1="1070.35" x2="1771.85" y2="1058.71" stroke-linecap="round" style="stroke:#1A476F;stroke-width:8.64"/>
	<line x1="1771.85" y1="1058.71" x2="1782.87" y2="1047.21" stroke-linecap="round" style="stroke:#1A476F;stroke-width:8.64"/>
	<line x1="1782.87" y1="1047.21" x2="1794.00" y2="1035.82" stroke-linecap="round" style="stroke:#1A476F;stroke-width:8.64"/>
	<line x1="1794.00" y1="1035.82" x2="1805.14" y2="1024.43" stroke-linecap="round" style="stroke:#1A476F;stroke-width:8.64"/>
	<line x1="1805.14" y1="1024.43" x2="1816.28" y2="1013.17" stroke-linecap="round" style="stroke:#1A476F;stroke-width:8.64"/>
	<line x1="1816.28" y1="1013.17" x2="1827.42" y2="1002.04" stroke-linecap="round" style="stroke:#1A476F;stroke-width:8.64"/>
	<line x1="1827.42" y1="1002.04" x2="1838.55" y2="990.90" stroke-linecap="round" style="stroke:#1A476F;stroke-width:8.64"/>
	<line x1="1838.55" y1="990.90" x2="1849.69" y2="980.01" stroke-linecap="round" style="stroke:#1A476F;stroke-width:8.64"/>
	<line x1="1849.69" y1="980.01" x2="1860.70" y2="969.12" stroke-linecap="round" style="stroke:#1A476F;stroke-width:8.64"/>
	<line x1="1860.70" y1="969.12" x2="1871.84" y2="958.35" stroke-linecap="round" style="stroke:#1A476F;stroke-width:8.64"/>
	<line x1="1871.84" y1="958.35" x2="1882.98" y2="947.71" stroke-linecap="round" style="stroke:#1A476F;stroke-width:8.64"/>
	<line x1="1882.98" y1="947.71" x2="1894.12" y2="937.19" stroke-linecap="round" style="stroke:#1A476F;stroke-width:8.64"/>
	<line x1="1894.12" y1="937.19" x2="1905.26" y2="926.79" stroke-linecap="round" style="stroke:#1A476F;stroke-width:8.64"/>
	<line x1="1905.26" y1="926.79" x2="1916.39" y2="916.52" stroke-linecap="round" style="stroke:#1A476F;stroke-width:8.64"/>
	<line x1="1916.39" y1="916.52" x2="1927.53" y2="906.25" stroke-linecap="round" style="stroke:#1A476F;stroke-width:8.64"/>
	<line x1="1927.53" y1="906.25" x2="1938.54" y2="896.23" stroke-linecap="round" style="stroke:#1A476F;stroke-width:8.64"/>
	<line x1="1938.54" y1="896.23" x2="1949.68" y2="886.20" stroke-linecap="round" style="stroke:#1A476F;stroke-width:8.64"/>
	<line x1="1949.68" y1="886.20" x2="1960.82" y2="876.30" stroke-linecap="round" style="stroke:#1A476F;stroke-width:8.64"/>
	<line x1="1960.82" y1="876.30" x2="1971.96" y2="866.65" stroke-linecap="round" style="stroke:#1A476F;stroke-width:8.64"/>
	<line x1="1971.96" y1="866.65" x2="1983.09" y2="857.00" stroke-linecap="round" style="stroke:#1A476F;stroke-width:8.64"/>
	<line x1="1983.09" y1="857.00" x2="1994.23" y2="847.47" stroke-linecap="round" style="stroke:#1A476F;stroke-width:8.64"/>
	<line x1="1994.23" y1="847.47" x2="2005.37" y2="838.06" stroke-linecap="round" style="stroke:#1A476F;stroke-width:8.64"/>
	<line x1="2005.37" y1="838.06" x2="2016.38" y2="828.78" stroke-linecap="round" style="stroke:#1A476F;stroke-width:8.64"/>
	<line x1="2016.38" y1="828.78" x2="2027.52" y2="819.75" stroke-linecap="round" style="stroke:#1A476F;stroke-width:8.64"/>
	<line x1="2027.52" y1="819.75" x2="2038.66" y2="810.71" stroke-linecap="round" style="stroke:#1A476F;stroke-width:8.64"/>
	<line x1="2038.66" y1="810.71" x2="2049.80" y2="801.80" stroke-linecap="round" style="stroke:#1A476F;stroke-width:8.64"/>
	<line x1="2049.80" y1="801.80" x2="2060.93" y2="793.01" stroke-linecap="round" style="stroke:#1A476F;stroke-width:8.64"/>
	<line x1="2060.93" y1="793.01" x2="2072.07" y2="784.35" stroke-linecap="round" style="stroke:#1A476F;stroke-width:8.64"/>
	<line x1="2072.07" y1="784.35" x2="2083.21" y2="775.81" stroke-linecap="round" style="stroke:#1A476F;stroke-width:8.64"/>
	<line x1="2083.21" y1="775.81" x2="2094.22" y2="767.40" stroke-linecap="round" style="stroke:#1A476F;stroke-width:8.64"/>
	<line x1="2094.22" y1="767.40" x2="2105.36" y2="758.98" stroke-linecap="round" style="stroke:#1A476F;stroke-width:8.64"/>
	<line x1="2105.36" y1="758.98" x2="2116.50" y2="750.81" stroke-linecap="round" style="stroke:#1A476F;stroke-width:8.64"/>
	<line x1="2116.50" y1="750.81" x2="2127.63" y2="742.77" stroke-linecap="round" style="stroke:#1A476F;stroke-width:8.64"/>
	<line x1="2127.63" y1="742.77" x2="2138.77" y2="734.85" stroke-linecap="round" style="stroke:#1A476F;stroke-width:8.64"/>
	<line x1="2138.77" y1="734.85" x2="2149.91" y2="727.05" stroke-linecap="round" style="stroke:#1A476F;stroke-width:8.64"/>
	<line x1="2149.91" y1="727.05" x2="2161.05" y2="719.38" stroke-linecap="round" style="stroke:#1A476F;stroke-width:8.64"/>
	<line x1="2161.05" y1="719.38" x2="2172.06" y2="711.71" stroke-linecap="round" style="stroke:#1A476F;stroke-width:8.64"/>
	<line x1="2172.06" y1="711.71" x2="2183.20" y2="704.28" stroke-linecap="round" style="stroke:#1A476F;stroke-width:8.64"/>
	<line x1="2183.20" y1="704.28" x2="2194.34" y2="696.98" stroke-linecap="round" style="stroke:#1A476F;stroke-width:8.64"/>
	<line x1="2194.34" y1="696.98" x2="2205.47" y2="689.68" stroke-linecap="round" style="stroke:#1A476F;stroke-width:8.64"/>
	<line x1="2205.47" y1="689.68" x2="2216.61" y2="682.63" stroke-linecap="round" style="stroke:#1A476F;stroke-width:8.64"/>
	<line x1="2216.61" y1="682.63" x2="2227.75" y2="675.57" stroke-linecap="round" style="stroke:#1A476F;stroke-width:8.64"/>
	<line x1="2227.75" y1="675.57" x2="2238.89" y2="668.77" stroke-linecap="round" style="stroke:#1A476F;stroke-width:8.64"/>
	<line x1="2238.89" y1="668.77" x2="2250.02" y2="661.96" stroke-linecap="round" style="stroke:#1A476F;stroke-width:8.64"/>
	<line x1="2250.02" y1="661.96" x2="2261.04" y2="655.28" stroke-linecap="round" style="stroke:#1A476F;stroke-width:8.64"/>
	<line x1="2261.04" y1="655.28" x2="2272.17" y2="648.84" stroke-linecap="round" style="stroke:#1A476F;stroke-width:8.64"/>
	<line x1="2272.17" y1="648.84" x2="2283.31" y2="642.41" stroke-linecap="round" style="stroke:#1A476F;stroke-width:8.64"/>
	<line x1="2283.31" y1="642.41" x2="2294.45" y2="636.09" stroke-linecap="round" style="stroke:#1A476F;stroke-width:8.64"/>
	<line x1="2294.45" y1="636.09" x2="2305.59" y2="629.91" stroke-linecap="round" style="stroke:#1A476F;stroke-width:8.64"/>
	<line x1="2305.59" y1="629.91" x2="2316.72" y2="623.72" stroke-linecap="round" style="stroke:#1A476F;stroke-width:8.64"/>
	<line x1="2316.72" y1="623.72" x2="2327.86" y2="617.78" stroke-linecap="round" style="stroke:#1A476F;stroke-width:8.64"/>
	<line x1="2327.86" y1="617.78" x2="2338.88" y2="611.84" stroke-linecap="round" style="stroke:#1A476F;stroke-width:8.64"/>
	<line x1="2338.88" y1="611.84" x2="2350.01" y2="606.15" stroke-linecap="round" style="stroke:#1A476F;stroke-width:8.64"/>
	<line x1="2350.01" y1="606.15" x2="2361.15" y2="600.45" stroke-linecap="round" style="stroke:#1A476F;stroke-width:8.64"/>
	<line x1="2361.15" y1="600.45" x2="2372.29" y2="594.88" stroke-linecap="round" style="stroke:#1A476F;stroke-width:8.64"/>
	<line x1="2372.29" y1="594.88" x2="2383.43" y2="589.44" stroke-linecap="round" style="stroke:#1A476F;stroke-width:8.64"/>
	<line x1="2383.43" y1="589.44" x2="2394.56" y2="583.99" stroke-linecap="round" style="stroke:#1A476F;stroke-width:8.64"/>
	<line x1="2394.56" y1="583.99" x2="2405.70" y2="578.80" stroke-linecap="round" style="stroke:#1A476F;stroke-width:8.64"/>
	<line x1="2405.70" y1="578.80" x2="2416.71" y2="573.60" stroke-linecap="round" style="stroke:#1A476F;stroke-width:8.64"/>
	<line x1="2416.71" y1="573.60" x2="2427.85" y2="568.53" stroke-linecap="round" style="stroke:#1A476F;stroke-width:8.64"/>
	<line x1="2427.85" y1="568.53" x2="2438.99" y2="563.58" stroke-linecap="round" style="stroke:#1A476F;stroke-width:8.64"/>
	<line x1="2438.99" y1="563.58" x2="2450.13" y2="558.75" stroke-linecap="round" style="stroke:#1A476F;stroke-width:8.64"/>
	<line x1="2450.13" y1="558.75" x2="2461.26" y2="553.92" stroke-linecap="round" style="stroke:#1A476F;stroke-width:8.64"/>
	<line x1="2461.26" y1="553.92" x2="2472.40" y2="549.22" stroke-linecap="round" style="stroke:#1A476F;stroke-width:8.64"/>
	<line x1="2472.40" y1="549.22" x2="2483.54" y2="544.64" stroke-linecap="round" style="stroke:#1A476F;stroke-width:8.64"/>
	<line x1="2483.54" y1="544.64" x2="2494.55" y2="540.06" stroke-linecap="round" style="stroke:#1A476F;stroke-width:8.64"/>
	<line x1="2494.55" y1="540.06" x2="2505.69" y2="535.73" stroke-linecap="round" style="stroke:#1A476F;stroke-width:8.64"/>
	<line x1="2505.69" y1="535.73" x2="2516.83" y2="531.40" stroke-linecap="round" style="stroke:#1A476F;stroke-width:8.64"/>
	<line x1="2516.83" y1="531.40" x2="2527.97" y2="527.07" stroke-linecap="round" style="stroke:#1A476F;stroke-width:8.64"/>
	<line x1="2527.97" y1="527.07" x2="2539.10" y2="522.98" stroke-linecap="round" style="stroke:#1A476F;stroke-width:8.64"/>
	<line x1="2539.10" y1="522.98" x2="2550.24" y2="518.90" stroke-linecap="round" style="stroke:#1A476F;stroke-width:8.64"/>
	<line x1="2550.24" y1="518.90" x2="2561.38" y2="514.82" stroke-linecap="round" style="stroke:#1A476F;stroke-width:8.64"/>
	<line x1="2561.38" y1="514.82" x2="2572.39" y2="510.98" stroke-linecap="round" style="stroke:#1A476F;stroke-width:8.64"/>
	<line x1="2572.39" y1="510.98" x2="2583.53" y2="507.14" stroke-linecap="round" style="stroke:#1A476F;stroke-width:8.64"/>
	<line x1="2583.53" y1="507.14" x2="2594.67" y2="503.31" stroke-linecap="round" style="stroke:#1A476F;stroke-width:8.64"/>
	<line x1="2594.67" y1="503.31" x2="2605.80" y2="499.59" stroke-linecap="round" style="stroke:#1A476F;stroke-width:8.64"/>
	<line x1="2605.80" y1="499.59" x2="2616.94" y2="496.01" stroke-linecap="round" style="stroke:#1A476F;stroke-width:8.64"/>
	<line x1="2616.94" y1="496.01" x2="2628.08" y2="492.54" stroke-linecap="round" style="stroke:#1A476F;stroke-width:8.64"/>
	<line x1="2628.08" y1="492.54" x2="2639.22" y2="489.08" stroke-linecap="round" style="stroke:#1A476F;stroke-width:8.64"/>
	<line x1="2639.22" y1="489.08" x2="2650.23" y2="485.61" stroke-linecap="round" style="stroke:#1A476F;stroke-width:8.64"/>
	<line x1="2650.23" y1="485.61" x2="2661.37" y2="482.39" stroke-linecap="round" style="stroke:#1A476F;stroke-width:8.64"/>
	<line x1="2661.37" y1="482.39" x2="2672.51" y2="479.05" stroke-linecap="round" style="stroke:#1A476F;stroke-width:8.64"/>
	<line x1="2672.51" y1="479.05" x2="2683.64" y2="475.96" stroke-linecap="round" style="stroke:#1A476F;stroke-width:8.64"/>
	<line x1="2683.64" y1="475.96" x2="2694.78" y2="472.86" stroke-linecap="round" style="stroke:#1A476F;stroke-width:8.64"/>
	<line x1="2694.78" y1="472.86" x2="2705.92" y2="469.77" stroke-linecap="round" style="stroke:#1A476F;stroke-width:8.64"/>
	<line x1="2705.92" y1="469.77" x2="2717.05" y2="466.80" stroke-linecap="round" style="stroke:#1A476F;stroke-width:8.64"/>
	<line x1="2717.05" y1="466.80" x2="2728.07" y2="463.83" stroke-linecap="round" style="stroke:#1A476F;stroke-width:8.64"/>
	<line x1="2728.07" y1="463.83" x2="2739.21" y2="460.98" stroke-linecap="round" style="stroke:#1A476F;stroke-width:8.64"/>
	<line x1="2739.21" y1="460.98" x2="2750.34" y2="458.26" stroke-linecap="round" style="stroke:#1A476F;stroke-width:8.64"/>
	<line x1="2750.34" y1="458.26" x2="2761.48" y2="455.41" stroke-linecap="round" style="stroke:#1A476F;stroke-width:8.64"/>
	<line x1="2761.48" y1="455.41" x2="2772.62" y2="452.82" stroke-linecap="round" style="stroke:#1A476F;stroke-width:8.64"/>
	<line x1="2772.62" y1="452.82" x2="2783.76" y2="450.22" stroke-linecap="round" style="stroke:#1A476F;stroke-width:8.64"/>
	<line x1="2783.76" y1="450.22" x2="2794.89" y2="447.62" stroke-linecap="round" style="stroke:#1A476F;stroke-width:8.64"/>
	<line x1="2794.89" y1="447.62" x2="2805.91" y2="445.14" stroke-linecap="round" style="stroke:#1A476F;stroke-width:8.64"/>
	<line x1="2805.91" y1="445.14" x2="2817.05" y2="442.67" stroke-linecap="round" style="stroke:#1A476F;stroke-width:8.64"/>
	<line x1="2817.05" y1="442.67" x2="2828.18" y2="440.32" stroke-linecap="round" style="stroke:#1A476F;stroke-width:8.64"/>
	<line x1="2828.18" y1="440.32" x2="2839.32" y2="437.96" stroke-linecap="round" style="stroke:#1A476F;stroke-width:8.64"/>
	<line x1="2839.32" y1="437.96" x2="2850.46" y2="435.61" stroke-linecap="round" style="stroke:#1A476F;stroke-width:8.64"/>
	<line x1="2850.46" y1="435.61" x2="2861.59" y2="433.39" stroke-linecap="round" style="stroke:#1A476F;stroke-width:8.64"/>
	<line x1="2861.59" y1="433.39" x2="2872.73" y2="431.16" stroke-linecap="round" style="stroke:#1A476F;stroke-width:8.64"/>
	<line x1="2872.73" y1="431.16" x2="2883.87" y2="429.05" stroke-linecap="round" style="stroke:#1A476F;stroke-width:8.64"/>
	<line x1="2883.87" y1="429.05" x2="2894.88" y2="426.95" stroke-linecap="round" style="stroke:#1A476F;stroke-width:8.64"/>
	<line x1="2894.88" y1="426.95" x2="2906.02" y2="424.85" stroke-linecap="round" style="stroke:#1A476F;stroke-width:8.64"/>
	<line x1="2906.02" y1="424.85" x2="2917.16" y2="422.87" stroke-linecap="round" style="stroke:#1A476F;stroke-width:8.64"/>
	<line x1="2917.16" y1="422.87" x2="2928.30" y2="420.89" stroke-linecap="round" style="stroke:#1A476F;stroke-width:8.64"/>
	<line x1="2928.30" y1="420.89" x2="2939.43" y2="419.03" stroke-linecap="round" style="stroke:#1A476F;stroke-width:8.64"/>
	<line x1="2939.43" y1="419.03" x2="2950.57" y2="417.17" stroke-linecap="round" style="stroke:#1A476F;stroke-width:8.64"/>
	<line x1="2950.57" y1="417.17" x2="2961.71" y2="415.32" stroke-linecap="round" style="stroke:#1A476F;stroke-width:8.64"/>
	<line x1="2961.71" y1="415.32" x2="2972.72" y2="413.59" stroke-linecap="round" style="stroke:#1A476F;stroke-width:8.64"/>
	<line x1="2972.72" y1="413.59" x2="2983.86" y2="411.73" stroke-linecap="round" style="stroke:#1A476F;stroke-width:8.64"/>
	<line x1="2983.86" y1="411.73" x2="2995.00" y2="410.12" stroke-linecap="round" style="stroke:#1A476F;stroke-width:8.64"/>
	<line x1="2995.00" y1="410.12" x2="3006.14" y2="408.39" stroke-linecap="round" style="stroke:#1A476F;stroke-width:8.64"/>
	<line x1="3006.14" y1="408.39" x2="3017.27" y2="406.78" stroke-linecap="round" style="stroke:#1A476F;stroke-width:8.64"/>
	<line x1="3017.27" y1="406.78" x2="3028.41" y2="405.17" stroke-linecap="round" style="stroke:#1A476F;stroke-width:8.64"/>
	<line x1="3028.41" y1="405.17" x2="3039.55" y2="403.56" stroke-linecap="round" style="stroke:#1A476F;stroke-width:8.64"/>
	<line x1="3039.55" y1="403.56" x2="3050.56" y2="402.08" stroke-linecap="round" style="stroke:#1A476F;stroke-width:8.64"/>
	<line x1="3050.56" y1="402.08" x2="3061.70" y2="400.59" stroke-linecap="round" style="stroke:#1A476F;stroke-width:8.64"/>
	<line x1="3061.70" y1="400.59" x2="3072.84" y2="399.11" stroke-linecap="round" style="stroke:#1A476F;stroke-width:8.64"/>
	<line x1="3072.84" y1="399.11" x2="3083.97" y2="397.74" stroke-linecap="round" style="stroke:#1A476F;stroke-width:8.64"/>
	<line x1="3083.97" y1="397.74" x2="3095.11" y2="396.38" stroke-linecap="round" style="stroke:#1A476F;stroke-width:8.64"/>
	<line x1="3095.11" y1="396.38" x2="3106.25" y2="395.02" stroke-linecap="round" style="stroke:#1A476F;stroke-width:8.64"/>
	<line x1="3106.25" y1="395.02" x2="3117.39" y2="393.66" stroke-linecap="round" style="stroke:#1A476F;stroke-width:8.64"/>
	<line x1="3117.39" y1="393.66" x2="3128.40" y2="392.30" stroke-linecap="round" style="stroke:#1A476F;stroke-width:8.64"/>
	<line x1="3128.40" y1="392.30" x2="3139.54" y2="391.06" stroke-linecap="round" style="stroke:#1A476F;stroke-width:8.64"/>
	<line x1="3139.54" y1="391.06" x2="3150.68" y2="389.82" stroke-linecap="round" style="stroke:#1A476F;stroke-width:8.64"/>
	<line x1="3150.68" y1="389.82" x2="3161.81" y2="388.59" stroke-linecap="round" style="stroke:#1A476F;stroke-width:8.64"/>
	<line x1="3161.81" y1="388.59" x2="3172.95" y2="387.47" stroke-linecap="round" style="stroke:#1A476F;stroke-width:8.64"/>
	<line x1="3172.95" y1="387.47" x2="3184.09" y2="386.24" stroke-linecap="round" style="stroke:#1A476F;stroke-width:8.64"/>
	<line x1="3184.09" y1="386.24" x2="3195.22" y2="385.12" stroke-linecap="round" style="stroke:#1A476F;stroke-width:8.64"/>
	<line x1="3195.22" y1="385.12" x2="3206.24" y2="384.01" stroke-linecap="round" style="stroke:#1A476F;stroke-width:8.64"/>
	<line x1="3206.24" y1="384.01" x2="3217.38" y2="383.02" stroke-linecap="round" style="stroke:#1A476F;stroke-width:8.64"/>
	<line x1="3217.38" y1="383.02" x2="3228.51" y2="381.90" stroke-linecap="round" style="stroke:#1A476F;stroke-width:8.64"/>
	<line x1="3228.51" y1="381.90" x2="3239.65" y2="380.91" stroke-linecap="round" style="stroke:#1A476F;stroke-width:8.64"/>
	<line x1="3239.65" y1="380.91" x2="3250.79" y2="379.92" stroke-linecap="round" style="stroke:#1A476F;stroke-width:8.64"/>
	<line x1="3250.79" y1="379.92" x2="3261.93" y2="378.93" stroke-linecap="round" style="stroke:#1A476F;stroke-width:8.64"/>
	<line x1="3261.93" y1="378.93" x2="3273.06" y2="377.94" stroke-linecap="round" style="stroke:#1A476F;stroke-width:8.64"/>
	<line x1="3273.06" y1="377.94" x2="3284.08" y2="377.08" stroke-linecap="round" style="stroke:#1A476F;stroke-width:8.64"/>
	<line x1="3284.08" y1="377.08" x2="3295.22" y2="376.09" stroke-linecap="round" style="stroke:#1A476F;stroke-width:8.64"/>
	<line x1="3295.22" y1="376.09" x2="3306.35" y2="375.22" stroke-linecap="round" style="stroke:#1A476F;stroke-width:8.64"/>
	<line x1="3306.35" y1="375.22" x2="3317.49" y2="374.36" stroke-linecap="round" style="stroke:#1A476F;stroke-width:8.64"/>
	<line x1="3317.49" y1="374.36" x2="3328.63" y2="373.49" stroke-linecap="round" style="stroke:#1A476F;stroke-width:8.64"/>
	<line x1="3328.63" y1="373.49" x2="3339.76" y2="372.75" stroke-linecap="round" style="stroke:#1A476F;stroke-width:8.64"/>
	<line x1="3339.76" y1="372.75" x2="3350.90" y2="371.88" stroke-linecap="round" style="stroke:#1A476F;stroke-width:8.64"/>
	<line x1="3350.90" y1="371.88" x2="3361.92" y2="371.14" stroke-linecap="round" style="stroke:#1A476F;stroke-width:8.64"/>
	<line x1="3361.92" y1="371.14" x2="3373.05" y2="370.27" stroke-linecap="round" style="stroke:#1A476F;stroke-width:8.64"/>
	<line x1="3373.05" y1="370.27" x2="3384.19" y2="369.53" stroke-linecap="round" style="stroke:#1A476F;stroke-width:8.64"/>
	<line x1="3384.19" y1="369.53" x2="3395.33" y2="368.79" stroke-linecap="round" style="stroke:#1A476F;stroke-width:8.64"/>
	<line x1="3395.33" y1="368.79" x2="3406.47" y2="368.17" stroke-linecap="round" style="stroke:#1A476F;stroke-width:8.64"/>
	<line x1="3406.47" y1="368.17" x2="3417.60" y2="367.43" stroke-linecap="round" style="stroke:#1A476F;stroke-width:8.64"/>
	<line x1="3417.60" y1="367.43" x2="3428.74" y2="366.68" stroke-linecap="round" style="stroke:#1A476F;stroke-width:8.64"/>
	<line x1="3428.74" y1="366.68" x2="3439.76" y2="366.06" stroke-linecap="round" style="stroke:#1A476F;stroke-width:8.64"/>
	<line x1="3439.76" y1="366.06" x2="3450.89" y2="365.45" stroke-linecap="round" style="stroke:#1A476F;stroke-width:8.64"/>
	<line x1="3450.89" y1="365.45" x2="3462.03" y2="364.83" stroke-linecap="round" style="stroke:#1A476F;stroke-width:8.64"/>
	<line x1="3462.03" y1="364.83" x2="3473.17" y2="364.21" stroke-linecap="round" style="stroke:#1A476F;stroke-width:8.64"/>
	<line x1="3473.17" y1="364.21" x2="3484.30" y2="363.59" stroke-linecap="round" style="stroke:#1A476F;stroke-width:8.64"/>
	<line x1="3484.30" y1="363.59" x2="3495.44" y2="362.97" stroke-linecap="round" style="stroke:#1A476F;stroke-width:8.64"/>
	<line x1="3495.44" y1="362.97" x2="3506.58" y2="362.35" stroke-linecap="round" style="stroke:#1A476F;stroke-width:8.64"/>
	<line x1="3506.58" y1="362.35" x2="3517.72" y2="361.86" stroke-linecap="round" style="stroke:#1A476F;stroke-width:8.64"/>
	<line x1="3517.72" y1="361.86" x2="3528.73" y2="361.24" stroke-linecap="round" style="stroke:#1A476F;stroke-width:8.64"/>
	<line x1="3528.73" y1="361.24" x2="3539.87" y2="360.74" stroke-linecap="round" style="stroke:#1A476F;stroke-width:8.64"/>
	<line x1="3539.87" y1="360.74" x2="3551.01" y2="360.12" stroke-linecap="round" style="stroke:#1A476F;stroke-width:8.64"/>
	<line x1="3551.01" y1="360.12" x2="3562.14" y2="359.63" stroke-linecap="round" style="stroke:#1A476F;stroke-width:8.64"/>
	<line x1="3562.14" y1="359.63" x2="3573.28" y2="359.13" stroke-linecap="round" style="stroke:#1A476F;stroke-width:8.64"/>
	<line x1="3573.28" y1="359.13" x2="3584.42" y2="358.64" stroke-linecap="round" style="stroke:#1A476F;stroke-width:8.64"/>
	<line x1="3584.42" y1="358.64" x2="3595.56" y2="358.14" stroke-linecap="round" style="stroke:#1A476F;stroke-width:8.64"/>
	<line x1="3595.56" y1="358.14" x2="3606.57" y2="357.77" stroke-linecap="round" style="stroke:#1A476F;stroke-width:8.64"/>
	<line x1="3606.57" y1="357.77" x2="3617.71" y2="357.28" stroke-linecap="round" style="stroke:#1A476F;stroke-width:8.64"/>
	<line x1="3617.71" y1="357.28" x2="3628.84" y2="356.78" stroke-linecap="round" style="stroke:#1A476F;stroke-width:8.64"/>
	<line x1="3628.84" y1="356.78" x2="3639.98" y2="356.41" stroke-linecap="round" style="stroke:#1A476F;stroke-width:8.64"/>
	<line x1="3639.98" y1="356.41" x2="3651.12" y2="355.92" stroke-linecap="round" style="stroke:#1A476F;stroke-width:8.64"/>
	<line x1="3651.12" y1="355.92" x2="3662.26" y2="355.54" stroke-linecap="round" style="stroke:#1A476F;stroke-width:8.64"/>
	<line x1="3662.26" y1="355.54" x2="3673.40" y2="355.17" stroke-linecap="round" style="stroke:#1A476F;stroke-width:8.64"/>
	<line x1="3673.40" y1="355.17" x2="3684.41" y2="354.80" stroke-linecap="round" style="stroke:#1A476F;stroke-width:8.64"/>
	<line x1="3684.41" y1="354.80" x2="3695.55" y2="354.43" stroke-linecap="round" style="stroke:#1A476F;stroke-width:8.64"/>
	<line x1="3695.55" y1="354.43" x2="3706.68" y2="354.06" stroke-linecap="round" style="stroke:#1A476F;stroke-width:8.64"/>
	<line x1="3706.68" y1="354.06" x2="3717.82" y2="353.69" stroke-linecap="round" style="stroke:#1A476F;stroke-width:8.64"/>
	<line x1="3717.82" y1="353.69" x2="3728.96" y2="353.32" stroke-linecap="round" style="stroke:#1A476F;stroke-width:8.64"/>
	<line x1="3728.96" y1="353.32" x2="3740.10" y2="352.95" stroke-linecap="round" style="stroke:#1A476F;stroke-width:8.64"/>
	<line x1="3740.10" y1="352.95" x2="3751.23" y2="352.57" stroke-linecap="round" style="stroke:#1A476F;stroke-width:8.64"/>
	<line x1="3751.23" y1="352.57" x2="3762.25" y2="352.20" stroke-linecap="round" style="stroke:#1A476F;stroke-width:8.64"/>
	<line x1="3762.25" y1="352.20" x2="3773.39" y2="351.96" stroke-linecap="round" style="stroke:#1A476F;stroke-width:8.64"/>
	<line x1="3773.39" y1="351.96" x2="3784.52" y2="351.58" stroke-linecap="round" style="stroke:#1A476F;stroke-width:8.64"/>
	<line x1="3784.52" y1="351.58" x2="3795.66" y2="351.34" stroke-linecap="round" style="stroke:#1A476F;stroke-width:8.64"/>
	<circle cx="1349.49" cy="2425.95" r="26.35" style="fill:#90353B"/>
	<circle cx="1349.49" cy="2425.95" r="22.03" style="fill:none;stroke:#90353B;stroke-width:8.64"/>
	<circle cx="1524.72" cy="2425.95" r="26.35" style="fill:#90353B"/>
	<circle cx="1524.72" cy="2425.95" r="22.03" style="fill:none;stroke:#90353B;stroke-width:8.64"/>
	<circle cx="1688.07" cy="1382.33" r="26.35" style="fill:#90353B"/>
	<circle cx="1688.07" cy="1382.33" r="22.03" style="fill:none;stroke:#90353B;stroke-width:8.64"/>
	<circle cx="1843.38" cy="860.58" r="26.35" style="fill:#90353B"/>
	<circle cx="1843.38" cy="860.58" r="22.03" style="fill:none;stroke:#90353B;stroke-width:8.64"/>
	<circle cx="1993.61" cy="835.71" r="26.35" style="fill:#90353B"/>
	<circle cx="1993.61" cy="835.71" r="22.03" style="fill:none;stroke:#90353B;stroke-width:8.64"/>
	<circle cx="2141.12" cy="599.71" r="26.35" style="fill:#90353B"/>
	<circle cx="2141.12" cy="599.71" r="22.03" style="fill:none;stroke:#90353B;stroke-width:8.64"/>
	<circle cx="2288.63" cy="623.35" r="26.35" style="fill:#90353B"/>
	<circle cx="2288.63" cy="623.35" r="22.03" style="fill:none;stroke:#90353B;stroke-width:8.64"/>
	<circle cx="2438.37" cy="659.86" r="26.35" style="fill:#90353B"/>
	<circle cx="2438.37" cy="659.86" r="22.03" style="fill:none;stroke:#90353B;stroke-width:8.64"/>
	<circle cx="2592.93" cy="338.84" r="26.35" style="fill:#90353B"/>
	<circle cx="2592.93" cy="338.84" r="22.03" style="fill:none;stroke:#90353B;stroke-width:8.64"/>
	<circle cx="2755.54" cy="338.84" r="26.35" style="fill:#90353B"/>
	<circle cx="2755.54" cy="338.84" r="22.03" style="fill:none;stroke:#90353B;stroke-width:8.64"/>
	<circle cx="2929.53" cy="338.84" r="26.35" style="fill:#90353B"/>
	<circle cx="2929.53" cy="338.84" r="22.03" style="fill:none;stroke:#90353B;stroke-width:8.64"/>
	<line x1="407.38" y1="2489.19" x2="407.38" y2="275.35" style="stroke:#000000;stroke-width:5.76"/>
	<line x1="407.38" y1="2425.82" x2="367.41" y2="2425.82" style="stroke:#000000;stroke-width:5.76"/>
	<text x="347.49" y="2460.85" style="font-family:'Helvetica';font-size:99.99px;fill:#000000" text-anchor="end">0</text>
	<line x1="407.38" y1="1382.33" x2="367.41" y2="1382.33" style="stroke:#000000;stroke-width:5.76"/>
	<text x="347.49" y="1417.36" style="font-family:'Helvetica';font-size:99.99px;fill:#000000" text-anchor="end">.5</text>
	<line x1="407.38" y1="338.71" x2="367.41" y2="338.71" style="stroke:#000000;stroke-width:5.76"/>
	<text x="347.49" y="373.74" style="font-family:'Helvetica';font-size:99.99px;fill:#000000" text-anchor="end">1</text>
	<text x="190.71" y="1382.33" style="font-family:'Helvetica';font-size:99.99px;fill:#000000" transform="rotate(-90 190.71,1382.33)" text-anchor="middle">Probability</text>
	<line x1="407.38" y1="2489.19" x2="3859.02" y2="2489.19" style="stroke:#000000;stroke-width:5.76"/>
	<line x1="470.75" y1="2489.19" x2="470.75" y2="2529.16" style="stroke:#000000;stroke-width:5.76"/>
	<text x="470.75" y="2619.14" style="font-family:'Helvetica';font-size:99.99px;fill:#000000" text-anchor="middle">-4</text>
	<line x1="1301.97" y1="2489.19" x2="1301.97" y2="2529.16" style="stroke:#000000;stroke-width:5.76"/>
	<text x="1301.97" y="2619.14" style="font-family:'Helvetica';font-size:99.99px;fill:#000000" text-anchor="middle">-2</text>
	<line x1="2133.20" y1="2489.19" x2="2133.20" y2="2529.16" style="stroke:#000000;stroke-width:5.76"/>
	<text x="2133.20" y="2619.14" style="font-family:'Helvetica';font-size:99.99px;fill:#000000" text-anchor="middle">0</text>
	<line x1="2964.43" y1="2489.19" x2="2964.43" y2="2529.16" style="stroke:#000000;stroke-width:5.76"/>
	<text x="2964.43" y="2619.14" style="font-family:'Helvetica';font-size:99.99px;fill:#000000" text-anchor="middle">2</text>
	<line x1="3795.66" y1="2489.19" x2="3795.66" y2="2529.16" style="stroke:#000000;stroke-width:5.76"/>
	<text x="3795.66" y="2619.14" style="font-family:'Helvetica';font-size:99.99px;fill:#000000" text-anchor="middle">4</text>
	<text x="2133.20" y="2729.16" style="font-family:'Helvetica';font-size:99.99px;fill:#000000" text-anchor="middle">Theta</text>
	<text x="2133.20" y="215.98" style="font-family:'Helvetica';font-size:139.96px;fill:#1E2D53" text-anchor="middle">Item Characteristic Curve for Pr(math2=1)</text>
</svg>
