<?xml version="1.0" encoding="UTF-8" standalone="no"?>
<!-- This is a Stata 15.0 generated SVG file (http://www.stata.com) -->

<svg version="1.1" width="600px" height="436px" viewBox="0 0 3960 2880" xmlns="http://www.w3.org/2000/svg" xmlns:xlink="http://www.w3.org/1999/xlink">
	<desc>Stata Graph - Graph</desc>
	<rect x="0" y="0" width="3960" height="2880" style="fill:#EAF2F3;stroke:none"/>
	<rect x="0.00" y="0.00" width="3959.88" height="2880.00" style="fill:#EAF2F3"/>
	<rect x="2.88" y="2.88" width="3954.12" height="2874.24" style="fill:none;stroke:#EAF2F3;stroke-width:5.76"/>
	<rect x="390.80" y="275.35" width="3468.22" height="1703.84" style="fill:#FFFFFF"/>
	<rect x="393.68" y="278.23" width="3462.46" height="1698.08" style="fill:none;stroke:#FFFFFF;stroke-width:5.76"/>
	<line x1="390.80" y1="1915.83" x2="3859.02" y2="1915.83" style="stroke:#EAF2F3;stroke-width:8.64"/>
	<line x1="390.80" y1="1401.51" x2="3859.02" y2="1401.51" style="stroke:#EAF2F3;stroke-width:8.64"/>
	<line x1="390.80" y1="887.32" x2="3859.02" y2="887.32" style="stroke:#EAF2F3;stroke-width:8.64"/>
	<line x1="390.80" y1="372.99" x2="3859.02" y2="372.99" style="stroke:#EAF2F3;stroke-width:8.64"/>
	<line x1="454.04" y1="1835.39" x2="514.06" y2="1824.75" stroke-linecap="round" style="stroke:#1A476F;stroke-width:8.64"/>
	<line x1="514.06" y1="1824.75" x2="574.08" y2="1767.70" stroke-linecap="round" style="stroke:#1A476F;stroke-width:8.64"/>
	<line x1="574.08" y1="1767.70" x2="633.97" y2="1694.07" stroke-linecap="round" style="stroke:#1A476F;stroke-width:8.64"/>
	<line x1="633.97" y1="1694.07" x2="693.99" y2="1629.47" stroke-linecap="round" style="stroke:#1A476F;stroke-width:8.64"/>
	<line x1="693.99" y1="1629.47" x2="754.01" y2="1561.90" stroke-linecap="round" style="stroke:#1A476F;stroke-width:8.64"/>
	<line x1="754.01" y1="1561.90" x2="813.90" y2="1513.76" stroke-linecap="round" style="stroke:#1A476F;stroke-width:8.64"/>
	<line x1="813.90" y1="1513.76" x2="873.92" y2="1433.07" stroke-linecap="round" style="stroke:#1A476F;stroke-width:8.64"/>
	<line x1="873.92" y1="1433.07" x2="933.94" y2="1379.73" stroke-linecap="round" style="stroke:#1A476F;stroke-width:8.64"/>
	<line x1="933.94" y1="1379.73" x2="993.84" y2="1306.47" stroke-linecap="round" style="stroke:#1A476F;stroke-width:8.64"/>
	<line x1="993.84" y1="1306.47" x2="1053.86" y2="1262.54" stroke-linecap="round" style="stroke:#1A476F;stroke-width:8.64"/>
	<line x1="1053.86" y1="1262.54" x2="1113.87" y2="1127.65" stroke-linecap="round" style="stroke:#1A476F;stroke-width:8.64"/>
	<line x1="1113.87" y1="1127.65" x2="1173.77" y2="1015.52" stroke-linecap="round" style="stroke:#1A476F;stroke-width:8.64"/>
	<line x1="1173.77" y1="1015.52" x2="1233.79" y2="853.53" stroke-linecap="round" style="stroke:#1A476F;stroke-width:8.64"/>
	<line x1="1233.79" y1="853.53" x2="1293.81" y2="745.00" stroke-linecap="round" style="stroke:#1A476F;stroke-width:8.64"/>
	<line x1="1293.81" y1="745.00" x2="1353.70" y2="674.21" stroke-linecap="round" style="stroke:#1A476F;stroke-width:8.64"/>
	<line x1="1353.70" y1="674.21" x2="1413.72" y2="612.21" stroke-linecap="round" style="stroke:#1A476F;stroke-width:8.64"/>
	<line x1="1413.72" y1="612.21" x2="1473.74" y2="529.42" stroke-linecap="round" style="stroke:#1A476F;stroke-width:8.64"/>
	<line x1="1473.74" y1="529.42" x2="1533.63" y2="451.83" stroke-linecap="round" style="stroke:#1A476F;stroke-width:8.64"/>
	<line x1="1533.63" y1="451.83" x2="1593.65" y2="406.53" stroke-linecap="round" style="stroke:#1A476F;stroke-width:8.64"/>
	<line x1="1593.65" y1="406.53" x2="1653.67" y2="412.60" stroke-linecap="round" style="stroke:#1A476F;stroke-width:8.64"/>
	<line x1="1653.67" y1="412.60" x2="1713.57" y2="411.48" stroke-linecap="round" style="stroke:#1A476F;stroke-width:8.64"/>
	<line x1="1713.57" y1="411.48" x2="1773.59" y2="431.90" stroke-linecap="round" style="stroke:#1A476F;stroke-width:8.64"/>
	<line x1="1773.59" y1="431.90" x2="1833.60" y2="469.77" stroke-linecap="round" style="stroke:#1A476F;stroke-width:8.64"/>
	<line x1="1833.60" y1="469.77" x2="1893.50" y2="533.63" stroke-linecap="round" style="stroke:#1A476F;stroke-width:8.64"/>
	<line x1="1893.50" y1="533.63" x2="1953.52" y2="612.46" stroke-linecap="round" style="stroke:#1A476F;stroke-width:8.64"/>
	<line x1="1953.52" y1="612.46" x2="2013.54" y2="682.87" stroke-linecap="round" style="stroke:#1A476F;stroke-width:8.64"/>
	<line x1="2013.54" y1="682.87" x2="2073.43" y2="726.81" stroke-linecap="round" style="stroke:#1A476F;stroke-width:8.64"/>
	<line x1="2073.43" y1="726.81" x2="2133.45" y2="783.73" stroke-linecap="round" style="stroke:#1A476F;stroke-width:8.64"/>
	<line x1="2133.45" y1="783.73" x2="2193.47" y2="842.15" stroke-linecap="round" style="stroke:#1A476F;stroke-width:8.64"/>
	<line x1="2193.47" y1="842.15" x2="2253.36" y2="930.13" stroke-linecap="round" style="stroke:#1A476F;stroke-width:8.64"/>
	<line x1="2253.36" y1="930.13" x2="2313.38" y2="1018.87" stroke-linecap="round" style="stroke:#1A476F;stroke-width:8.64"/>
	<line x1="2313.38" y1="1018.87" x2="2373.28" y2="1116.14" stroke-linecap="round" style="stroke:#1A476F;stroke-width:8.64"/>
	<line x1="2373.28" y1="1116.14" x2="2433.30" y2="1215.14" stroke-linecap="round" style="stroke:#1A476F;stroke-width:8.64"/>
	<line x1="2433.30" y1="1215.14" x2="2493.32" y2="1291.62" stroke-linecap="round" style="stroke:#1A476F;stroke-width:8.64"/>
	<line x1="2493.32" y1="1291.62" x2="2553.21" y2="1373.17" stroke-linecap="round" style="stroke:#1A476F;stroke-width:8.64"/>
	<line x1="2553.21" y1="1373.17" x2="2613.23" y2="1455.10" stroke-linecap="round" style="stroke:#1A476F;stroke-width:8.64"/>
	<line x1="2613.23" y1="1455.10" x2="2673.25" y2="1507.94" stroke-linecap="round" style="stroke:#1A476F;stroke-width:8.64"/>
	<line x1="2673.25" y1="1507.94" x2="2733.14" y2="1549.89" stroke-linecap="round" style="stroke:#1A476F;stroke-width:8.64"/>
	<line x1="2733.14" y1="1549.89" x2="2793.16" y2="1598.28" stroke-linecap="round" style="stroke:#1A476F;stroke-width:8.64"/>
	<line x1="2793.16" y1="1598.28" x2="2853.18" y2="1648.77" stroke-linecap="round" style="stroke:#1A476F;stroke-width:8.64"/>
	<line x1="2853.18" y1="1648.77" x2="2913.07" y2="1684.41" stroke-linecap="round" style="stroke:#1A476F;stroke-width:8.64"/>
	<line x1="2913.07" y1="1684.41" x2="2973.09" y2="1721.05" stroke-linecap="round" style="stroke:#1A476F;stroke-width:8.64"/>
	<line x1="2973.09" y1="1721.05" x2="3033.11" y2="1745.92" stroke-linecap="round" style="stroke:#1A476F;stroke-width:8.64"/>
	<line x1="3033.11" y1="1745.92" x2="3093.01" y2="1765.97" stroke-linecap="round" style="stroke:#1A476F;stroke-width:8.64"/>
	<line x1="3093.01" y1="1765.97" x2="3153.03" y2="1789.98" stroke-linecap="round" style="stroke:#1A476F;stroke-width:8.64"/>
	<line x1="3153.03" y1="1789.98" x2="3213.05" y2="1821.78" stroke-linecap="round" style="stroke:#1A476F;stroke-width:8.64"/>
	<line x1="3213.05" y1="1821.78" x2="3272.94" y2="1853.83" stroke-linecap="round" style="stroke:#1A476F;stroke-width:8.64"/>
	<line x1="3272.94" y1="1853.83" x2="3332.96" y2="1870.29" stroke-linecap="round" style="stroke:#1A476F;stroke-width:8.64"/>
	<line x1="3332.96" y1="1870.29" x2="3392.98" y2="1875.61" stroke-linecap="round" style="stroke:#1A476F;stroke-width:8.64"/>
	<line x1="454.04" y1="1833.54" x2="463.94" y2="1829.82" stroke-linecap="round" style="stroke:#90353B;stroke-width:8.64"/>
	<line x1="463.94" y1="1829.82" x2="473.71" y2="1825.99" stroke-linecap="round" style="stroke:#90353B;stroke-width:8.64"/>
	<line x1="473.71" y1="1825.99" x2="483.62" y2="1822.03" stroke-linecap="round" style="stroke:#90353B;stroke-width:8.64"/>
	<line x1="483.62" y1="1822.03" x2="493.39" y2="1817.94" stroke-linecap="round" style="stroke:#90353B;stroke-width:8.64"/>
	<line x1="493.39" y1="1817.94" x2="503.17" y2="1813.61" stroke-linecap="round" style="stroke:#90353B;stroke-width:8.64"/>
	<line x1="503.17" y1="1813.61" x2="513.07" y2="1809.28" stroke-linecap="round" style="stroke:#90353B;stroke-width:8.64"/>
	<line x1="513.07" y1="1809.28" x2="522.84" y2="1804.70" stroke-linecap="round" style="stroke:#90353B;stroke-width:8.64"/>
	<line x1="522.84" y1="1804.70" x2="532.74" y2="1799.88" stroke-linecap="round" style="stroke:#90353B;stroke-width:8.64"/>
	<line x1="532.74" y1="1799.88" x2="542.52" y2="1795.05" stroke-linecap="round" style="stroke:#90353B;stroke-width:8.64"/>
	<line x1="542.52" y1="1795.05" x2="552.42" y2="1789.98" stroke-linecap="round" style="stroke:#90353B;stroke-width:8.64"/>
	<line x1="552.42" y1="1789.98" x2="562.20" y2="1784.78" stroke-linecap="round" style="stroke:#90353B;stroke-width:8.64"/>
	<line x1="562.20" y1="1784.78" x2="571.97" y2="1779.33" stroke-linecap="round" style="stroke:#90353B;stroke-width:8.64"/>
	<line x1="571.97" y1="1779.33" x2="581.87" y2="1773.76" stroke-linecap="round" style="stroke:#90353B;stroke-width:8.64"/>
	<line x1="581.87" y1="1773.76" x2="591.65" y2="1767.95" stroke-linecap="round" style="stroke:#90353B;stroke-width:8.64"/>
	<line x1="591.65" y1="1767.95" x2="601.55" y2="1762.01" stroke-linecap="round" style="stroke:#90353B;stroke-width:8.64"/>
	<line x1="601.55" y1="1762.01" x2="611.33" y2="1755.94" stroke-linecap="round" style="stroke:#90353B;stroke-width:8.64"/>
	<line x1="611.33" y1="1755.94" x2="621.23" y2="1749.63" stroke-linecap="round" style="stroke:#90353B;stroke-width:8.64"/>
	<line x1="621.23" y1="1749.63" x2="631.00" y2="1743.07" stroke-linecap="round" style="stroke:#90353B;stroke-width:8.64"/>
	<line x1="631.00" y1="1743.07" x2="640.78" y2="1736.39" stroke-linecap="round" style="stroke:#90353B;stroke-width:8.64"/>
	<line x1="640.78" y1="1736.39" x2="650.68" y2="1729.46" stroke-linecap="round" style="stroke:#90353B;stroke-width:8.64"/>
	<line x1="650.68" y1="1729.46" x2="660.45" y2="1722.41" stroke-linecap="round" style="stroke:#90353B;stroke-width:8.64"/>
	<line x1="660.45" y1="1722.41" x2="670.35" y2="1715.10" stroke-linecap="round" style="stroke:#90353B;stroke-width:8.64"/>
	<line x1="670.35" y1="1715.10" x2="680.13" y2="1707.56" stroke-linecap="round" style="stroke:#90353B;stroke-width:8.64"/>
	<line x1="680.13" y1="1707.56" x2="690.03" y2="1699.88" stroke-linecap="round" style="stroke:#90353B;stroke-width:8.64"/>
	<line x1="690.03" y1="1699.88" x2="699.81" y2="1691.96" stroke-linecap="round" style="stroke:#90353B;stroke-width:8.64"/>
	<line x1="699.81" y1="1691.96" x2="709.58" y2="1683.80" stroke-linecap="round" style="stroke:#90353B;stroke-width:8.64"/>
	<line x1="709.58" y1="1683.80" x2="719.48" y2="1675.38" stroke-linecap="round" style="stroke:#90353B;stroke-width:8.64"/>
	<line x1="719.48" y1="1675.38" x2="729.26" y2="1666.84" stroke-linecap="round" style="stroke:#90353B;stroke-width:8.64"/>
	<line x1="729.26" y1="1666.84" x2="739.16" y2="1658.05" stroke-linecap="round" style="stroke:#90353B;stroke-width:8.64"/>
	<line x1="739.16" y1="1658.05" x2="748.93" y2="1649.02" stroke-linecap="round" style="stroke:#90353B;stroke-width:8.64"/>
	<line x1="748.93" y1="1649.02" x2="758.84" y2="1639.74" stroke-linecap="round" style="stroke:#90353B;stroke-width:8.64"/>
	<line x1="758.84" y1="1639.74" x2="768.61" y2="1630.21" stroke-linecap="round" style="stroke:#90353B;stroke-width:8.64"/>
	<line x1="768.61" y1="1630.21" x2="778.39" y2="1620.56" stroke-linecap="round" style="stroke:#90353B;stroke-width:8.64"/>
	<line x1="778.39" y1="1620.56" x2="788.29" y2="1610.66" stroke-linecap="round" style="stroke:#90353B;stroke-width:8.64"/>
	<line x1="788.29" y1="1610.66" x2="798.06" y2="1600.39" stroke-linecap="round" style="stroke:#90353B;stroke-width:8.64"/>
	<line x1="798.06" y1="1600.39" x2="807.96" y2="1589.99" stroke-linecap="round" style="stroke:#90353B;stroke-width:8.64"/>
	<line x1="807.96" y1="1589.99" x2="817.74" y2="1579.35" stroke-linecap="round" style="stroke:#90353B;stroke-width:8.64"/>
	<line x1="817.74" y1="1579.35" x2="827.64" y2="1568.58" stroke-linecap="round" style="stroke:#90353B;stroke-width:8.64"/>
	<line x1="827.64" y1="1568.58" x2="837.42" y2="1557.44" stroke-linecap="round" style="stroke:#90353B;stroke-width:8.64"/>
	<line x1="837.42" y1="1557.44" x2="847.19" y2="1546.06" stroke-linecap="round" style="stroke:#90353B;stroke-width:8.64"/>
	<line x1="847.19" y1="1546.06" x2="857.09" y2="1534.55" stroke-linecap="round" style="stroke:#90353B;stroke-width:8.64"/>
	<line x1="857.09" y1="1534.55" x2="866.87" y2="1522.79" stroke-linecap="round" style="stroke:#90353B;stroke-width:8.64"/>
	<line x1="866.87" y1="1522.79" x2="876.77" y2="1510.66" stroke-linecap="round" style="stroke:#90353B;stroke-width:8.64"/>
	<line x1="876.77" y1="1510.66" x2="886.54" y2="1498.41" stroke-linecap="round" style="stroke:#90353B;stroke-width:8.64"/>
	<line x1="886.54" y1="1498.41" x2="896.32" y2="1486.04" stroke-linecap="round" style="stroke:#90353B;stroke-width:8.64"/>
	<line x1="896.32" y1="1486.04" x2="906.22" y2="1473.29" stroke-linecap="round" style="stroke:#90353B;stroke-width:8.64"/>
	<line x1="906.22" y1="1473.29" x2="916.00" y2="1460.30" stroke-linecap="round" style="stroke:#90353B;stroke-width:8.64"/>
	<line x1="916.00" y1="1460.30" x2="925.90" y2="1447.18" stroke-linecap="round" style="stroke:#90353B;stroke-width:8.64"/>
	<line x1="925.90" y1="1447.18" x2="935.67" y2="1433.81" stroke-linecap="round" style="stroke:#90353B;stroke-width:8.64"/>
	<line x1="935.67" y1="1433.81" x2="945.57" y2="1420.20" stroke-linecap="round" style="stroke:#90353B;stroke-width:8.64"/>
	<line x1="945.57" y1="1420.20" x2="955.35" y2="1406.34" stroke-linecap="round" style="stroke:#90353B;stroke-width:8.64"/>
	<line x1="955.35" y1="1406.34" x2="965.13" y2="1392.35" stroke-linecap="round" style="stroke:#90353B;stroke-width:8.64"/>
	<line x1="965.13" y1="1392.35" x2="975.03" y2="1378.12" stroke-linecap="round" style="stroke:#90353B;stroke-width:8.64"/>
	<line x1="975.03" y1="1378.12" x2="984.80" y2="1363.64" stroke-linecap="round" style="stroke:#90353B;stroke-width:8.64"/>
	<line x1="984.80" y1="1363.64" x2="994.70" y2="1349.04" stroke-linecap="round" style="stroke:#90353B;stroke-width:8.64"/>
	<line x1="994.70" y1="1349.04" x2="1004.48" y2="1334.19" stroke-linecap="round" style="stroke:#90353B;stroke-width:8.64"/>
	<line x1="1004.48" y1="1334.19" x2="1014.38" y2="1319.22" stroke-linecap="round" style="stroke:#90353B;stroke-width:8.64"/>
	<line x1="1014.38" y1="1319.22" x2="1024.16" y2="1303.99" stroke-linecap="round" style="stroke:#90353B;stroke-width:8.64"/>
	<line x1="1024.16" y1="1303.99" x2="1033.93" y2="1288.53" stroke-linecap="round" style="stroke:#90353B;stroke-width:8.64"/>
	<line x1="1033.93" y1="1288.53" x2="1043.83" y2="1272.93" stroke-linecap="round" style="stroke:#90353B;stroke-width:8.64"/>
	<line x1="1043.83" y1="1272.93" x2="1053.61" y2="1257.22" stroke-linecap="round" style="stroke:#90353B;stroke-width:8.64"/>
	<line x1="1053.61" y1="1257.22" x2="1063.51" y2="1241.38" stroke-linecap="round" style="stroke:#90353B;stroke-width:8.64"/>
	<line x1="1063.51" y1="1241.38" x2="1073.28" y2="1225.29" stroke-linecap="round" style="stroke:#90353B;stroke-width:8.64"/>
	<line x1="1073.28" y1="1225.29" x2="1083.18" y2="1209.08" stroke-linecap="round" style="stroke:#90353B;stroke-width:8.64"/>
	<line x1="1083.18" y1="1209.08" x2="1092.96" y2="1192.74" stroke-linecap="round" style="stroke:#90353B;stroke-width:8.64"/>
	<line x1="1092.96" y1="1192.74" x2="1102.74" y2="1176.28" stroke-linecap="round" style="stroke:#90353B;stroke-width:8.64"/>
	<line x1="1102.74" y1="1176.28" x2="1112.64" y2="1159.70" stroke-linecap="round" style="stroke:#90353B;stroke-width:8.64"/>
	<line x1="1112.64" y1="1159.70" x2="1122.41" y2="1142.99" stroke-linecap="round" style="stroke:#90353B;stroke-width:8.64"/>
	<line x1="1122.41" y1="1142.99" x2="1132.31" y2="1126.16" stroke-linecap="round" style="stroke:#90353B;stroke-width:8.64"/>
	<line x1="1132.31" y1="1126.16" x2="1142.09" y2="1109.21" stroke-linecap="round" style="stroke:#90353B;stroke-width:8.64"/>
	<line x1="1142.09" y1="1109.21" x2="1151.99" y2="1092.13" stroke-linecap="round" style="stroke:#90353B;stroke-width:8.64"/>
	<line x1="1151.99" y1="1092.13" x2="1161.77" y2="1075.05" stroke-linecap="round" style="stroke:#90353B;stroke-width:8.64"/>
	<line x1="1161.77" y1="1075.05" x2="1171.54" y2="1057.85" stroke-linecap="round" style="stroke:#90353B;stroke-width:8.64"/>
	<line x1="1171.54" y1="1057.85" x2="1181.44" y2="1040.65" stroke-linecap="round" style="stroke:#90353B;stroke-width:8.64"/>
	<line x1="1181.44" y1="1040.65" x2="1191.22" y2="1023.32" stroke-linecap="round" style="stroke:#90353B;stroke-width:8.64"/>
	<line x1="1191.22" y1="1023.32" x2="1201.12" y2="1006.00" stroke-linecap="round" style="stroke:#90353B;stroke-width:8.64"/>
	<line x1="1201.12" y1="1006.00" x2="1210.89" y2="988.67" stroke-linecap="round" style="stroke:#90353B;stroke-width:8.64"/>
	<line x1="1210.89" y1="988.67" x2="1220.79" y2="971.22" stroke-linecap="round" style="stroke:#90353B;stroke-width:8.64"/>
	<line x1="1220.79" y1="971.22" x2="1230.57" y2="953.89" stroke-linecap="round" style="stroke:#90353B;stroke-width:8.64"/>
	<line x1="1230.57" y1="953.89" x2="1240.35" y2="936.45" stroke-linecap="round" style="stroke:#90353B;stroke-width:8.64"/>
	<line x1="1240.35" y1="936.45" x2="1250.25" y2="919.12" stroke-linecap="round" style="stroke:#90353B;stroke-width:8.64"/>
	<line x1="1250.25" y1="919.12" x2="1260.02" y2="901.79" stroke-linecap="round" style="stroke:#90353B;stroke-width:8.64"/>
	<line x1="1260.02" y1="901.79" x2="1269.92" y2="884.47" stroke-linecap="round" style="stroke:#90353B;stroke-width:8.64"/>
	<line x1="1269.92" y1="884.47" x2="1279.70" y2="867.27" stroke-linecap="round" style="stroke:#90353B;stroke-width:8.64"/>
	<line x1="1279.70" y1="867.27" x2="1289.60" y2="850.07" stroke-linecap="round" style="stroke:#90353B;stroke-width:8.64"/>
	<line x1="1289.60" y1="850.07" x2="1299.38" y2="832.99" stroke-linecap="round" style="stroke:#90353B;stroke-width:8.64"/>
	<line x1="1299.38" y1="832.99" x2="1309.15" y2="815.91" stroke-linecap="round" style="stroke:#90353B;stroke-width:8.64"/>
	<line x1="1309.15" y1="815.91" x2="1319.05" y2="798.95" stroke-linecap="round" style="stroke:#90353B;stroke-width:8.64"/>
	<line x1="1319.05" y1="798.95" x2="1328.83" y2="782.25" stroke-linecap="round" style="stroke:#90353B;stroke-width:8.64"/>
	<line x1="1328.83" y1="782.25" x2="1338.73" y2="765.54" stroke-linecap="round" style="stroke:#90353B;stroke-width:8.64"/>
	<line x1="1338.73" y1="765.54" x2="1348.50" y2="748.96" stroke-linecap="round" style="stroke:#90353B;stroke-width:8.64"/>
	<line x1="1348.50" y1="748.96" x2="1358.40" y2="732.62" stroke-linecap="round" style="stroke:#90353B;stroke-width:8.64"/>
	<line x1="1358.40" y1="732.62" x2="1368.18" y2="716.41" stroke-linecap="round" style="stroke:#90353B;stroke-width:8.64"/>
	<line x1="1368.18" y1="716.41" x2="1377.96" y2="700.32" stroke-linecap="round" style="stroke:#90353B;stroke-width:8.64"/>
	<line x1="1377.96" y1="700.32" x2="1387.86" y2="684.48" stroke-linecap="round" style="stroke:#90353B;stroke-width:8.64"/>
	<line x1="1387.86" y1="684.48" x2="1397.63" y2="668.89" stroke-linecap="round" style="stroke:#90353B;stroke-width:8.64"/>
	<line x1="1397.63" y1="668.89" x2="1407.53" y2="653.42" stroke-linecap="round" style="stroke:#90353B;stroke-width:8.64"/>
	<line x1="1407.53" y1="653.42" x2="1417.31" y2="638.20" stroke-linecap="round" style="stroke:#90353B;stroke-width:8.64"/>
	<line x1="1417.31" y1="638.20" x2="1427.21" y2="623.35" stroke-linecap="round" style="stroke:#90353B;stroke-width:8.64"/>
	<line x1="1427.21" y1="623.35" x2="1436.98" y2="608.62" stroke-linecap="round" style="stroke:#90353B;stroke-width:8.64"/>
	<line x1="1436.98" y1="608.62" x2="1446.76" y2="594.14" stroke-linecap="round" style="stroke:#90353B;stroke-width:8.64"/>
	<line x1="1446.76" y1="594.14" x2="1456.66" y2="580.03" stroke-linecap="round" style="stroke:#90353B;stroke-width:8.64"/>
	<line x1="1456.66" y1="580.03" x2="1466.44" y2="566.17" stroke-linecap="round" style="stroke:#90353B;stroke-width:8.64"/>
	<line x1="1466.44" y1="566.17" x2="1476.34" y2="552.68" stroke-linecap="round" style="stroke:#90353B;stroke-width:8.64"/>
	<line x1="1476.34" y1="552.68" x2="1486.11" y2="539.44" stroke-linecap="round" style="stroke:#90353B;stroke-width:8.64"/>
	<line x1="1486.11" y1="539.44" x2="1495.89" y2="526.57" stroke-linecap="round" style="stroke:#90353B;stroke-width:8.64"/>
	<line x1="1495.89" y1="526.57" x2="1505.79" y2="514.07" stroke-linecap="round" style="stroke:#90353B;stroke-width:8.64"/>
	<line x1="1505.79" y1="514.07" x2="1515.57" y2="501.82" stroke-linecap="round" style="stroke:#90353B;stroke-width:8.64"/>
	<line x1="1515.57" y1="501.82" x2="1525.47" y2="489.94" stroke-linecap="round" style="stroke:#90353B;stroke-width:8.64"/>
	<line x1="1525.47" y1="489.94" x2="1535.24" y2="478.56" stroke-linecap="round" style="stroke:#90353B;stroke-width:8.64"/>
	<line x1="1535.24" y1="478.56" x2="1545.14" y2="467.54" stroke-linecap="round" style="stroke:#90353B;stroke-width:8.64"/>
	<line x1="1545.14" y1="467.54" x2="1554.92" y2="456.78" stroke-linecap="round" style="stroke:#90353B;stroke-width:8.64"/>
	<line x1="1554.92" y1="456.78" x2="1564.69" y2="446.63" stroke-linecap="round" style="stroke:#90353B;stroke-width:8.64"/>
	<line x1="1564.69" y1="446.63" x2="1574.60" y2="436.73" stroke-linecap="round" style="stroke:#90353B;stroke-width:8.64"/>
	<line x1="1574.60" y1="436.73" x2="1584.37" y2="427.32" stroke-linecap="round" style="stroke:#90353B;stroke-width:8.64"/>
	<line x1="1584.37" y1="427.32" x2="1594.27" y2="418.29" stroke-linecap="round" style="stroke:#90353B;stroke-width:8.64"/>
	<line x1="1594.27" y1="418.29" x2="1604.05" y2="409.75" stroke-linecap="round" style="stroke:#90353B;stroke-width:8.64"/>
	<line x1="1604.05" y1="409.75" x2="1613.95" y2="401.71" stroke-linecap="round" style="stroke:#90353B;stroke-width:8.64"/>
	<line x1="1613.95" y1="401.71" x2="1623.72" y2="394.03" stroke-linecap="round" style="stroke:#90353B;stroke-width:8.64"/>
	<line x1="1623.72" y1="394.03" x2="1633.50" y2="386.98" stroke-linecap="round" style="stroke:#90353B;stroke-width:8.64"/>
	<line x1="1633.50" y1="386.98" x2="1643.40" y2="380.30" stroke-linecap="round" style="stroke:#90353B;stroke-width:8.64"/>
	<line x1="1643.40" y1="380.30" x2="1653.18" y2="373.98" stroke-linecap="round" style="stroke:#90353B;stroke-width:8.64"/>
	<line x1="1653.18" y1="373.98" x2="1663.08" y2="368.29" stroke-linecap="round" style="stroke:#90353B;stroke-width:8.64"/>
	<line x1="1663.08" y1="368.29" x2="1672.85" y2="363.09" stroke-linecap="round" style="stroke:#90353B;stroke-width:8.64"/>
	<line x1="1672.85" y1="363.09" x2="1682.75" y2="358.39" stroke-linecap="round" style="stroke:#90353B;stroke-width:8.64"/>
	<line x1="1682.75" y1="358.39" x2="1692.53" y2="354.18" stroke-linecap="round" style="stroke:#90353B;stroke-width:8.64"/>
	<line x1="1692.53" y1="354.18" x2="1702.31" y2="350.47" stroke-linecap="round" style="stroke:#90353B;stroke-width:8.64"/>
	<line x1="1702.31" y1="350.47" x2="1712.20" y2="347.25" stroke-linecap="round" style="stroke:#90353B;stroke-width:8.64"/>
	<line x1="1712.20" y1="347.25" x2="1721.98" y2="344.53" stroke-linecap="round" style="stroke:#90353B;stroke-width:8.64"/>
	<line x1="1721.98" y1="344.53" x2="1731.88" y2="342.30" stroke-linecap="round" style="stroke:#90353B;stroke-width:8.64"/>
	<line x1="1731.88" y1="342.30" x2="1741.66" y2="340.69" stroke-linecap="round" style="stroke:#90353B;stroke-width:8.64"/>
	<line x1="1741.66" y1="340.69" x2="1751.56" y2="339.46" stroke-linecap="round" style="stroke:#90353B;stroke-width:8.64"/>
	<line x1="1751.56" y1="339.46" x2="1761.33" y2="338.84" stroke-linecap="round" style="stroke:#90353B;stroke-width:8.64"/>
	<line x1="1761.33" y1="338.84" x2="1771.11" y2="338.84" stroke-linecap="round" style="stroke:#90353B;stroke-width:8.64"/>
	<line x1="1771.11" y1="338.84" x2="1781.01" y2="339.21" stroke-linecap="round" style="stroke:#90353B;stroke-width:8.64"/>
	<line x1="1781.01" y1="339.21" x2="1790.79" y2="340.08" stroke-linecap="round" style="stroke:#90353B;stroke-width:8.64"/>
	<line x1="1790.79" y1="340.08" x2="1800.69" y2="341.56" stroke-linecap="round" style="stroke:#90353B;stroke-width:8.64"/>
	<line x1="1800.69" y1="341.56" x2="1810.46" y2="343.54" stroke-linecap="round" style="stroke:#90353B;stroke-width:8.64"/>
	<line x1="1810.46" y1="343.54" x2="1820.36" y2="346.02" stroke-linecap="round" style="stroke:#90353B;stroke-width:8.64"/>
	<line x1="1820.36" y1="346.02" x2="1830.14" y2="349.11" stroke-linecap="round" style="stroke:#90353B;stroke-width:8.64"/>
	<line x1="1830.14" y1="349.11" x2="1839.92" y2="352.57" stroke-linecap="round" style="stroke:#90353B;stroke-width:8.64"/>
	<line x1="1839.92" y1="352.57" x2="1849.82" y2="356.53" stroke-linecap="round" style="stroke:#90353B;stroke-width:8.64"/>
	<line x1="1849.82" y1="356.53" x2="1859.59" y2="361.11" stroke-linecap="round" style="stroke:#90353B;stroke-width:8.64"/>
	<line x1="1859.59" y1="361.11" x2="1869.49" y2="366.19" stroke-linecap="round" style="stroke:#90353B;stroke-width:8.64"/>
	<line x1="1869.49" y1="366.19" x2="1879.27" y2="371.63" stroke-linecap="round" style="stroke:#90353B;stroke-width:8.64"/>
	<line x1="1879.27" y1="371.63" x2="1889.17" y2="377.70" stroke-linecap="round" style="stroke:#90353B;stroke-width:8.64"/>
	<line x1="1889.17" y1="377.70" x2="1898.94" y2="384.13" stroke-linecap="round" style="stroke:#90353B;stroke-width:8.64"/>
	<line x1="1898.94" y1="384.13" x2="1908.72" y2="391.06" stroke-linecap="round" style="stroke:#90353B;stroke-width:8.64"/>
	<line x1="1908.72" y1="391.06" x2="1918.62" y2="398.61" stroke-linecap="round" style="stroke:#90353B;stroke-width:8.64"/>
	<line x1="1918.62" y1="398.61" x2="1928.40" y2="406.41" stroke-linecap="round" style="stroke:#90353B;stroke-width:8.64"/>
	<line x1="1928.40" y1="406.41" x2="1938.30" y2="414.82" stroke-linecap="round" style="stroke:#90353B;stroke-width:8.64"/>
	<line x1="1938.30" y1="414.82" x2="1948.07" y2="423.61" stroke-linecap="round" style="stroke:#90353B;stroke-width:8.64"/>
	<line x1="1948.07" y1="423.61" x2="1957.97" y2="432.89" stroke-linecap="round" style="stroke:#90353B;stroke-width:8.64"/>
	<line x1="1957.97" y1="432.89" x2="1967.75" y2="442.54" stroke-linecap="round" style="stroke:#90353B;stroke-width:8.64"/>
	<line x1="1967.75" y1="442.54" x2="1977.53" y2="452.57" stroke-linecap="round" style="stroke:#90353B;stroke-width:8.64"/>
	<line x1="1977.53" y1="452.57" x2="1987.43" y2="463.09" stroke-linecap="round" style="stroke:#90353B;stroke-width:8.64"/>
	<line x1="1987.43" y1="463.09" x2="1997.20" y2="473.98" stroke-linecap="round" style="stroke:#90353B;stroke-width:8.64"/>
	<line x1="1997.20" y1="473.98" x2="2007.10" y2="485.24" stroke-linecap="round" style="stroke:#90353B;stroke-width:8.64"/>
	<line x1="2007.10" y1="485.24" x2="2016.88" y2="497.00" stroke-linecap="round" style="stroke:#90353B;stroke-width:8.64"/>
	<line x1="2016.88" y1="497.00" x2="2026.65" y2="509.00" stroke-linecap="round" style="stroke:#90353B;stroke-width:8.64"/>
	<line x1="2026.65" y1="509.00" x2="2036.55" y2="521.38" stroke-linecap="round" style="stroke:#90353B;stroke-width:8.64"/>
	<line x1="2036.55" y1="521.38" x2="2046.33" y2="534.12" stroke-linecap="round" style="stroke:#90353B;stroke-width:8.64"/>
	<line x1="2046.33" y1="534.12" x2="2056.23" y2="547.24" stroke-linecap="round" style="stroke:#90353B;stroke-width:8.64"/>
	<line x1="2056.23" y1="547.24" x2="2066.01" y2="560.61" stroke-linecap="round" style="stroke:#90353B;stroke-width:8.64"/>
	<line x1="2066.01" y1="560.61" x2="2075.91" y2="574.34" stroke-linecap="round" style="stroke:#90353B;stroke-width:8.64"/>
	<line x1="2075.91" y1="574.34" x2="2085.68" y2="588.45" stroke-linecap="round" style="stroke:#90353B;stroke-width:8.64"/>
	<line x1="2085.68" y1="588.45" x2="2095.46" y2="602.68" stroke-linecap="round" style="stroke:#90353B;stroke-width:8.64"/>
	<line x1="2095.46" y1="602.68" x2="2105.36" y2="617.28" stroke-linecap="round" style="stroke:#90353B;stroke-width:8.64"/>
	<line x1="2105.36" y1="617.28" x2="2115.14" y2="632.13" stroke-linecap="round" style="stroke:#90353B;stroke-width:8.64"/>
	<line x1="2115.14" y1="632.13" x2="2125.03" y2="647.23" stroke-linecap="round" style="stroke:#90353B;stroke-width:8.64"/>
	<line x1="2125.03" y1="647.23" x2="2134.81" y2="662.58" stroke-linecap="round" style="stroke:#90353B;stroke-width:8.64"/>
	<line x1="2134.81" y1="662.58" x2="2144.71" y2="678.05" stroke-linecap="round" style="stroke:#90353B;stroke-width:8.64"/>
	<line x1="2144.71" y1="678.05" x2="2154.49" y2="693.89" stroke-linecap="round" style="stroke:#90353B;stroke-width:8.64"/>
	<line x1="2154.49" y1="693.89" x2="2164.26" y2="709.85" stroke-linecap="round" style="stroke:#90353B;stroke-width:8.64"/>
	<line x1="2164.26" y1="709.85" x2="2174.16" y2="725.94" stroke-linecap="round" style="stroke:#90353B;stroke-width:8.64"/>
	<line x1="2174.16" y1="725.94" x2="2183.94" y2="742.28" stroke-linecap="round" style="stroke:#90353B;stroke-width:8.64"/>
	<line x1="2183.94" y1="742.28" x2="2193.84" y2="758.73" stroke-linecap="round" style="stroke:#90353B;stroke-width:8.64"/>
	<line x1="2193.84" y1="758.73" x2="2203.62" y2="775.44" stroke-linecap="round" style="stroke:#90353B;stroke-width:8.64"/>
	<line x1="2203.62" y1="775.44" x2="2213.52" y2="792.15" stroke-linecap="round" style="stroke:#90353B;stroke-width:8.64"/>
	<line x1="2213.52" y1="792.15" x2="2223.29" y2="808.98" stroke-linecap="round" style="stroke:#90353B;stroke-width:8.64"/>
	<line x1="2223.29" y1="808.98" x2="2233.07" y2="826.06" stroke-linecap="round" style="stroke:#90353B;stroke-width:8.64"/>
	<line x1="2233.07" y1="826.06" x2="2242.97" y2="843.14" stroke-linecap="round" style="stroke:#90353B;stroke-width:8.64"/>
	<line x1="2242.97" y1="843.14" x2="2252.74" y2="860.21" stroke-linecap="round" style="stroke:#90353B;stroke-width:8.64"/>
	<line x1="2252.74" y1="860.21" x2="2262.65" y2="877.41" stroke-linecap="round" style="stroke:#90353B;stroke-width:8.64"/>
	<line x1="2262.65" y1="877.41" x2="2272.42" y2="894.74" stroke-linecap="round" style="stroke:#90353B;stroke-width:8.64"/>
	<line x1="2272.42" y1="894.74" x2="2282.32" y2="912.07" stroke-linecap="round" style="stroke:#90353B;stroke-width:8.64"/>
	<line x1="2282.32" y1="912.07" x2="2292.10" y2="929.39" stroke-linecap="round" style="stroke:#90353B;stroke-width:8.64"/>
	<line x1="2292.10" y1="929.39" x2="2301.87" y2="946.84" stroke-linecap="round" style="stroke:#90353B;stroke-width:8.64"/>
	<line x1="2301.87" y1="946.84" x2="2311.77" y2="964.17" stroke-linecap="round" style="stroke:#90353B;stroke-width:8.64"/>
	<line x1="2311.77" y1="964.17" x2="2321.55" y2="981.62" stroke-linecap="round" style="stroke:#90353B;stroke-width:8.64"/>
	<line x1="2321.55" y1="981.62" x2="2331.45" y2="998.94" stroke-linecap="round" style="stroke:#90353B;stroke-width:8.64"/>
	<line x1="2331.45" y1="998.94" x2="2341.23" y2="1016.27" stroke-linecap="round" style="stroke:#90353B;stroke-width:8.64"/>
	<line x1="2341.23" y1="1016.27" x2="2351.13" y2="1033.59" stroke-linecap="round" style="stroke:#90353B;stroke-width:8.64"/>
	<line x1="2351.13" y1="1033.59" x2="2360.90" y2="1050.92" stroke-linecap="round" style="stroke:#90353B;stroke-width:8.64"/>
	<line x1="2360.90" y1="1050.92" x2="2370.68" y2="1068.12" stroke-linecap="round" style="stroke:#90353B;stroke-width:8.64"/>
	<line x1="2370.68" y1="1068.12" x2="2380.58" y2="1085.20" stroke-linecap="round" style="stroke:#90353B;stroke-width:8.64"/>
	<line x1="2380.58" y1="1085.20" x2="2390.36" y2="1102.28" stroke-linecap="round" style="stroke:#90353B;stroke-width:8.64"/>
	<line x1="2390.36" y1="1102.28" x2="2400.26" y2="1119.23" stroke-linecap="round" style="stroke:#90353B;stroke-width:8.64"/>
	<line x1="2400.26" y1="1119.23" x2="2410.03" y2="1136.06" stroke-linecap="round" style="stroke:#90353B;stroke-width:8.64"/>
	<line x1="2410.03" y1="1136.06" x2="2419.93" y2="1152.89" stroke-linecap="round" style="stroke:#90353B;stroke-width:8.64"/>
	<line x1="2419.93" y1="1152.89" x2="2429.71" y2="1169.47" stroke-linecap="round" style="stroke:#90353B;stroke-width:8.64"/>
	<line x1="2429.71" y1="1169.47" x2="2439.48" y2="1186.06" stroke-linecap="round" style="stroke:#90353B;stroke-width:8.64"/>
	<line x1="2439.48" y1="1186.06" x2="2449.38" y2="1202.52" stroke-linecap="round" style="stroke:#90353B;stroke-width:8.64"/>
	<line x1="2449.38" y1="1202.52" x2="2459.16" y2="1218.73" stroke-linecap="round" style="stroke:#90353B;stroke-width:8.64"/>
	<line x1="2459.16" y1="1218.73" x2="2469.06" y2="1234.82" stroke-linecap="round" style="stroke:#90353B;stroke-width:8.64"/>
	<line x1="2469.06" y1="1234.82" x2="2478.84" y2="1250.78" stroke-linecap="round" style="stroke:#90353B;stroke-width:8.64"/>
	<line x1="2478.84" y1="1250.78" x2="2488.74" y2="1266.62" stroke-linecap="round" style="stroke:#90353B;stroke-width:8.64"/>
	<line x1="2488.74" y1="1266.62" x2="2498.51" y2="1282.21" stroke-linecap="round" style="stroke:#90353B;stroke-width:8.64"/>
	<line x1="2498.51" y1="1282.21" x2="2508.29" y2="1297.68" stroke-linecap="round" style="stroke:#90353B;stroke-width:8.64"/>
	<line x1="2508.29" y1="1297.68" x2="2518.19" y2="1313.03" stroke-linecap="round" style="stroke:#90353B;stroke-width:8.64"/>
	<line x1="2518.19" y1="1313.03" x2="2527.97" y2="1328.13" stroke-linecap="round" style="stroke:#90353B;stroke-width:8.64"/>
	<line x1="2527.97" y1="1328.13" x2="2537.86" y2="1342.98" stroke-linecap="round" style="stroke:#90353B;stroke-width:8.64"/>
	<line x1="2537.86" y1="1342.98" x2="2547.64" y2="1357.70" stroke-linecap="round" style="stroke:#90353B;stroke-width:8.64"/>
	<line x1="2547.64" y1="1357.70" x2="2557.54" y2="1372.31" stroke-linecap="round" style="stroke:#90353B;stroke-width:8.64"/>
	<line x1="2557.54" y1="1372.31" x2="2567.32" y2="1386.54" stroke-linecap="round" style="stroke:#90353B;stroke-width:8.64"/>
	<line x1="2567.32" y1="1386.54" x2="2577.09" y2="1400.65" stroke-linecap="round" style="stroke:#90353B;stroke-width:8.64"/>
	<line x1="2577.09" y1="1400.65" x2="2586.99" y2="1414.63" stroke-linecap="round" style="stroke:#90353B;stroke-width:8.64"/>
	<line x1="2586.99" y1="1414.63" x2="2596.77" y2="1428.24" stroke-linecap="round" style="stroke:#90353B;stroke-width:8.64"/>
	<line x1="2596.77" y1="1428.24" x2="2606.67" y2="1441.73" stroke-linecap="round" style="stroke:#90353B;stroke-width:8.64"/>
	<line x1="2606.67" y1="1441.73" x2="2616.45" y2="1454.97" stroke-linecap="round" style="stroke:#90353B;stroke-width:8.64"/>
	<line x1="2616.45" y1="1454.97" x2="2626.22" y2="1468.09" stroke-linecap="round" style="stroke:#90353B;stroke-width:8.64"/>
	<line x1="2626.22" y1="1468.09" x2="2636.12" y2="1480.84" stroke-linecap="round" style="stroke:#90353B;stroke-width:8.64"/>
	<line x1="2636.12" y1="1480.84" x2="2645.90" y2="1493.46" stroke-linecap="round" style="stroke:#90353B;stroke-width:8.64"/>
	<line x1="2645.90" y1="1493.46" x2="2655.80" y2="1505.71" stroke-linecap="round" style="stroke:#90353B;stroke-width:8.64"/>
	<line x1="2655.80" y1="1505.71" x2="2665.57" y2="1517.84" stroke-linecap="round" style="stroke:#90353B;stroke-width:8.64"/>
	<line x1="2665.57" y1="1517.84" x2="2675.47" y2="1529.72" stroke-linecap="round" style="stroke:#90353B;stroke-width:8.64"/>
	<line x1="2675.47" y1="1529.72" x2="2685.25" y2="1541.48" stroke-linecap="round" style="stroke:#90353B;stroke-width:8.64"/>
	<line x1="2685.25" y1="1541.48" x2="2695.03" y2="1552.86" stroke-linecap="round" style="stroke:#90353B;stroke-width:8.64"/>
	<line x1="2695.03" y1="1552.86" x2="2704.93" y2="1564.00" stroke-linecap="round" style="stroke:#90353B;stroke-width:8.64"/>
	<line x1="2704.93" y1="1564.00" x2="2714.70" y2="1575.02" stroke-linecap="round" style="stroke:#90353B;stroke-width:8.64"/>
	<line x1="2714.70" y1="1575.02" x2="2724.60" y2="1585.78" stroke-linecap="round" style="stroke:#90353B;stroke-width:8.64"/>
	<line x1="2724.60" y1="1585.78" x2="2734.38" y2="1596.18" stroke-linecap="round" style="stroke:#90353B;stroke-width:8.64"/>
	<line x1="2734.38" y1="1596.18" x2="2744.28" y2="1606.45" stroke-linecap="round" style="stroke:#90353B;stroke-width:8.64"/>
	<line x1="2744.28" y1="1606.45" x2="2754.06" y2="1616.60" stroke-linecap="round" style="stroke:#90353B;stroke-width:8.64"/>
	<line x1="2754.06" y1="1616.60" x2="2763.83" y2="1626.37" stroke-linecap="round" style="stroke:#90353B;stroke-width:8.64"/>
	<line x1="2763.83" y1="1626.37" x2="2773.73" y2="1635.90" stroke-linecap="round" style="stroke:#90353B;stroke-width:8.64"/>
	<line x1="2773.73" y1="1635.90" x2="2783.51" y2="1645.31" stroke-linecap="round" style="stroke:#90353B;stroke-width:8.64"/>
	<line x1="2783.51" y1="1645.31" x2="2793.41" y2="1654.34" stroke-linecap="round" style="stroke:#90353B;stroke-width:8.64"/>
	<line x1="2793.41" y1="1654.34" x2="2803.18" y2="1663.25" stroke-linecap="round" style="stroke:#90353B;stroke-width:8.64"/>
	<line x1="2803.18" y1="1663.25" x2="2813.09" y2="1671.91" stroke-linecap="round" style="stroke:#90353B;stroke-width:8.64"/>
	<line x1="2813.09" y1="1671.91" x2="2822.86" y2="1680.45" stroke-linecap="round" style="stroke:#90353B;stroke-width:8.64"/>
	<line x1="2822.86" y1="1680.45" x2="2832.64" y2="1688.62" stroke-linecap="round" style="stroke:#90353B;stroke-width:8.64"/>
	<line x1="2832.64" y1="1688.62" x2="2842.54" y2="1696.67" stroke-linecap="round" style="stroke:#90353B;stroke-width:8.64"/>
	<line x1="2842.54" y1="1696.67" x2="2852.31" y2="1704.46" stroke-linecap="round" style="stroke:#90353B;stroke-width:8.64"/>
	<line x1="2852.31" y1="1704.46" x2="2862.21" y2="1712.13" stroke-linecap="round" style="stroke:#90353B;stroke-width:8.64"/>
	<line x1="2862.21" y1="1712.13" x2="2871.99" y2="1719.44" stroke-linecap="round" style="stroke:#90353B;stroke-width:8.64"/>
	<line x1="2871.99" y1="1719.44" x2="2881.89" y2="1726.61" stroke-linecap="round" style="stroke:#90353B;stroke-width:8.64"/>
	<line x1="2881.89" y1="1726.61" x2="2891.67" y2="1733.67" stroke-linecap="round" style="stroke:#90353B;stroke-width:8.64"/>
	<line x1="2891.67" y1="1733.67" x2="2901.44" y2="1740.47" stroke-linecap="round" style="stroke:#90353B;stroke-width:8.64"/>
	<line x1="2901.44" y1="1740.47" x2="2911.34" y2="1747.03" stroke-linecap="round" style="stroke:#90353B;stroke-width:8.64"/>
	<line x1="2911.34" y1="1747.03" x2="2921.12" y2="1753.34" stroke-linecap="round" style="stroke:#90353B;stroke-width:8.64"/>
	<line x1="2921.12" y1="1753.34" x2="2931.02" y2="1759.66" stroke-linecap="round" style="stroke:#90353B;stroke-width:8.64"/>
	<line x1="2931.02" y1="1759.66" x2="2940.80" y2="1765.60" stroke-linecap="round" style="stroke:#90353B;stroke-width:8.64"/>
	<line x1="2940.80" y1="1765.60" x2="2950.70" y2="1771.41" stroke-linecap="round" style="stroke:#90353B;stroke-width:8.64"/>
	<line x1="2950.70" y1="1771.41" x2="2960.47" y2="1777.11" stroke-linecap="round" style="stroke:#90353B;stroke-width:8.64"/>
	<line x1="2960.47" y1="1777.11" x2="2970.25" y2="1782.55" stroke-linecap="round" style="stroke:#90353B;stroke-width:8.64"/>
	<line x1="2970.25" y1="1782.55" x2="2980.15" y2="1787.87" stroke-linecap="round" style="stroke:#90353B;stroke-width:8.64"/>
	<line x1="2980.15" y1="1787.87" x2="2989.92" y2="1792.95" stroke-linecap="round" style="stroke:#90353B;stroke-width:8.64"/>
	<line x1="2989.92" y1="1792.95" x2="2999.82" y2="1798.02" stroke-linecap="round" style="stroke:#90353B;stroke-width:8.64"/>
	<line x1="2999.82" y1="1798.02" x2="3009.60" y2="1802.72" stroke-linecap="round" style="stroke:#90353B;stroke-width:8.64"/>
	<line x1="3009.60" y1="1802.72" x2="3019.50" y2="1807.43" stroke-linecap="round" style="stroke:#90353B;stroke-width:8.64"/>
	<line x1="3019.50" y1="1807.43" x2="3029.28" y2="1811.88" stroke-linecap="round" style="stroke:#90353B;stroke-width:8.64"/>
	<line x1="3029.28" y1="1811.88" x2="3039.05" y2="1816.21" stroke-linecap="round" style="stroke:#90353B;stroke-width:8.64"/>
	<line x1="3039.05" y1="1816.21" x2="3048.95" y2="1820.42" stroke-linecap="round" style="stroke:#90353B;stroke-width:8.64"/>
	<line x1="3048.95" y1="1820.42" x2="3058.73" y2="1824.38" stroke-linecap="round" style="stroke:#90353B;stroke-width:8.64"/>
	<line x1="3058.73" y1="1824.38" x2="3068.63" y2="1828.34" stroke-linecap="round" style="stroke:#90353B;stroke-width:8.64"/>
	<line x1="3068.63" y1="1828.34" x2="3078.41" y2="1832.05" stroke-linecap="round" style="stroke:#90353B;stroke-width:8.64"/>
	<line x1="3078.41" y1="1832.05" x2="3088.30" y2="1835.76" stroke-linecap="round" style="stroke:#90353B;stroke-width:8.64"/>
	<line x1="3088.30" y1="1835.76" x2="3098.08" y2="1839.23" stroke-linecap="round" style="stroke:#90353B;stroke-width:8.64"/>
	<line x1="3098.08" y1="1839.23" x2="3107.86" y2="1842.57" stroke-linecap="round" style="stroke:#90353B;stroke-width:8.64"/>
	<line x1="3107.86" y1="1842.57" x2="3117.76" y2="1845.79" stroke-linecap="round" style="stroke:#90353B;stroke-width:8.64"/>
	<line x1="3117.76" y1="1845.79" x2="3127.53" y2="1848.88" stroke-linecap="round" style="stroke:#90353B;stroke-width:8.64"/>
	<line x1="3127.53" y1="1848.88" x2="3137.43" y2="1851.98" stroke-linecap="round" style="stroke:#90353B;stroke-width:8.64"/>
	<line x1="3137.43" y1="1851.98" x2="3147.21" y2="1854.82" stroke-linecap="round" style="stroke:#90353B;stroke-width:8.64"/>
	<line x1="3147.21" y1="1854.82" x2="3157.11" y2="1857.55" stroke-linecap="round" style="stroke:#90353B;stroke-width:8.64"/>
	<line x1="3157.11" y1="1857.55" x2="3166.89" y2="1860.27" stroke-linecap="round" style="stroke:#90353B;stroke-width:8.64"/>
	<line x1="3166.89" y1="1860.27" x2="3176.66" y2="1862.87" stroke-linecap="round" style="stroke:#90353B;stroke-width:8.64"/>
	<line x1="3176.66" y1="1862.87" x2="3186.56" y2="1865.22" stroke-linecap="round" style="stroke:#90353B;stroke-width:8.64"/>
	<line x1="3186.56" y1="1865.22" x2="3196.34" y2="1867.69" stroke-linecap="round" style="stroke:#90353B;stroke-width:8.64"/>
	<line x1="3196.34" y1="1867.69" x2="3206.24" y2="1869.92" stroke-linecap="round" style="stroke:#90353B;stroke-width:8.64"/>
	<line x1="3206.24" y1="1869.92" x2="3216.01" y2="1872.02" stroke-linecap="round" style="stroke:#90353B;stroke-width:8.64"/>
	<line x1="3216.01" y1="1872.02" x2="3225.79" y2="1874.13" stroke-linecap="round" style="stroke:#90353B;stroke-width:8.64"/>
	<line x1="3225.79" y1="1874.13" x2="3235.69" y2="1876.11" stroke-linecap="round" style="stroke:#90353B;stroke-width:8.64"/>
	<line x1="3235.69" y1="1876.11" x2="3245.47" y2="1878.09" stroke-linecap="round" style="stroke:#90353B;stroke-width:8.64"/>
	<line x1="3245.47" y1="1878.09" x2="3255.37" y2="1879.94" stroke-linecap="round" style="stroke:#90353B;stroke-width:8.64"/>
	<line x1="3255.37" y1="1879.94" x2="3265.14" y2="1881.68" stroke-linecap="round" style="stroke:#90353B;stroke-width:8.64"/>
	<line x1="3265.14" y1="1881.68" x2="3275.04" y2="1883.41" stroke-linecap="round" style="stroke:#90353B;stroke-width:8.64"/>
	<line x1="3275.04" y1="1883.41" x2="3284.82" y2="1885.02" stroke-linecap="round" style="stroke:#90353B;stroke-width:8.64"/>
	<line x1="3284.82" y1="1885.02" x2="3294.60" y2="1886.50" stroke-linecap="round" style="stroke:#90353B;stroke-width:8.64"/>
	<line x1="3294.60" y1="1886.50" x2="3304.50" y2="1887.99" stroke-linecap="round" style="stroke:#90353B;stroke-width:8.64"/>
	<line x1="3304.50" y1="1887.99" x2="3314.27" y2="1889.35" stroke-linecap="round" style="stroke:#90353B;stroke-width:8.64"/>
	<line x1="3314.27" y1="1889.35" x2="3324.17" y2="1890.71" stroke-linecap="round" style="stroke:#90353B;stroke-width:8.64"/>
	<line x1="3324.17" y1="1890.71" x2="3333.95" y2="1892.07" stroke-linecap="round" style="stroke:#90353B;stroke-width:8.64"/>
	<line x1="3333.95" y1="1892.07" x2="3343.85" y2="1893.19" stroke-linecap="round" style="stroke:#90353B;stroke-width:8.64"/>
	<line x1="3343.85" y1="1893.19" x2="3353.63" y2="1894.42" stroke-linecap="round" style="stroke:#90353B;stroke-width:8.64"/>
	<line x1="3353.63" y1="1894.42" x2="3363.40" y2="1895.54" stroke-linecap="round" style="stroke:#90353B;stroke-width:8.64"/>
	<line x1="3363.40" y1="1895.54" x2="3373.30" y2="1896.65" stroke-linecap="round" style="stroke:#90353B;stroke-width:8.64"/>
	<line x1="3373.30" y1="1896.65" x2="3383.08" y2="1897.64" stroke-linecap="round" style="stroke:#90353B;stroke-width:8.64"/>
	<line x1="3383.08" y1="1897.64" x2="3392.98" y2="1898.63" stroke-linecap="round" style="stroke:#90353B;stroke-width:8.64"/>
	<line x1="390.80" y1="1979.20" x2="390.80" y2="275.35" style="stroke:#000000;stroke-width:5.76"/>
	<line x1="390.80" y1="1915.83" x2="350.83" y2="1915.83" style="stroke:#000000;stroke-width:5.76"/>
	<text x="300.72" y="1915.83" style="font-family:'Helvetica';font-size:99.99px;fill:#000000" transform="rotate(-90 300.72,1915.83)" text-anchor="middle">0</text>
	<line x1="390.80" y1="1401.51" x2="350.83" y2="1401.51" style="stroke:#000000;stroke-width:5.76"/>
	<text x="300.72" y="1401.51" style="font-family:'Helvetica';font-size:99.99px;fill:#000000" transform="rotate(-90 300.72,1401.51)" text-anchor="middle">.5</text>
	<line x1="390.80" y1="887.32" x2="350.83" y2="887.32" style="stroke:#000000;stroke-width:5.76"/>
	<text x="300.72" y="887.32" style="font-family:'Helvetica';font-size:99.99px;fill:#000000" transform="rotate(-90 300.72,887.32)" text-anchor="middle">1</text>
	<line x1="390.80" y1="372.99" x2="350.83" y2="372.99" style="stroke:#000000;stroke-width:5.76"/>
	<text x="300.72" y="372.99" style="font-family:'Helvetica';font-size:99.99px;fill:#000000" transform="rotate(-90 300.72,372.99)" text-anchor="middle">1.5</text>
	<text x="190.71" y="1127.27" style="font-family:'Helvetica';font-size:99.99px;fill:#000000" transform="rotate(-90 190.71,1127.27)" text-anchor="middle">Density</text>
	<line x1="390.80" y1="1979.20" x2="3859.02" y2="1979.20" style="stroke:#000000;stroke-width:5.76"/>
	<line x1="678.15" y1="1979.20" x2="678.15" y2="2019.17" style="stroke:#000000;stroke-width:5.76"/>
	<text x="678.15" y="2109.03" style="font-family:'Helvetica';font-size:99.99px;fill:#000000" text-anchor="middle">2.5</text>
	<line x1="1717.28" y1="1979.20" x2="1717.28" y2="2019.17" style="stroke:#000000;stroke-width:5.76"/>
	<text x="1717.28" y="2109.03" style="font-family:'Helvetica';font-size:99.99px;fill:#000000" text-anchor="middle">3</text>
	<line x1="2756.53" y1="1979.20" x2="2756.53" y2="2019.17" style="stroke:#000000;stroke-width:5.76"/>
	<text x="2756.53" y="2109.03" style="font-family:'Helvetica';font-size:99.99px;fill:#000000" text-anchor="middle">3.5</text>
	<line x1="3795.66" y1="1979.20" x2="3795.66" y2="2019.17" style="stroke:#000000;stroke-width:5.76"/>
	<text x="3795.66" y="2109.03" style="font-family:'Helvetica';font-size:99.99px;fill:#000000" text-anchor="middle">4</text>
	<text x="2124.91" y="2219.04" style="font-family:'Helvetica';font-size:99.99px;fill:#000000" text-anchor="middle">lnmpg</text>
	<rect x="1326.48" y="2303.68" width="1596.99" height="326.46" style="fill:#FFFFFF"/>
	<rect x="1329.36" y="2306.56" width="1591.23" height="320.70" style="fill:none;stroke:#000000;stroke-width:5.76"/>
	<line x1="1369.67" y1="2396.86" x2="1744.01" y2="2396.86" style="stroke:#1A476F;stroke-width:8.64"/>
	<line x1="1369.67" y1="2536.95" x2="1744.01" y2="2536.95" style="stroke:#90353B;stroke-width:8.64"/>
	<text x="1804.03" y="2431.89" style="font-family:'Helvetica';font-size:99.99px;fill:#000000">Kernel density estimate</text>
	<text x="1804.03" y="2571.98" style="font-family:'Helvetica';font-size:99.99px;fill:#000000">Normal density</text>
	<text x="408.00" y="2737.89" style="font-family:'Helvetica';font-size:79.94px;fill:#000000">kernel = epanechnikov, bandwidth = 0.0927</text>
	<text x="2124.91" y="215.98" style="font-family:'Helvetica';font-size:139.96px;fill:#1E2D53" text-anchor="middle">Kernel density estimate</text>
</svg>
