<?xml version="1.0" encoding="UTF-8" standalone="no"?>
<!-- This is a Stata 15.0 generated SVG file (http://www.stata.com) -->

<svg version="1.1" width="600px" height="436px" viewBox="0 0 3960 2880" xmlns="http://www.w3.org/2000/svg" xmlns:xlink="http://www.w3.org/1999/xlink">
	<desc>Stata Graph - Graph</desc>
	<rect x="0" y="0" width="3960" height="2880" style="fill:#EAF2F3;stroke:none"/>
	<rect x="0.00" y="0.00" width="3959.88" height="2880.00" style="fill:#EAF2F3"/>
	<rect x="2.88" y="2.88" width="3954.12" height="2874.24" style="fill:none;stroke:#EAF2F3;stroke-width:5.76"/>
	<rect x="390.80" y="275.35" width="3468.22" height="1703.84" style="fill:#FFFFFF"/>
	<rect x="393.68" y="278.23" width="3462.46" height="1698.08" style="fill:none;stroke:#FFFFFF;stroke-width:5.76"/>
	<line x1="390.80" y1="1915.83" x2="3859.02" y2="1915.83" style="stroke:#EAF2F3;stroke-width:8.64"/>
	<line x1="390.80" y1="1521.55" x2="3859.02" y2="1521.55" style="stroke:#EAF2F3;stroke-width:8.64"/>
	<line x1="390.80" y1="1127.27" x2="3859.02" y2="1127.27" style="stroke:#EAF2F3;stroke-width:8.64"/>
	<line x1="390.80" y1="732.99" x2="3859.02" y2="732.99" style="stroke:#EAF2F3;stroke-width:8.64"/>
	<line x1="390.80" y1="338.71" x2="3859.02" y2="338.71" style="stroke:#EAF2F3;stroke-width:8.64"/>
	<line x1="456.14" y1="1791.96" x2="512.33" y2="1709.04" stroke-linecap="round" style="stroke:#1A476F;stroke-width:8.64"/>
	<line x1="512.33" y1="1709.04" x2="568.51" y2="1622.66" stroke-linecap="round" style="stroke:#1A476F;stroke-width:8.64"/>
	<line x1="568.51" y1="1622.66" x2="624.69" y2="1521.68" stroke-linecap="round" style="stroke:#1A476F;stroke-width:8.64"/>
	<line x1="624.69" y1="1521.68" x2="680.87" y2="1421.56" stroke-linecap="round" style="stroke:#1A476F;stroke-width:8.64"/>
	<line x1="680.87" y1="1421.56" x2="737.05" y2="1312.04" stroke-linecap="round" style="stroke:#1A476F;stroke-width:8.64"/>
	<line x1="737.05" y1="1312.04" x2="793.24" y2="1157.47" stroke-linecap="round" style="stroke:#1A476F;stroke-width:8.64"/>
	<line x1="793.24" y1="1157.47" x2="849.42" y2="998.45" stroke-linecap="round" style="stroke:#1A476F;stroke-width:8.64"/>
	<line x1="849.42" y1="998.45" x2="905.60" y2="821.73" stroke-linecap="round" style="stroke:#1A476F;stroke-width:8.64"/>
	<line x1="905.60" y1="821.73" x2="961.78" y2="689.93" stroke-linecap="round" style="stroke:#1A476F;stroke-width:8.64"/>
	<line x1="961.78" y1="689.93" x2="1017.97" y2="595.75" stroke-linecap="round" style="stroke:#1A476F;stroke-width:8.64"/>
	<line x1="1017.97" y1="595.75" x2="1074.15" y2="519.39" stroke-linecap="round" style="stroke:#1A476F;stroke-width:8.64"/>
	<line x1="1074.15" y1="519.39" x2="1130.33" y2="479.79" stroke-linecap="round" style="stroke:#1A476F;stroke-width:8.64"/>
	<line x1="1130.33" y1="479.79" x2="1186.52" y2="463.83" stroke-linecap="round" style="stroke:#1A476F;stroke-width:8.64"/>
	<line x1="1186.52" y1="463.83" x2="1242.70" y2="467.29" stroke-linecap="round" style="stroke:#1A476F;stroke-width:8.64"/>
	<line x1="1242.70" y1="467.29" x2="1298.88" y2="491.67" stroke-linecap="round" style="stroke:#1A476F;stroke-width:8.64"/>
	<line x1="1298.88" y1="491.67" x2="1354.94" y2="546.74" stroke-linecap="round" style="stroke:#1A476F;stroke-width:8.64"/>
	<line x1="1354.94" y1="546.74" x2="1411.12" y2="620.01" stroke-linecap="round" style="stroke:#1A476F;stroke-width:8.64"/>
	<line x1="1411.12" y1="620.01" x2="1467.30" y2="701.93" stroke-linecap="round" style="stroke:#1A476F;stroke-width:8.64"/>
	<line x1="1467.30" y1="701.93" x2="1523.49" y2="795.86" stroke-linecap="round" style="stroke:#1A476F;stroke-width:8.64"/>
	<line x1="1523.49" y1="795.86" x2="1579.67" y2="904.76" stroke-linecap="round" style="stroke:#1A476F;stroke-width:8.64"/>
	<line x1="1579.67" y1="904.76" x2="1635.85" y2="946.35" stroke-linecap="round" style="stroke:#1A476F;stroke-width:8.64"/>
	<line x1="1635.85" y1="946.35" x2="1692.03" y2="1015.40" stroke-linecap="round" style="stroke:#1A476F;stroke-width:8.64"/>
	<line x1="1692.03" y1="1015.40" x2="1748.22" y2="1112.18" stroke-linecap="round" style="stroke:#1A476F;stroke-width:8.64"/>
	<line x1="1748.22" y1="1112.18" x2="1804.40" y2="1180.12" stroke-linecap="round" style="stroke:#1A476F;stroke-width:8.64"/>
	<line x1="1804.40" y1="1180.12" x2="1860.58" y2="1248.55" stroke-linecap="round" style="stroke:#1A476F;stroke-width:8.64"/>
	<line x1="1860.58" y1="1248.55" x2="1916.76" y2="1323.18" stroke-linecap="round" style="stroke:#1A476F;stroke-width:8.64"/>
	<line x1="1916.76" y1="1323.18" x2="1972.95" y2="1404.61" stroke-linecap="round" style="stroke:#1A476F;stroke-width:8.64"/>
	<line x1="1972.95" y1="1404.61" x2="2029.13" y2="1488.02" stroke-linecap="round" style="stroke:#1A476F;stroke-width:8.64"/>
	<line x1="2029.13" y1="1488.02" x2="2085.31" y2="1572.91" stroke-linecap="round" style="stroke:#1A476F;stroke-width:8.64"/>
	<line x1="2085.31" y1="1572.91" x2="2141.49" y2="1613.01" stroke-linecap="round" style="stroke:#1A476F;stroke-width:8.64"/>
	<line x1="2141.49" y1="1613.01" x2="2197.68" y2="1634.29" stroke-linecap="round" style="stroke:#1A476F;stroke-width:8.64"/>
	<line x1="2197.68" y1="1634.29" x2="2253.74" y2="1647.04" stroke-linecap="round" style="stroke:#1A476F;stroke-width:8.64"/>
	<line x1="2253.74" y1="1647.04" x2="2309.92" y2="1680.70" stroke-linecap="round" style="stroke:#1A476F;stroke-width:8.64"/>
	<line x1="2309.92" y1="1680.70" x2="2366.10" y2="1704.71" stroke-linecap="round" style="stroke:#1A476F;stroke-width:8.64"/>
	<line x1="2366.10" y1="1704.71" x2="2422.28" y2="1728.47" stroke-linecap="round" style="stroke:#1A476F;stroke-width:8.64"/>
	<line x1="2422.28" y1="1728.47" x2="2478.47" y2="1754.71" stroke-linecap="round" style="stroke:#1A476F;stroke-width:8.64"/>
	<line x1="2478.47" y1="1754.71" x2="2534.65" y2="1772.16" stroke-linecap="round" style="stroke:#1A476F;stroke-width:8.64"/>
	<line x1="2534.65" y1="1772.16" x2="2590.83" y2="1787.38" stroke-linecap="round" style="stroke:#1A476F;stroke-width:8.64"/>
	<line x1="2590.83" y1="1787.38" x2="2647.01" y2="1799.13" stroke-linecap="round" style="stroke:#1A476F;stroke-width:8.64"/>
	<line x1="2647.01" y1="1799.13" x2="2703.20" y2="1810.40" stroke-linecap="round" style="stroke:#1A476F;stroke-width:8.64"/>
	<line x1="2703.20" y1="1810.40" x2="2759.38" y2="1823.02" stroke-linecap="round" style="stroke:#1A476F;stroke-width:8.64"/>
	<line x1="2759.38" y1="1823.02" x2="2815.56" y2="1844.06" stroke-linecap="round" style="stroke:#1A476F;stroke-width:8.64"/>
	<line x1="2815.56" y1="1844.06" x2="2871.74" y2="1862.00" stroke-linecap="round" style="stroke:#1A476F;stroke-width:8.64"/>
	<line x1="2871.74" y1="1862.00" x2="2927.93" y2="1875.12" stroke-linecap="round" style="stroke:#1A476F;stroke-width:8.64"/>
	<line x1="2927.93" y1="1875.12" x2="2984.11" y2="1871.78" stroke-linecap="round" style="stroke:#1A476F;stroke-width:8.64"/>
	<line x1="2984.11" y1="1871.78" x2="3040.29" y2="1870.66" stroke-linecap="round" style="stroke:#1A476F;stroke-width:8.64"/>
	<line x1="3040.29" y1="1870.66" x2="3096.47" y2="1871.53" stroke-linecap="round" style="stroke:#1A476F;stroke-width:8.64"/>
	<line x1="3096.47" y1="1871.53" x2="3152.53" y2="1874.50" stroke-linecap="round" style="stroke:#1A476F;stroke-width:8.64"/>
	<line x1="3152.53" y1="1874.50" x2="3208.71" y2="1879.70" stroke-linecap="round" style="stroke:#1A476F;stroke-width:8.64"/>
	<line x1="456.14" y1="1712.13" x2="465.42" y2="1704.46" stroke-linecap="round" style="stroke:#90353B;stroke-width:8.64"/>
	<line x1="465.42" y1="1704.46" x2="474.58" y2="1696.54" stroke-linecap="round" style="stroke:#90353B;stroke-width:8.64"/>
	<line x1="474.58" y1="1696.54" x2="483.86" y2="1688.50" stroke-linecap="round" style="stroke:#90353B;stroke-width:8.64"/>
	<line x1="483.86" y1="1688.50" x2="493.02" y2="1680.21" stroke-linecap="round" style="stroke:#90353B;stroke-width:8.64"/>
	<line x1="493.02" y1="1680.21" x2="502.18" y2="1671.67" stroke-linecap="round" style="stroke:#90353B;stroke-width:8.64"/>
	<line x1="502.18" y1="1671.67" x2="511.46" y2="1663.00" stroke-linecap="round" style="stroke:#90353B;stroke-width:8.64"/>
	<line x1="511.46" y1="1663.00" x2="520.62" y2="1653.97" stroke-linecap="round" style="stroke:#90353B;stroke-width:8.64"/>
	<line x1="520.62" y1="1653.97" x2="529.90" y2="1644.81" stroke-linecap="round" style="stroke:#90353B;stroke-width:8.64"/>
	<line x1="529.90" y1="1644.81" x2="539.05" y2="1635.53" stroke-linecap="round" style="stroke:#90353B;stroke-width:8.64"/>
	<line x1="539.05" y1="1635.53" x2="548.21" y2="1625.88" stroke-linecap="round" style="stroke:#90353B;stroke-width:8.64"/>
	<line x1="548.21" y1="1625.88" x2="557.49" y2="1616.10" stroke-linecap="round" style="stroke:#90353B;stroke-width:8.64"/>
	<line x1="557.49" y1="1616.10" x2="566.65" y2="1606.08" stroke-linecap="round" style="stroke:#90353B;stroke-width:8.64"/>
	<line x1="566.65" y1="1606.08" x2="575.93" y2="1595.81" stroke-linecap="round" style="stroke:#90353B;stroke-width:8.64"/>
	<line x1="575.93" y1="1595.81" x2="585.09" y2="1585.29" stroke-linecap="round" style="stroke:#90353B;stroke-width:8.64"/>
	<line x1="585.09" y1="1585.29" x2="594.25" y2="1574.64" stroke-linecap="round" style="stroke:#90353B;stroke-width:8.64"/>
	<line x1="594.25" y1="1574.64" x2="603.53" y2="1563.63" stroke-linecap="round" style="stroke:#90353B;stroke-width:8.64"/>
	<line x1="603.53" y1="1563.63" x2="612.69" y2="1552.49" stroke-linecap="round" style="stroke:#90353B;stroke-width:8.64"/>
	<line x1="612.69" y1="1552.49" x2="621.84" y2="1541.23" stroke-linecap="round" style="stroke:#90353B;stroke-width:8.64"/>
	<line x1="621.84" y1="1541.23" x2="631.13" y2="1529.60" stroke-linecap="round" style="stroke:#90353B;stroke-width:8.64"/>
	<line x1="631.13" y1="1529.60" x2="640.28" y2="1517.84" stroke-linecap="round" style="stroke:#90353B;stroke-width:8.64"/>
	<line x1="640.28" y1="1517.84" x2="649.56" y2="1505.84" stroke-linecap="round" style="stroke:#90353B;stroke-width:8.64"/>
	<line x1="649.56" y1="1505.84" x2="658.72" y2="1493.71" stroke-linecap="round" style="stroke:#90353B;stroke-width:8.64"/>
	<line x1="658.72" y1="1493.71" x2="667.88" y2="1481.33" stroke-linecap="round" style="stroke:#90353B;stroke-width:8.64"/>
	<line x1="667.88" y1="1481.33" x2="677.16" y2="1468.71" stroke-linecap="round" style="stroke:#90353B;stroke-width:8.64"/>
	<line x1="677.16" y1="1468.71" x2="686.32" y2="1455.84" stroke-linecap="round" style="stroke:#90353B;stroke-width:8.64"/>
	<line x1="686.32" y1="1455.84" x2="695.60" y2="1442.85" stroke-linecap="round" style="stroke:#90353B;stroke-width:8.64"/>
	<line x1="695.60" y1="1442.85" x2="704.76" y2="1429.73" stroke-linecap="round" style="stroke:#90353B;stroke-width:8.64"/>
	<line x1="704.76" y1="1429.73" x2="713.91" y2="1416.36" stroke-linecap="round" style="stroke:#90353B;stroke-width:8.64"/>
	<line x1="713.91" y1="1416.36" x2="723.20" y2="1402.75" stroke-linecap="round" style="stroke:#90353B;stroke-width:8.64"/>
	<line x1="723.20" y1="1402.75" x2="732.35" y2="1389.01" stroke-linecap="round" style="stroke:#90353B;stroke-width:8.64"/>
	<line x1="732.35" y1="1389.01" x2="741.63" y2="1375.15" stroke-linecap="round" style="stroke:#90353B;stroke-width:8.64"/>
	<line x1="741.63" y1="1375.15" x2="750.79" y2="1361.05" stroke-linecap="round" style="stroke:#90353B;stroke-width:8.64"/>
	<line x1="750.79" y1="1361.05" x2="759.95" y2="1346.81" stroke-linecap="round" style="stroke:#90353B;stroke-width:8.64"/>
	<line x1="759.95" y1="1346.81" x2="769.23" y2="1332.46" stroke-linecap="round" style="stroke:#90353B;stroke-width:8.64"/>
	<line x1="769.23" y1="1332.46" x2="778.39" y2="1317.98" stroke-linecap="round" style="stroke:#90353B;stroke-width:8.64"/>
	<line x1="778.39" y1="1317.98" x2="787.67" y2="1303.25" stroke-linecap="round" style="stroke:#90353B;stroke-width:8.64"/>
	<line x1="787.67" y1="1303.25" x2="796.83" y2="1288.53" stroke-linecap="round" style="stroke:#90353B;stroke-width:8.64"/>
	<line x1="796.83" y1="1288.53" x2="805.98" y2="1273.55" stroke-linecap="round" style="stroke:#90353B;stroke-width:8.64"/>
	<line x1="805.98" y1="1273.55" x2="815.26" y2="1258.58" stroke-linecap="round" style="stroke:#90353B;stroke-width:8.64"/>
	<line x1="815.26" y1="1258.58" x2="824.42" y2="1243.36" stroke-linecap="round" style="stroke:#90353B;stroke-width:8.64"/>
	<line x1="824.42" y1="1243.36" x2="833.58" y2="1228.13" stroke-linecap="round" style="stroke:#90353B;stroke-width:8.64"/>
	<line x1="833.58" y1="1228.13" x2="842.86" y2="1212.79" stroke-linecap="round" style="stroke:#90353B;stroke-width:8.64"/>
	<line x1="842.86" y1="1212.79" x2="852.02" y2="1197.32" stroke-linecap="round" style="stroke:#90353B;stroke-width:8.64"/>
	<line x1="852.02" y1="1197.32" x2="861.30" y2="1181.85" stroke-linecap="round" style="stroke:#90353B;stroke-width:8.64"/>
	<line x1="861.30" y1="1181.85" x2="870.46" y2="1166.38" stroke-linecap="round" style="stroke:#90353B;stroke-width:8.64"/>
	<line x1="870.46" y1="1166.38" x2="879.62" y2="1150.79" stroke-linecap="round" style="stroke:#90353B;stroke-width:8.64"/>
	<line x1="879.62" y1="1150.79" x2="888.90" y2="1135.07" stroke-linecap="round" style="stroke:#90353B;stroke-width:8.64"/>
	<line x1="888.90" y1="1135.07" x2="898.05" y2="1119.48" stroke-linecap="round" style="stroke:#90353B;stroke-width:8.64"/>
	<line x1="898.05" y1="1119.48" x2="907.34" y2="1103.76" stroke-linecap="round" style="stroke:#90353B;stroke-width:8.64"/>
	<line x1="907.34" y1="1103.76" x2="916.49" y2="1088.04" stroke-linecap="round" style="stroke:#90353B;stroke-width:8.64"/>
	<line x1="916.49" y1="1088.04" x2="925.65" y2="1072.33" stroke-linecap="round" style="stroke:#90353B;stroke-width:8.64"/>
	<line x1="925.65" y1="1072.33" x2="934.93" y2="1056.61" stroke-linecap="round" style="stroke:#90353B;stroke-width:8.64"/>
	<line x1="934.93" y1="1056.61" x2="944.09" y2="1041.02" stroke-linecap="round" style="stroke:#90353B;stroke-width:8.64"/>
	<line x1="944.09" y1="1041.02" x2="953.37" y2="1025.30" stroke-linecap="round" style="stroke:#90353B;stroke-width:8.64"/>
	<line x1="953.37" y1="1025.30" x2="962.53" y2="1009.83" stroke-linecap="round" style="stroke:#90353B;stroke-width:8.64"/>
	<line x1="962.53" y1="1009.83" x2="971.68" y2="994.24" stroke-linecap="round" style="stroke:#90353B;stroke-width:8.64"/>
	<line x1="971.68" y1="994.24" x2="980.97" y2="978.77" stroke-linecap="round" style="stroke:#90353B;stroke-width:8.64"/>
	<line x1="980.97" y1="978.77" x2="990.12" y2="963.42" stroke-linecap="round" style="stroke:#90353B;stroke-width:8.64"/>
	<line x1="990.12" y1="963.42" x2="999.40" y2="948.20" stroke-linecap="round" style="stroke:#90353B;stroke-width:8.64"/>
	<line x1="999.40" y1="948.20" x2="1008.56" y2="933.10" stroke-linecap="round" style="stroke:#90353B;stroke-width:8.64"/>
	<line x1="1008.56" y1="933.10" x2="1017.72" y2="918.13" stroke-linecap="round" style="stroke:#90353B;stroke-width:8.64"/>
	<line x1="1017.72" y1="918.13" x2="1027.00" y2="903.16" stroke-linecap="round" style="stroke:#90353B;stroke-width:8.64"/>
	<line x1="1027.00" y1="903.16" x2="1036.16" y2="888.43" stroke-linecap="round" style="stroke:#90353B;stroke-width:8.64"/>
	<line x1="1036.16" y1="888.43" x2="1045.32" y2="873.95" stroke-linecap="round" style="stroke:#90353B;stroke-width:8.64"/>
	<line x1="1045.32" y1="873.95" x2="1054.60" y2="859.59" stroke-linecap="round" style="stroke:#90353B;stroke-width:8.64"/>
	<line x1="1054.60" y1="859.59" x2="1063.76" y2="845.36" stroke-linecap="round" style="stroke:#90353B;stroke-width:8.64"/>
	<line x1="1063.76" y1="845.36" x2="1073.04" y2="831.38" stroke-linecap="round" style="stroke:#90353B;stroke-width:8.64"/>
	<line x1="1073.04" y1="831.38" x2="1082.19" y2="817.52" stroke-linecap="round" style="stroke:#90353B;stroke-width:8.64"/>
	<line x1="1082.19" y1="817.52" x2="1091.35" y2="804.03" stroke-linecap="round" style="stroke:#90353B;stroke-width:8.64"/>
	<line x1="1091.35" y1="804.03" x2="1100.63" y2="790.79" stroke-linecap="round" style="stroke:#90353B;stroke-width:8.64"/>
	<line x1="1100.63" y1="790.79" x2="1109.79" y2="777.67" stroke-linecap="round" style="stroke:#90353B;stroke-width:8.64"/>
	<line x1="1109.79" y1="777.67" x2="1119.07" y2="764.92" stroke-linecap="round" style="stroke:#90353B;stroke-width:8.64"/>
	<line x1="1119.07" y1="764.92" x2="1128.23" y2="752.42" stroke-linecap="round" style="stroke:#90353B;stroke-width:8.64"/>
	<line x1="1128.23" y1="752.42" x2="1137.39" y2="740.17" stroke-linecap="round" style="stroke:#90353B;stroke-width:8.64"/>
	<line x1="1137.39" y1="740.17" x2="1146.67" y2="728.29" stroke-linecap="round" style="stroke:#90353B;stroke-width:8.64"/>
	<line x1="1146.67" y1="728.29" x2="1155.83" y2="716.66" stroke-linecap="round" style="stroke:#90353B;stroke-width:8.64"/>
	<line x1="1155.83" y1="716.66" x2="1165.11" y2="705.40" stroke-linecap="round" style="stroke:#90353B;stroke-width:8.64"/>
	<line x1="1165.11" y1="705.40" x2="1174.26" y2="694.51" stroke-linecap="round" style="stroke:#90353B;stroke-width:8.64"/>
	<line x1="1174.26" y1="694.51" x2="1183.42" y2="683.86" stroke-linecap="round" style="stroke:#90353B;stroke-width:8.64"/>
	<line x1="1183.42" y1="683.86" x2="1192.70" y2="673.59" stroke-linecap="round" style="stroke:#90353B;stroke-width:8.64"/>
	<line x1="1192.70" y1="673.59" x2="1201.86" y2="663.82" stroke-linecap="round" style="stroke:#90353B;stroke-width:8.64"/>
	<line x1="1201.86" y1="663.82" x2="1211.14" y2="654.29" stroke-linecap="round" style="stroke:#90353B;stroke-width:8.64"/>
	<line x1="1211.14" y1="654.29" x2="1220.30" y2="645.25" stroke-linecap="round" style="stroke:#90353B;stroke-width:8.64"/>
	<line x1="1220.30" y1="645.25" x2="1229.46" y2="636.47" stroke-linecap="round" style="stroke:#90353B;stroke-width:8.64"/>
	<line x1="1229.46" y1="636.47" x2="1238.74" y2="628.30" stroke-linecap="round" style="stroke:#90353B;stroke-width:8.64"/>
	<line x1="1238.74" y1="628.30" x2="1247.90" y2="620.38" stroke-linecap="round" style="stroke:#90353B;stroke-width:8.64"/>
	<line x1="1247.90" y1="620.38" x2="1257.05" y2="612.95" stroke-linecap="round" style="stroke:#90353B;stroke-width:8.64"/>
	<line x1="1257.05" y1="612.95" x2="1266.33" y2="605.90" stroke-linecap="round" style="stroke:#90353B;stroke-width:8.64"/>
	<line x1="1266.33" y1="605.90" x2="1275.49" y2="599.34" stroke-linecap="round" style="stroke:#90353B;stroke-width:8.64"/>
	<line x1="1275.49" y1="599.34" x2="1284.77" y2="593.28" stroke-linecap="round" style="stroke:#90353B;stroke-width:8.64"/>
	<line x1="1284.77" y1="593.28" x2="1293.93" y2="587.58" stroke-linecap="round" style="stroke:#90353B;stroke-width:8.64"/>
	<line x1="1293.93" y1="587.58" x2="1303.09" y2="582.39" stroke-linecap="round" style="stroke:#90353B;stroke-width:8.64"/>
	<line x1="1303.09" y1="582.39" x2="1312.37" y2="577.56" stroke-linecap="round" style="stroke:#90353B;stroke-width:8.64"/>
	<line x1="1312.37" y1="577.56" x2="1321.53" y2="573.35" stroke-linecap="round" style="stroke:#90353B;stroke-width:8.64"/>
	<line x1="1321.53" y1="573.35" x2="1330.81" y2="569.52" stroke-linecap="round" style="stroke:#90353B;stroke-width:8.64"/>
	<line x1="1330.81" y1="569.52" x2="1339.96" y2="566.17" stroke-linecap="round" style="stroke:#90353B;stroke-width:8.64"/>
	<line x1="1339.96" y1="566.17" x2="1349.12" y2="563.33" stroke-linecap="round" style="stroke:#90353B;stroke-width:8.64"/>
	<line x1="1349.12" y1="563.33" x2="1358.40" y2="560.98" stroke-linecap="round" style="stroke:#90353B;stroke-width:8.64"/>
	<line x1="1358.40" y1="560.98" x2="1367.56" y2="559.12" stroke-linecap="round" style="stroke:#90353B;stroke-width:8.64"/>
	<line x1="1367.56" y1="559.12" x2="1376.84" y2="557.76" stroke-linecap="round" style="stroke:#90353B;stroke-width:8.64"/>
	<line x1="1376.84" y1="557.76" x2="1386.00" y2="556.89" stroke-linecap="round" style="stroke:#90353B;stroke-width:8.64"/>
	<line x1="1386.00" y1="556.89" x2="1395.16" y2="556.52" stroke-linecap="round" style="stroke:#90353B;stroke-width:8.64"/>
	<line x1="1395.16" y1="556.52" x2="1404.44" y2="556.64" stroke-linecap="round" style="stroke:#90353B;stroke-width:8.64"/>
	<line x1="1404.44" y1="556.64" x2="1413.60" y2="557.26" stroke-linecap="round" style="stroke:#90353B;stroke-width:8.64"/>
	<line x1="1413.60" y1="557.26" x2="1422.88" y2="558.38" stroke-linecap="round" style="stroke:#90353B;stroke-width:8.64"/>
	<line x1="1422.88" y1="558.38" x2="1432.04" y2="559.86" stroke-linecap="round" style="stroke:#90353B;stroke-width:8.64"/>
	<line x1="1432.04" y1="559.86" x2="1441.19" y2="561.97" stroke-linecap="round" style="stroke:#90353B;stroke-width:8.64"/>
	<line x1="1441.19" y1="561.97" x2="1450.47" y2="564.57" stroke-linecap="round" style="stroke:#90353B;stroke-width:8.64"/>
	<line x1="1450.47" y1="564.57" x2="1459.63" y2="567.54" stroke-linecap="round" style="stroke:#90353B;stroke-width:8.64"/>
	<line x1="1459.63" y1="567.54" x2="1468.79" y2="571.12" stroke-linecap="round" style="stroke:#90353B;stroke-width:8.64"/>
	<line x1="1468.79" y1="571.12" x2="1478.07" y2="575.08" stroke-linecap="round" style="stroke:#90353B;stroke-width:8.64"/>
	<line x1="1478.07" y1="575.08" x2="1487.23" y2="579.54" stroke-linecap="round" style="stroke:#90353B;stroke-width:8.64"/>
	<line x1="1487.23" y1="579.54" x2="1496.51" y2="584.49" stroke-linecap="round" style="stroke:#90353B;stroke-width:8.64"/>
	<line x1="1496.51" y1="584.49" x2="1505.67" y2="589.93" stroke-linecap="round" style="stroke:#90353B;stroke-width:8.64"/>
	<line x1="1505.67" y1="589.93" x2="1514.82" y2="595.75" stroke-linecap="round" style="stroke:#90353B;stroke-width:8.64"/>
	<line x1="1514.82" y1="595.75" x2="1524.11" y2="602.06" stroke-linecap="round" style="stroke:#90353B;stroke-width:8.64"/>
	<line x1="1524.11" y1="602.06" x2="1533.26" y2="608.87" stroke-linecap="round" style="stroke:#90353B;stroke-width:8.64"/>
	<line x1="1533.26" y1="608.87" x2="1542.54" y2="616.05" stroke-linecap="round" style="stroke:#90353B;stroke-width:8.64"/>
	<line x1="1542.54" y1="616.05" x2="1551.70" y2="623.72" stroke-linecap="round" style="stroke:#90353B;stroke-width:8.64"/>
	<line x1="1551.70" y1="623.72" x2="1560.86" y2="631.76" stroke-linecap="round" style="stroke:#90353B;stroke-width:8.64"/>
	<line x1="1560.86" y1="631.76" x2="1570.14" y2="640.18" stroke-linecap="round" style="stroke:#90353B;stroke-width:8.64"/>
	<line x1="1570.14" y1="640.18" x2="1579.30" y2="648.97" stroke-linecap="round" style="stroke:#90353B;stroke-width:8.64"/>
	<line x1="1579.30" y1="648.97" x2="1588.58" y2="658.25" stroke-linecap="round" style="stroke:#90353B;stroke-width:8.64"/>
	<line x1="1588.58" y1="658.25" x2="1597.74" y2="667.90" stroke-linecap="round" style="stroke:#90353B;stroke-width:8.64"/>
	<line x1="1597.74" y1="667.90" x2="1606.89" y2="677.92" stroke-linecap="round" style="stroke:#90353B;stroke-width:8.64"/>
	<line x1="1606.89" y1="677.92" x2="1616.18" y2="688.32" stroke-linecap="round" style="stroke:#90353B;stroke-width:8.64"/>
	<line x1="1616.18" y1="688.32" x2="1625.33" y2="699.09" stroke-linecap="round" style="stroke:#90353B;stroke-width:8.64"/>
	<line x1="1625.33" y1="699.09" x2="1634.61" y2="710.10" stroke-linecap="round" style="stroke:#90353B;stroke-width:8.64"/>
	<line x1="1634.61" y1="710.10" x2="1643.77" y2="721.49" stroke-linecap="round" style="stroke:#90353B;stroke-width:8.64"/>
	<line x1="1643.77" y1="721.49" x2="1652.93" y2="733.24" stroke-linecap="round" style="stroke:#90353B;stroke-width:8.64"/>
	<line x1="1652.93" y1="733.24" x2="1662.21" y2="745.37" stroke-linecap="round" style="stroke:#90353B;stroke-width:8.64"/>
	<line x1="1662.21" y1="745.37" x2="1671.37" y2="757.62" stroke-linecap="round" style="stroke:#90353B;stroke-width:8.64"/>
	<line x1="1671.37" y1="757.62" x2="1680.53" y2="770.24" stroke-linecap="round" style="stroke:#90353B;stroke-width:8.64"/>
	<line x1="1680.53" y1="770.24" x2="1689.81" y2="783.24" stroke-linecap="round" style="stroke:#90353B;stroke-width:8.64"/>
	<line x1="1689.81" y1="783.24" x2="1698.96" y2="796.36" stroke-linecap="round" style="stroke:#90353B;stroke-width:8.64"/>
	<line x1="1698.96" y1="796.36" x2="1708.24" y2="809.72" stroke-linecap="round" style="stroke:#90353B;stroke-width:8.64"/>
	<line x1="1708.24" y1="809.72" x2="1717.40" y2="823.46" stroke-linecap="round" style="stroke:#90353B;stroke-width:8.64"/>
	<line x1="1717.40" y1="823.46" x2="1726.56" y2="837.32" stroke-linecap="round" style="stroke:#90353B;stroke-width:8.64"/>
	<line x1="1726.56" y1="837.32" x2="1735.84" y2="851.30" stroke-linecap="round" style="stroke:#90353B;stroke-width:8.64"/>
	<line x1="1735.84" y1="851.30" x2="1745.00" y2="865.66" stroke-linecap="round" style="stroke:#90353B;stroke-width:8.64"/>
	<line x1="1745.00" y1="865.66" x2="1754.28" y2="880.14" stroke-linecap="round" style="stroke:#90353B;stroke-width:8.64"/>
	<line x1="1754.28" y1="880.14" x2="1763.44" y2="894.74" stroke-linecap="round" style="stroke:#90353B;stroke-width:8.64"/>
	<line x1="1763.44" y1="894.74" x2="1772.60" y2="909.47" stroke-linecap="round" style="stroke:#90353B;stroke-width:8.64"/>
	<line x1="1772.60" y1="909.47" x2="1781.88" y2="924.44" stroke-linecap="round" style="stroke:#90353B;stroke-width:8.64"/>
	<line x1="1781.88" y1="924.44" x2="1791.03" y2="939.54" stroke-linecap="round" style="stroke:#90353B;stroke-width:8.64"/>
	<line x1="1791.03" y1="939.54" x2="1800.32" y2="954.64" stroke-linecap="round" style="stroke:#90353B;stroke-width:8.64"/>
	<line x1="1800.32" y1="954.64" x2="1809.47" y2="969.98" stroke-linecap="round" style="stroke:#90353B;stroke-width:8.64"/>
	<line x1="1809.47" y1="969.98" x2="1818.63" y2="985.33" stroke-linecap="round" style="stroke:#90353B;stroke-width:8.64"/>
	<line x1="1818.63" y1="985.33" x2="1827.91" y2="1000.80" stroke-linecap="round" style="stroke:#90353B;stroke-width:8.64"/>
	<line x1="1827.91" y1="1000.80" x2="1837.07" y2="1016.39" stroke-linecap="round" style="stroke:#90353B;stroke-width:8.64"/>
	<line x1="1837.07" y1="1016.39" x2="1846.35" y2="1031.98" stroke-linecap="round" style="stroke:#90353B;stroke-width:8.64"/>
	<line x1="1846.35" y1="1031.98" x2="1855.51" y2="1047.58" stroke-linecap="round" style="stroke:#90353B;stroke-width:8.64"/>
	<line x1="1855.51" y1="1047.58" x2="1864.67" y2="1063.29" stroke-linecap="round" style="stroke:#90353B;stroke-width:8.64"/>
	<line x1="1864.67" y1="1063.29" x2="1873.95" y2="1079.01" stroke-linecap="round" style="stroke:#90353B;stroke-width:8.64"/>
	<line x1="1873.95" y1="1079.01" x2="1883.10" y2="1094.73" stroke-linecap="round" style="stroke:#90353B;stroke-width:8.64"/>
	<line x1="1883.10" y1="1094.73" x2="1892.26" y2="1110.44" stroke-linecap="round" style="stroke:#90353B;stroke-width:8.64"/>
	<line x1="1892.26" y1="1110.44" x2="1901.54" y2="1126.04" stroke-linecap="round" style="stroke:#90353B;stroke-width:8.64"/>
	<line x1="1901.54" y1="1126.04" x2="1910.70" y2="1141.75" stroke-linecap="round" style="stroke:#90353B;stroke-width:8.64"/>
	<line x1="1910.70" y1="1141.75" x2="1919.98" y2="1157.35" stroke-linecap="round" style="stroke:#90353B;stroke-width:8.64"/>
	<line x1="1919.98" y1="1157.35" x2="1929.14" y2="1172.94" stroke-linecap="round" style="stroke:#90353B;stroke-width:8.64"/>
	<line x1="1929.14" y1="1172.94" x2="1938.30" y2="1188.53" stroke-linecap="round" style="stroke:#90353B;stroke-width:8.64"/>
	<line x1="1938.30" y1="1188.53" x2="1947.58" y2="1203.88" stroke-linecap="round" style="stroke:#90353B;stroke-width:8.64"/>
	<line x1="1947.58" y1="1203.88" x2="1956.73" y2="1219.35" stroke-linecap="round" style="stroke:#90353B;stroke-width:8.64"/>
	<line x1="1956.73" y1="1219.35" x2="1966.02" y2="1234.57" stroke-linecap="round" style="stroke:#90353B;stroke-width:8.64"/>
	<line x1="1966.02" y1="1234.57" x2="1975.17" y2="1249.79" stroke-linecap="round" style="stroke:#90353B;stroke-width:8.64"/>
	<line x1="1975.17" y1="1249.79" x2="1984.33" y2="1264.89" stroke-linecap="round" style="stroke:#90353B;stroke-width:8.64"/>
	<line x1="1984.33" y1="1264.89" x2="1993.61" y2="1279.86" stroke-linecap="round" style="stroke:#90353B;stroke-width:8.64"/>
	<line x1="1993.61" y1="1279.86" x2="2002.77" y2="1294.84" stroke-linecap="round" style="stroke:#90353B;stroke-width:8.64"/>
	<line x1="2002.77" y1="1294.84" x2="2012.05" y2="1309.56" stroke-linecap="round" style="stroke:#90353B;stroke-width:8.64"/>
	<line x1="2012.05" y1="1309.56" x2="2021.21" y2="1324.17" stroke-linecap="round" style="stroke:#90353B;stroke-width:8.64"/>
	<line x1="2021.21" y1="1324.17" x2="2030.37" y2="1338.65" stroke-linecap="round" style="stroke:#90353B;stroke-width:8.64"/>
	<line x1="2030.37" y1="1338.65" x2="2039.65" y2="1352.88" stroke-linecap="round" style="stroke:#90353B;stroke-width:8.64"/>
	<line x1="2039.65" y1="1352.88" x2="2048.80" y2="1367.11" stroke-linecap="round" style="stroke:#90353B;stroke-width:8.64"/>
	<line x1="2048.80" y1="1367.11" x2="2057.96" y2="1381.09" stroke-linecap="round" style="stroke:#90353B;stroke-width:8.64"/>
	<line x1="2057.96" y1="1381.09" x2="2067.24" y2="1394.83" stroke-linecap="round" style="stroke:#90353B;stroke-width:8.64"/>
	<line x1="2067.24" y1="1394.83" x2="2076.40" y2="1408.57" stroke-linecap="round" style="stroke:#90353B;stroke-width:8.64"/>
	<line x1="2076.40" y1="1408.57" x2="2085.68" y2="1422.06" stroke-linecap="round" style="stroke:#90353B;stroke-width:8.64"/>
	<line x1="2085.68" y1="1422.06" x2="2094.84" y2="1435.30" stroke-linecap="round" style="stroke:#90353B;stroke-width:8.64"/>
	<line x1="2094.84" y1="1435.30" x2="2104.00" y2="1448.42" stroke-linecap="round" style="stroke:#90353B;stroke-width:8.64"/>
	<line x1="2104.00" y1="1448.42" x2="2113.28" y2="1461.29" stroke-linecap="round" style="stroke:#90353B;stroke-width:8.64"/>
	<line x1="2113.28" y1="1461.29" x2="2122.44" y2="1474.03" stroke-linecap="round" style="stroke:#90353B;stroke-width:8.64"/>
	<line x1="2122.44" y1="1474.03" x2="2131.72" y2="1486.53" stroke-linecap="round" style="stroke:#90353B;stroke-width:8.64"/>
	<line x1="2131.72" y1="1486.53" x2="2140.88" y2="1498.91" stroke-linecap="round" style="stroke:#90353B;stroke-width:8.64"/>
	<line x1="2140.88" y1="1498.91" x2="2150.03" y2="1511.03" stroke-linecap="round" style="stroke:#90353B;stroke-width:8.64"/>
	<line x1="2150.03" y1="1511.03" x2="2159.31" y2="1522.92" stroke-linecap="round" style="stroke:#90353B;stroke-width:8.64"/>
	<line x1="2159.31" y1="1522.92" x2="2168.47" y2="1534.55" stroke-linecap="round" style="stroke:#90353B;stroke-width:8.64"/>
	<line x1="2168.47" y1="1534.55" x2="2177.75" y2="1546.06" stroke-linecap="round" style="stroke:#90353B;stroke-width:8.64"/>
	<line x1="2177.75" y1="1546.06" x2="2186.91" y2="1557.32" stroke-linecap="round" style="stroke:#90353B;stroke-width:8.64"/>
	<line x1="2186.91" y1="1557.32" x2="2196.07" y2="1568.33" stroke-linecap="round" style="stroke:#90353B;stroke-width:8.64"/>
	<line x1="2196.07" y1="1568.33" x2="2205.35" y2="1579.10" stroke-linecap="round" style="stroke:#90353B;stroke-width:8.64"/>
	<line x1="2205.35" y1="1579.10" x2="2214.51" y2="1589.74" stroke-linecap="round" style="stroke:#90353B;stroke-width:8.64"/>
	<line x1="2214.51" y1="1589.74" x2="2223.79" y2="1600.14" stroke-linecap="round" style="stroke:#90353B;stroke-width:8.64"/>
	<line x1="2223.79" y1="1600.14" x2="2232.95" y2="1610.29" stroke-linecap="round" style="stroke:#90353B;stroke-width:8.64"/>
	<line x1="2232.95" y1="1610.29" x2="2242.10" y2="1620.31" stroke-linecap="round" style="stroke:#90353B;stroke-width:8.64"/>
	<line x1="2242.10" y1="1620.31" x2="2251.38" y2="1629.96" stroke-linecap="round" style="stroke:#90353B;stroke-width:8.64"/>
	<line x1="2251.38" y1="1629.96" x2="2260.54" y2="1639.49" stroke-linecap="round" style="stroke:#90353B;stroke-width:8.64"/>
	<line x1="2260.54" y1="1639.49" x2="2269.70" y2="1648.77" stroke-linecap="round" style="stroke:#90353B;stroke-width:8.64"/>
	<line x1="2269.70" y1="1648.77" x2="2278.98" y2="1657.81" stroke-linecap="round" style="stroke:#90353B;stroke-width:8.64"/>
	<line x1="2278.98" y1="1657.81" x2="2288.14" y2="1666.72" stroke-linecap="round" style="stroke:#90353B;stroke-width:8.64"/>
	<line x1="2288.14" y1="1666.72" x2="2297.42" y2="1675.38" stroke-linecap="round" style="stroke:#90353B;stroke-width:8.64"/>
	<line x1="2297.42" y1="1675.38" x2="2306.58" y2="1683.80" stroke-linecap="round" style="stroke:#90353B;stroke-width:8.64"/>
	<line x1="2306.58" y1="1683.80" x2="2315.73" y2="1691.96" stroke-linecap="round" style="stroke:#90353B;stroke-width:8.64"/>
	<line x1="2315.73" y1="1691.96" x2="2325.01" y2="1700.01" stroke-linecap="round" style="stroke:#90353B;stroke-width:8.64"/>
	<line x1="2325.01" y1="1700.01" x2="2334.17" y2="1707.68" stroke-linecap="round" style="stroke:#90353B;stroke-width:8.64"/>
	<line x1="2334.17" y1="1707.68" x2="2343.45" y2="1715.35" stroke-linecap="round" style="stroke:#90353B;stroke-width:8.64"/>
	<line x1="2343.45" y1="1715.35" x2="2352.61" y2="1722.65" stroke-linecap="round" style="stroke:#90353B;stroke-width:8.64"/>
	<line x1="2352.61" y1="1722.65" x2="2361.77" y2="1729.83" stroke-linecap="round" style="stroke:#90353B;stroke-width:8.64"/>
	<line x1="2361.77" y1="1729.83" x2="2371.05" y2="1736.76" stroke-linecap="round" style="stroke:#90353B;stroke-width:8.64"/>
	<line x1="2371.05" y1="1736.76" x2="2380.21" y2="1743.57" stroke-linecap="round" style="stroke:#90353B;stroke-width:8.64"/>
	<line x1="2380.21" y1="1743.57" x2="2389.49" y2="1750.13" stroke-linecap="round" style="stroke:#90353B;stroke-width:8.64"/>
	<line x1="2389.49" y1="1750.13" x2="2398.65" y2="1756.56" stroke-linecap="round" style="stroke:#90353B;stroke-width:8.64"/>
	<line x1="2398.65" y1="1756.56" x2="2407.80" y2="1762.75" stroke-linecap="round" style="stroke:#90353B;stroke-width:8.64"/>
	<line x1="2407.80" y1="1762.75" x2="2417.09" y2="1768.69" stroke-linecap="round" style="stroke:#90353B;stroke-width:8.64"/>
	<line x1="2417.09" y1="1768.69" x2="2426.24" y2="1774.51" stroke-linecap="round" style="stroke:#90353B;stroke-width:8.64"/>
	<line x1="2426.24" y1="1774.51" x2="2435.52" y2="1780.20" stroke-linecap="round" style="stroke:#90353B;stroke-width:8.64"/>
	<line x1="2435.52" y1="1780.20" x2="2444.68" y2="1785.64" stroke-linecap="round" style="stroke:#90353B;stroke-width:8.64"/>
	<line x1="2444.68" y1="1785.64" x2="2453.84" y2="1790.97" stroke-linecap="round" style="stroke:#90353B;stroke-width:8.64"/>
	<line x1="2453.84" y1="1790.97" x2="2463.12" y2="1796.04" stroke-linecap="round" style="stroke:#90353B;stroke-width:8.64"/>
	<line x1="2463.12" y1="1796.04" x2="2472.28" y2="1800.99" stroke-linecap="round" style="stroke:#90353B;stroke-width:8.64"/>
	<line x1="2472.28" y1="1800.99" x2="2481.43" y2="1805.82" stroke-linecap="round" style="stroke:#90353B;stroke-width:8.64"/>
	<line x1="2481.43" y1="1805.82" x2="2490.72" y2="1810.40" stroke-linecap="round" style="stroke:#90353B;stroke-width:8.64"/>
	<line x1="2490.72" y1="1810.40" x2="2499.87" y2="1814.85" stroke-linecap="round" style="stroke:#90353B;stroke-width:8.64"/>
	<line x1="2499.87" y1="1814.85" x2="2509.16" y2="1819.18" stroke-linecap="round" style="stroke:#90353B;stroke-width:8.64"/>
	<line x1="2509.16" y1="1819.18" x2="2518.31" y2="1823.27" stroke-linecap="round" style="stroke:#90353B;stroke-width:8.64"/>
	<line x1="2518.31" y1="1823.27" x2="2527.47" y2="1827.35" stroke-linecap="round" style="stroke:#90353B;stroke-width:8.64"/>
	<line x1="2527.47" y1="1827.35" x2="2536.75" y2="1831.19" stroke-linecap="round" style="stroke:#90353B;stroke-width:8.64"/>
	<line x1="2536.75" y1="1831.19" x2="2545.91" y2="1834.90" stroke-linecap="round" style="stroke:#90353B;stroke-width:8.64"/>
	<line x1="2545.91" y1="1834.90" x2="2555.19" y2="1838.49" stroke-linecap="round" style="stroke:#90353B;stroke-width:8.64"/>
	<line x1="2555.19" y1="1838.49" x2="2564.35" y2="1841.95" stroke-linecap="round" style="stroke:#90353B;stroke-width:8.64"/>
	<line x1="2564.35" y1="1841.95" x2="2573.51" y2="1845.29" stroke-linecap="round" style="stroke:#90353B;stroke-width:8.64"/>
	<line x1="2573.51" y1="1845.29" x2="2582.79" y2="1848.51" stroke-linecap="round" style="stroke:#90353B;stroke-width:8.64"/>
	<line x1="2582.79" y1="1848.51" x2="2591.94" y2="1851.61" stroke-linecap="round" style="stroke:#90353B;stroke-width:8.64"/>
	<line x1="2591.94" y1="1851.61" x2="2601.22" y2="1854.58" stroke-linecap="round" style="stroke:#90353B;stroke-width:8.64"/>
	<line x1="2601.22" y1="1854.58" x2="2610.38" y2="1857.42" stroke-linecap="round" style="stroke:#90353B;stroke-width:8.64"/>
	<line x1="2610.38" y1="1857.42" x2="2619.54" y2="1860.14" stroke-linecap="round" style="stroke:#90353B;stroke-width:8.64"/>
	<line x1="2619.54" y1="1860.14" x2="2628.82" y2="1862.74" stroke-linecap="round" style="stroke:#90353B;stroke-width:8.64"/>
	<line x1="2628.82" y1="1862.74" x2="2637.98" y2="1865.34" stroke-linecap="round" style="stroke:#90353B;stroke-width:8.64"/>
	<line x1="2637.98" y1="1865.34" x2="2647.26" y2="1867.69" stroke-linecap="round" style="stroke:#90353B;stroke-width:8.64"/>
	<line x1="2647.26" y1="1867.69" x2="2656.42" y2="1870.04" stroke-linecap="round" style="stroke:#90353B;stroke-width:8.64"/>
	<line x1="2656.42" y1="1870.04" x2="2665.57" y2="1872.27" stroke-linecap="round" style="stroke:#90353B;stroke-width:8.64"/>
	<line x1="2665.57" y1="1872.27" x2="2674.86" y2="1874.38" stroke-linecap="round" style="stroke:#90353B;stroke-width:8.64"/>
	<line x1="2674.86" y1="1874.38" x2="2684.01" y2="1876.48" stroke-linecap="round" style="stroke:#90353B;stroke-width:8.64"/>
	<line x1="2684.01" y1="1876.48" x2="2693.17" y2="1878.46" stroke-linecap="round" style="stroke:#90353B;stroke-width:8.64"/>
	<line x1="2693.17" y1="1878.46" x2="2702.45" y2="1880.32" stroke-linecap="round" style="stroke:#90353B;stroke-width:8.64"/>
	<line x1="2702.45" y1="1880.32" x2="2711.61" y2="1882.05" stroke-linecap="round" style="stroke:#90353B;stroke-width:8.64"/>
	<line x1="2711.61" y1="1882.05" x2="2720.89" y2="1883.78" stroke-linecap="round" style="stroke:#90353B;stroke-width:8.64"/>
	<line x1="2720.89" y1="1883.78" x2="2730.05" y2="1885.39" stroke-linecap="round" style="stroke:#90353B;stroke-width:8.64"/>
	<line x1="2730.05" y1="1885.39" x2="2739.21" y2="1887.00" stroke-linecap="round" style="stroke:#90353B;stroke-width:8.64"/>
	<line x1="2739.21" y1="1887.00" x2="2748.49" y2="1888.48" stroke-linecap="round" style="stroke:#90353B;stroke-width:8.64"/>
	<line x1="2748.49" y1="1888.48" x2="2757.65" y2="1889.85" stroke-linecap="round" style="stroke:#90353B;stroke-width:8.64"/>
	<line x1="2757.65" y1="1889.85" x2="2766.93" y2="1891.21" stroke-linecap="round" style="stroke:#90353B;stroke-width:8.64"/>
	<line x1="2766.93" y1="1891.21" x2="2776.08" y2="1892.57" stroke-linecap="round" style="stroke:#90353B;stroke-width:8.64"/>
	<line x1="2776.08" y1="1892.57" x2="2785.24" y2="1893.81" stroke-linecap="round" style="stroke:#90353B;stroke-width:8.64"/>
	<line x1="2785.24" y1="1893.81" x2="2794.52" y2="1894.92" stroke-linecap="round" style="stroke:#90353B;stroke-width:8.64"/>
	<line x1="2794.52" y1="1894.92" x2="2803.68" y2="1896.03" stroke-linecap="round" style="stroke:#90353B;stroke-width:8.64"/>
	<line x1="2803.68" y1="1896.03" x2="2812.96" y2="1897.15" stroke-linecap="round" style="stroke:#90353B;stroke-width:8.64"/>
	<line x1="2812.96" y1="1897.15" x2="2822.12" y2="1898.14" stroke-linecap="round" style="stroke:#90353B;stroke-width:8.64"/>
	<line x1="2822.12" y1="1898.14" x2="2831.28" y2="1899.13" stroke-linecap="round" style="stroke:#90353B;stroke-width:8.64"/>
	<line x1="2831.28" y1="1899.13" x2="2840.56" y2="1900.12" stroke-linecap="round" style="stroke:#90353B;stroke-width:8.64"/>
	<line x1="2840.56" y1="1900.12" x2="2849.72" y2="1900.98" stroke-linecap="round" style="stroke:#90353B;stroke-width:8.64"/>
	<line x1="2849.72" y1="1900.98" x2="2859.00" y2="1901.73" stroke-linecap="round" style="stroke:#90353B;stroke-width:8.64"/>
	<line x1="2859.00" y1="1901.73" x2="2868.15" y2="1902.59" stroke-linecap="round" style="stroke:#90353B;stroke-width:8.64"/>
	<line x1="2868.15" y1="1902.59" x2="2877.31" y2="1903.33" stroke-linecap="round" style="stroke:#90353B;stroke-width:8.64"/>
	<line x1="2877.31" y1="1903.33" x2="2886.59" y2="1904.08" stroke-linecap="round" style="stroke:#90353B;stroke-width:8.64"/>
	<line x1="2886.59" y1="1904.08" x2="2895.75" y2="1904.70" stroke-linecap="round" style="stroke:#90353B;stroke-width:8.64"/>
	<line x1="2895.75" y1="1904.70" x2="2904.91" y2="1905.31" stroke-linecap="round" style="stroke:#90353B;stroke-width:8.64"/>
	<line x1="2904.91" y1="1905.31" x2="2914.19" y2="1905.93" stroke-linecap="round" style="stroke:#90353B;stroke-width:8.64"/>
	<line x1="2914.19" y1="1905.93" x2="2923.35" y2="1906.55" stroke-linecap="round" style="stroke:#90353B;stroke-width:8.64"/>
	<line x1="2923.35" y1="1906.55" x2="2932.63" y2="1907.05" stroke-linecap="round" style="stroke:#90353B;stroke-width:8.64"/>
	<line x1="2932.63" y1="1907.05" x2="2941.78" y2="1907.54" stroke-linecap="round" style="stroke:#90353B;stroke-width:8.64"/>
	<line x1="2941.78" y1="1907.54" x2="2950.94" y2="1908.04" stroke-linecap="round" style="stroke:#90353B;stroke-width:8.64"/>
	<line x1="2950.94" y1="1908.04" x2="2960.22" y2="1908.53" stroke-linecap="round" style="stroke:#90353B;stroke-width:8.64"/>
	<line x1="2960.22" y1="1908.53" x2="2969.38" y2="1909.03" stroke-linecap="round" style="stroke:#90353B;stroke-width:8.64"/>
	<line x1="2969.38" y1="1909.03" x2="2978.66" y2="1909.40" stroke-linecap="round" style="stroke:#90353B;stroke-width:8.64"/>
	<line x1="2978.66" y1="1909.40" x2="2987.82" y2="1909.77" stroke-linecap="round" style="stroke:#90353B;stroke-width:8.64"/>
	<line x1="2987.82" y1="1909.77" x2="2996.98" y2="1910.14" stroke-linecap="round" style="stroke:#90353B;stroke-width:8.64"/>
	<line x1="2996.98" y1="1910.14" x2="3006.26" y2="1910.51" stroke-linecap="round" style="stroke:#90353B;stroke-width:8.64"/>
	<line x1="3006.26" y1="1910.51" x2="3015.42" y2="1910.88" stroke-linecap="round" style="stroke:#90353B;stroke-width:8.64"/>
	<line x1="3015.42" y1="1910.88" x2="3024.70" y2="1911.13" stroke-linecap="round" style="stroke:#90353B;stroke-width:8.64"/>
	<line x1="3024.70" y1="1911.13" x2="3033.86" y2="1911.38" stroke-linecap="round" style="stroke:#90353B;stroke-width:8.64"/>
	<line x1="3033.86" y1="1911.38" x2="3043.01" y2="1911.75" stroke-linecap="round" style="stroke:#90353B;stroke-width:8.64"/>
	<line x1="3043.01" y1="1911.75" x2="3052.29" y2="1912.00" stroke-linecap="round" style="stroke:#90353B;stroke-width:8.64"/>
	<line x1="3052.29" y1="1912.00" x2="3061.45" y2="1912.24" stroke-linecap="round" style="stroke:#90353B;stroke-width:8.64"/>
	<line x1="3061.45" y1="1912.24" x2="3070.73" y2="1912.49" stroke-linecap="round" style="stroke:#90353B;stroke-width:8.64"/>
	<line x1="3070.73" y1="1912.49" x2="3079.89" y2="1912.62" stroke-linecap="round" style="stroke:#90353B;stroke-width:8.64"/>
	<line x1="3079.89" y1="1912.62" x2="3089.05" y2="1912.86" stroke-linecap="round" style="stroke:#90353B;stroke-width:8.64"/>
	<line x1="3089.05" y1="1912.86" x2="3098.33" y2="1913.11" stroke-linecap="round" style="stroke:#90353B;stroke-width:8.64"/>
	<line x1="3098.33" y1="1913.11" x2="3107.49" y2="1913.23" stroke-linecap="round" style="stroke:#90353B;stroke-width:8.64"/>
	<line x1="3107.49" y1="1913.23" x2="3116.64" y2="1913.36" stroke-linecap="round" style="stroke:#90353B;stroke-width:8.64"/>
	<line x1="3116.64" y1="1913.36" x2="3125.93" y2="1913.61" stroke-linecap="round" style="stroke:#90353B;stroke-width:8.64"/>
	<line x1="3125.93" y1="1913.61" x2="3135.08" y2="1913.73" stroke-linecap="round" style="stroke:#90353B;stroke-width:8.64"/>
	<line x1="3135.08" y1="1913.73" x2="3144.36" y2="1913.85" stroke-linecap="round" style="stroke:#90353B;stroke-width:8.64"/>
	<line x1="3144.36" y1="1913.85" x2="3153.52" y2="1913.98" stroke-linecap="round" style="stroke:#90353B;stroke-width:8.64"/>
	<line x1="3153.52" y1="1913.98" x2="3162.68" y2="1914.10" stroke-linecap="round" style="stroke:#90353B;stroke-width:8.64"/>
	<line x1="3162.68" y1="1914.10" x2="3171.96" y2="1914.22" stroke-linecap="round" style="stroke:#90353B;stroke-width:8.64"/>
	<line x1="3171.96" y1="1914.22" x2="3181.12" y2="1914.35" stroke-linecap="round" style="stroke:#90353B;stroke-width:8.64"/>
	<line x1="3181.12" y1="1914.35" x2="3190.40" y2="1914.47" stroke-linecap="round" style="stroke:#90353B;stroke-width:8.64"/>
	<line x1="3190.40" y1="1914.47" x2="3199.56" y2="1914.60" stroke-linecap="round" style="stroke:#90353B;stroke-width:8.64"/>
	<line x1="3199.56" y1="1914.60" x2="3208.71" y2="1914.60" stroke-linecap="round" style="stroke:#90353B;stroke-width:8.64"/>
	<line x1="390.80" y1="1979.20" x2="390.80" y2="275.35" style="stroke:#000000;stroke-width:5.76"/>
	<line x1="390.80" y1="1915.83" x2="350.83" y2="1915.83" style="stroke:#000000;stroke-width:5.76"/>
	<text x="300.72" y="1915.83" style="font-family:'Helvetica';font-size:99.99px;fill:#000000" transform="rotate(-90 300.72,1915.83)" text-anchor="middle">0</text>
	<line x1="390.80" y1="1521.55" x2="350.83" y2="1521.55" style="stroke:#000000;stroke-width:5.76"/>
	<text x="300.72" y="1521.55" style="font-family:'Helvetica';font-size:99.99px;fill:#000000" transform="rotate(-90 300.72,1521.55)" text-anchor="middle">.02</text>
	<line x1="390.80" y1="1127.27" x2="350.83" y2="1127.27" style="stroke:#000000;stroke-width:5.76"/>
	<text x="300.72" y="1127.27" style="font-family:'Helvetica';font-size:99.99px;fill:#000000" transform="rotate(-90 300.72,1127.27)" text-anchor="middle">.04</text>
	<line x1="390.80" y1="732.99" x2="350.83" y2="732.99" style="stroke:#000000;stroke-width:5.76"/>
	<text x="300.72" y="732.99" style="font-family:'Helvetica';font-size:99.99px;fill:#000000" transform="rotate(-90 300.72,732.99)" text-anchor="middle">.06</text>
	<line x1="390.80" y1="338.71" x2="350.83" y2="338.71" style="stroke:#000000;stroke-width:5.76"/>
	<text x="300.72" y="338.71" style="font-family:'Helvetica';font-size:99.99px;fill:#000000" transform="rotate(-90 300.72,338.71)" text-anchor="middle">.08</text>
	<text x="190.71" y="1127.27" style="font-family:'Helvetica';font-size:99.99px;fill:#000000" transform="rotate(-90 190.71,1127.27)" text-anchor="middle">Density</text>
	<line x1="390.80" y1="1979.20" x2="3859.02" y2="1979.20" style="stroke:#000000;stroke-width:5.76"/>
	<line x1="454.16" y1="1979.20" x2="454.16" y2="2019.17" style="stroke:#000000;stroke-width:5.76"/>
	<text x="454.16" y="2109.03" style="font-family:'Helvetica';font-size:99.99px;fill:#000000" text-anchor="middle">10</text>
	<line x1="1289.47" y1="1979.20" x2="1289.47" y2="2019.17" style="stroke:#000000;stroke-width:5.76"/>
	<text x="1289.47" y="2109.03" style="font-family:'Helvetica';font-size:99.99px;fill:#000000" text-anchor="middle">20</text>
	<line x1="2124.91" y1="1979.20" x2="2124.91" y2="2019.17" style="stroke:#000000;stroke-width:5.76"/>
	<text x="2124.91" y="2109.03" style="font-family:'Helvetica';font-size:99.99px;fill:#000000" text-anchor="middle">30</text>
	<line x1="2960.35" y1="1979.20" x2="2960.35" y2="2019.17" style="stroke:#000000;stroke-width:5.76"/>
	<text x="2960.35" y="2109.03" style="font-family:'Helvetica';font-size:99.99px;fill:#000000" text-anchor="middle">40</text>
	<line x1="3795.66" y1="1979.20" x2="3795.66" y2="2019.17" style="stroke:#000000;stroke-width:5.76"/>
	<text x="3795.66" y="2109.03" style="font-family:'Helvetica';font-size:99.99px;fill:#000000" text-anchor="middle">50</text>
	<text x="2124.91" y="2219.04" style="font-family:'Helvetica';font-size:99.99px;fill:#000000" text-anchor="middle">Mileage (mpg)</text>
	<rect x="1326.48" y="2303.68" width="1596.99" height="326.46" style="fill:#FFFFFF"/>
	<rect x="1329.36" y="2306.56" width="1591.23" height="320.70" style="fill:none;stroke:#000000;stroke-width:5.76"/>
	<line x1="1369.67" y1="2396.86" x2="1744.01" y2="2396.86" style="stroke:#1A476F;stroke-width:8.64"/>
	<line x1="1369.67" y1="2536.95" x2="1744.01" y2="2536.95" style="stroke:#90353B;stroke-width:8.64"/>
	<text x="1804.03" y="2431.89" style="font-family:'Helvetica';font-size:99.99px;fill:#000000">Kernel density estimate</text>
	<text x="1804.03" y="2571.98" style="font-family:'Helvetica';font-size:99.99px;fill:#000000">Normal density</text>
	<text x="408.00" y="2737.89" style="font-family:'Helvetica';font-size:79.94px;fill:#000000">kernel = epanechnikov, bandwidth = 1.9746</text>
	<text x="2124.91" y="215.98" style="font-family:'Helvetica';font-size:139.96px;fill:#1E2D53" text-anchor="middle">Kernel density estimate</text>
</svg>
